<svg width="116" height="100" viewBox="0 0 116 100" fill="none" xmlns="http://www.w3.org/2000/svg">
<path d="M58.2623 93C55.6506 92.9916 53.0664 92.4643 50.6596 91.4488C48.2527 90.4332 46.071 88.9495 44.2408 87.0837C42.1135 84.9544 39.9084 82.6664 37.6245 80.3794C36.6009 79.3331 36.0342 77.9225 36.0492 76.4579C36.0566 75.7326 36.2066 75.016 36.4906 74.3488C36.7746 73.6816 37.187 73.077 37.7043 72.5695C38.2217 72.0619 38.8338 71.6614 39.5057 71.3907C40.1776 71.12 40.8962 70.9845 41.6204 70.9919C43.0831 71.0069 44.4798 71.6031 45.5035 72.6494C47.7874 75.0153 50.0723 77.2245 52.1986 79.4326C53.0123 80.2571 53.9813 80.9118 55.0495 81.3586C56.1177 81.8054 57.2638 82.0354 58.4214 82.0354C59.5791 82.0354 60.7252 81.8054 61.7934 81.3586C62.8616 80.9118 63.8306 80.2571 64.6443 79.4326C69.211 74.6977 74.5677 69.2578 79.688 63.9757C84.0204 59.4795 88.2741 55.1411 91.661 51.6706C93.7923 49.4791 95.3802 46.8172 96.2969 43.8991C97.2136 40.9809 97.4335 37.8881 96.9389 34.8694C95.8358 28.6375 92.6065 20.9105 83.075 19.0149C80.0729 18.4417 76.9868 18.4744 73.9975 19.111C71.0082 19.7476 68.1759 20.9753 65.6665 22.7221C65.517 22.8023 65.3835 22.9092 65.2726 23.0377L63.9332 23.59C62.0738 24.7843 59.8964 25.3859 57.6885 25.3154C55.4806 25.245 53.346 24.5059 51.5662 23.1955L50.4632 22.4025C50.3844 22.3236 50.3056 22.2447 50.2268 22.2447C50.2268 22.2447 43.6105 16.9596 35.5801 18.3797C27.6243 19.7958 22.5828 24.1383 20.1414 31.7893C17.6999 39.4404 19.2747 45.9879 24.8677 51.8244C25.8811 52.8815 26.4335 54.2984 26.4036 55.7634C26.3737 57.2284 25.7638 58.6215 24.7081 59.6363C23.6525 60.651 22.2375 61.2042 20.7745 61.1743C19.3115 61.1443 17.9203 60.5336 16.9069 59.4765C8.47849 50.563 5.95824 39.8349 9.66033 28.3188C13.3624 16.8028 21.6333 9.54517 33.6851 7.41593C46.1308 5.20679 55.7411 12.4644 57.1593 13.569L58.1048 14.277L58.9714 13.7247C62.7196 11.0852 66.9571 9.22306 71.4347 8.24801C75.9123 7.27295 80.5394 7.20465 85.0437 8.04712C97.0167 10.413 105.288 19.4843 107.569 32.815C108.376 37.5607 108.046 42.4302 106.609 47.0238C105.171 51.6173 102.666 55.8039 99.2985 59.2398C95.9116 62.7103 91.7368 67.0486 87.3256 71.5448C82.2052 76.83 76.8486 82.2729 72.2808 87.0048C70.4643 88.8933 68.2873 90.3972 65.8792 91.4271C63.4711 92.457 60.8809 92.9919 58.2623 93Z" fill="#FC5BB3"/>
<path d="M62.5678 73H62.4091C61.7691 72.978 61.1532 72.748 60.6531 72.3441C60.153 71.9402 59.7955 71.384 59.6338 70.7583L52.6542 46.4142L48.213 62.109C48.0249 62.765 47.6276 63.34 47.0827 63.7446C46.5378 64.1492 45.8759 64.3608 45.1997 64.3465H36V58.1052H42.8199L49.5605 34.2417C49.7414 33.5964 50.1259 33.0283 50.6556 32.6237C51.1853 32.2191 51.8313 32.0001 52.4955 32C53.1657 32.0133 53.8153 32.236 54.3549 32.6374C54.8945 33.0389 55.2977 33.5993 55.5089 34.2417L62.9634 60.427L67.0873 50.2609C67.3129 49.6853 67.7071 49.1929 68.2172 48.8494C68.7272 48.5059 69.3289 48.3277 69.9419 48.3386C70.5619 48.3441 71.1659 48.5381 71.6751 48.8953C72.1843 49.2525 72.5751 49.7563 72.7966 50.341L76.4445 59.3097H100V65.5562H74.3841C73.7641 65.5507 73.1602 65.3567 72.651 64.9995C72.1418 64.6423 71.7509 64.1385 71.5294 63.5538L70.0223 59.7102L65.4224 71.0058C65.1905 71.5827 64.7968 72.0786 64.2897 72.4328C63.7826 72.7871 63.1842 72.9842 62.5678 73Z" fill="#F4F4F4"/>
</svg>
