<svg width="116" height="100" viewBox="0 0 116 100" fill="none" xmlns="http://www.w3.org/2000/svg">
<path d="M110.999 49.5839C110.993 45.3641 110.168 41.1866 108.571 37.2889C106.177 31.5692 102.174 26.6899 97.0596 23.2597C91.9456 19.8295 85.9476 18.0002 79.8137 18H36.1853C32.0897 17.9992 28.0341 18.8155 24.2502 20.4025C20.4663 21.9894 17.0281 24.3158 14.1321 27.2488C11.2361 30.1818 8.93906 33.6639 7.37215 37.4963C5.80523 41.3286 4.99917 45.436 5 49.5839V63.6465C4.99917 67.7642 5.79935 71.8416 7.35483 75.646C8.91031 79.4503 11.1906 82.9071 14.0655 85.8187C16.9403 88.7303 20.3534 91.0397 24.1097 92.6151C27.8661 94.1904 31.8921 95.0008 35.9577 95C37.4067 95 38.7962 94.4171 39.8208 93.3794C40.8453 92.3418 41.4209 90.9344 41.4209 89.467C41.4209 87.9996 40.8453 86.5922 39.8208 85.5546C38.7962 84.5169 37.4067 83.934 35.9577 83.934C32.6241 83.94 29.3422 83.099 26.4126 81.488C23.4829 79.877 20.9991 77.5474 19.1885 74.7125C17.113 71.4328 16.0074 67.62 16.0022 63.7244V49.5839C16.0141 44.1459 18.1524 38.9342 21.9491 35.0889C25.7458 31.2437 30.8918 29.0781 36.2611 29.066H79.8927C83.8744 29.068 87.7675 30.2568 91.0866 32.4843C94.4058 34.7119 97.0042 37.8795 98.5579 41.5924C99.6162 44.1204 100.158 46.8392 100.152 49.585V63.6465C100.145 69.0051 98.0404 74.1423 94.2989 77.9312C90.5575 81.7201 85.4849 83.8513 80.1939 83.8572H60.6165C59.1676 83.8572 57.778 84.4401 56.7535 85.4778C55.7289 86.5154 55.1533 87.9228 55.1533 89.3902C55.1533 90.8576 55.7289 92.265 56.7535 93.3026C57.778 94.3403 59.1676 94.9232 60.6165 94.9232H80.0422C88.2501 94.9144 96.1193 91.6083 101.923 85.7303C107.727 79.8523 110.991 71.8825 111 63.5697V63.5697L110.999 49.5839Z" fill="#FC5BB3"/>
<path d="M70.0899 25H78C78 19.6957 75.8929 14.6086 72.1421 10.8579C68.3914 7.10714 63.3043 5 58 5C52.6957 5 47.6086 7.10714 43.8579 10.8579C40.1071 14.6086 38 19.6957 38 25H45.8337C45.8002 23.3861 46.0891 21.7818 46.6836 20.281C47.278 18.7802 48.166 17.4132 49.2955 16.26C50.4251 15.1067 51.7734 14.1906 53.2615 13.5651C54.7496 12.9396 56.3476 12.6174 57.9618 12.6174C59.5761 12.6174 61.174 12.9396 62.6622 13.5651C64.1503 14.1906 65.4986 15.1067 66.6281 16.26C67.7576 17.4132 68.6456 18.7802 69.2401 20.281C69.8345 21.7818 70.1234 23.3861 70.0899 25Z" fill="#F4F4F4"/>
<path d="M55 45H62V55H72V62H62V72H55V62H45V55H55V45Z" fill="#F4F4F4"/>
</svg>
