<svg width="116" height="100" viewBox="0 0 116 100" fill="none" xmlns="http://www.w3.org/2000/svg">
<path fill-rule="evenodd" clip-rule="evenodd" d="M76.337 43.1244C77.4743 41.981 78.7238 40.9622 80.0641 40.0825L77.9034 35.9052L58.757 60.8264C58.4273 61.217 58.0132 61.5267 57.5464 61.7321C57.0796 61.9374 56.5723 62.033 56.0632 62.0114L56.064 62.0105L46.3093 61.8541C46.0596 63.9938 45.5153 66.1 44.6828 68.1104C42.9193 72.3688 39.9412 76.0069 36.124 78.5661C32.3068 81.1252 27.8214 82.4909 23.2332 82.4908C18.4236 82.4662 13.7319 80.9922 9.76409 78.2593C6.74491 76.0386 4.28788 73.1348 2.59166 69.7826C0.895437 66.4305 0.00762296 62.7241 0 58.9631C0.0332268 54.3506 1.42409 49.8512 3.99724 46.0322C6.57039 42.2132 10.2106 39.2456 14.4589 37.5036C18.7073 35.7616 23.3735 35.3231 27.8694 36.2435C32.3653 37.1639 36.4894 39.4019 39.7219 42.6753C42.9544 45.9488 45.1505 50.1112 46.0334 54.6376C46.0742 54.847 46.1121 55.0567 46.1472 55.2667L50.9039 55.3473L45.7847 36.7904H40.0692C39.6321 36.8001 39.1977 36.7179 38.794 36.549C38.3903 36.38 38.0262 36.1281 37.725 35.8094C37.4238 35.4907 37.1923 35.1122 37.0451 34.6982C36.898 34.2843 36.8386 33.8439 36.8706 33.4055C36.8731 32.5084 37.2285 31.6488 37.8594 31.0144C38.4903 30.38 39.3452 30.0224 40.2375 30.0197H53.7067C54.1438 30.01 54.5782 30.0922 54.9819 30.2612C55.3856 30.4301 55.7497 30.682 56.0509 31.0007C56.3521 31.3194 56.5836 31.6979 56.7308 32.1119C56.8779 32.5259 56.9373 32.9662 56.9053 33.4047C56.9026 34.3016 56.547 35.161 55.9162 35.7952C55.2854 36.4294 54.4305 36.7869 53.5384 36.7896L53.5376 36.7904H52.6557L56.9599 52.2766L74.548 29.4181L72.058 24.6041H62.9669C62.5298 24.6139 62.0954 24.5316 61.6917 24.3627C61.288 24.1938 60.9239 23.9419 60.6227 23.6231C60.3216 23.3044 60.09 22.9259 59.9428 22.5119C59.7957 22.098 59.7363 21.6576 59.7683 21.2192C59.773 20.7838 59.8646 20.3538 60.0376 19.9546C60.2105 19.5555 60.4614 19.1952 60.7754 18.8953C61.0893 18.5954 61.4599 18.3618 61.8653 18.2085C62.2706 18.0551 62.7025 17.9851 63.1352 18.0026H74.2437C74.8492 17.9993 75.4425 18.1737 75.9509 18.5043C76.4593 18.835 76.8606 19.3076 77.1058 19.8642L86.1635 37.2458C88.3027 36.6085 90.5261 36.2829 92.7656 36.2829H92.9331C99.0914 36.3401 104.976 38.8479 109.299 43.2575C113.623 47.6671 116.032 53.6192 116 59.8106C115.99 62.871 115.375 65.8988 114.19 68.7177C113.005 71.5365 111.274 74.09 109.097 76.2294C104.719 80.5093 98.8718 82.9334 92.7656 83C89.7146 83 86.6933 82.395 83.8745 81.2211C81.0557 80.0473 78.4944 78.3267 76.337 76.1577C74.1795 73.9887 72.4681 71.4137 71.3005 68.5798C70.1329 65.7459 69.532 62.7085 69.532 59.6411C69.532 56.5736 70.1329 53.5362 71.3005 50.7023C72.4681 47.8684 74.1795 45.2934 76.337 43.1244ZM92.43 60.3181C91.8245 60.3214 91.2312 60.1471 90.7228 59.8164C90.2144 59.4857 89.8131 59.0131 89.5679 58.4565L83.0923 45.937C80.554 47.7414 78.5695 50.2307 77.3712 53.1221C76.1069 56.1728 75.775 59.533 76.4178 62.7742C77.0607 66.0153 78.6492 68.9905 80.9808 71.3203C83.3118 73.6635 86.2816 75.2591 89.5147 75.9055C92.7477 76.5519 96.0988 76.22 99.1442 74.9517C102.19 73.6835 104.793 71.5359 106.624 68.7804C108.456 66.025 109.433 62.7855 109.433 59.4715C109.439 57.2702 109.01 55.0897 108.172 53.056C107.334 51.0223 106.104 49.1759 104.551 47.6235C101.389 44.5577 97.1595 42.8568 92.7665 42.8844C91.5906 42.8759 90.4225 42.9934 89.2826 43.2313L95.6286 55.4091C96.0234 56.1736 96.1034 57.0634 95.8514 57.8867C95.5995 58.71 95.0357 59.4007 94.2817 59.8098C93.7017 60.0942 93.0734 60.2656 92.43 60.3148V60.3181ZM39.4008 55.1524C39.2106 54.3919 38.9669 53.6441 38.6707 52.9149C37.8475 50.888 36.6352 49.0439 35.1031 47.4879C33.571 45.9319 31.749 44.6946 29.7413 43.8466C27.7335 42.9985 25.5792 42.5563 23.4015 42.5453C19.0104 42.5461 14.7969 44.2887 11.6762 47.3946C8.55556 50.5004 6.77978 54.7187 6.73458 59.1331C6.69007 61.8104 7.29543 64.4582 8.49824 66.8472C9.70105 69.2363 11.465 71.2945 13.6374 72.8436C16.4352 74.8543 19.7952 75.9201 23.2341 75.8893C25.4118 75.9004 27.5704 75.4801 29.5866 74.6525C31.6028 73.8248 33.437 72.606 34.9847 71.0657C36.5324 69.5254 37.7631 67.6937 38.6067 65.6752C39.1339 64.4136 39.5033 63.0946 39.709 61.7482L24.581 61.5056C24.1499 61.4945 23.7251 61.3982 23.331 61.2221C22.9368 61.046 22.5811 60.7936 22.284 60.4793C21.9869 60.165 21.7543 59.7949 21.5994 59.3902C21.4446 58.9855 21.3706 58.5541 21.3816 58.1207C21.3926 57.6872 21.4884 57.2602 21.6635 56.864C21.8387 56.4677 22.0897 56.11 22.4024 55.8114C22.715 55.5127 23.0831 55.2788 23.4856 55.1231C23.8882 54.9675 24.3173 54.8931 24.7484 54.9041L39.4008 55.1524Z" fill="#01EFAD"/>
<path d="M22.5114 72C19.113 71.886 15.8958 70.4331 13.555 67.9553C11.2143 65.4774 9.93812 62.1737 10.0023 58.7581C10.0665 55.3426 11.4659 52.0896 13.8981 49.7023C16.3302 47.315 19.5998 45.9851 23 46.0001V46.0001V51.1016C21.9663 51.0973 20.942 51.2986 19.9862 51.694C19.0304 52.0895 18.1619 52.6711 17.431 53.4055C16.7001 54.1398 16.1211 55.0123 15.7275 55.9726C15.334 56.9329 15.1335 57.962 15.1378 59.0005C15.1143 61.0618 15.8854 63.0523 17.2897 64.5553C18.694 66.0583 20.6227 66.9572 22.6718 67.0638L22.5114 72Z" fill="#055DF9"/>
</svg>
