<svg width="116" height="100" viewBox="0 0 116 100" fill="none" xmlns="http://www.w3.org/2000/svg">
<path d="M99 34H17V44H99V34Z" fill="#055DF9"/>
<path d="M40 49H23V59H40V49Z" fill="#055DF9"/>
<path d="M109 33.6621V63.8242C109 65.1984 108.458 66.5163 107.492 67.488C106.526 68.4598 105.217 69.0057 103.851 69.0057C102.486 69.0057 101.176 68.4598 100.211 67.488C99.2453 66.5163 98.7029 65.1984 98.7029 63.8242V33.6621C98.7177 31.4619 97.8661 29.3452 96.3344 27.7751C94.8026 26.2051 92.7155 25.3093 90.5293 25.2838L25.3911 25.2838C24.3067 25.29 23.2343 25.5121 22.2355 25.9372C21.2367 26.3624 20.3314 26.9822 19.5717 27.7609C18.8119 28.5397 18.2128 29.462 17.8088 30.4748C17.4048 31.4876 17.2038 32.5708 17.2176 33.6621L17.2176 66.3377C17.2028 68.538 18.0543 70.6546 19.5861 72.2247C21.1178 73.7947 23.205 74.6905 25.3911 74.716H86.2948C86.9709 74.716 87.6404 74.8501 88.2651 75.1105C88.8897 75.3709 89.4573 75.7525 89.9354 76.2337C90.4135 76.7148 90.7927 77.286 91.0515 77.9147C91.3102 78.5433 91.4434 79.2171 91.4434 79.8975C91.4473 80.5753 91.3162 81.247 91.0579 81.873C90.7995 82.499 90.4191 83.0665 89.9392 83.542C89.4592 84.0176 88.8895 84.3915 88.2635 84.6417C87.6376 84.8919 86.9682 85.0133 86.2948 84.9988H25.3911C20.4955 84.9719 15.8102 82.9924 12.3627 79.4942C8.91511 75.996 6.98663 71.2647 7.00007 66.3377L7.00007 33.6621C6.98637 28.735 8.91474 24.0034 12.3623 20.505C15.8099 17.0066 20.4953 15.0269 25.3911 15H90.5332C95.437 15.0233 100.132 16.9994 103.593 20.4964C107.053 23.9934 108.997 28.7268 109 33.6621V33.6621Z" fill="#01EFAD"/>
</svg>
