<svg width="116" height="100" viewBox="0 0 116 100" fill="none" xmlns="http://www.w3.org/2000/svg">
<path d="M58.1257 94.9838C49.2256 95.0086 40.518 92.3942 33.104 87.4712C25.6901 82.5481 19.9027 75.5375 16.4738 67.3259C13.0449 59.1143 12.1284 50.0704 13.8403 41.338C15.5522 32.6056 19.8155 24.5769 26.0912 18.2671C32.3669 11.9572 40.373 7.64975 49.0972 5.88929C57.8214 4.12883 66.8718 4.99447 75.104 8.37675C83.3361 11.759 90.3802 17.506 95.3456 24.891C100.311 32.276 102.975 40.9673 102.999 49.8658C103.04 58.0564 100.768 66.0923 96.4454 73.0499C96.0647 73.6623 95.5671 74.1937 94.9809 74.6138C94.3948 75.0339 93.7317 75.3345 93.0294 75.4984C92.3271 75.6623 91.5994 75.6862 90.8878 75.5689C90.1762 75.4516 89.4947 75.1953 88.8822 74.8147C88.2697 74.434 87.7382 73.9365 87.318 73.3505C86.8979 72.7644 86.5972 72.1014 86.4333 71.3992C86.2694 70.6971 86.2455 69.9695 86.3628 69.258C86.4801 68.5466 86.7365 67.8652 87.1172 67.2528C90.3361 61.9364 91.9959 55.8226 91.9073 49.6086C91.9062 42.8788 89.9093 36.3004 86.169 30.7052C82.4287 25.1101 77.113 20.7495 70.8941 18.1749C64.6752 15.6002 57.8323 14.9271 51.2308 16.2407C44.6293 17.5542 38.5655 20.7955 33.8064 25.5545C29.0472 30.3136 25.8064 36.3768 24.4936 42.9773C23.1808 49.5779 23.8551 56.4195 26.4312 62.6369C29.0073 68.8544 33.3695 74.1684 38.9661 77.9072C44.5628 81.646 51.1427 83.6416 57.8737 83.6416C60.9388 83.5941 63.9866 83.171 66.9488 82.3818C67.644 82.1832 68.3716 82.1234 69.0899 82.206C69.8082 82.2885 70.5032 82.5117 71.1353 82.8628C71.7674 83.2139 72.324 83.686 72.7736 84.2522C73.2232 84.8184 73.5568 85.4676 73.7554 86.1627C73.954 86.8578 74.0138 87.5852 73.9312 88.3034C73.8487 89.0216 73.6255 89.7165 73.2743 90.3485C72.9232 90.9804 72.451 91.537 71.8847 91.9865C71.3184 92.436 70.6691 92.7695 69.9738 92.9681C66.2006 94.4312 62.1705 95.1168 58.1257 94.9838" fill="#01EFAD"/>
<path d="M71 55.1659C71 49.4787 67.8352 46.6825 59.8015 45.9242C55.9064 45.545 54.9326 44.9763 54.9326 43.7915C54.9326 42.4171 56.9775 42.1801 59.6554 42.1801C62.4307 42.1801 66.9588 42.9384 69.2472 43.981V36.7773C67.4944 35.9716 64.9625 35.2607 62.3333 34.9289V30H53.8614V35.2607C49.1873 36.3981 45.4382 39.1943 45.4382 44.1232C45.4382 49.3839 48.1161 52.7014 56.6854 53.4123C60.6779 53.7441 61.5056 54.4076 61.5056 55.5924C61.5056 57.0142 59.5094 57.2038 56.4906 57.2038C52.3034 57.2038 47.7266 56.2559 45 55.0711V62.3223C47.191 63.4123 50.5993 64.218 53.8614 64.5498V70H62.3333V64.2654C67.6891 63.0806 71 60 71 55.1659Z" fill="#055DF9"/>
</svg>
