<svg width="116" height="100" viewBox="0 0 116 100" fill="none" xmlns="http://www.w3.org/2000/svg">
<path d="M59.293 97C58.1129 96.9979 56.9707 96.5822 56.0648 95.825C48.8224 89.5574 23 60.3746 23 38.1444C23 20.2225 34.0541 6.61154 51.2716 3.57567C66.3364 0.931468 84.825 7.29739 91.2815 24.7258C91.7226 25.9465 91.6613 27.2926 91.111 28.4679C90.5607 29.6433 89.5665 30.5518 88.3471 30.9934C87.1278 31.4349 85.7831 31.3735 84.609 30.8227C83.4348 30.2718 82.5274 29.2765 82.0863 28.0558C77.5861 15.7183 63.988 11.2141 53.0322 13.1724C48.239 14.0541 32.7829 18.3625 32.7829 38.1444C32.7829 45.4895 37.0875 55.8695 44.8151 67.3272C49.121 73.6769 53.9297 79.6698 59.1948 85.2482C63.1198 80.6734 66.8093 75.9014 70.2489 70.9505C77.7817 60.1788 82.3828 51.267 83.26 45.8811C83.3564 45.2445 83.5771 44.6332 83.9094 44.082C84.2418 43.5307 84.6794 43.0505 85.1972 42.6685C85.715 42.2866 86.3029 42.0105 86.9272 41.856C87.5516 41.7016 88.2003 41.6717 88.8362 41.7682C89.4721 41.8646 90.0828 42.0855 90.6334 42.4183C91.184 42.751 91.6638 43.1891 92.0453 43.7074C92.4268 44.2258 92.7026 44.8143 92.8569 45.4393C93.0113 46.0644 93.0411 46.7137 92.9447 47.3503C90.3034 63.998 65.1626 94.7483 61.5432 96.6092C60.8107 96.826 60.0556 96.9571 59.293 97Z" fill="#01EFAD"/>
<path d="M58 50C63.5228 50 68 45.5228 68 40C68 34.4772 63.5228 30 58 30C52.4772 30 48 34.4772 48 40C48 45.5228 52.4772 50 58 50Z" fill="#055DF9"/>
</svg>
