<svg width="116" height="100" viewBox="0 0 116 100" fill="none" xmlns="http://www.w3.org/2000/svg">
<path d="M36.7595 23.5423H48.9364V17.1584H46.0565C44.8949 17.1532 43.7458 16.9261 42.6747 16.4901C41.6037 16.0541 40.6316 15.4177 39.8141 14.6174C38.9965 13.817 38.3496 12.8683 37.91 11.8254C37.4705 10.7826 37.2471 9.66593 37.2525 8.5393C37.2579 7.41267 37.4921 6.2981 37.9416 5.25924C38.3911 4.22038 39.0471 3.27756 39.8723 2.48462C40.6975 1.69168 41.6756 1.06415 42.7508 0.637854C43.8261 0.211558 44.9773 -0.00515355 46.1389 9.30335e-05H69.9984C72.3327 0.00231902 74.5708 0.9026 76.2215 2.5034C77.8723 4.10421 78.8009 6.27478 78.8037 8.53888C78.806 9.66933 78.5742 10.7887 78.1219 11.8306C77.6697 12.8725 77.0062 13.8156 76.171 14.604C75.3582 15.4143 74.3858 16.058 73.3116 16.4968C72.2374 16.9356 71.0833 17.1606 69.9177 17.1584H67.1202V23.5423H79.2971C79.784 23.5403 80.2664 23.6318 80.7166 23.8116C81.1668 23.9914 81.5758 24.2559 81.92 24.5898C82.2643 24.9237 82.537 25.3204 82.7223 25.757C82.9077 26.1937 83.002 26.6616 83 27.1338C82.9975 28.0882 82.614 29.0046 81.9299 29.6907C81.5845 30.0251 81.1736 30.2891 80.7215 30.4672C80.2694 30.6453 79.7851 30.7339 79.2971 30.7278H75.5119V70.6259C75.5253 70.8681 75.4974 71.1108 75.4295 71.3442C75.1103 75.4741 73.2707 79.3549 70.2464 82.2784C67.8444 84.6006 64.8255 86.2311 61.5252 86.9886V96.4088C61.522 97.362 61.1389 98.277 60.456 98.9624C59.9342 99.4605 59.2725 99.7984 58.5538 99.9338C57.8351 100.069 57.0912 99.996 56.4151 99.7235C55.739 99.451 55.1607 98.9912 54.7526 98.4017C54.3444 97.8121 54.1245 97.1189 54.1204 96.4088V87.1459C50.2805 86.4091 46.7947 84.4736 44.1954 81.6349C41.5961 78.7962 40.0261 75.2103 39.7253 71.425C39.6573 71.1915 39.6295 70.9489 39.6429 70.7067V39.5862C39.6354 39.11 39.7256 38.6371 39.9083 38.195C40.091 37.7529 40.3625 37.3505 40.707 37.0112C41.0516 36.6718 41.4623 36.4024 41.9152 36.2184C42.3681 36.0345 42.8542 35.9398 43.3453 35.9398C43.8363 35.9398 44.3224 36.0345 44.7754 36.2184C45.2283 36.4024 45.639 36.6718 45.9835 37.0112C46.3281 37.3505 46.5996 37.7529 46.7823 38.195C46.965 38.6371 47.0552 39.11 47.0477 39.5862V69.9875C47.0729 72.6806 48.1935 75.255 50.1658 77.1507C52.1381 79.0464 54.8024 80.1099 57.5791 80.1099C60.3558 80.1099 63.0201 79.0464 64.9924 77.1507C66.9647 75.255 68.0854 72.6806 68.1105 69.9875V30.7244H63.4174C62.9305 30.7264 62.4481 30.6349 61.9979 30.4551C61.5477 30.2753 61.1387 30.0109 60.7945 29.677C60.4502 29.3431 60.1776 28.9464 59.9922 28.5097C59.8068 28.0731 59.7125 27.6051 59.7145 27.1329V13.487C59.7125 13.0148 59.8068 12.5469 59.9922 12.1103C60.1776 11.6736 60.4502 11.2769 60.7945 10.943C61.1387 10.6091 61.5477 10.3446 61.9979 10.1649C62.4481 9.98509 62.9305 9.89356 63.4174 9.89557H69.9212C70.2922 9.89557 70.648 9.75263 70.9103 9.4982C71.1726 9.24377 71.32 8.8987 71.32 8.53888C71.32 8.17907 71.1726 7.83399 70.9103 7.57956C70.648 7.32513 70.2922 7.1822 69.9212 7.1822H46.0565C45.6855 7.1822 45.3298 7.32513 45.0674 7.57956C44.8051 7.83399 44.6578 8.17907 44.6578 8.53888C44.6578 8.8987 44.8051 9.24377 45.0674 9.4982C45.3298 9.75263 45.6855 9.89557 46.0565 9.89557H52.6384C53.4951 9.88039 54.3295 10.161 54.9926 10.6873C55.6558 11.2135 56.1046 11.9512 56.2588 12.7687C56.3268 13.0022 56.3546 13.2448 56.3412 13.487V27.1329C56.3392 28.0876 55.956 29.0043 55.272 29.6907C54.9266 30.0251 54.5157 30.2891 54.0636 30.4672C53.6115 30.6453 53.1272 30.7339 52.6392 30.7278H36.7595C36.2685 30.7351 35.781 30.6476 35.3252 30.4704C34.8694 30.2932 34.4545 30.0298 34.1046 29.6956C33.7548 29.3615 33.477 28.9631 33.2873 28.5238C33.0977 28.0845 33 27.613 33 27.1367C33 26.6605 33.0977 26.189 33.2873 25.7497C33.477 25.3103 33.7548 24.912 34.1046 24.5778C34.4545 24.2436 34.8694 23.9803 35.3252 23.8031C35.781 23.6259 36.2685 23.5384 36.7595 23.5457V23.5423Z" fill="#01EFAD"/>
<path d="M55 39H71V46H55V39Z" fill="#055DF9"/>
<path d="M55 51H71V58H55V51Z" fill="#055DF9"/>
<path d="M55 63H71V70H55V63Z" fill="#055DF9"/>
</svg>
