<svg width="116" height="100" viewBox="0 0 116 100" fill="none" xmlns="http://www.w3.org/2000/svg">
<path d="M75.2265 92.9997H43.6236C42.3633 92.9997 41.1546 92.5005 40.2634 91.6119C39.3722 90.7233 38.8715 89.5182 38.8715 88.2616C38.8715 87.005 39.3722 85.7998 40.2634 84.9113C41.1546 84.0227 42.3633 83.5235 43.6236 83.5235H75.2265C77.7449 83.516 80.158 82.5153 81.9388 80.7398C83.7195 78.9643 84.7233 76.5583 84.7308 74.0474V25.7176C84.7233 23.2066 83.7195 20.8007 81.9388 19.0252C80.158 17.2497 77.7449 16.2489 75.2265 16.2414H41.0096C38.491 16.2486 36.0777 17.2493 34.2967 19.0248C32.5157 20.8004 31.5118 23.2065 31.5043 25.7176V69.7818C31.5043 71.0384 31.0036 72.2435 30.1124 73.1321C29.2212 74.0207 28.0125 74.5199 26.7521 74.5199C25.4918 74.5199 24.2831 74.0207 23.3919 73.1321C22.5007 72.2435 22 71.0384 22 69.7818V25.7176C22.144 20.7582 24.2002 16.0451 27.7409 12.5588C31.2816 9.07251 36.0341 7.08151 41.0096 7L75.2265 7C80.2023 7.01016 84.9714 8.98545 88.4899 12.4935C92.0083 16.0015 93.9895 20.7565 93.9997 25.7176V74.2821C94.0146 76.7443 93.5392 79.1849 92.6011 81.4626C91.663 83.7402 90.2807 85.8096 88.5345 87.5506C86.7882 89.2917 84.7127 90.6699 82.4283 91.6052C80.1439 92.5406 77.696 93.0146 75.2265 92.9997" fill="#F9B61E"/>
<path d="M56.5742 45L45 34.0283L50.9005 28.0857L56.8009 33.7999L71.7799 21L77 27.3995L56.5742 45Z" fill="#055DF9"/>
<path d="M89 51H45V60H89V51Z" fill="#055DF9"/>
<path d="M45 66H89V75H45V66Z" fill="#055DF9"/>
</svg>
