<svg width="116" height="100" viewBox="0 0 116 100" fill="none" xmlns="http://www.w3.org/2000/svg">
<path d="M34.2704 95C29.4259 94.9965 24.7808 93.0634 21.3551 89.6252C17.9295 86.1869 16.0035 81.5247 16 76.6623V31.5606C16.0035 26.844 17.8161 22.3099 21.0617 18.899C24.3073 15.4882 28.7368 13.4625 33.4309 13.2422V9.63657C33.4309 9.02769 33.5504 8.42477 33.7825 7.86223C34.0147 7.2997 34.355 6.78857 34.7839 6.35802C35.2129 5.92748 35.7221 5.58595 36.2826 5.35294C36.8431 5.11993 37.4438 5 38.0505 5C38.6571 5 39.2578 5.11993 39.8183 5.35294C40.3788 5.58595 40.888 5.92748 41.317 6.35802C41.746 6.78857 42.0862 7.2997 42.3184 7.86223C42.5505 8.42477 42.67 9.02769 42.67 9.63657V13.2198H53.3814V9.63657C53.3994 8.41864 53.8941 7.2567 54.7586 6.4018C55.623 5.5469 56.7879 5.06768 58.0015 5.06768C59.2151 5.06768 60.38 5.5469 61.2445 6.4018C62.109 7.2567 62.6036 8.41864 62.6216 9.63657V13.2198H73.333V9.63657C73.333 8.40715 73.8196 7.22808 74.6858 6.35874C75.5519 5.48941 76.7267 5.00102 77.9516 5.00102C79.1765 5.00102 80.3512 5.48941 81.2174 6.35874C82.0835 7.22808 82.5701 8.40715 82.5701 9.63657V13.2422C87.264 13.463 91.693 15.4889 94.9384 18.8996C98.1837 22.3104 99.9963 26.8443 100 31.5606V73.7131C99.982 74.931 99.4874 76.093 98.6229 76.9479C97.7584 77.8028 96.5935 78.282 95.3799 78.282C94.1663 78.282 93.0014 77.8028 92.137 76.9479C91.2725 76.093 90.7778 74.931 90.7598 73.7131V31.5606C90.7389 29.2896 89.8969 27.1035 88.3905 25.4089C86.8841 23.7142 84.8158 22.6263 82.5701 22.3475V25.2387C82.5701 26.4681 82.0835 27.6472 81.2174 28.5165C80.3512 29.3859 79.1765 29.8743 77.9516 29.8743C76.7267 29.8743 75.5519 29.3859 74.6858 28.5165C73.8196 27.6472 73.333 26.4681 73.333 25.2387V22.2874H62.6216V25.2387C62.6036 26.4566 62.109 27.6186 61.2445 28.4735C60.38 29.3284 59.2151 29.8076 58.0015 29.8076C56.7879 29.8076 55.623 29.3284 54.7586 28.4735C53.8941 27.6186 53.3994 26.4566 53.3814 25.2387V22.2874H42.667V25.2387C42.667 25.8476 42.5475 26.4505 42.3153 27.013C42.0832 27.5756 41.7429 28.0867 41.3139 28.5173C40.885 28.9478 40.3757 29.2893 39.8152 29.5223C39.2548 29.7554 38.6541 29.8753 38.0474 29.8753C37.4408 29.8753 36.8401 29.7554 36.2796 29.5223C35.7191 29.2893 35.2098 28.9478 34.7809 28.5173C34.3519 28.0867 34.0116 27.5756 33.7795 27.013C33.5473 26.4505 33.4278 25.8476 33.4278 25.2387V22.322C31.1402 22.5538 29.0181 23.6246 27.4684 25.3294C25.9186 27.0341 25.0501 29.2529 25.0293 31.5606V76.4507C25.0523 78.9032 26.0332 81.2487 27.7611 82.983C29.489 84.7172 31.8259 85.7017 34.2694 85.7248H77.3219C78.5354 85.7429 79.6931 86.2394 80.5448 87.107C81.3966 87.9747 81.8741 89.1438 81.8741 90.3619C81.8741 91.58 81.3966 92.7491 80.5448 93.6168C79.6931 94.4845 78.5354 94.9809 77.3219 94.999L34.2704 95Z" fill="#F9B61E"/>
<path d="M53 38H63V60H53V38Z" fill="#055DF9"/>
<path d="M53 66H63V75H53V66Z" fill="#055DF9"/>
</svg>
