<svg width="116" height="100" viewBox="0 0 116 100" fill="none" xmlns="http://www.w3.org/2000/svg">
<path d="M105.776 44.1925C88.3632 26.5273 69.3613 19.3221 49.3712 22.886C32.9468 25.7533 19.5466 35.5149 11.1432 43.185C9.28972 44.8788 7.79078 46.9392 6.7368 49.2421C5.68283 51.545 5.09567 54.0425 5.01075 56.584C4.92583 59.1255 5.34491 61.6582 6.24271 64.0294C7.14051 66.4005 8.49841 68.561 10.2345 70.3803C16.8809 77.5199 24.8295 83.258 33.6312 87.2706C34.352 87.5731 35.1229 87.731 35.902 87.7356C37.2108 87.739 38.4806 87.2801 39.4971 86.4364C40.5135 85.5927 41.2144 84.4159 41.4813 83.1046C41.7482 81.7934 41.5647 80.428 40.962 79.2392C40.3592 78.0503 39.374 77.1107 38.1727 76.579C30.748 73.1426 24.0387 68.2762 18.4107 62.2452C17.7464 61.5532 17.2287 60.7284 16.8899 59.8224C16.5511 58.9163 16.3986 57.9485 16.4419 56.9794C16.4786 55.9984 16.7049 55.0346 17.1077 54.1435C17.5104 53.2525 18.0816 52.452 18.7884 51.7881V51.7881C26.0559 45.1254 37.6388 36.6803 51.4176 34.2779C67.543 31.4116 83.1382 37.4573 97.8229 52.4081C98.4126 53.0041 98.8777 53.7166 99.1902 54.5023C99.5026 55.2879 99.6557 56.1304 99.6402 56.9784C99.6421 57.8315 99.4754 58.6761 99.15 59.4615C98.8247 60.247 98.3475 60.9569 97.7471 61.5487C90.2514 68.9854 78.3705 78.283 63.9102 80.4529C62.4157 80.6716 61.0668 81.4873 60.1587 82.7215C59.2506 83.9557 58.8573 85.5078 59.0648 87.0381C59.2547 88.4183 59.9271 89.6813 60.9572 90.593C61.9873 91.5048 63.3055 92.0035 64.6674 91.9969C64.9472 92.0096 65.2274 91.9835 65.5004 91.9194C82.9887 89.363 96.918 78.5155 105.624 69.8379C107.302 68.1608 108.641 66.1617 109.563 63.9548C110.485 61.7479 110.974 59.3766 111 56.9764C111.011 54.5959 110.555 52.2374 109.657 50.0412C108.76 47.845 107.44 45.856 105.776 44.1925V44.1925Z" fill="#F9B61E"/>
<path d="M19.1932 17.1162L14 20.6902L26.5032 39.5019L31.6964 35.9279L19.1932 17.1162Z" fill="#055DF9"/>
<path d="M96.8006 18.5916L84.2974 37.426L89.4968 41L102 22.1656L96.8006 18.5916Z" fill="#055DF9"/>
<path d="M61.1487 8H54.8767V29.8074H61.1487V8Z" fill="#055DF9"/>
<path d="M57.9236 43C55.158 43.0151 52.4588 43.849 50.1666 45.3965C47.8744 46.944 46.0918 49.1357 45.0439 51.6952C43.996 54.2547 43.7296 57.0672 44.2784 59.7779C44.8272 62.4886 46.1665 64.976 48.1275 66.9264C50.0884 68.8767 52.5831 70.2025 55.2967 70.7365C58.0103 71.2706 60.8213 70.9889 63.3751 69.927C65.9288 68.8652 68.1108 67.0708 69.6458 64.7702C71.1808 62.4695 72 59.7658 72 57.0001C71.9835 53.2789 70.4927 49.716 67.8542 47.0918C65.2158 44.4677 61.6448 42.9963 57.9236 43ZM57.8463 59.939C57.265 59.939 56.6968 59.7666 56.2135 59.4437C55.7302 59.1208 55.3536 58.6618 55.1311 58.1248C54.9087 57.5878 54.8505 56.9968 54.9639 56.4268C55.0773 55.8567 55.3572 55.333 55.7682 54.922C56.1792 54.511 56.7028 54.2311 57.2729 54.1177C57.843 54.0043 58.4339 54.0625 58.9709 54.2849C59.5079 54.5074 59.9669 54.8841 60.2898 55.3674C60.6128 55.8506 60.7851 56.4189 60.7851 57.0001C60.7853 57.3861 60.7093 57.7683 60.5617 58.1249C60.414 58.4815 60.1976 58.8056 59.9246 59.0785C59.6517 59.3514 59.3277 59.5679 58.9711 59.7155C58.6145 59.8632 58.2322 59.9391 57.8463 59.939Z" fill="#055DF9"/>
</svg>
