<svg width="116" height="100" viewBox="0 0 116 100" fill="none" xmlns="http://www.w3.org/2000/svg">
<path d="M97.2908 87.8947L72.5213 45.737V14.4739H75.6411C76.2636 14.4801 76.8811 14.3618 77.4574 14.126C78.0337 13.8901 78.5572 13.5414 78.9974 13.1003C79.4376 12.6592 79.7855 12.1346 80.0209 11.5571C80.2563 10.9796 80.3743 10.3608 80.3681 9.73706C80.3743 9.11329 80.2563 8.49454 80.0209 7.91704C79.7855 7.33954 79.4376 6.81489 78.9974 6.37379C78.5572 5.93269 78.0337 5.58401 77.4574 5.34816C76.8811 5.11231 76.2636 4.99403 75.6411 5.00023H67.7943C67.1718 4.99403 66.5543 5.11231 65.978 5.34816C65.4017 5.58401 64.8781 5.93269 64.438 6.37379C63.9978 6.81489 63.6498 7.33954 63.4145 7.91704C63.1791 8.49454 63.0611 9.11329 63.0673 9.73706V47.3475C63.0425 47.5116 63.076 47.6792 63.1618 47.8212C63.1618 48.0106 63.2563 48.1054 63.2563 48.2948C63.2563 48.4843 63.3509 48.5791 63.3509 48.7685C63.4454 48.958 63.4454 49.0527 63.54 49.2422C63.54 49.3369 63.6345 49.4317 63.6345 49.5264L85.0006 85.5263H31.0181L52.2897 49.4317C52.3256 49.3944 52.3527 49.3495 52.3691 49.3003C52.3854 49.2511 52.3906 49.1989 52.3842 49.1475C52.4788 48.958 52.5733 48.8633 52.5733 48.6738C52.6497 48.5283 52.6825 48.3638 52.6678 48.2001C52.6678 48.0106 52.7624 47.9159 52.7624 47.7264C52.7376 47.5623 52.7711 47.3947 52.8569 47.2527V9.73706C52.8631 9.11329 52.7451 8.49454 52.5097 7.91704C52.2743 7.33954 51.9264 6.81489 51.4862 6.37379C51.046 5.93269 50.5225 5.58401 49.9462 5.34816C49.3698 5.11231 48.7524 4.99403 48.1299 5.00023H40.2831C39.6606 4.99403 39.0431 5.11231 38.4668 5.34816C37.8905 5.58401 37.3669 5.93269 36.9268 6.37379C36.4866 6.81489 36.1386 7.33954 35.9033 7.91704C35.6679 8.49454 35.5499 9.11329 35.5561 9.73706C35.5499 10.3608 35.6679 10.9796 35.9033 11.5571C36.1386 12.1346 36.4866 12.6592 36.9268 13.1003C37.3669 13.5414 37.8905 13.8901 38.4668 14.126C39.0431 14.3618 39.6606 14.4801 40.2831 14.4739H43.4974V45.737L18.6333 87.8947C18.2197 88.6127 18.0013 89.427 18 90.256C17.9987 91.0851 18.2147 91.9 18.6262 92.6193C19.0377 93.3385 19.6304 93.9369 20.345 94.3547C21.0597 94.7725 21.8712 94.995 22.6986 95H93.2256C94.0521 95.0028 94.8644 94.7849 95.5789 94.3686C96.2935 93.9523 96.8844 93.3527 97.2908 92.6316C97.7534 91.9286 98 91.1051 98 90.2631C98 89.4211 97.7534 88.5976 97.2908 87.8947V87.8947Z" fill="#F9B61E"/>
<path d="M76.006 57H56V65.0736H76.006V57Z" fill="#F4F4F4"/>
<path d="M68.0129 43H56V51H68.0129V43Z" fill="#F4F4F4"/>
<path d="M83 71.0947H56V79H83V71.0947Z" fill="#F4F4F4"/>
</svg>
