<svg width="80" height="80" viewBox="0 0 80 80" fill="none" xmlns="http://www.w3.org/2000/svg">
<path d="M40.1117 79.9856C32.2005 80.0077 24.4604 77.6838 17.8702 73.3077C11.2801 68.9317 6.13573 62.7 3.0878 55.4008C0.0398731 48.1016 -0.77476 40.0626 0.746916 32.3005C2.26859 24.5383 6.05823 17.4017 11.6366 11.7929C17.215 6.18422 24.3316 2.35533 32.0864 0.790476C39.8413 -0.774378 47.8861 -0.00491716 55.2035 3.00155C62.521 6.00803 68.7824 11.1165 73.1961 17.6809C77.6097 24.2453 79.9774 31.9709 79.9995 39.8807C80.0354 47.1613 78.0161 54.3042 74.1737 60.4888C73.8353 61.0332 73.3929 61.5055 72.8719 61.879C72.3509 62.2524 71.7615 62.5196 71.1372 62.6652C70.5129 62.8109 69.8661 62.8322 69.2336 62.7279C68.6011 62.6236 67.9953 62.3958 67.4509 62.0575C66.9064 61.7191 66.434 61.2769 66.0605 60.756C65.687 60.2351 65.4198 59.6457 65.2741 59.0215C65.1284 58.3974 65.1071 57.7506 65.2114 57.1182C65.3157 56.4859 65.5435 55.8802 65.8819 55.3358C68.7432 50.6102 70.2186 45.1756 70.1398 39.6521C70.1389 33.67 68.3638 27.8226 65.0391 22.8491C61.7144 17.8757 56.9893 13.9996 51.4614 11.711C45.9335 9.42241 39.8509 8.82409 33.9829 9.9917C28.1149 11.1593 22.7249 14.0404 18.4946 18.2707C14.2642 22.501 11.3834 27.8905 10.2165 33.7576C9.04963 39.6248 9.64899 45.7062 11.9388 51.2328C14.2287 56.7594 18.1062 61.4831 23.081 64.8064C28.0558 68.1298 33.9046 69.9036 39.8877 69.9036C42.6123 69.8614 45.3215 69.4854 47.9545 68.7838C48.5725 68.6073 49.2192 68.5542 49.8577 68.6275C50.4962 68.7009 51.114 68.8993 51.6758 69.2114C52.2376 69.5234 52.7325 69.9431 53.1321 70.4464C53.5317 70.9497 53.8283 71.5267 54.0048 72.1446C54.1814 72.7625 54.2345 73.4091 54.1611 74.0475C54.0877 74.6859 53.8893 75.3036 53.5772 75.8653C53.265 76.427 52.8453 76.9218 52.3419 77.3213C51.8386 77.7209 51.2614 78.0174 50.6434 78.1939C47.2894 79.4944 43.7071 80.1038 40.1117 79.9856Z" fill="#055DF9"/>
</svg>
