<svg width="40" height="40" viewBox="0 0 40 40" fill="none" xmlns="http://www.w3.org/2000/svg">
<path d="M37.4999 19.9999C38.8807 19.9999 40.0161 18.8762 39.8439 17.5063C39.3393 13.4904 37.6243 9.70038 34.8978 6.65629C31.6124 2.9882 27.0892 0.661103 22.1946 0.120736C17.3001 -0.41963 12.3782 0.864719 8.37171 3.72778C4.36524 6.59085 1.55585 10.8313 0.481645 15.6371C-0.592562 20.4428 0.143931 25.4759 2.55006 29.7723C4.95619 34.0688 8.86279 37.3265 13.5216 38.9216C18.1804 40.5167 23.264 40.3369 27.7985 38.4168C31.5616 36.8233 34.7271 34.1242 36.8936 30.7054C37.6326 29.5391 37.0837 28.0389 35.8344 27.4511C34.5851 26.8632 33.1117 27.4154 32.3247 28.5498C30.717 30.8674 28.4773 32.6996 25.8489 33.8126C22.448 35.2527 18.6353 35.3875 15.1412 34.1912C11.6471 32.9949 8.71713 30.5516 6.91253 27.3292C5.10794 24.1069 4.55557 20.3321 5.36122 16.7278C6.16688 13.1235 8.27392 9.94312 11.2788 7.79582C14.2836 5.64852 17.975 4.68526 21.646 5.09053C25.3169 5.49581 28.7093 7.24113 31.1734 9.9922C33.0777 12.1184 34.3242 14.7298 34.7921 17.5114C35.0212 18.873 36.1192 19.9999 37.4999 19.9999Z" fill="#FC5BB3"/>
</svg>
