<svg width="80" height="80" viewBox="0 0 80 80" fill="none" xmlns="http://www.w3.org/2000/svg">
<path d="M75.0003 40C77.7617 40 80.0325 37.7526 79.6882 35.0127C78.679 26.981 75.2491 19.4009 69.796 13.3127C63.2252 5.97649 54.1788 1.3223 44.3896 0.241565C34.6005 -0.83917 24.7567 1.72953 16.7437 7.45566C8.7308 13.1818 3.11201 21.6628 0.963596 31.2743C-1.18482 40.8857 0.288167 50.9519 5.10043 59.5449C9.91268 68.1378 17.7259 74.6533 27.0436 77.8434C36.3612 81.0336 46.5283 80.6741 55.5974 76.8338C63.1236 73.6469 69.4546 68.2486 73.7876 61.4109C75.2656 59.0784 74.1678 56.078 71.6692 54.9023C69.1706 53.7265 66.2238 54.8309 64.6498 57.0998C61.4343 61.735 56.955 65.3994 51.6981 67.6254C44.8963 70.5056 37.271 70.7752 30.2827 68.3826C23.2945 65.9899 17.4346 61.1033 13.8254 54.6586C10.2162 48.214 9.11145 40.6643 10.7228 33.4557C12.3341 26.2471 16.5482 19.8863 22.5579 15.5917C28.5676 11.2971 35.9504 9.37062 43.2923 10.1812C50.6342 10.9917 57.419 14.4824 62.3471 19.9845C66.1559 24.2369 68.6487 29.4598 69.5846 35.0229C70.0428 37.7461 72.2388 40 75.0003 40Z" fill="#DDDDDD"/>
</svg>
