<svg width="80" height="80" viewBox="0 0 80 80" fill="none" xmlns="http://www.w3.org/2000/svg">
<path d="M75.0002 40C77.7616 40 80.0324 37.7526 79.6882 35.0127C78.679 26.981 75.249 19.4009 69.796 13.3127C63.2251 5.97649 54.1788 1.3223 44.3896 0.241565C34.6004 -0.83917 24.7566 1.72953 16.7437 7.45566C8.73074 13.1818 3.11195 21.6628 0.963535 31.2743C-1.18488 40.8857 0.288106 50.9519 5.10037 59.5449C9.91262 68.1378 17.7258 74.6533 27.0435 77.8434C36.3612 81.0336 46.5282 80.6741 55.5973 76.8338C63.1236 73.6469 69.4546 68.2486 73.7875 61.4109C75.2656 59.0784 74.1678 56.078 71.6692 54.9023C69.1705 53.7265 66.2238 54.8309 64.6498 57.0998C61.4343 61.735 56.9549 65.3994 51.698 67.6254C44.8962 70.5056 37.2709 70.7752 30.2827 68.3826C23.2944 65.9899 17.4345 61.1033 13.8253 54.6586C10.2161 48.214 9.11139 40.6643 10.7227 33.4557C12.334 26.2471 16.5481 19.8863 22.5578 15.5917C28.5675 11.2971 35.9504 9.37062 43.2922 10.1812C50.6341 10.9917 57.4189 14.4824 62.347 19.9845C66.1558 24.2369 68.6486 29.4598 69.5846 35.0229C70.0427 37.7461 72.2388 40 75.0002 40Z" fill="#01EFAD"/>
</svg>
