<svg width="80" height="80" viewBox="0 0 80 80" fill="none" xmlns="http://www.w3.org/2000/svg">
<path d="M75.0001 40C77.7616 40 80.0324 37.7526 79.6881 35.0127C78.6789 26.981 75.2489 19.4009 69.7959 13.3127C63.2251 5.97649 54.1787 1.3223 44.3895 0.241565C34.6003 -0.83917 24.7566 1.72953 16.7436 7.45566C8.73067 13.1818 3.11189 21.6628 0.963474 31.2743C-1.18494 40.8857 0.288045 50.9519 5.1003 59.5449C9.91256 68.1378 17.7258 74.6533 27.0434 77.8434C36.3611 81.0336 46.5282 80.6741 55.5973 76.8338C63.1235 73.6469 69.4545 68.2486 73.7874 61.4109C75.2655 59.0784 74.1677 56.078 71.6691 54.9023C69.1705 53.7265 66.2237 54.8309 64.6497 57.0998C61.4342 61.735 56.9548 65.3994 51.698 67.6254C44.8962 70.5056 37.2709 70.7752 30.2826 68.3826C23.2944 65.9899 17.4345 61.1033 13.8253 54.6586C10.2161 48.214 9.11133 40.6643 10.7226 33.4557C12.334 26.2471 16.548 19.8863 22.5577 15.5917C28.5675 11.2971 35.9503 9.37062 43.2922 10.1812C50.6341 10.9917 57.4188 14.4824 62.347 19.9845C66.1557 24.2369 68.6486 29.4598 69.5845 35.0229C70.0426 37.7461 72.2387 40 75.0001 40Z" fill="#F9B61E"/>
</svg>
