<svg width="80" height="80" viewBox="0 0 80 80" fill="none" xmlns="http://www.w3.org/2000/svg">
<path d="M75.0001 40C77.7615 40 80.0323 37.7526 79.6881 35.0127C78.6789 26.981 75.2489 19.4009 69.7958 13.3127C63.225 5.97649 54.1786 1.3223 44.3895 0.241565C34.6003 -0.83917 24.7565 1.72953 16.7436 7.45566C8.73061 13.1818 3.11183 21.6628 0.963413 31.2743C-1.185 40.8857 0.287984 50.9519 5.10024 59.5449C9.9125 68.1378 17.7257 74.6533 27.0434 77.8434C36.361 81.0336 46.5281 80.6741 55.5972 76.8338C63.1235 73.6469 69.4545 68.2486 73.7874 61.4109C75.2655 59.0784 74.1676 56.078 71.669 54.9023C69.1704 53.7265 66.2237 54.8309 64.6497 57.0998C61.4341 61.735 56.9548 65.3994 51.6979 67.6254C44.8961 70.5056 37.2708 70.7752 30.2826 68.3826C23.2943 65.9899 17.4344 61.1033 13.8252 54.6586C10.216 48.214 9.11127 40.6643 10.7226 33.4557C12.3339 26.2471 16.548 19.8863 22.5577 15.5917C28.5674 11.2971 35.9502 9.37062 43.2921 10.1812C50.634 10.9917 57.4188 14.4824 62.3469 19.9845C66.1557 24.2369 68.6485 29.4598 69.5844 35.0229C70.0426 37.7461 72.2387 40 75.0001 40Z" fill="#FC5BB3"/>
</svg>
