<svg width="103" height="50" viewBox="0 0 103 50" fill="none" xmlns="http://www.w3.org/2000/svg">
<path fill-rule="evenodd" clip-rule="evenodd" d="M32.6775 0V48.9007H22.4178V45.5904C21.1763 46.994 19.6458 48.1137 17.931 48.8729C16.2162 49.6321 14.3574 50.013 12.4815 49.9895C4.72613 49.9895 0 43.4988 0 35.2746C0 23.624 7.43181 16.9314 17.1666 16.9314C18.8506 16.9578 20.528 17.147 22.1753 17.4963V0H32.6775ZM16.2781 40.9184C18.5076 40.8116 20.6081 39.8435 22.1353 38.2189V26.2845C20.9694 26.0184 19.7771 25.8842 18.5811 25.8845C13.4111 25.8845 10.5433 28.9839 10.5433 33.9828C10.5433 38.3819 12.8472 40.9164 16.2791 40.9164L16.2781 40.9184Z" fill="white"/>
<path d="M63.4968 17.5333V27.2492C62.2127 26.9492 60.8978 26.8003 59.579 26.8053C56.487 26.7919 53.472 27.7666 50.9751 29.5868V48.9007H40.4729V17.8592H50.7729V21.1645C53.5196 18.907 56.7512 17.1334 60.144 17.1334C61.2729 17.1447 62.397 17.2788 63.4968 17.5333Z" fill="white"/>
<path d="M94.0737 16.9314C83.8951 16.9314 77.3918 24.1069 77.3918 33.9439V33.9399C77.3918 43.4539 82.7641 49.9845 92.3367 49.9845C96.0472 50.1277 99.7286 49.2785 103 47.525V39.0638C100.74 40.1261 98.2678 40.6638 95.7696 40.6364C90.9633 40.6364 88.2165 38.137 88.2165 33.6619C88.2165 29.1469 90.9232 26.2845 96.0932 26.2845C98.3913 26.2624 100.666 26.7439 102.758 27.6952V18.947C100.075 17.5661 97.0911 16.8734 94.0737 16.9314Z" fill="white"/>
<path d="M59.8615 42.3701C59.8535 41.0847 60.2283 39.8259 60.938 38.7532C61.6478 37.6806 62.6606 36.8425 63.8482 36.3451C65.0358 35.8477 66.3446 35.7134 67.6087 35.9593C68.8729 36.2052 70.0354 36.8202 70.9489 37.7263C71.8624 38.6325 72.4857 39.7889 72.7399 41.049C72.9941 42.3092 72.8678 43.6163 72.3767 44.8046C71.8857 45.9929 71.0522 47.009 69.9819 47.724C68.9116 48.439 67.6527 48.8207 66.3648 48.8207C65.5127 48.8258 64.668 48.6628 63.8793 48.3409C63.0905 48.0191 62.3733 47.5448 61.7689 46.9453C61.1645 46.3458 60.6849 45.6329 60.3575 44.8477C60.0302 44.0625 59.8616 43.2205 59.8615 42.3701" fill="#18F2AA"/>
</svg>
