<svg width="58" height="28" viewBox="0 0 58 28" fill="none" xmlns="http://www.w3.org/2000/svg">
<path fill-rule="evenodd" clip-rule="evenodd" d="M18.353 27.3766V0H12.4516V9.8268C11.5291 9.62903 10.5894 9.521 9.64582 9.50426C4.17873 9.50426 0 13.2342 0 19.7611C0 24.364 2.66134 27.9864 7.0234 27.9875C8.07623 27.9964 9.11875 27.7811 10.0806 27.3561C11.0425 26.9311 11.9014 26.3062 12.5994 25.5237V27.3766H18.353ZM12.4521 21.3996C11.5911 22.3099 10.4085 22.8539 9.15224 22.9176C7.2259 22.9176 5.92287 21.5065 5.92513 19.0427C5.92513 16.2574 7.5384 14.512 10.453 14.512C11.1256 14.5053 11.7966 14.5775 12.4521 14.727V21.3996Z" fill="#055DF9"/>
<path d="M35.6822 15.2674V9.82679C35.0647 9.67107 34.429 9.59781 33.792 9.60897C31.9011 9.60897 30.0707 10.5895 28.5291 11.8567V10.0037H22.7365V27.3777H28.6255V16.5704C30.0332 15.5577 31.728 15.0137 33.4665 15.0165C34.2123 15.0147 34.9559 15.0989 35.6822 15.2674Z" fill="#055DF9"/>
<path d="M37.2847 27.3408C39.3 27.3408 40.9338 25.719 40.9338 23.7184C40.9338 21.7178 39.3 20.096 37.2847 20.096C35.2694 20.096 33.6357 21.7178 33.6357 23.7184C33.6357 25.719 35.2694 27.3408 37.2847 27.3408Z" fill="#F9B61E"/>
<path d="M52.8557 9.45609C47.1353 9.45609 43.4863 13.485 43.4863 18.9962C43.4863 24.3276 46.5092 27.9858 51.8798 27.973C53.9666 28.0531 56.037 27.5785 57.8771 26.5982V21.852C56.6021 22.4384 55.2119 22.7365 53.8067 22.725C51.0974 22.725 49.5558 21.3038 49.5558 18.8052C49.5558 16.2585 51.0608 14.6688 53.9754 14.6688C55.2722 14.6549 56.5559 14.9285 57.7327 15.4695V10.5799C56.2255 9.81134 54.5499 9.42523 52.8557 9.45609Z" fill="#055DF9"/>
</svg>
