<svg width="190" height="28" viewBox="0 0 190 28" fill="none" xmlns="http://www.w3.org/2000/svg">
<path fill-rule="evenodd" clip-rule="evenodd" d="M18.353 27.3766V0H12.4516V9.8268C11.5291 9.62903 10.5894 9.521 9.64582 9.50426C4.17873 9.50426 0 13.2342 0 19.7611C0 24.364 2.66134 27.9864 7.0234 27.9875C8.07623 27.9964 9.11875 27.7811 10.0806 27.3561C11.0425 26.9311 11.9014 26.3062 12.5994 25.5237V27.3766H18.353ZM12.4521 21.3996C11.5911 22.3099 10.4085 22.8539 9.15224 22.9176C7.2259 22.9176 5.92287 21.5065 5.92513 19.0427C5.92513 16.2574 7.5384 14.512 10.453 14.512C11.1256 14.5053 11.7966 14.5775 12.4521 14.727V21.3996Z" fill="#055DF9"/>
<path d="M35.6822 15.2674V9.82679C35.0647 9.67107 34.429 9.59781 33.792 9.60897C31.9011 9.60897 30.0707 10.5895 28.5291 11.8567V10.0037H22.7365V27.3777H28.6255V16.5704C30.0332 15.5577 31.728 15.0137 33.4665 15.0165C34.2123 15.0147 34.9559 15.0989 35.6822 15.2674Z" fill="#055DF9"/>
<path d="M37.2847 27.3408C39.3 27.3408 40.9338 25.719 40.9338 23.7184C40.9338 21.7178 39.3 20.096 37.2847 20.096C35.2694 20.096 33.6357 21.7178 33.6357 23.7184C33.6357 25.719 35.2694 27.3408 37.2847 27.3408Z" fill="#F9B61E"/>
<path d="M150.243 0H144.321L144.321 21.2439C144.321 25.3803 146.004 27.9864 150.075 27.9864C151.587 28.0648 153.098 27.8033 154.494 27.2215V22.5469C153.818 22.7842 153.105 22.9054 152.387 22.9053C150.593 22.9053 150.243 21.6739 150.243 20.2276V0Z" fill="#055DF9"/>
<path d="M103.387 22.0452V26.3967C105.738 27.4634 108.296 28.0059 110.881 27.9858C116.468 27.9858 119.166 25.8821 119.166 22.2238C119.166 18.7095 117.167 16.8941 112.47 16.3901C109.941 16.1034 109.279 15.8884 109.279 14.9796C109.279 13.9632 110.746 13.8916 112.325 13.8916C113.623 13.8916 116.646 14.3222 118.079 15.0154V10.7709C116.077 9.86124 113.897 9.40396 111.696 9.43202C107.314 9.43202 103.592 11.3566 103.592 15.1582C103.592 18.5661 105.278 20.4219 110.264 20.8138C112.962 21.0647 113.491 21.3514 113.491 22.2602C113.491 23.2766 112.154 23.4199 110.191 23.4199C107.853 23.4239 105.538 22.9562 103.387 22.0452Z" fill="#055DF9"/>
<path d="M52.8557 9.4561C47.1353 9.4561 43.4863 13.485 43.4863 18.9962C43.4863 24.3276 46.5092 27.9859 51.8798 27.973C53.9666 28.0531 56.037 27.5785 57.8771 26.5983V21.852C56.6021 22.4384 55.2119 22.7365 53.8067 22.725C51.0974 22.725 49.5558 21.3038 49.5558 18.8052C49.5558 16.2585 51.0608 14.6688 53.9754 14.6688C55.2722 14.655 56.5559 14.9285 57.7327 15.4695V10.58C56.2255 9.81135 54.5499 9.42524 52.8557 9.4561Z" fill="#055DF9"/>
<path fill-rule="evenodd" clip-rule="evenodd" d="M69.812 9.46842C64.152 9.46842 60.2982 13.4475 60.2982 18.7078C60.2982 24.149 63.9083 27.9864 69.812 27.9965C75.5566 27.9965 79.3501 23.9323 79.3501 18.7078C79.3501 13.2342 75.7732 9.46842 69.812 9.46842ZM69.8024 14.5355C72.1479 14.5355 73.4125 15.9461 73.4125 18.7078C73.4125 21.2797 72.0159 22.8818 69.8024 22.8801C67.4931 22.8801 66.1923 21.3856 66.1923 18.7078C66.1923 16.1734 67.6228 14.5355 69.8024 14.5355Z" fill="#055DF9"/>
<path d="M100.16 17.8365V27.3766H94.2368V18.817C94.2368 16.0911 93.3935 15.0871 91.3944 15.0871C90.2336 15.136 89.1228 15.5698 88.2395 16.319V27.3772H82.3121V10.006H88.1046V11.8231C89.6102 10.5911 91.6093 9.46786 93.8611 9.46786C98.1628 9.4561 100.16 12.2178 100.16 17.8365Z" fill="#055DF9"/>
<path d="M140.331 10.006V27.376H134.578V25.559C133.111 26.8262 131.17 27.9858 128.93 27.9858C124.618 27.9858 122.619 25.186 122.619 19.5696V10.006H128.542V18.6731C128.542 21.399 129.275 22.3313 131.276 22.3313C132.426 22.2819 133.525 21.8477 134.395 21.0994V10.006H140.331Z" fill="#055DF9"/>
<path d="M169.767 22.1521V26.9342C168.258 27.6542 166.6 28.0143 164.926 27.9858C158.748 27.9858 156.93 24.1725 156.93 18.9956V5.47531H162.852V10.006H169.584V14.6805H162.852V19.2471C162.852 21.5664 163.455 22.8695 166.393 22.8695C167.559 22.8968 168.715 22.651 169.767 22.1521Z" fill="#055DF9"/>
<path fill-rule="evenodd" clip-rule="evenodd" d="M189.986 10.6516V20.7175H190V27.3749H184.316V25.5226C183.631 26.3022 182.785 26.926 181.835 27.3512C180.885 27.7764 179.854 27.9931 178.812 27.9864C174.704 27.9864 172.043 24.3522 172.043 19.7135C172.043 13.2219 176.39 9.4561 183.339 9.4561C185.604 9.50917 187.847 9.91252 189.986 10.6516ZM180.991 22.8717C182.147 22.8717 183.135 22.3341 184.146 21.3895L184.134 21.3889V14.5271C183.688 14.4913 183.194 14.4555 182.7 14.4555C179.618 14.4555 177.968 16.1863 177.968 18.9861C177.968 21.4612 179.1 22.8717 180.991 22.8717Z" fill="#055DF9"/>
</svg>
