<svg width="58" height="28" viewBox="0 0 58 28" fill="none" xmlns="http://www.w3.org/2000/svg">
<path fill-rule="evenodd" clip-rule="evenodd" d="M18.392 27.3885V0H12.478V9.83108C11.5536 9.63323 10.6119 9.52516 9.66629 9.5084C4.1876 9.5084 0 13.2399 0 19.7697C0 24.3746 2.66699 27.9986 7.0383 27.9997C8.09337 28.0087 9.1381 27.7932 10.102 27.368C11.066 26.9428 11.9267 26.3177 12.6261 25.5348V27.3885H18.392ZM12.4786 21.4089C11.6157 22.3196 10.4306 22.8639 9.17167 22.9276C7.24124 22.9276 5.93544 21.5159 5.9377 19.051C5.9377 16.2645 7.55441 14.5183 10.4752 14.5183C11.1492 14.5117 11.8216 14.5839 12.4786 14.7335V21.4089Z" fill="#055DF9"/>
<path d="M35.7579 15.2741V9.83108C35.1391 9.67528 34.5021 9.602 33.8637 9.61316C31.9689 9.61316 30.1345 10.5941 28.5896 11.8618V10.0081H22.7848V27.3897H28.6863V16.5777C30.097 15.5645 31.7953 15.0202 33.5375 15.0231C34.285 15.0212 35.0301 15.1055 35.7579 15.2741Z" fill="#055DF9"/>
<path d="M37.3639 27.3527C39.3835 27.3527 41.0207 25.7302 41.0207 23.7287C41.0207 21.7272 39.3835 20.1047 37.3639 20.1047C35.3443 20.1047 33.7071 21.7272 33.7071 23.7287C33.7071 25.7302 35.3443 27.3527 37.3639 27.3527Z" fill="#FC5BB3"/>
<path d="M52.9679 9.46021C47.2354 9.46021 43.5786 13.4909 43.5786 19.0045C43.5786 24.3382 46.6079 27.998 51.99 27.9852C54.0811 28.0653 56.156 27.5905 58 26.6098V21.8615C56.7223 22.4482 55.3291 22.7464 53.9209 22.7349C51.2059 22.7349 49.661 21.3131 49.661 18.8134C49.661 16.2656 51.1692 14.6752 54.09 14.6752C55.3896 14.6613 56.6759 14.935 57.8553 15.4763V10.5846C56.3448 9.81562 54.6657 9.42934 52.9679 9.46021Z" fill="#055DF9"/>
</svg>
