<svg width="116" height="100" viewBox="0 0 116 100" fill="none" xmlns="http://www.w3.org/2000/svg">
<path d="M76.2715 93H44.3859C42.9331 93 41.5399 92.4283 40.5126 91.4107C39.4854 90.3931 38.9083 89.0129 38.9083 87.5738C38.9083 86.1347 39.4854 84.7545 40.5126 83.7369C41.5399 82.7193 42.9331 82.1476 44.3859 82.1476H76.2715C78.5975 82.1632 80.835 81.2657 82.4948 79.6514C84.1546 78.0371 85.1016 75.8374 85.1286 73.5333V26.3828C85.122 25.2399 84.8872 24.1096 84.4378 23.057C83.9884 22.0044 83.3331 21.0503 82.5099 20.2496C81.6866 19.4489 80.7116 18.8174 79.6409 18.3916C78.5702 17.9658 77.4251 17.754 76.2715 17.7685H41.7287C39.4027 17.7529 37.1652 18.6504 35.5054 20.2647C33.8456 21.879 32.8986 24.0787 32.8716 26.3828V69.0705C32.8716 69.7831 32.7299 70.4887 32.4547 71.147C32.1794 71.8054 31.7759 72.4035 31.2673 72.9074C30.7586 73.4113 30.1548 73.811 29.4902 74.0837C28.8256 74.3564 28.1134 74.4967 27.394 74.4967C26.6775 74.5008 25.9674 74.3627 25.3057 74.0904C24.6439 73.8181 24.044 73.4172 23.5413 72.9114C23.0386 72.4056 22.6433 71.8051 22.3788 71.1454C22.1143 70.4857 21.9859 69.7802 22.0012 69.0705V26.3828C22.0297 21.2232 24.1224 16.2853 27.8204 12.6518C31.5185 9.01838 36.5202 6.9859 41.7287 7.00008H76.2715C81.4802 6.98563 86.4821 9.01798 90.1804 12.6515C93.8787 16.285 95.9716 21.223 96 26.3828V73.5374C95.9754 78.7057 93.8864 83.6542 90.1896 87.3012C86.4927 90.9482 81.4888 92.9971 76.2715 93Z" fill="#01EFAD"/>
<path d="M90 31H46V39H90V31Z" fill="#F4F4F4"/>
<path d="M90 45H46V53H90V45Z" fill="#F4F4F4"/>
<path d="M90 60H46V68H90V60Z" fill="#F4F4F4"/>
</svg>
