<svg width="116" height="100" viewBox="0 0 116 100" fill="none" xmlns="http://www.w3.org/2000/svg">
<path d="M85.9793 91H71.3804C70.2334 90.9737 69.1411 90.5339 68.3298 89.7717C67.5185 89.0096 67.0504 87.9835 67.0223 86.906V65.2083H66.1512C65.5853 65.2199 65.0232 65.1203 64.5007 64.9159C63.9783 64.7115 63.507 64.4068 63.1172 64.0214C62.7274 63.6359 62.4276 63.1782 62.2371 62.6776C62.0466 62.177 61.9695 61.6445 62.0108 61.1142L62.2286 34.0949C62.2319 33.0101 62.6921 31.9705 63.5087 31.2034C64.3253 30.4363 65.4319 30.004 66.5867 30.0009V30.0009C67.1526 29.9893 67.7147 30.0889 68.2372 30.2933C68.7596 30.4977 69.2309 30.8023 69.6207 31.1878C70.0105 31.5732 70.3103 32.0309 70.5008 32.5316C70.6913 33.0322 70.7684 33.5647 70.7271 34.0949V57.2259H71.5948C72.7497 57.2289 73.8563 57.6613 74.6729 58.4284C75.4895 59.1955 75.9497 60.235 75.9529 61.3199V83.0165H82.0545V61.3188C82.0606 60.7923 82.179 60.2722 82.4029 59.7894C82.6268 59.3067 82.9516 58.871 83.358 58.5084C83.7644 58.1457 84.2442 57.8633 84.7689 57.6779C85.2936 57.4926 85.8525 57.4081 86.4126 57.4294H87.2838V34.2995C87.2898 33.773 87.4083 33.2529 87.6322 32.7701C87.8561 32.2874 88.1809 31.8517 88.5873 31.489C88.9937 31.1263 89.4734 30.844 89.9981 30.6586C90.5228 30.4733 91.0818 30.3888 91.6419 30.4101C92.7967 30.4132 93.9033 30.8455 94.7199 31.6126C95.5365 32.3797 95.9967 33.4193 96 34.5041L95.7822 61.5234C95.7762 62.05 95.6577 62.5701 95.4338 63.0528C95.2099 63.5356 94.8851 63.9712 94.4787 64.3339C94.0723 64.6966 93.5926 64.979 93.0679 65.1643C92.5432 65.3497 91.9842 65.4342 91.4241 65.4129H90.5529V87.1106C90.4181 88.1684 89.8806 89.1448 89.0397 89.8596C88.1987 90.5744 87.1109 90.9794 85.977 91" fill="#01EFAD"/>
<path d="M31.018 90.9991C30.4787 91.0107 29.9428 90.9109 29.4447 90.7061C29.1344 90.5784 28.8431 90.4118 28.5776 90.2108C28.4033 90.0855 28.2381 89.9463 28.0838 89.7938C27.3053 89.0249 26.8666 87.983 26.8635 86.8956V74.175H24.1633C23.5648 74.2 22.969 74.0826 22.4261 73.8326C21.8832 73.5826 21.409 73.2073 21.0437 72.7385C20.308 71.8857 19.9369 70.7837 20.0088 69.6656L23.9557 33.5513C24.5786 31.2945 26.4482 29.6529 28.7331 30.063C29.2647 30.0818 29.786 30.213 30.2619 30.4476C30.7378 30.6823 31.1572 31.015 31.4919 31.4233C31.8266 31.8316 32.0687 32.306 32.2021 32.8146C32.3354 33.3232 32.3568 33.8541 32.2648 34.3716L28.7331 65.968H31.018C32.1122 65.9933 33.1545 66.4337 33.9289 67.1977C34.7032 67.9617 35.1501 68.9908 35.1769 70.0715V82.7921H41.1968V70.0715C41.2238 68.9917 41.6702 67.9635 42.4436 67.1998C43.217 66.4362 44.2581 65.9955 45.3513 65.9691H47.6362L44.3122 34.3737C44.202 33.3398 44.5122 32.305 45.1746 31.497C45.8369 30.689 46.7971 30.1739 47.8438 30.0651C48.8906 29.9564 49.9383 30.2628 50.7564 30.917C51.5744 31.5711 52.0959 32.5195 52.206 33.5534L55.9453 69.6635C56.0475 70.2219 56.006 70.7967 55.8246 71.3351C55.6432 71.8735 55.3278 72.3583 54.9072 72.7448C54.5 73.1498 54.0131 73.468 53.4765 73.6798C52.94 73.8916 52.3651 73.9925 51.7875 73.9763H48.883V86.6884C48.9434 87.2341 48.886 87.7862 48.7147 88.3084C48.5434 88.8306 48.262 89.3111 47.8891 89.7181C47.5162 90.1252 47.0603 90.4496 46.5513 90.67C46.0423 90.8904 45.4918 91.0019 44.9361 90.997L44.935 90.9991L31.018 90.9991Z" fill="#01EFAD"/>
<path d="M37.9994 14.9795C37.4748 14.9619 36.9522 15.0512 36.4639 15.2419C35.9757 15.4325 35.5323 15.7205 35.1611 16.0878C34.79 16.4551 34.4991 16.8941 34.3064 17.3773C34.1138 17.8605 34.0235 18.3778 34.0413 18.897C34.0235 19.4162 34.1138 19.9335 34.3064 20.4167C34.4991 20.9 34.79 21.3389 35.1611 21.7062C35.5323 22.0735 35.9757 22.3615 36.4639 22.5521C36.9522 22.7428 37.4748 22.8321 37.9994 22.8146V22.8146C38.524 22.8321 39.0466 22.7428 39.5348 22.5521C40.0231 22.3615 40.4665 22.0735 40.8377 21.7062C41.2088 21.3389 41.4997 20.9 41.6923 20.4167C41.885 19.9335 41.9752 19.4162 41.9575 18.897C41.9654 17.9055 41.5935 16.9478 40.9164 16.217C40.5378 15.8302 40.0854 15.5217 39.5854 15.3093C39.0854 15.0969 38.5478 14.9848 38.0037 14.9795H37.9994ZM37.9994 28.9989C35.3263 28.9521 32.7791 27.8663 30.9081 25.9761C29.0371 24.086 27.9925 21.5431 28 18.897C28.0366 16.2834 29.1018 13.7871 30.9692 11.9388C32.8366 10.0906 35.3588 9.03626 37.9994 9.00009V9.00009C39.3141 8.99458 40.6169 9.24681 41.8325 9.74222C43.0482 10.2376 44.1528 10.9664 45.0824 11.8865C46.012 12.8067 46.7484 13.8999 47.2489 15.1031C47.7495 16.3063 48.0043 17.5958 47.9987 18.897C48.0199 20.2122 47.7772 21.5185 47.2847 22.7402C46.7923 23.9619 46.0599 25.0748 45.1299 26.0145C44.1999 26.9541 43.0908 27.7018 41.8668 28.2143C40.6429 28.7267 39.3283 28.9938 37.9994 29" fill="#F4F4F4"/>
<path d="M78.9994 14.9795C78.4748 14.9619 77.9522 15.0512 77.4639 15.2419C76.9757 15.4325 76.5323 15.7205 76.1611 16.0878C75.79 16.4551 75.4991 16.8941 75.3064 17.3773C75.1138 17.8605 75.0235 18.3778 75.0413 18.897C75.0235 19.4162 75.1138 19.9335 75.3064 20.4167C75.4991 20.9 75.79 21.3389 76.1611 21.7062C76.5323 22.0735 76.9757 22.3615 77.4639 22.5521C77.9522 22.7428 78.4748 22.8321 78.9994 22.8146V22.8146C79.524 22.8321 80.0466 22.7428 80.5348 22.5521C81.0231 22.3615 81.4665 22.0735 81.8377 21.7062C82.2088 21.3389 82.4997 20.9 82.6923 20.4167C82.885 19.9335 82.9752 19.4162 82.9575 18.897C82.9654 17.9055 82.5935 16.9478 81.9164 16.217C81.5378 15.8302 81.0854 15.5217 80.5854 15.3093C80.0854 15.0969 79.5478 14.9848 79.0037 14.9795H78.9994ZM78.9994 28.9989C76.3263 28.9521 73.7791 27.8663 71.9081 25.9761C70.0371 24.086 68.9925 21.5431 69 18.897C69.0366 16.2834 70.1018 13.7871 71.9692 11.9388C73.8366 10.0906 76.3588 9.03626 78.9994 9.00009V9.00009C80.3141 8.99458 81.6169 9.24681 82.8325 9.74222C84.0482 10.2376 85.1528 10.9664 86.0824 11.8865C87.012 12.8067 87.7484 13.8999 88.2489 15.1031C88.7495 16.3063 89.0043 17.5958 88.9987 18.897C89.0199 20.2122 88.7772 21.5185 88.2847 22.7402C87.7923 23.9619 87.0599 25.0748 86.1299 26.0145C85.1999 26.9541 84.0908 27.7018 82.8668 28.2143C81.6429 28.7267 80.3283 28.9938 78.9994 29" fill="#F4F4F4"/>
</svg>
