<svg width="116" height="100" viewBox="0 0 116 100" fill="none" xmlns="http://www.w3.org/2000/svg">
<path d="M43.0361 98.9046L34.5517 90.4193C33.8505 89.7172 33.4567 88.7655 33.4567 87.7732C33.4567 86.781 33.8505 85.8293 34.5517 85.1271C36.0277 83.651 36.8569 81.6489 36.8569 79.5614C36.8568 77.4738 36.0274 75.4718 34.5512 73.9958C33.0751 72.5197 31.073 71.6905 28.9855 71.6906C26.8979 71.6907 24.8959 72.52 23.4199 73.9962C22.7177 74.6973 21.766 75.0911 20.7738 75.0911C19.7815 75.0911 18.8298 74.6973 18.1277 73.9962L9.09496 64.9635C8.39381 64.2614 8 63.3097 8 62.3174C8 61.3251 8.39381 60.3734 9.09496 59.6713L67.6713 1.09496C68.3734 0.393814 69.3251 0 70.3174 0C71.3097 0 72.2614 0.393814 72.9635 1.09496L81.722 9.85438C82.4232 10.5565 82.817 11.5082 82.817 12.5005C82.817 13.4927 82.4232 14.4445 81.722 15.1466C80.246 16.6228 79.4168 18.6248 79.4169 20.7124C79.417 22.7999 80.2463 24.8019 81.7225 26.278C83.1987 27.754 85.2007 28.5832 87.2883 28.5831C89.3758 28.5831 91.3778 27.7537 92.8539 26.2775C93.556 25.5764 94.5077 25.1826 95.5 25.1826C96.4922 25.1826 97.4439 25.5764 98.1461 26.2775L106.905 35.0361C107.606 35.7382 108 36.6899 108 37.6822C108 38.6745 107.606 39.6262 106.905 40.3283L69.8609 77.2806C69.1578 77.9758 68.208 78.3644 67.2193 78.3616C66.2305 78.3587 65.283 77.9647 64.5839 77.2655C63.8847 76.5663 63.4906 75.6189 63.4878 74.6301C63.485 73.6413 63.8736 72.6916 64.5687 71.9884L98.8788 37.6783L95.1383 33.9378C92.1868 35.6848 88.7379 36.4002 85.335 35.9713C81.9322 35.5423 78.7687 33.9934 76.343 31.5686C73.9173 29.1439 72.3673 25.981 71.9371 22.5782C71.5069 19.1755 72.221 15.7264 73.9669 12.7742L70.317 9.12421L17.1277 62.3135L21.1423 66.3281C24.0945 64.5802 27.5445 63.8645 30.9484 64.2938C34.3523 64.7231 37.5165 66.273 39.9423 68.6992C42.3681 71.1254 43.9174 74.2898 44.3462 77.6938C44.7749 81.0978 44.0586 84.5476 42.3102 87.4995L45.7775 90.9668L51.9843 84.7599C52.6875 84.0648 53.6372 83.6762 54.626 83.679C55.6147 83.6818 56.5622 84.0759 57.2614 84.775C57.9606 85.4742 58.3546 86.4217 58.3574 87.4105C58.3603 88.3992 57.9717 89.3489 57.2765 90.0521L48.4197 98.9046C47.6997 99.6069 46.7337 100 45.7279 100C44.7221 100 43.7561 99.6069 43.0361 98.9046Z" fill="#01EFAD"/>
<path d="M54.9497 31.0503L50 36L55.6534 41.6603L60.6032 36.7106L54.9497 31.0503Z" fill="#F4F4F4"/>
<path d="M62.9496 39.0503L57.9999 44L63.6533 49.6603L68.603 44.7106L62.9496 39.0503Z" fill="#F4F4F4"/>
<path d="M65.9999 52L70.9496 47.0503L76.603 52.7106L71.6533 57.6603L65.9999 52Z" fill="#F4F4F4"/>
</svg>
