<svg width="116" height="100" viewBox="0 0 116 100" fill="none" xmlns="http://www.w3.org/2000/svg">
<path d="M58 94.9998C33.1987 94.9998 13 74.801 13 50.0045C13 25.2079 33.1987 5 58 5C82.8013 5 103 25.1988 103 49.9954C102.971 58.1901 100.764 66.2267 96.61 73.2657C95.8778 74.3682 94.7695 75.16 93.4964 75.4901C92.2233 75.8202 90.8744 75.6655 89.707 75.0555C88.6094 74.3382 87.8171 73.2322 87.4859 71.9549C87.1546 70.6775 87.3084 69.3213 87.9169 68.1526C91.2588 62.6978 93.0288 56.41 93.028 49.9954C93.0189 45.3687 92.1041 40.7895 90.3362 36.5212C88.5683 32.253 85.9823 28.3799 82.7268 25.1249C79.4714 21.8698 75.6108 19.2971 71.3672 17.5546C67.1236 15.8121 62.5807 14.9343 58 14.9717C53.4158 14.9245 48.8679 15.7957 44.6192 17.5349C40.3704 19.2741 36.5052 21.8467 33.2471 25.1041C29.989 28.3614 27.4025 32.2389 25.6374 36.5121C23.8722 40.7854 22.9633 45.3697 22.9633 49.9999C22.9633 54.6302 23.8722 59.2145 25.6374 63.4877C27.4025 67.761 29.989 71.6384 33.2471 74.8958C36.5052 78.1531 40.3704 80.7258 44.6192 82.4649C48.8679 84.2041 53.4158 85.0753 58 85.0281C61.1922 84.9804 64.3675 84.5514 67.4599 83.7501C68.0956 83.5717 68.7601 83.5231 69.4146 83.6071C70.0691 83.6911 70.7005 83.906 71.2718 84.2393C71.8431 84.5726 72.3429 85.0176 72.742 85.5482C73.1411 86.0788 73.4314 86.6845 73.5961 87.3297C73.7714 87.9702 73.8174 88.6398 73.7313 89.2986C73.6451 89.9574 73.4286 90.592 73.0947 91.1645C72.7607 91.7371 72.3161 92.2359 71.7874 92.6314C71.2586 93.0268 70.6565 93.3108 70.0168 93.4664C66.0927 94.4948 62.0541 95.0102 58 94.9998" fill="#F4F4F4"/>
<path d="M77 37.2039L71.0539 31L58.1296 43.9243L45.2044 31L39 37.2039L51.9252 50.1282L39 62.7961L45.2044 69L58.1296 56.0757L71.0548 69L77 62.7961L64.0748 50.1282L77 37.2039Z" fill="#055DF9"/>
</svg>
