<svg width="116" height="100" viewBox="0 0 116 100" fill="none" xmlns="http://www.w3.org/2000/svg">
<path d="M81.2505 93.9999C80.5284 94.0038 79.8127 93.8615 79.1449 93.5814C78.4772 93.3013 77.8706 92.889 77.3604 92.3682C76.8501 91.8475 76.4464 91.2287 76.1725 90.5477C75.8987 89.8668 75.7602 89.1372 75.765 88.4013V84.4818C75.765 80.7228 75.765 77.204 75.6868 73.1251C75.6347 71.6001 75.8935 70.0807 76.4469 68.6629C77.0003 67.245 77.8362 65.9595 78.9019 64.8876C85.7242 57.8479 89.4096 48.7315 88.857 40.494C88.3867 33.3756 84.9359 27.2976 78.5849 22.2591C74.8288 19.4556 70.4062 17.7253 65.7741 17.2472C61.1421 16.7691 56.4688 17.5604 52.2374 19.5395C43.1417 23.7788 37.1819 32.8166 36.2402 43.6929C36.162 44.8928 36.0045 46.7324 28.8693 57.849L34.8292 62.168C35.6061 62.7341 36.2245 63.4971 36.6232 64.3816C37.022 65.266 37.1872 66.2412 37.1026 67.2107C36.7105 72.0091 36.0868 80.0872 36.0045 82.5666C37.6512 82.2467 41.5723 81.4465 45.3359 80.6473C50.0412 79.612 54.4316 78.7279 56.1575 78.408C57.5833 78.1639 59.0457 78.507 60.2232 79.3619C61.4008 80.2167 62.1968 81.5132 62.4363 82.9662C62.6758 84.4192 62.3392 85.9097 61.5004 87.1097C60.6616 88.3097 59.3894 89.121 57.9637 89.3651C56.4734 89.6053 51.7671 90.6447 47.6124 91.5246C43.2992 92.4843 39.2216 93.3643 37.575 93.6045C36.0273 93.9633 34.4202 93.9627 32.8728 93.6027C31.3254 93.2426 29.8773 92.5324 28.6357 91.5246C27.4577 90.4747 26.5283 89.1665 25.9171 87.6983C25.306 86.2301 25.0289 84.6399 25.1067 83.047C25.1067 80.8874 25.6553 73.6893 25.9692 69.3703L18.2834 63.7675C17.1222 62.9178 16.3328 61.6393 16.0838 60.2047C15.8348 58.7701 16.1459 57.2931 16.9506 56.089C20.4796 50.7306 24.5561 44.0925 25.4978 42.0127C26.988 27.3763 35.2995 15.1397 47.846 9.29877C53.8679 6.56396 60.4924 5.50082 67.0476 6.21716C73.6028 6.93351 79.8555 9.40386 85.1716 13.3777C85.2498 13.3777 85.2498 13.4574 85.328 13.4574C94.1891 20.4174 99.2062 29.5359 99.9173 39.8532C100.698 51.3714 95.915 63.3679 86.8182 72.8011L86.74 72.8808V72.9605C86.8182 77.1191 86.8182 80.7187 86.8182 84.4777V88.3972C86.798 89.889 86.2026 91.3129 85.1609 92.3612C84.1191 93.4096 82.7145 93.9982 81.2505 93.9999Z" fill="#F4F4F4"/>
<path d="M78.762 51L71.5992 46.9111C72.2165 45.8038 72.6105 44.5799 72.7576 43.3125C72.9048 42.0451 72.8021 40.7602 72.4557 39.5345C71.7763 37.0618 70.183 34.9608 68.0167 33.6814C66.9337 33.054 65.7405 32.6537 64.5061 32.5037C63.2717 32.3537 62.0207 32.4569 60.8254 32.8074C59.63 33.158 58.5141 33.7488 57.5422 34.5458C56.5702 35.3428 55.7615 36.3301 55.1629 37.4506L48 33.2818C49.1297 31.2036 50.6462 29.3746 52.4631 27.8993C54.2799 26.424 56.3615 25.3314 58.5889 24.6837C60.8163 24.036 63.1459 23.8459 65.4447 24.1244C67.7434 24.403 69.9664 25.1445 71.9866 26.3068C74.0167 27.4549 75.801 29.0122 77.2328 30.8857C78.6646 32.7592 79.7145 34.9105 80.3197 37.2109C80.9588 39.5012 81.1502 41.899 80.8829 44.2659C80.6155 46.6327 79.8947 48.9215 78.762 51V51Z" fill="#055DF9"/>
</svg>
