<svg width="116" height="100" viewBox="0 0 116 100" fill="none" xmlns="http://www.w3.org/2000/svg">
<path d="M28 92H45.0425V100H28V92Z" fill="#055DF9"/>
<path d="M49.5268 92H66.5693V100H49.5268V92Z" fill="#055DF9"/>
<path d="M70.9575 92H88V100H70.9575V92Z" fill="#055DF9"/>
<path d="M79.4761 85.0249C78.2212 84.0433 77.0368 82.9822 75.9307 81.8488C63.6395 69.3084 59.0036 54.7709 59.0036 46.0405C58.9688 44.4119 59.1854 42.7873 59.6462 41.2191C59.8996 40.2984 60.461 39.4823 61.245 38.8954C62.029 38.3084 62.9923 37.9829 63.988 37.9686H68.9085C69.5396 37.9811 70.1616 38.1142 70.7381 38.3599C71.3146 38.6057 71.834 38.9592 72.2656 39.3997C72.6971 39.8402 73.0321 40.3587 73.2509 40.9248C73.4697 41.4908 73.5677 42.093 73.5395 42.6959C73.5677 43.2988 73.4697 43.901 73.2509 44.4671C73.0321 45.0332 72.6971 45.5517 72.2656 45.9922C71.834 46.4327 71.3146 46.7862 70.7381 47.0319C70.1616 47.2777 69.5396 47.4108 68.9085 47.4233H68.1853C68.3299 53.9235 70.7897 58.431 77.735 69.2154V9.97149C77.7427 9.93263 77.7464 9.89314 77.7461 9.85359C77.7421 9.77548 77.7215 9.69896 77.6856 9.62867C77.6498 9.55837 77.5995 9.49576 77.5376 9.44463C77.4757 9.3935 77.4037 9.35491 77.3257 9.33119C77.2478 9.30748 77.1654 9.29913 77.084 9.30666C76.9485 9.29241 76.812 9.32079 76.6949 9.38749C76.5778 9.4542 76.4864 9.55559 76.435 9.6763L76.5074 26.3723C76.5356 26.9752 76.4374 27.5774 76.2186 28.1435C75.9998 28.7095 75.6648 29.2281 75.2333 29.6685C74.8018 30.109 74.2826 30.4625 73.7061 30.7083C73.1296 30.9541 72.5073 31.0871 71.8762 31.0996C71.2605 31.0997 70.6519 30.9746 70.0905 30.7327C69.5291 30.4908 69.0278 30.1375 68.6201 29.6964C67.7245 28.8031 67.2309 27.6096 67.2452 26.3723L67.3174 10.5627C67.3174 10.4156 67.2452 10.1931 67.2452 10.0459C67.2306 9.67522 67.2547 9.30402 67.3174 8.93791C67.2972 8.30469 67.4207 7.67479 67.6791 7.09147C68.2275 5.09217 69.4425 3.31828 71.1401 2.03861C72.8378 0.758937 74.9256 0.0432469 77.0869 0C79.1865 0.0317735 81.2213 0.6997 82.8986 1.90763C84.5759 3.11555 85.809 4.80117 86.4205 6.72182C86.7907 7.40758 86.9891 8.16625 86.9999 8.93791V81.3329C87.0052 82.203 86.7576 83.0573 86.2849 83.8008C85.8121 84.5442 85.1327 85.1475 84.3224 85.5435C83.6849 85.8418 82.9849 85.9978 82.2752 86C81.2507 86.0029 80.2585 85.6573 79.4761 85.0249V85.0249Z" fill="#F4F4F4"/>
</svg>
