<svg width="38" height="23" viewBox="0 0 38 23" fill="none" xmlns="http://www.w3.org/2000/svg">
<path fill-rule="evenodd" clip-rule="evenodd" d="M36 23H2C1.47005 22.9984 0.962265 22.7872 0.587535 22.4125C0.212805 22.0377 0.00158273 21.5299 0 21L0 3C0.00158273 2.47005 0.212805 1.96227 0.587535 1.58753C0.962265 1.2128 1.47005 1.00158 2 1H36C36.5299 1.00158 37.0377 1.2128 37.4125 1.58753C37.7872 1.96227 37.9984 2.47005 38 3V21C37.9984 21.5299 37.7872 22.0377 37.4125 22.4125C37.0377 22.7872 36.5299 22.9984 36 23Z" fill="#9C3F10"/>
<path fill-rule="evenodd" clip-rule="evenodd" d="M36 22H2C1.47005 21.9984 0.962265 21.7872 0.587535 21.4125C0.212805 21.0377 0.00158273 20.5299 0 20L0 2C0.00158273 1.47005 0.212805 0.962265 0.587535 0.587535C0.962265 0.212805 1.47005 0.00158273 2 0L36 0C36.5299 0.00158273 37.0377 0.212805 37.4125 0.587535C37.7872 0.962265 37.9984 1.47005 38 2V20C37.9984 20.5299 37.7872 21.0377 37.4125 21.4125C37.0377 21.7872 36.5299 21.9984 36 22Z" fill="#EB5D15"/>
<path d="M15.4378 7.38877C15.4378 7.93959 14.9776 8.38448 14.4114 8.38448C13.8435 8.38448 13.3849 7.93807 13.3849 7.38877C13.3849 6.83796 13.8451 6.39307 14.4114 6.39307C14.9776 6.39307 15.4378 6.83947 15.4378 7.38877Z" fill="#FCCF11"/>
<path d="M10.7844 9.59669H7.97645V6.77148H5.99997V14.489H7.97645V11.2612H10.7844V14.489H12.7593V6.77148H10.7844V9.59669Z" fill="#FFFBFF"/>
<path d="M19.7542 8.68876C17.9868 8.68876 17.9337 9.59669 17.9337 9.59669V8.89002H16.3738V13.177C15.4113 13.177 15.4378 12.1435 15.4378 12.1435V8.89002H13.5143C13.5143 8.89002 13.5143 10.2201 13.5143 12.086C13.5143 14.489 16.2958 14.6403 16.2958 14.6403V16.6075H18.1942V14.6902C21.8337 14.6902 22.2502 13.2027 22.2502 11.7394C22.2502 10.2776 21.5217 8.68876 19.7542 8.68876ZM18.8697 13.177C18.4797 13.177 18.1942 13.177 18.1942 13.177V10.8829C18.1942 10.8829 18.2722 10.1521 19.1817 10.1521C20.0912 10.1521 20.3002 11.2612 20.3002 11.8423C20.3002 12.4234 20.1177 13.177 18.8697 13.177Z" fill="#FFFBFF"/>
<path d="M25.3436 8.68876C22.3531 8.68876 22.5356 11.9679 22.5356 11.9165C22.5356 11.865 22.3531 14.666 25.4731 14.666C26.643 14.666 27.735 14.2378 27.735 14.2378L27.5525 12.9772C27.5525 12.9772 24.484 13.7838 24.2251 12.2206H27.9425C27.9441 12.2191 28.3341 8.68876 25.3436 8.68876ZM26.3841 10.9828H24.2001C24.2001 10.9828 24.1221 9.79795 25.2921 9.79795C26.4621 9.79795 26.3841 10.9828 26.3841 10.9828Z" fill="#FFFBFF"/>
<path d="M30.128 9.5967L30.1405 8.89002H28.4121V14.489H30.44V11.2613C30.44 11.2613 30.3355 10.1006 32 10.429V8.68876C32 8.68876 30.674 8.38611 30.128 9.5967Z" fill="#FFFBFF"/>
<path opacity="0.2" fill-rule="evenodd" clip-rule="evenodd" d="M38 20V2C37.9984 1.47005 37.7872 0.962265 37.4125 0.587535C37.0377 0.212805 36.53 0.00158273 36 0L7.60001 0L29.6 22H36C36.53 21.9984 37.0377 21.7872 37.4125 21.4125C37.7872 21.0377 37.9984 20.5299 38 20Z" fill="white"/>
</svg>
