<svg width="38" height="23" viewBox="0 0 38 23" fill="none" xmlns="http://www.w3.org/2000/svg">
<path fill-rule="evenodd" clip-rule="evenodd" d="M36 23H2C1.47005 22.9984 0.962265 22.7872 0.587535 22.4125C0.212805 22.0377 0.00158273 21.5299 0 21L0 3C0.00158273 2.47005 0.212805 1.96227 0.587535 1.58753C0.962265 1.2128 1.47005 1.00158 2 1H36C36.5299 1.00158 37.0377 1.2128 37.4125 1.58753C37.7872 1.96227 37.9984 2.47005 38 3V21C37.9984 21.5299 37.7872 22.0377 37.4125 22.4125C37.0377 22.7872 36.5299 22.9984 36 23Z" fill="#188161"/>
<path fill-rule="evenodd" clip-rule="evenodd" d="M36 22H2C1.47005 21.9984 0.962265 21.7872 0.587535 21.4125C0.212805 21.0377 0.00158273 20.5299 0 20L0 2C0.00158273 1.47005 0.212805 0.962265 0.587535 0.587535C0.962265 0.212805 1.47005 0.00158273 2 0L36 0C36.5299 0.00158273 37.0377 0.212805 37.4125 0.587535C37.7872 0.962265 37.9984 1.47005 38 2V20C37.9984 20.5299 37.7872 21.0377 37.4125 21.4125C37.0377 21.7872 36.5299 21.9984 36 22Z" fill="#33A381"/>
<path d="M19 19C23.4183 19 27 15.4183 27 11C27 6.58172 23.4183 3 19 3C14.5817 3 11 6.58172 11 11C11 15.4183 14.5817 19 19 19Z" fill="white"/>
<path d="M6 12C6.55228 12 7 11.5523 7 11C7 10.4477 6.55228 10 6 10C5.44772 10 5 10.4477 5 11C5 11.5523 5.44772 12 6 12Z" fill="white"/>
<path d="M32 12C32.5523 12 33 11.5523 33 11C33 10.4477 32.5523 10 32 10C31.4477 10 31 10.4477 31 11C31 11.5523 31.4477 12 32 12Z" fill="white"/>
<path d="M18.3412 17.1176V15.5077C17.0235 15.4433 16.2988 15.1857 15.7059 14.8637L16.1012 13.125C16.76 13.447 17.6165 13.769 18.6047 13.769C19.4612 13.769 20.0541 13.447 20.0541 12.8675C20.0541 12.2879 19.5929 11.9659 18.407 11.5795C16.76 11.0644 15.7059 10.2916 15.7059 8.87489C15.7059 7.58697 16.2988 6.55663 18.2753 6.23465V4.88232H19.5929V6.17025C20.9106 6.23465 21.3718 6.42783 21.8329 6.68542L21.4376 8.35972C21.0423 8.16653 20.3835 7.84455 19.2635 7.84455C18.2753 7.84455 17.9459 8.23093 17.9459 8.6817C17.9459 9.19687 18.4729 9.45446 19.7906 9.96963C21.5694 10.6136 22.2941 11.3863 22.2941 12.7387C22.2941 14.091 21.5694 15.1857 19.5929 15.5077V17.1176H18.3412Z" fill="#188161"/>
<path opacity="0.2" fill-rule="evenodd" clip-rule="evenodd" d="M38 20V2C37.9984 1.47005 37.7872 0.962265 37.4124 0.587535C37.0377 0.212805 36.5299 0.00158273 36 0L7.59998 0L29.6 22H36C36.5299 21.9984 37.0377 21.7872 37.4124 21.4125C37.7872 21.0377 37.9984 20.5299 38 20Z" fill="white"/>
</svg>
