<svg width="38" height="23" viewBox="0 0 38 23" fill="none" xmlns="http://www.w3.org/2000/svg">
<path fill-rule="evenodd" clip-rule="evenodd" d="M36 23H2C1.47005 22.9984 0.962265 22.7872 0.587535 22.4125C0.212805 22.0377 0.00158273 21.5299 0 21L0 3C0.00158273 2.47005 0.212805 1.96227 0.587535 1.58753C0.962265 1.2128 1.47005 1.00158 2 1H36C36.5299 1.00158 37.0377 1.2128 37.4125 1.58753C37.7872 1.96227 37.9984 2.47005 38 3V21C37.9984 21.5299 37.7872 22.0377 37.4125 22.4125C37.0377 22.7872 36.5299 22.9984 36 23Z" fill="#222222"/>
<path fill-rule="evenodd" clip-rule="evenodd" d="M36 22H2C1.47005 21.9984 0.962265 21.7872 0.587535 21.4125C0.212805 21.0377 0.00158273 20.5299 0 20L0 2C0.00158273 1.47005 0.212805 0.962265 0.587535 0.587535C0.962265 0.212805 1.47005 0.00158273 2 0L36 0C36.5299 0.00158273 37.0377 0.212805 37.4125 0.587535C37.7872 0.962265 37.9984 1.47005 38 2V20C37.9984 20.5299 37.7872 21.0377 37.4125 21.4125C37.0377 21.7872 36.5299 21.9984 36 22Z" fill="#414141"/>
<path d="M9.2 8.69997C9.51924 8.57591 9.8576 8.50824 10.2 8.49997C10.9011 8.48873 11.5842 8.72223 12.1318 9.16026C12.6793 9.5983 13.0571 10.2135 13.2 10.9L15.3 10.5C15.056 9.35877 14.4248 8.33707 13.5135 7.60805C12.6023 6.87903 11.4669 6.48755 10.3 6.49997C9.68641 6.48503 9.07558 6.58684 8.5 6.79997L9.2 8.69997Z" fill="#FFF100"/>
<path d="M6.70001 15.1998L8.10001 13.6998C7.78596 13.4257 7.53422 13.0876 7.36174 12.7081C7.18925 12.3286 7.10001 11.9166 7.10001 11.4998C7.10001 11.083 7.18925 10.671 7.36174 10.2915C7.53422 9.91203 7.78596 9.57389 8.10001 9.2998L6.70001 7.7998C6.16669 8.25756 5.73863 8.8252 5.44516 9.46382C5.15169 10.1025 4.99976 10.797 4.99976 11.4998C4.99976 12.2026 5.15169 12.8972 5.44516 13.5358C5.73863 14.1744 6.16669 14.7421 6.70001 15.1998Z" fill="#00A3DF"/>
<path d="M13.1 12.1001C12.9399 12.7777 12.5575 13.3823 12.0137 13.8172C11.47 14.2522 10.7963 14.4926 10.1 14.5001C9.75879 14.4819 9.42199 14.4145 9.10001 14.3001L8.40001 16.3001C8.91085 16.4959 9.45293 16.5976 10 16.6001C11.1669 16.6125 12.3023 16.221 13.2135 15.492C14.1248 14.763 14.756 13.7413 15 12.6001L13.1 12.1001Z" fill="#EE4023"/>
<path d="M22 13.4995C21.6456 13.8247 21.181 14.0034 20.7 13.9995C20.3433 14.0076 19.9933 13.9026 19.7 13.6995L19 14.7995C19.4755 15.1137 20.0302 15.2871 20.6 15.2995C21.0103 15.3206 21.4203 15.2509 21.8006 15.0953C22.1808 14.9398 22.5221 14.7022 22.8 14.3995L22 13.4995Z" fill="white"/>
<path d="M20.8 9.09967C19.9838 9.09445 19.1967 9.40279 18.6013 9.96103C18.0058 10.5193 17.6474 11.2848 17.6 12.0997C17.6121 12.7008 17.7847 13.2877 18.1 13.7997L23.8 11.3997C23.6004 10.7524 23.2044 10.1833 22.6669 9.77117C22.1293 9.35906 21.4769 9.12438 20.8 9.09967ZM18.9 12.3997V12.1997C18.9208 11.7116 19.1307 11.2507 19.4853 10.9148C19.84 10.5788 20.3115 10.394 20.8 10.3997C21.3223 10.4305 21.8175 10.6427 22.2 10.9997L18.9 12.3997Z" fill="white"/>
<path d="M25.6 7.7998V13.6998L26.6 14.0998L26.1 15.2998L25.1 14.8998C24.894 14.8249 24.7183 14.6843 24.6 14.4998C24.4747 14.2874 24.4058 14.0464 24.4 13.7998V7.7998H25.6Z" fill="white"/>
<path d="M29.3 10.4997C29.4889 10.4181 29.6949 10.3838 29.9 10.3997C30.3141 10.3952 30.7175 10.5312 31.0444 10.7855C31.3713 11.0397 31.6024 11.3972 31.7 11.7997L33 11.4997C32.8344 10.8061 32.4367 10.19 31.8728 9.75353C31.309 9.31702 30.6129 9.08632 29.9 9.09967C29.5588 9.1179 29.222 9.18526 28.9 9.29967L29.3 10.4997Z" fill="white"/>
<path d="M27.9 14.4996L28.8 13.5996C28.6118 13.4393 28.4607 13.24 28.3571 13.0155C28.2535 12.7911 28.1998 12.5468 28.1998 12.2996C28.1998 12.0524 28.2535 11.8081 28.3571 11.5837C28.4607 11.3592 28.6118 11.16 28.8 10.9996L27.9 10.0996C27.2451 10.6917 26.8498 11.5181 26.8 12.3996C26.8264 12.8071 26.9379 13.2045 27.1274 13.5662C27.3169 13.9279 27.5801 14.2459 27.9 14.4996Z" fill="white"/>
<path d="M31.7 12.4995C31.6024 12.902 31.3713 13.2595 31.0444 13.5137C30.7175 13.768 30.3141 13.904 29.9 13.8995C29.6949 13.9154 29.4889 13.881 29.3 13.7995L28.9 14.9995C29.2193 15.1236 29.5576 15.1912 29.9 15.1995C30.6129 15.2129 31.309 14.9822 31.8728 14.5457C32.4367 14.1091 32.8344 13.4931 33 12.7995L31.7 12.4995Z" fill="white"/>
<path opacity="0.05" fill-rule="evenodd" clip-rule="evenodd" d="M38 20V2C37.9984 1.47005 37.7872 0.962265 37.4125 0.587535C37.0377 0.212805 36.53 0.00158273 36 0L7.60001 0L29.6 22H36C36.53 21.9984 37.0377 21.7872 37.4125 21.4125C37.7872 21.0377 37.9984 20.5299 38 20Z" fill="white"/>
</svg>
