<svg width="38" height="23" viewBox="0 0 38 23" fill="none" xmlns="http://www.w3.org/2000/svg">
<path fill-rule="evenodd" clip-rule="evenodd" d="M36 23H2C1.47005 22.9984 0.962265 22.7872 0.587535 22.4125C0.212805 22.0377 0.00158273 21.5299 0 21L0 3C0.00158273 2.47005 0.212805 1.96227 0.587535 1.58753C0.962265 1.2128 1.47005 1.00158 2 1H36C36.5299 1.00158 37.0377 1.2128 37.4125 1.58753C37.7872 1.96227 37.9984 2.47005 38 3V21C37.9984 21.5299 37.7872 22.0377 37.4125 22.4125C37.0377 22.7872 36.5299 22.9984 36 23Z" fill="#11779E"/>
<path fill-rule="evenodd" clip-rule="evenodd" d="M36 22H2C1.47005 21.9984 0.962265 21.7872 0.587535 21.4125C0.212805 21.0377 0.00158273 20.5299 0 20L0 2C0.00158273 1.47005 0.212805 0.962265 0.587535 0.587535C0.962265 0.212805 1.47005 0.00158273 2 0L36 0C36.5299 0.00158273 37.0377 0.212805 37.4125 0.587535C37.7872 0.962265 37.9984 1.47005 38 2V20C37.9984 20.5299 37.7872 21.0377 37.4125 21.4125C37.0377 21.7872 36.5299 21.9984 36 22Z" fill="#119DD2"/>
<path d="M7.4 8L4 15H8.1L8.6 13.9H9.7L10.2 15H14.7V14.1L15.1 15H17.4L17.8 14.1V15H27L28.1 13.9L29.2 15H34L30.6 11.5L34 8H29.3L28.2 9.1L27.2 8H17.1L16.2 9.8L15.3 8H11.3V8.8L10.8 8H7.4ZM8.2 9H10.2L12.4 13.7V9H14.6L16.3 12.4L17.9 9H20V14H18.7V10.1L16.8 14H15.6L13.7 10.1V14H11L10.5 12.9H7.8L7.2 14H5.8L8.2 9ZM21.2 9H26.5L28.1 10.6L29.9 9H31.5L29 11.5L31.5 14H29.8L28.2 12.3L26.5 14H21.3V9H21.2ZM9.1 9.8L8.2 11.8H10L9.1 9.8ZM22.6 10V10.9H25.5V11.9H22.6V12.9H25.9L27.4 11.4L25.9 10H22.6Z" fill="white"/>
<path opacity="0.1" fill-rule="evenodd" clip-rule="evenodd" d="M38 20V2C37.9984 1.47005 37.7872 0.962265 37.4125 0.587535C37.0377 0.212805 36.53 0.00158273 36 0L7.60001 0L29.6 22H36C36.53 21.9984 37.0377 21.7872 37.4125 21.4125C37.7872 21.0377 37.9984 20.5299 38 20Z" fill="white"/>
</svg>
