<svg width="32" height="32" viewBox="0 0 32 32" fill="none" xmlns="http://www.w3.org/2000/svg">
<path d="M16 18.8125C14.4497 18.8125 13.1875 17.5502 13.1875 16C13.1875 14.4486 14.4497 13.1875 16 13.1875C17.5502 13.1875 18.8125 14.4486 18.8125 16C18.8125 17.5502 17.5502 18.8125 16 18.8125Z" fill="#FC5BB3"/>
<path fill-rule="evenodd" clip-rule="evenodd" d="M23.3125 19.375C23.3125 21.5462 21.5462 23.3125 19.375 23.3125H12.625C10.4537 23.3125 8.6875 21.5462 8.6875 19.375V12.625C8.6875 10.4537 10.4537 8.6875 12.625 8.6875H19.375C21.5462 8.6875 23.3125 10.4537 23.3125 12.625V19.375ZM16 11.5C13.5149 11.5 11.5 13.5149 11.5 16C11.5 18.4851 13.5149 20.5 16 20.5C18.4851 20.5 20.5 18.4851 20.5 16C20.5 13.5149 18.4851 11.5 16 11.5ZM21.4371 11.1625C21.4371 11.4937 21.1687 11.7621 20.8375 11.7621C20.5063 11.7621 20.2379 11.4937 20.2379 11.1625C20.2379 10.8313 20.5063 10.5629 20.8375 10.5629C21.1687 10.5629 21.4371 10.8313 21.4371 11.1625Z" fill="#FC5BB3"/>
<path fill-rule="evenodd" clip-rule="evenodd" d="M16 32C24.8366 32 32 24.8366 32 16C32 7.16344 24.8366 0 16 0C7.16344 0 0 7.16344 0 16C0 24.8366 7.16344 32 16 32ZM25 12.625C25 9.51888 22.4811 7 19.375 7H12.625C9.51888 7 7 9.51888 7 12.625V19.375C7 22.4811 9.51888 25 12.625 25H19.375C22.4811 25 25 22.4811 25 19.375V12.625Z" fill="#FC5BB3"/>
</svg>
