<svg width="60" height="52" viewBox="0 0 60 52" fill="none" xmlns="http://www.w3.org/2000/svg">
<path d="M18.7316 49.908C16.9203 49.876 15.173 49.2273 13.7739 48.0675C9.85969 44.6491 5.42428 30.7104 5.03257 20.4562C4.77199 14.0135 6.0788 9.41195 8.81626 6.51929C13.2517 2.04872 18.8616 0.86556 25.2545 3.10085C28.1436 4.11574 30.8361 5.62839 33.2119 7.57142C33.7308 8.02474 34.0499 8.66726 34.0988 9.35764C34.1477 10.048 33.9225 10.7297 33.4727 11.2528C33.25 11.5117 32.9788 11.724 32.6747 11.8773C32.3706 12.0307 32.0395 12.1222 31.7003 12.1466C31.0153 12.1959 30.3389 11.969 29.8199 11.5156C29.4276 11.1203 19.5134 2.96926 12.336 10.3297C10.6397 12.0392 9.85744 15.5892 9.98745 20.454C10.5092 30.9725 15.2063 42.5431 17.1603 44.2521C17.682 44.6474 18.5955 45.0427 19.2477 44.7778C19.9 44.513 20.1612 43.7257 20.2917 43.0683C22.1236 34.3932 26.6896 32.8158 29.1665 32.5527H29.5587C32.0373 32.8158 36.6038 34.3932 38.4301 43.0712C38.5607 43.7285 38.8224 44.6491 39.4741 44.7807C40.1264 45.0438 41.0398 44.6491 41.5615 44.2549C44.0401 42.1512 49.7806 30.0548 49.7806 20.1964C49.7806 15.7259 48.6038 12.3074 46.3886 10.3353C44.9535 9.14934 43.5184 8.49479 41.9527 8.49479C41.6171 8.49063 41.2857 8.41863 40.9782 8.28306C40.6707 8.14749 40.3933 7.9511 40.1625 7.70554C39.9317 7.45997 39.7522 7.17021 39.6345 6.85344C39.5168 6.53666 39.4634 6.19931 39.4775 5.86135C39.4812 5.52319 39.5522 5.18922 39.6862 4.8792C39.8203 4.56919 40.0148 4.28944 40.2581 4.05652C40.5013 3.8236 40.7885 3.64225 41.1026 3.52321C41.4167 3.40416 41.7513 3.34984 42.0866 3.36346C44.8263 3.36346 47.4354 4.54944 49.784 6.51929C53.3043 9.54354 55 14.2762 55 20.3246C55 27.0299 52.6514 33.8674 51.3469 37.2858C49.7812 41.2301 47.3026 46.2264 44.9541 48.1991C44.0014 49.0289 42.8529 49.5979 41.619 49.8511C40.3851 50.1044 39.1073 50.0336 37.9084 49.6454C36.6038 49.2501 34.2553 47.9359 33.4724 44.1233C33.0802 42.2828 31.9067 38.0754 29.2976 37.6806C26.6885 38.0759 25.5139 42.2822 25.2533 44.1233C24.4688 47.9365 22.1219 49.2512 20.8174 49.6454C20.1436 49.8619 19.4359 49.9511 18.7299 49.9086" fill="#01EFAE"/>
<path d="M18.7497 21.8261H14.3479C14.365 19.0645 15.36 16.4214 17.1175 14.4686C18.875 12.5158 21.2538 11.4103 23.7392 11.3913V16.2822C23.0824 16.276 22.4311 16.4152 21.8232 16.6916C21.2154 16.968 20.6631 17.3761 20.1987 17.8922C19.7343 18.4082 19.3669 19.0218 19.1182 19.6972C18.8694 20.3726 18.7441 21.0963 18.7497 21.8261Z" fill="#005DF9"/>
</svg>
