<svg width="60" height="52" viewBox="0 0 60 52" fill="none" xmlns="http://www.w3.org/2000/svg">
<path d="M18.9549 12.242H25.2869V8.92238H23.7894C23.1854 8.91965 22.5878 8.80156 22.0309 8.57484C21.4739 8.34813 20.9684 8.01723 20.5433 7.60104C20.1182 7.18485 19.7818 6.69153 19.5532 6.14923C19.3247 5.60693 19.2085 5.02629 19.2113 4.44044C19.2141 3.85459 19.3359 3.27501 19.5696 2.73481C19.8034 2.1946 20.1445 1.70433 20.5736 1.292C21.0027 0.879675 21.5113 0.553358 22.0704 0.331684C22.6296 0.11001 23.2282 -0.00267985 23.8322 4.83774e-05H36.2392C37.453 0.00120589 38.6168 0.469352 39.4752 1.30177C40.3336 2.13419 40.8165 3.26289 40.8179 4.44022C40.8191 5.02805 40.6986 5.61013 40.4634 6.15191C40.2282 6.69368 39.8832 7.18411 39.4489 7.59409C39.0262 8.01544 38.5206 8.35014 37.962 8.57832C37.4035 8.80649 36.8033 8.9235 36.1972 8.92238H34.7425V12.242H41.0745C41.3277 12.241 41.5785 12.2886 41.8126 12.382C42.0467 12.4755 42.2594 12.6131 42.4384 12.7867C42.6174 12.9603 42.7592 13.1666 42.8556 13.3937C42.952 13.6207 43.0011 13.864 43 14.1096C42.9987 14.6059 42.7993 15.0824 42.4435 15.4392C42.2639 15.613 42.0503 15.7503 41.8152 15.8429C41.5801 15.9355 41.3282 15.9816 41.0745 15.9785H39.1062V36.7255C39.1131 36.8514 39.0987 36.9776 39.0633 37.099C38.8974 39.2465 37.9408 41.2645 36.3681 42.7848C35.1191 43.9923 33.5492 44.8402 31.8331 45.2341V50.1326C31.8315 50.6282 31.6322 51.104 31.2771 51.4604C31.0058 51.7195 30.6617 51.8952 30.288 51.9656C29.9143 52.036 29.5274 51.9979 29.1758 51.8562C28.8243 51.7145 28.5236 51.4754 28.3113 51.1689C28.0991 50.8623 27.9848 50.5019 27.9826 50.1326V45.3158C25.9858 44.9327 24.1732 43.9263 22.8216 42.4501C21.47 40.974 20.6536 39.1094 20.4971 37.141C20.4618 37.0196 20.4473 36.8934 20.4543 36.7675V20.5848C20.4504 20.3372 20.4973 20.0913 20.5923 19.8614C20.6873 19.6315 20.8285 19.4223 21.0076 19.2458C21.1868 19.0694 21.4004 18.9292 21.6359 18.8336C21.8714 18.7379 22.1242 18.6887 22.3795 18.6887C22.6349 18.6887 22.8877 18.7379 23.1232 18.8336C23.3587 18.9292 23.5723 19.0694 23.7514 19.2458C23.9306 19.4223 24.0718 19.6315 24.1668 19.8614C24.2618 20.0913 24.3087 20.3372 24.3048 20.5848V36.3935C24.3179 37.7939 24.9006 39.1326 25.9262 40.1184C26.9518 41.1041 28.3373 41.6572 29.7811 41.6572C31.225 41.6572 32.6105 41.1041 33.636 40.1184C34.6616 39.1326 35.2444 37.7939 35.2575 36.3935V15.9767H32.817C32.5639 15.9777 32.313 15.9301 32.0789 15.8367C31.8448 15.7432 31.6321 15.6057 31.4531 15.432C31.2741 15.2584 31.1323 15.0521 31.0359 14.8251C30.9396 14.598 30.8905 14.3547 30.8916 14.1091V7.01326C30.8905 6.76772 30.9396 6.5244 31.0359 6.29734C31.1323 6.07029 31.2741 5.864 31.4531 5.69037C31.6321 5.51674 31.8448 5.37922 32.0789 5.28573C32.313 5.19225 32.5639 5.14465 32.817 5.1457H36.199C36.3919 5.1457 36.5769 5.07137 36.7133 4.93907C36.8497 4.80676 36.9264 4.62732 36.9264 4.44022C36.9264 4.25311 36.8497 4.07367 36.7133 3.94137C36.5769 3.80907 36.3919 3.73474 36.199 3.73474H23.7894C23.5965 3.73474 23.4115 3.80907 23.2751 3.94137C23.1387 4.07367 23.062 4.25311 23.062 4.44022C23.062 4.62732 23.1387 4.80676 23.2751 4.93907C23.4115 5.07137 23.5965 5.1457 23.7894 5.1457H27.212C27.6574 5.1378 28.0913 5.28371 28.4362 5.55737C28.781 5.83104 29.0144 6.21465 29.0946 6.63975C29.1299 6.76113 29.1444 6.88732 29.1374 7.01326V14.1091C29.1364 14.6055 28.9371 15.0822 28.5814 15.4392C28.4018 15.613 28.1882 15.7503 27.9531 15.8429C27.718 15.9355 27.4661 15.9816 27.2124 15.9785H18.9549C18.6996 15.9822 18.4461 15.9367 18.2091 15.8446C17.9721 15.7525 17.7563 15.6155 17.5744 15.4417C17.3925 15.268 17.248 15.0608 17.1494 14.8324C17.0508 14.6039 17 14.3588 17 14.1111C17 13.8634 17.0508 13.6183 17.1494 13.3898C17.248 13.1614 17.3925 12.9542 17.5744 12.7805C17.7563 12.6067 17.9721 12.4698 18.2091 12.3776C18.4461 12.2855 18.6996 12.24 18.9549 12.2438V12.242Z" fill="#01EFAE"/>
<path d="M28 20H37V23.6129H28V20Z" fill="#005DF9"/>
<path d="M28 26.1935H37V29.8065H28V26.1935Z" fill="#005DF9"/>
<path d="M28 32.3871H37V36H28V32.3871Z" fill="#005DF9"/>
</svg>
