<svg width="80" height="80" viewBox="0 0 80 80" fill="none" xmlns="http://www.w3.org/2000/svg">
<path d="M63.6364 14H16.3636C15.0583 14 14 15.0583 14 16.3636V63.6364C14 64.9417 15.0583 66 16.3636 66H63.6364C64.9417 66 66 64.9417 66 63.6364V16.3636C66 15.0583 64.9417 14 63.6364 14ZM61.2727 61.2727H18.7273V18.7273H61.2727V61.2727Z" fill="white"/>
<path d="M31.432 52.3104C31.8607 52.752 32.4422 53 33.0483 53C33.6545 53 34.236 52.7518 34.6645 52.3104L55.3305 31.0198C56.2232 30.1002 56.2232 28.6093 55.3305 27.6897C54.438 26.7701 52.9907 26.7701 52.098 27.6897L33.0483 47.3151L27.902 42.0131C27.0093 41.0934 25.5621 41.0936 24.6695 42.0131C23.7768 42.9327 23.7768 44.4236 24.6695 45.3432L31.432 52.3104Z" fill="#01EFAE"/>
</svg>
