<svg width="60" height="52" viewBox="0 0 60 52" fill="none" xmlns="http://www.w3.org/2000/svg">
<path d="M56.9995 25.4072C56.9962 23.2151 56.576 21.045 55.7626 19.0202C54.5431 16.0489 52.5036 13.5142 49.8983 11.7323C47.2931 9.95037 44.2374 9.00009 41.1126 9H18.8868C16.8004 8.99956 14.7344 9.42365 12.8067 10.248C10.879 11.0724 9.12752 12.281 7.6522 13.8046C6.17689 15.3282 5.00669 17.1371 4.20845 19.1279C3.41021 21.1187 2.99958 23.2525 3 25.4072V32.7125C2.99958 34.8515 3.40722 36.9697 4.19963 38.946C4.99204 40.9223 6.1537 42.7179 7.61826 44.2305C9.08281 45.743 10.8215 46.9427 12.7352 47.7611C14.6488 48.5794 16.6997 49.0004 18.7709 49C19.5091 49 20.217 48.6972 20.7389 48.1581C21.2608 47.6191 21.554 46.888 21.554 46.1257C21.554 45.3634 21.2608 44.6323 20.7389 44.0933C20.217 43.5543 19.5091 43.2514 18.7709 43.2514C17.0727 43.2546 15.4008 42.8177 13.9083 41.9808C12.4158 41.1439 11.1505 39.9337 10.2281 38.4611C9.17077 36.7573 8.60752 34.7766 8.60488 32.7529V25.4072C8.61097 22.5823 9.70027 19.8749 11.6344 17.8774C13.5686 15.8798 16.1902 14.7549 18.9255 14.7486H41.1529C43.1813 14.7496 45.1646 15.3672 46.8555 16.5243C48.5463 17.6815 49.8701 19.327 50.6616 21.2558C51.2007 22.569 51.4769 23.9814 51.4735 25.4078V32.7125C51.4702 35.4962 50.3979 38.1648 48.4919 40.1331C46.5859 42.1013 44.0017 43.2085 41.3063 43.2115H31.3329C30.5948 43.2115 29.8869 43.5144 29.365 44.0534C28.843 44.5924 28.5498 45.3235 28.5498 46.0858C28.5498 46.8481 28.843 47.5792 29.365 48.1182C29.8869 48.6573 30.5948 48.9601 31.3329 48.9601H41.2291C45.4104 48.9556 49.4193 47.2381 52.3759 44.1846C55.3326 41.1311 56.9956 36.9909 57 32.6726L56.9995 25.4072Z" fill="#01EFAE"/>
<path d="M36.045 13.1493H40C40 10.4575 38.9464 7.876 37.0711 5.97265C35.1957 4.06929 32.6522 3 30 3C27.3478 3 24.8043 4.06929 22.9289 5.97265C21.0536 7.876 20 10.4575 20 13.1493H23.9169C23.9001 12.3303 24.0446 11.5161 24.3418 10.7545C24.639 9.99295 25.083 9.29922 25.6478 8.71401C26.2125 8.12879 26.8867 7.66386 27.6307 7.34646C28.3748 7.02906 29.1738 6.86557 29.9809 6.86557C30.788 6.86557 31.587 7.02906 32.3311 7.34646C33.0751 7.66386 33.7493 8.12879 34.3141 8.71401C34.8788 9.29922 35.3228 9.99295 35.62 10.7545C35.9173 11.5161 36.0617 12.3303 36.045 13.1493Z" fill="#005DF9"/>
<path d="M28.5 23.2985H32V28.3731H37V31.9254H32V37H28.5V31.9254H23.5V28.3731H28.5V23.2985Z" fill="#005DF9"/>
</svg>
