<svg width="80" height="80" viewBox="0 0 80 80" fill="none" xmlns="http://www.w3.org/2000/svg">
<circle cx="53.5" cy="36.5" r="13.5" stroke="#01EFAE" stroke-width="4"/>
<path fill-rule="evenodd" clip-rule="evenodd" d="M53.5 45C58.1944 45 62 41.1944 62 36.5C62 31.8056 58.1944 28 53.5 28C48.8056 28 45 31.8056 45 36.5C45 41.1944 48.8056 45 53.5 45ZM53.5 40.4667C55.6907 40.4667 57.4667 38.6907 57.4667 36.5C57.4667 34.3093 55.6907 32.5333 53.5 32.5333C51.3093 32.5333 49.5333 34.3093 49.5333 36.5C49.5333 38.6907 51.3093 40.4667 53.5 40.4667Z" fill="white"/>
<path d="M51.3077 43V52.6054C51.3077 57.3844 47.3221 61.2725 42.4231 61.2725C37.5241 61.2725 33.5385 57.3844 33.5385 52.6054V38.973C39.0618 37.875 43.2308 33.0997 43.2308 27.3921V16.3638C43.2308 15.0583 42.1459 14 40.8077 14H35.9615C34.6234 14 33.5385 15.0583 33.5385 16.3638C33.5385 17.6692 34.6234 18.7275 35.9615 18.7275H38.3846V27.3921C38.3846 31.3022 35.1236 34.4833 31.1154 34.4833C27.1071 34.4833 23.8462 31.3022 23.8462 27.3921V18.7275H26.2692C27.6074 18.7275 28.6923 17.6692 28.6923 16.3638C28.6923 15.0583 27.6074 14 26.2692 14H21.4231C20.0849 14 19 15.0583 19 16.3638V27.3921C19 33.0996 23.169 37.8748 28.6923 38.973V52.6054C28.6923 59.9912 34.8519 66 42.4231 66C49.9942 66 56.1538 59.9912 56.1538 52.6054V43H51.3077Z" fill="white"/>
</svg>
