<svg width="22" height="16" viewBox="0 0 22 16" fill="none" xmlns="http://www.w3.org/2000/svg">
<path d="M10.9998 12C9.8971 12 9 12.8973 9 13.9996C9 15.1023 9.8971 16 10.9998 16C12.1029 16 13 15.1023 13 13.9996C13 12.8973 12.1027 12 10.9998 12Z" fill="white"/>
<path d="M16.5524 9.873C15.0692 8.66537 13.095 8 10.9942 8C8.90139 8 6.93257 8.66098 5.44984 9.86101C4.85099 10.3465 4.84995 11.1376 5.44735 11.6239C5.73756 11.8607 6.12394 11.9907 6.5352 11.9907C6.94459 11.9907 7.32953 11.8614 7.61932 11.6266C8.52164 10.8961 9.72018 10.4936 10.9942 10.4936C12.2729 10.4936 13.4748 10.8986 14.3777 11.6335C14.6679 11.8696 15.0541 12 15.465 12C15.8748 12 16.2595 11.8706 16.5495 11.6359C17.1492 11.1503 17.1502 10.3597 16.5524 9.873Z" fill="white"/>
<path d="M18.6212 6.94193C16.5846 5.04472 13.8763 4 10.9953 4C8.11948 4 5.41527 5.04145 3.38042 6.93196C3.13538 7.15946 3.00052 7.46208 3 7.7843C3 8.10619 3.13433 8.40913 3.37902 8.63695C3.62371 8.86494 3.94939 8.99069 4.2957 8.99069C4.64149 8.99069 4.96664 8.86527 5.21168 8.63826C6.75749 7.20225 8.81158 6.41116 10.9953 6.41116C13.1835 6.41116 15.2404 7.20502 16.7873 8.64594C17.0323 8.87425 17.3578 9 17.7043 9C18.0503 9 18.3756 8.87458 18.6199 8.64724C18.8646 8.41975 18.9998 8.11713 19 7.79491C19.0003 7.47269 18.8657 7.17007 18.6212 6.94193Z" fill="white"/>
<path d="M21.6245 4.00534C18.7862 1.42219 15.0111 0 10.9953 0C6.98491 0 3.21362 1.41887 0.376175 3.99588C-0.125102 4.451 -0.125449 5.1925 0.375481 5.64841C0.618224 5.86924 0.94113 5.99066 1.28468 5.99066C1.62806 5.99066 1.95062 5.86972 2.19337 5.64904C4.54533 3.51322 7.67115 2.33671 10.9953 2.33671C14.3243 2.33671 17.4532 3.51559 19.8057 5.65712C20.0485 5.87811 20.3719 6 20.7153 6C21.0585 6 21.381 5.87842 21.6236 5.65806C22.1251 5.20259 22.1256 4.46082 21.6245 4.00534Z" fill="#01EFAE"/>
</svg>
