<svg width="71" height="61" viewBox="0 0 71 61" fill="none" xmlns="http://www.w3.org/2000/svg">
<path d="M49.6164 57C49.1779 57.0023 48.7434 56.9166 48.338 56.7479C47.9326 56.5792 47.5643 56.3309 47.2545 56.0172C46.9447 55.7036 46.6996 55.3309 46.5333 54.9208C46.3671 54.5107 46.283 54.0713 46.2859 53.6281V51.2675C46.2859 49.0035 46.2859 46.8842 46.2384 44.4276C46.2068 43.5092 46.3639 42.5941 46.6999 41.7401C47.0359 40.8862 47.5434 40.112 48.1904 39.4664C52.3325 35.2266 54.5701 29.736 54.2346 24.7748C53.949 20.4876 51.8539 16.827 47.998 13.7924C45.7175 12.1039 43.0323 11.0618 40.22 10.7739C37.4077 10.4859 34.5704 10.9625 32.0013 12.1545C26.4789 14.7077 22.8604 20.1509 22.2887 26.7014C22.2412 27.4241 22.1456 28.532 17.8135 35.2272L21.432 37.8285C21.9037 38.1694 22.2792 38.629 22.5213 39.1616C22.7633 39.6943 22.8637 40.2817 22.8123 40.8656C22.5742 43.7555 22.1956 48.6207 22.1456 50.114C23.1454 49.9213 25.526 49.4394 27.8111 48.958C30.6679 48.3345 33.3335 47.802 34.3813 47.6094C35.247 47.4624 36.1349 47.669 36.8498 48.1838C37.5647 48.6987 38.0481 49.4796 38.1935 50.3547C38.3389 51.2298 38.1345 52.1274 37.6252 52.8502C37.116 53.5729 36.3436 54.0615 35.4779 54.2085C34.5732 54.3532 31.7157 54.9792 29.1932 55.5092C26.5745 56.0872 24.0989 56.6171 23.0991 56.7618C22.1594 56.9779 21.1837 56.9775 20.2442 56.7607C19.3047 56.5439 18.4255 56.1161 17.6717 55.5092C16.9565 54.8768 16.3922 54.0889 16.0211 53.2047C15.65 52.3204 15.4818 51.3627 15.5291 50.4033C15.5291 49.1027 15.8621 44.7674 16.0527 42.1662L11.3864 38.7918C10.6813 38.2801 10.202 37.51 10.0509 36.646C9.89968 35.782 10.0886 34.8924 10.5772 34.1673C12.7198 30.94 15.1948 26.9421 15.7665 25.6895C16.6713 16.8744 21.7176 9.50457 29.3351 5.98676C32.9912 4.33966 37.0133 3.69936 40.9932 4.13079C44.9731 4.56223 48.7694 6.05005 51.997 8.44336C52.0445 8.44336 52.0445 8.49137 52.092 8.49137C57.4719 12.6832 60.5181 18.175 60.9498 24.3888C61.4241 31.3259 58.5198 38.5511 52.9968 44.2325L52.9493 44.2805V44.3285C52.9968 46.8331 52.9968 49.001 52.9968 51.265V53.6256C52.9845 54.5241 52.623 55.3816 51.9905 56.013C51.358 56.6444 50.5052 56.9989 49.6164 57Z" fill="#FC5BB3"/>
<path d="M47.6437 31L43.3025 28.577C43.6766 27.9208 43.9154 27.1955 44.0046 26.4445C44.0938 25.6934 44.0316 24.932 43.8216 24.2056C43.4099 22.7403 42.4442 21.4953 41.1313 20.7371C40.475 20.3653 39.7518 20.1281 39.0037 20.0392C38.2556 19.9503 37.4974 20.0115 36.7729 20.2192C36.0485 20.4269 35.3722 20.7771 34.7831 21.2494C34.1941 21.7216 33.704 22.3067 33.3411 22.9707L29 20.5003C29.6846 19.2688 30.6038 18.185 31.7049 17.3107C32.806 16.4365 34.0676 15.789 35.4175 15.4051C36.7674 15.0213 38.1793 14.9087 39.5725 15.0737C40.9657 15.2388 42.313 15.6782 43.5373 16.367C44.7677 17.0473 45.8491 17.9702 46.7169 19.0804C47.5846 20.1907 48.2209 21.4655 48.5877 22.8287C48.975 24.1859 49.091 25.6068 48.929 27.0094C48.767 28.412 48.3301 29.7683 47.6437 31Z" fill="white"/>
</svg>
