<svg width="18" height="20" viewBox="0 0 18 20" fill="none" xmlns="http://www.w3.org/2000/svg">
<path d="M16.25 3.05176e-05H1.75C0.783502 3.05176e-05 0 0.895461 0 2.00003C0 3.1046 0.783502 4.00003 1.75 4.00003H16.25C17.2165 4.00003 18 3.1046 18 2.00003C18 0.895461 17.2165 3.05176e-05 16.25 3.05176e-05Z" fill="#055DF9"/>
<path d="M11.25 8.00003H1.75C0.783502 8.00003 0 8.89546 0 10C0 11.1046 0.783502 12 1.75 12H11.25C12.2165 12 13 11.1046 13 10C13 8.89546 12.2165 8.00003 11.25 8.00003Z" fill="#055DF9"/>
<path d="M16.25 16H1.75C0.783502 16 0 16.8955 0 18C0 19.1046 0.783502 20 1.75 20H16.25C17.2165 20 18 19.1046 18 18C18 16.8955 17.2165 16 16.25 16Z" fill="#055DF9"/>
</svg>
