<svg width="96" height="82" viewBox="0 0 96 82" fill="none" xmlns="http://www.w3.org/2000/svg">
<path d="M49.07 79.54C48.0934 79.5383 47.1481 79.1974 46.3984 78.5765C40.4047 73.4371 19.0344 49.5072 19.0344 31.2784C19.0344 16.5824 28.1826 5.42148 42.4316 2.93207C54.899 0.763826 70.2 5.98388 75.5432 20.2752C75.9083 21.2761 75.8575 22.3799 75.4021 23.3437C74.9467 24.3076 74.1239 25.0525 73.1148 25.4146C72.1057 25.7767 70.9929 25.7263 70.0212 25.2746C69.0495 24.8229 68.2985 24.0068 67.9334 23.0058C64.2091 12.889 52.9555 9.19557 43.8887 10.8014C39.9219 11.5244 27.1307 15.0572 27.1307 31.2784C27.1307 37.3014 30.6931 45.8131 37.0883 55.2083C40.6518 60.4151 44.6314 65.3293 48.9887 69.9035C52.237 66.1522 55.2904 62.2391 58.1369 58.1795C64.371 49.3466 68.1788 42.039 68.9048 37.6225C68.9845 37.1005 69.1672 36.5992 69.4422 36.1472C69.7173 35.6952 70.0794 35.3014 70.508 34.9882C70.9365 34.675 71.423 34.4487 71.9397 34.322C72.4565 34.1953 72.9933 34.1708 73.5195 34.2499C74.0458 34.329 74.5512 34.5102 75.0069 34.783C75.4626 35.0559 75.8596 35.4151 76.1754 35.8401C76.4911 36.2652 76.7193 36.7477 76.8471 37.2603C76.9748 37.7728 76.9995 38.3053 76.9197 38.8273C74.7338 52.4784 53.9276 77.6937 50.9322 79.2196C50.326 79.3973 49.7012 79.5049 49.07 79.54Z" fill="#01EFAD"/>
<path d="M48 41C52.5706 41 56.2758 37.3287 56.2758 32.8C56.2758 28.2712 52.5706 24.6 48 24.6C43.4294 24.6 39.7241 28.2712 39.7241 32.8C39.7241 37.3287 43.4294 41 48 41Z" fill="#055DF9"/>
</svg>
