<svg width="60" height="52" viewBox="0 0 60 52" fill="none" xmlns="http://www.w3.org/2000/svg">
<path d="M49.9198 45.3684L37.0468 23.8211V7.84221H38.6682C38.9917 7.84538 39.3126 7.78492 39.6121 7.66438C39.9116 7.54383 40.1837 7.36562 40.4125 7.14017C40.6413 6.91472 40.8221 6.64656 40.9444 6.3514C41.0667 6.05623 41.1281 5.73998 41.1249 5.42116C41.1281 5.10235 41.0667 4.7861 40.9444 4.49093C40.8221 4.19576 40.6413 3.92761 40.4125 3.70216C40.1837 3.47671 39.9116 3.2985 39.6121 3.17795C39.3126 3.0574 38.9917 2.99695 38.6682 3.00012H34.5901C34.2666 2.99695 33.9457 3.0574 33.6462 3.17795C33.3466 3.2985 33.0745 3.47671 32.8458 3.70216C32.617 3.92761 32.4362 4.19576 32.3139 4.49093C32.1915 4.7861 32.1302 5.10235 32.1334 5.42116V24.6443C32.1205 24.7281 32.1379 24.8138 32.1825 24.8864C32.1825 24.9832 32.2317 25.0316 32.2317 25.1285C32.2317 25.2253 32.2808 25.2737 32.2808 25.3706C32.3299 25.4674 32.3299 25.5158 32.3791 25.6127C32.3791 25.6611 32.4282 25.7095 32.4282 25.7579L43.5324 44.1579H15.4771L26.5322 25.7095C26.5508 25.6905 26.5649 25.6675 26.5734 25.6424C26.5819 25.6172 26.5846 25.5906 26.5813 25.5643C26.6304 25.4674 26.6796 25.419 26.6796 25.3222C26.7193 25.2478 26.7363 25.1637 26.7287 25.0801C26.7287 24.9832 26.7778 24.9348 26.7778 24.8379C26.765 24.7541 26.7824 24.6684 26.827 24.5958V5.42116C26.8302 5.10235 26.7688 4.7861 26.6465 4.49093C26.5242 4.19576 26.3434 3.92761 26.1146 3.70216C25.8858 3.47671 25.6137 3.2985 25.3142 3.17795C25.0147 3.0574 24.6938 2.99695 24.3703 3.00012H20.2922C19.9687 2.99695 19.6478 3.0574 19.3483 3.17795C19.0488 3.2985 18.7767 3.47671 18.5479 3.70216C18.3191 3.92761 18.1383 4.19576 18.016 4.49093C17.8936 4.7861 17.8323 5.10235 17.8355 5.42116C17.8323 5.73998 17.8936 6.05623 18.016 6.3514C18.1383 6.64656 18.3191 6.91472 18.5479 7.14017C18.7767 7.36562 19.0488 7.54383 19.3483 7.66438C19.6478 7.78492 19.9687 7.84538 20.2922 7.84221H21.9627V23.8211L9.04058 45.3684C8.82558 45.7354 8.71208 46.1516 8.71143 46.5753C8.71078 46.9991 8.82299 47.4156 9.03686 47.7832C9.25073 48.1508 9.55876 48.4566 9.93017 48.6702C10.3016 48.8837 10.7233 48.9974 11.1533 49H47.807C48.2366 49.0014 48.6588 48.89 49.0301 48.6773C49.4014 48.4645 49.7085 48.1581 49.9198 47.7895C50.1602 47.4302 50.2883 47.0093 50.2883 46.5789C50.2883 46.1486 50.1602 45.7277 49.9198 45.3684Z" fill="#00D99B"/>
<path d="M38.3735 28.7778H28V33.2631H38.3735V28.7778Z" fill="#005DF9"/>
<path d="M34.2289 21H28V25.4444H34.2289V21Z" fill="#005DF9"/>
<path d="M42 36.6081H28V41H42V36.6081Z" fill="#005DF9"/>
</svg>
