<svg width="80" height="80" viewBox="0 0 80 80" fill="none" xmlns="http://www.w3.org/2000/svg">
<path d="M57.0114 11.6244C54.9805 9.28716 52.1654 8 49.0845 8C45.6457 8 42.6648 9.66511 40.4641 12.8152C40.299 13.0514 40.1447 13.2875 40 13.5213C39.8554 13.2874 39.7011 13.0514 39.536 12.8152C37.3352 9.66511 34.3543 8 30.9155 8C27.8346 8 25.0194 9.28716 22.9886 11.6243C21.0615 13.8423 20 16.8074 20 19.9735C20 23.4141 21.3038 26.5889 24.1028 29.9652C26.545 32.9108 30.0481 35.9386 34.1045 39.4446C35.6034 40.7403 37.1535 42.08 38.8007 43.5419C39.1447 43.8472 39.5723 44 39.9999 44C40.4273 44 40.8549 43.8472 41.1991 43.5419C42.846 42.0803 44.3958 40.7407 45.8948 39.4453C48.4998 37.1935 50.7496 35.249 52.702 33.3628C56.4925 29.7005 60 25.5437 60 19.9736C60 16.8074 58.9386 13.8424 57.0114 11.6244ZM50.189 30.6351C48.3105 32.4501 46.0965 34.3636 43.5329 36.5794C42.3924 37.565 41.2228 38.5759 40 39.6497C38.777 38.5761 37.607 37.5648 36.4665 36.579C28.4818 29.6776 23.662 25.512 23.662 19.9736C23.6618 15.2855 26.7801 11.7502 30.9153 11.7502C33.1246 11.7502 35.0035 12.8152 36.4997 14.9155C37.7277 16.6391 38.2319 18.426 38.2353 18.438C38.455 19.2503 39.1769 19.8127 39.9999 19.8127C40.8229 19.8127 41.5447 19.2503 41.7645 18.438C41.7826 18.3711 43.6362 11.7502 49.0845 11.7502C53.2197 11.7502 56.3381 15.2856 56.3381 19.9736C56.3381 23.3705 54.614 26.3596 50.189 30.6351Z" fill="#01EFAE"/>
<path d="M66.375 45.7533C64.8195 45.7533 63.3191 46.4062 62.2585 47.5446L56.7476 53.4599C56.0354 51.1702 53.8964 49.5029 51.3751 49.5029H42.7132C41.5005 49.5029 40.3311 49.0617 39.4207 48.2607C34.5242 43.9523 27.1644 43.9144 22.2214 48.1415C21.202 46.6985 19.5224 45.7534 17.625 45.7534H9.87504C8.83956 45.7534 8 46.5928 8 47.6282V70.1252C8 71.1606 8.83944 72 9.87504 72H17.625C19.3089 72 20.8212 71.2553 21.8529 70.0792L22.9633 70.3912C26.7614 71.4587 30.6875 71.9999 34.6328 71.9999H51.375C55.4841 71.9999 59.4093 70.0375 61.8749 66.7505L70.8768 54.7499C70.8769 54.7496 70.877 54.7493 70.8773 54.7491C71.6118 53.7698 72 52.6039 72 51.3774C72 48.2763 69.4766 45.7533 66.375 45.7533ZM19.5 66.3755C19.5 67.4092 18.659 68.2503 17.625 68.2503H11.75V49.5028H17.625C18.6589 49.5028 19.5 50.3437 19.5 51.3776V66.3755ZM67.877 52.4998L67.8767 52.5L58.875 64.501C57.1138 66.8488 54.3101 68.2504 51.375 68.2504H34.6331C31.031 68.2504 27.4462 67.7562 23.9784 66.7817L23.2451 66.5755C23.2475 66.509 23.2502 66.4426 23.2502 66.3756V52.225L24.5569 51.0753C28.0877 47.9687 33.4127 47.9685 36.9438 51.0753C38.5392 52.479 40.5881 53.2521 42.7134 53.2521H51.3753C52.4092 53.2521 53.2504 54.0932 53.2504 55.1269C53.2504 56.1606 52.4093 57.0017 51.3753 57.0017H38.0493C37.0138 57.0017 36.1742 57.841 36.1742 58.8765C36.1742 59.9119 37.0137 60.7513 38.0493 60.7513H52.6317C54.1872 60.7513 55.6874 60.0986 56.7478 58.9605L65.0025 50.1002C65.3614 49.7149 65.8489 49.5028 66.375 49.5028C67.4089 49.5028 68.25 50.3437 68.25 51.3776C68.25 51.7863 68.121 52.1744 67.877 52.4998Z" fill="#F4F4F4"/>
</svg>
