<svg width="117" height="100" viewBox="0 0 117 100" fill="none" xmlns="http://www.w3.org/2000/svg">
<path d="M58.5 94.9998C33.6987 94.9998 13.5 74.801 13.5 50.0045C13.5 25.2079 33.6987 5 58.5 5C83.3013 5 103.5 25.1988 103.5 49.9954C103.471 58.1901 101.264 66.2267 97.11 73.2657C96.3778 74.3682 95.2695 75.16 93.9964 75.4901C92.7233 75.8202 91.3744 75.6655 90.207 75.0555C89.1094 74.3382 88.3171 73.2322 87.9859 71.9549C87.6546 70.6775 87.8084 69.3213 88.4169 68.1526C91.7588 62.6978 93.5288 56.41 93.528 49.9954C93.5189 45.3687 92.6041 40.7895 90.8362 36.5212C89.0683 32.253 86.4823 28.3799 83.2268 25.1249C79.9714 21.8698 76.1108 19.2971 71.8672 17.5546C67.6236 15.8121 63.0807 14.9343 58.5 14.9717C53.9158 14.9245 49.3679 15.7957 45.1192 17.5349C40.8704 19.2741 37.0052 21.8467 33.7471 25.1041C30.489 28.3614 27.9025 32.2389 26.1374 36.5121C24.3722 40.7854 23.4633 45.3697 23.4633 49.9999C23.4633 54.6302 24.3722 59.2145 26.1374 63.4877C27.9025 67.761 30.489 71.6384 33.7471 74.8958C37.0052 78.1531 40.8704 80.7258 45.1192 82.4649C49.3679 84.2041 53.9158 85.0753 58.5 85.0281C61.6922 84.9804 64.8675 84.5514 67.9599 83.7501C68.5956 83.5717 69.2601 83.5231 69.9146 83.6071C70.5691 83.6911 71.2005 83.906 71.7718 84.2393C72.3431 84.5726 72.8429 85.0176 73.242 85.5482C73.6411 86.0788 73.9314 86.6844 74.0961 87.3297C74.2714 87.9702 74.3174 88.6398 74.2313 89.2986C74.1451 89.9574 73.9286 90.592 73.5947 91.1645C73.2607 91.7371 72.8161 92.2359 72.2874 92.6314C71.7586 93.0268 71.1565 93.3108 70.5168 93.4664C66.5927 94.4948 62.5541 95.0102 58.5 94.9998Z" fill="#01EFAE"/>
<path d="M59.541 31C54.0171 31 49.8599 31.9971 46.5 33.4373V41.3032C49.6891 40.0292 52.6503 39.4198 55.7255 39.4198C59.4271 39.4198 61.1925 40.5831 61.1925 42.8542C61.1925 45.5685 58.9715 46.7318 53.9601 49.723V56.4257H63.0718V52.2157C68.9943 48.2828 71.5 45.8455 71.5 40.4723C71.5 34.7668 67.0581 31 59.541 31ZM58.459 69C61.5911 69 63.6412 66.9504 63.6412 64.2362C63.6412 61.4111 61.705 59.5277 58.459 59.5277C55.4408 59.5277 53.3907 61.5773 53.3907 64.2362C53.3907 67.0058 55.3838 69 58.459 69Z" fill="#005DF9"/>
</svg>
