<svg width="24" height="24" viewBox="0 0 24 24" fill="none" xmlns="http://www.w3.org/2000/svg">
<path fill-rule="evenodd" clip-rule="evenodd" d="M15.5222 17.7594C13.9123 18.9188 11.9363 19.6018 9.80089 19.6018C4.38801 19.6018 0 15.2138 0 9.80089C0 4.38801 4.38801 0 9.80089 0C15.2138 0 19.6018 4.38801 19.6018 9.80089C19.6018 11.9363 18.9188 13.9123 17.7594 15.5222C17.8194 15.5672 17.8769 15.617 17.9315 15.6716L23.532 21.2721C24.156 21.8961 24.156 22.9079 23.532 23.532C22.9079 24.156 21.8961 24.156 21.2721 23.532L15.6716 17.9315C15.617 17.8769 15.5672 17.8194 15.5222 17.7594ZM16.4058 9.80089C16.4058 13.4487 13.4487 16.4058 9.80089 16.4058C6.15308 16.4058 3.19594 13.4487 3.19594 9.80089C3.19594 6.15308 6.15308 3.19594 9.80089 3.19594C13.4487 3.19594 16.4058 6.15308 16.4058 9.80089Z" fill="#DDDDDD"/>
<path fill-rule="evenodd" clip-rule="evenodd" d="M11 7C8.79086 7 7 8.79086 7 11C7 11.5523 6.55228 12 6 12C5.44772 12 5 11.5523 5 11C5 7.68629 7.68629 5 11 5C11.5523 5 12 5.44772 12 6C12 6.55228 11.5523 7 11 7Z" fill="#DDDDDD"/>
</svg>
