<svg width="60" height="52" viewBox="0 0 60 52" fill="none" xmlns="http://www.w3.org/2000/svg">
<path d="M18.9551 12.242H25.2871V8.92238H23.7895C23.1855 8.91965 22.5879 8.80156 22.031 8.57484C21.474 8.34813 20.9686 8.01723 20.5434 7.60104C20.1183 7.18486 19.7819 6.69153 19.5533 6.14923C19.3248 5.60693 19.2086 5.02629 19.2114 4.44044C19.2142 3.85459 19.336 3.27501 19.5697 2.73481C19.8035 2.1946 20.1446 1.70433 20.5737 1.292C21.0028 0.879675 21.5114 0.553358 22.0706 0.331684C22.6297 0.11001 23.2283 -0.00267985 23.8323 4.83774e-05H36.2393C37.4531 0.00120589 38.6169 0.469352 39.4753 1.30177C40.3337 2.13419 40.8166 3.26289 40.818 4.44022C40.8193 5.02805 40.6987 5.61013 40.4635 6.15191C40.2284 6.69368 39.8834 7.18411 39.449 7.59409C39.0264 8.01544 38.5207 8.35014 37.9622 8.57832C37.4036 8.80649 36.8034 8.9235 36.1973 8.92238H34.7426V12.242H41.0746C41.3278 12.241 41.5786 12.2886 41.8127 12.382C42.0468 12.4755 42.2595 12.6131 42.4385 12.7867C42.6176 12.9603 42.7593 13.1666 42.8557 13.3937C42.9521 13.6207 43.0012 13.864 43.0001 14.1096C42.9988 14.6059 42.7994 15.0824 42.4437 15.4392C42.264 15.613 42.0504 15.7503 41.8153 15.8429C41.5802 15.9355 41.3284 15.9816 41.0746 15.9785H39.1063V36.7255C39.1133 36.8514 39.0988 36.9776 39.0635 37.099C38.8975 39.2465 37.9409 41.2646 36.3683 42.7848C35.1192 43.9923 33.5494 44.8402 31.8332 45.2341V50.1326C31.8316 50.6282 31.6324 51.104 31.2772 51.4604C31.0059 51.7195 30.6618 51.8952 30.2881 51.9656C29.9144 52.036 29.5275 51.9979 29.176 51.8562C28.8244 51.7145 28.5237 51.4754 28.3115 51.1689C28.0992 50.8623 27.9849 50.5019 27.9827 50.1326V45.3159C25.986 44.9327 24.1734 43.9263 22.8217 42.4501C21.4701 40.974 20.6537 39.1094 20.4973 37.141C20.4619 37.0196 20.4475 36.8934 20.4544 36.7675V20.5848C20.4505 20.3372 20.4974 20.0913 20.5924 19.8614C20.6874 19.6315 20.8286 19.4223 21.0078 19.2458C21.1869 19.0694 21.4005 18.9292 21.636 18.8336C21.8715 18.7379 22.1243 18.6887 22.3797 18.6887C22.635 18.6887 22.8878 18.7379 23.1233 18.8336C23.3588 18.9292 23.5724 19.0694 23.7516 19.2458C23.9307 19.4223 24.0719 19.6315 24.1669 19.8614C24.2619 20.0913 24.3088 20.3372 24.3049 20.5848V36.3935C24.318 37.7939 24.9008 39.1326 25.9264 40.1184C26.9519 41.1041 28.3374 41.6572 29.7813 41.6572C31.2251 41.6572 32.6106 41.1041 33.6362 40.1184C34.6618 39.1326 35.2445 37.7939 35.2576 36.3935V15.9767H32.8172C32.564 15.9777 32.3131 15.9301 32.079 15.8367C31.8449 15.7432 31.6323 15.6057 31.4532 15.432C31.2742 15.2584 31.1324 15.0521 31.0361 14.8251C30.9397 14.598 30.8906 14.3547 30.8917 14.1091V7.01326C30.8906 6.76772 30.9397 6.5244 31.0361 6.29734C31.1324 6.07029 31.2742 5.864 31.4532 5.69037C31.6323 5.51674 31.8449 5.37922 32.079 5.28573C32.3131 5.19225 32.564 5.14465 32.8172 5.1457H36.1992C36.3921 5.1457 36.5771 5.07137 36.7135 4.93907C36.8499 4.80676 36.9265 4.62732 36.9265 4.44022C36.9265 4.25311 36.8499 4.07367 36.7135 3.94137C36.5771 3.80907 36.3921 3.73474 36.1992 3.73474H23.7895C23.5966 3.73474 23.4116 3.80907 23.2752 3.94137C23.1388 4.07367 23.0622 4.25311 23.0622 4.44022C23.0622 4.62732 23.1388 4.80676 23.2752 4.93907C23.4116 5.07137 23.5966 5.1457 23.7895 5.1457H27.2121C27.6576 5.1378 28.0915 5.28371 28.4363 5.55737C28.7811 5.83104 29.0145 6.21465 29.0947 6.63975C29.13 6.76113 29.1445 6.88732 29.1376 7.01326V14.1091C29.1365 14.6055 28.9372 15.0822 28.5816 15.4392C28.4019 15.613 28.1883 15.7503 27.9532 15.8429C27.7181 15.9355 27.4663 15.9816 27.2125 15.9785H18.9551C18.6998 15.9822 18.4462 15.9367 18.2092 15.8446C17.9722 15.7525 17.7565 15.6155 17.5745 15.4417C17.3926 15.268 17.2481 15.0608 17.1495 14.8324C17.0509 14.6039 17.0001 14.3588 17.0001 14.1111C17.0001 13.8634 17.0509 13.6183 17.1495 13.3898C17.2481 13.1614 17.3926 12.9542 17.5745 12.7805C17.7565 12.6067 17.9722 12.4698 18.2092 12.3776C18.4462 12.2855 18.6998 12.24 18.9551 12.2438V12.242Z" fill="#FC5BB3"/>
<path d="M28.0001 20H37.0001V23.6129H28.0001V20Z" fill="white"/>
<path d="M28.0001 26.1935H37.0001V29.8065H28.0001V26.1935Z" fill="white"/>
<path d="M28.0001 32.3871H37.0001V36H28.0001V32.3871Z" fill="white"/>
</svg>
