<svg width="60" height="52" viewBox="0 0 60 52" fill="none" xmlns="http://www.w3.org/2000/svg">
<path d="M30.1417 49C28.7313 48.9955 27.3359 48.7135 26.0362 48.1703C24.7365 47.6271 23.5583 46.8335 22.5701 45.8354C21.4213 44.6966 20.2306 43.4727 18.9973 42.2494C18.4445 41.6898 18.1385 40.9353 18.1466 40.1519C18.1506 39.764 18.2316 39.3806 18.3849 39.0238C18.5383 38.6669 18.761 38.3435 19.0403 38.072C19.3197 37.8006 19.6502 37.5863 20.0131 37.4415C20.3759 37.2968 20.764 37.2243 21.155 37.2282C21.9449 37.2363 22.6991 37.5552 23.2519 38.1148C24.4852 39.3803 25.719 40.5619 26.8672 41.743C27.3066 42.184 27.8299 42.5342 28.4067 42.7732C28.9835 43.0122 29.6025 43.1352 30.2276 43.1352C30.8527 43.1352 31.4716 43.0122 32.0484 42.7732C32.6252 42.5342 33.1485 42.184 33.5879 41.743C36.054 39.2104 38.9466 36.3007 41.7115 33.4754C44.051 31.0704 46.348 28.7499 48.1769 26.8936C49.3279 25.7214 50.1853 24.2976 50.6803 22.7367C51.1754 21.1759 51.2941 19.5215 51.027 17.9069C50.4314 14.5735 48.6875 10.4405 43.5405 9.4266C41.9194 9.12001 40.2529 9.13747 38.6386 9.47797C37.0244 9.81846 35.495 10.4751 34.1399 11.4095C34.0592 11.4524 33.9871 11.5096 33.9272 11.5783L33.2039 11.8737C32.1998 12.5125 31.0241 12.8343 29.8318 12.7966C28.6396 12.759 27.4868 12.3636 26.5258 11.6627L25.9301 11.2385C25.8876 11.1963 25.845 11.1541 25.8025 11.1541C25.8025 11.1541 22.2297 8.3272 17.8932 9.08682C13.5971 9.84428 10.8747 12.167 9.55633 16.2594C8.23794 20.3518 9.08832 23.854 12.1086 26.9758C12.6558 27.5413 12.9541 28.2991 12.9379 29.0828C12.9218 29.8664 12.5924 30.6115 12.0224 31.1543C11.4523 31.697 10.6882 31.993 9.89822 31.9769C9.1082 31.9609 8.35695 31.6342 7.80975 31.0688C3.25839 26.3011 1.89745 20.5629 3.89658 14.4031C5.89571 8.24334 10.362 4.36137 16.8699 3.22248C23.5906 2.04084 28.7802 5.92281 29.546 6.51363L30.0566 6.89236L30.5246 6.59695C32.5486 5.18509 34.8369 4.18908 37.2547 3.66754C39.6726 3.146 42.1713 3.10946 44.6036 3.56009C51.069 4.82558 55.5353 9.67764 56.7675 16.808C57.2029 19.3464 57.0251 21.9511 56.2487 24.4081C55.4723 26.8651 54.1194 29.1044 52.3012 30.9422C50.4723 32.7985 48.2179 35.119 45.8358 37.524C43.0708 40.3509 40.1782 43.2623 37.7116 45.7932C36.7307 46.8034 35.5552 47.6078 34.2548 48.1587C32.9544 48.7095 31.5557 48.9956 30.1417 49Z" fill="white"/>
<path d="M32.1141 38H32.0298C31.6898 37.9882 31.3626 37.8648 31.097 37.648C30.8313 37.4313 30.6414 37.1329 30.5554 36.7972L26.8475 23.7345L24.4882 32.156C24.3883 32.508 24.1772 32.8166 23.8877 33.0337C23.5982 33.2508 23.2466 33.3643 22.8873 33.3567H18V30.0077H21.6231L25.204 17.2028C25.3001 16.8566 25.5044 16.5518 25.7858 16.3347C26.0672 16.1176 26.4104 16.0001 26.7632 16C27.1193 16.0071 27.4644 16.1266 27.751 16.342C28.0377 16.5574 28.2519 16.8582 28.3641 17.2028L32.3243 31.2535L34.5151 25.7985C34.635 25.4897 34.8444 25.2255 35.1154 25.0411C35.3863 24.8568 35.706 24.7612 36.0317 24.767C36.361 24.77 36.6819 24.8741 36.9524 25.0658C37.2229 25.2574 37.4305 25.5278 37.5482 25.8415L39.4862 30.654H52V34.0058H38.3916C38.0622 34.0028 37.7413 33.8987 37.4708 33.707C37.2003 33.5154 36.9927 33.2451 36.875 32.9313L36.0743 30.8689L33.6307 36.9299C33.5074 37.2395 33.2983 37.5056 33.0289 37.6957C32.7595 37.8857 32.4416 37.9915 32.1141 38Z" fill="white"/>
</svg>
