<svg width="80" height="80" viewBox="0 0 80 80" fill="none" xmlns="http://www.w3.org/2000/svg">
<path d="M54.5455 70H25.4545C22.4469 70 20 67.6343 20 64.7266V15.2734C20 12.3657 22.4469 10 25.4545 10H54.5455C57.5531 10 60 12.3657 60 15.2734V64.7266C60 67.6343 57.5531 70 54.5455 70ZM25.4545 13.5156C24.452 13.5156 23.6364 14.3042 23.6364 15.2734V64.7266C23.6364 65.6958 24.452 66.4844 25.4545 66.4844H54.5455C55.548 66.4844 56.3636 65.6958 56.3636 64.7266V15.2734C56.3636 14.3042 55.548 13.5156 54.5455 13.5156H25.4545Z" fill="white"/>
<path d="M43.6364 20.5469H36.3636C35.3595 20.5469 34.5455 19.7598 34.5455 18.7891C34.5455 17.8183 35.3595 17.0312 36.3636 17.0312H43.6364C44.6405 17.0312 45.4545 17.8183 45.4545 18.7891C45.4545 19.7598 44.6405 20.5469 43.6364 20.5469Z" fill="white"/>
<path d="M40 62.9688C41.0042 62.9688 41.8182 62.1818 41.8182 61.2109C41.8182 60.2401 41.0042 59.4531 40 59.4531C38.9958 59.4531 38.1818 60.2401 38.1818 61.2109C38.1818 62.1818 38.9958 62.9688 40 62.9688Z" fill="white"/>
<path d="M46.2165 38.0463C46.9818 36.9234 47.4286 35.5827 47.4286 34.1429C47.4286 30.2043 44.0962 27 40 27C35.9038 27 32.5714 30.2042 32.5714 34.1429C32.5714 35.5828 33.0183 36.9235 33.7835 38.0463C29.8754 39.0995 27 42.5533 27 46.6429V51.2143C27 52.2005 27.8315 53 28.8572 53H51.1428C52.1685 53 53 52.2005 53 51.2143V46.6429C53 42.5533 50.1246 39.0995 46.2165 38.0463ZM40 30.5714C42.0481 30.5714 43.7142 32.1736 43.7142 34.1428C43.7142 36.1121 42.048 37.7141 40 37.7141C37.952 37.7141 36.2858 36.112 36.2858 34.1428C36.2856 32.1736 37.9519 30.5714 40 30.5714ZM49.2856 49.4285H30.7142V46.6428C30.7142 43.6888 33.2136 41.2856 36.2856 41.2856H43.7142C46.7864 41.2856 49.2856 43.6889 49.2856 46.6428V49.4285Z" fill="#01EFAE"/>
</svg>
