<svg width="36" height="31" viewBox="0 0 36 31" fill="none" xmlns="http://www.w3.org/2000/svg">
<path d="M18.4014 30.07C18.0351 30.0694 17.6806 29.9405 17.3995 29.7057C15.1518 27.7628 7.138 18.7161 7.138 11.8247C7.138 6.26896 10.5686 2.04957 15.9119 1.10845C20.5872 0.288748 26.3251 2.26218 28.3288 7.66499C28.4657 8.04339 28.4467 8.46068 28.2759 8.82506C28.1051 9.18943 27.7966 9.47104 27.4181 9.60793C27.0397 9.74483 26.6224 9.72579 26.258 9.55502C25.8936 9.38424 25.612 9.07571 25.4751 8.6973C24.0785 4.87266 19.8584 3.47636 16.4583 4.08344C14.9708 4.35677 10.1741 5.69236 10.1741 11.8247C10.1741 14.1017 11.51 17.3196 13.9082 20.8714C15.2445 22.8398 16.7369 24.6976 18.3709 26.4269C19.589 25.0088 20.734 23.5294 21.8014 21.9947C24.1392 18.6554 25.5671 15.8928 25.8394 14.2231C25.8693 14.0258 25.9378 13.8363 26.0409 13.6654C26.1441 13.4945 26.2799 13.3456 26.4406 13.2272C26.6013 13.1088 26.7837 13.0233 26.9775 12.9754C27.1713 12.9275 27.3726 12.9182 27.5699 12.9481C27.7673 12.978 27.9568 13.0465 28.1277 13.1497C28.2986 13.2528 28.4475 13.3886 28.5659 13.5493C28.6843 13.71 28.7698 13.8924 28.8177 14.0862C28.8656 14.2799 28.8749 14.4812 28.845 14.6786C28.0253 19.8394 20.223 29.372 19.0997 29.9488C18.8724 30.016 18.638 30.0567 18.4014 30.07Z" fill="#FC5BB3"/>
<path d="M18.0001 15.5C19.714 15.5 21.1035 14.1121 21.1035 12.4C21.1035 10.6879 19.714 9.29999 18.0001 9.29999C16.2861 9.29999 14.8966 10.6879 14.8966 12.4C14.8966 14.1121 16.2861 15.5 18.0001 15.5Z" fill="#055DF9"/>
</svg>
