<svg width="60" height="52" viewBox="0 0 60 52" fill="none" xmlns="http://www.w3.org/2000/svg">
<path d="M14 48H22.8053V52H14V48Z" fill="#005DF9"/>
<path d="M25.1222 48H33.9275V52H25.1222V48Z" fill="#005DF9"/>
<path d="M36.1947 48H45V52H36.1947V48Z" fill="#005DF9"/>
<path d="M40.9693 44.4898C40.2971 43.9762 39.6626 43.4209 39.07 42.8279C32.4854 36.266 30.0019 28.6592 30.0019 24.0909C29.9833 23.2388 30.0993 22.3887 30.3462 21.5682C30.4819 21.0864 30.7827 20.6594 31.2027 20.3522C31.6227 20.0451 32.1387 19.8748 32.6721 19.8673H35.3081C35.6462 19.8738 35.9794 19.9435 36.2883 20.0721C36.5971 20.2007 36.8754 20.3856 37.1065 20.6161C37.3377 20.8466 37.5172 21.1179 37.6344 21.4141C37.7516 21.7103 37.8041 22.0254 37.789 22.3409C37.8041 22.6564 37.7516 22.9715 37.6344 23.2677C37.5172 23.5639 37.3377 23.8352 37.1065 24.0657C36.8754 24.2962 36.5971 24.4811 36.2883 24.6097C35.9794 24.7383 35.6462 24.808 35.3081 24.8145H34.9207C34.9982 28.2158 36.3159 30.5744 40.0366 36.2173V5.21764C40.0407 5.19731 40.0427 5.17664 40.0425 5.15595C40.0404 5.11508 40.0294 5.07504 40.0102 5.03826C39.991 5.00147 39.964 4.96871 39.9309 4.94196C39.8977 4.9152 39.8591 4.89501 39.8174 4.8826C39.7756 4.87019 39.7315 4.86582 39.6878 4.86977C39.6153 4.86231 39.5421 4.87716 39.4794 4.91206C39.4167 4.94696 39.3677 5.00002 39.3402 5.06318L39.379 13.7994C39.3941 14.1149 39.3415 14.43 39.2243 14.7262C39.107 15.0224 38.9276 15.2938 38.6964 15.5242C38.4652 15.7547 38.1871 15.9397 37.8783 16.0683C37.5694 16.1969 37.2361 16.2665 36.898 16.2731C36.5681 16.2731 36.2421 16.2077 35.9413 16.0811C35.6406 15.9545 35.3721 15.7696 35.1536 15.5388C34.6738 15.0714 34.4094 14.4469 34.4171 13.7994L34.4558 5.52701C34.4558 5.45002 34.4171 5.3336 34.4171 5.2566C34.4093 5.06261 34.4222 4.86838 34.4558 4.67681C34.4449 4.34548 34.5111 4.01588 34.6495 3.71065C34.9433 2.66451 35.5942 1.73631 36.5036 1.06671C37.4131 0.397118 38.5316 0.0226292 39.6894 0C40.8142 0.0166257 41.9043 0.366122 42.8028 0.998176C43.7014 1.63023 44.362 2.51224 44.6895 3.51723C44.8879 3.87606 44.9941 4.27304 45 4.67681V42.5579C45.0028 43.0132 44.8702 43.4602 44.6169 43.8492C44.3636 44.2382 43.9997 44.5539 43.5656 44.7611C43.224 44.9172 42.8491 44.9989 42.4689 45C41.92 45.0015 41.3885 44.8207 40.9693 44.4898Z" fill="#01EFAE"/>
</svg>
