<svg width="96" height="82" viewBox="0 0 96 82" fill="none" xmlns="http://www.w3.org/2000/svg">
<path d="M80.5166 72.0737L60.0177 37.5043V11.8686H62.5996C63.1147 11.8737 63.6258 11.7767 64.1027 11.5833C64.5796 11.3899 65.0129 11.1039 65.3772 10.7422C65.7415 10.3805 66.0295 9.95033 66.2243 9.47678C66.419 9.00323 66.5167 8.49586 66.5116 7.98437C66.5167 7.47287 66.419 6.9655 66.2243 6.49195C66.0295 6.0184 65.7415 5.58818 65.3772 5.22648C65.0129 4.86478 64.5796 4.57887 64.1027 4.38547C63.6258 4.19207 63.1147 4.09508 62.5996 4.10017H56.1057C55.5905 4.09508 55.0795 4.19207 54.6026 4.38547C54.1256 4.57887 53.6923 4.86478 53.328 5.22648C52.9637 5.58818 52.6758 6.0184 52.481 6.49195C52.2862 6.9655 52.1885 7.47287 52.1936 7.98437V38.8249C52.1732 38.9595 52.2009 39.0969 52.2719 39.2133C52.2719 39.3687 52.3501 39.4464 52.3501 39.6017C52.3501 39.7571 52.4284 39.8348 52.4284 39.9902C52.5066 40.1455 52.5066 40.2232 52.5849 40.3786C52.5849 40.4563 52.6631 40.534 52.6631 40.6116L70.3454 70.1316H25.6702L43.2743 40.534C43.304 40.5034 43.3264 40.4665 43.34 40.4262C43.3535 40.3859 43.3578 40.3431 43.3525 40.3009C43.4307 40.1455 43.509 40.0679 43.509 39.9125C43.5722 39.7932 43.5994 39.6583 43.5872 39.5241C43.5872 39.3687 43.6655 39.291 43.6655 39.1356C43.645 39.0011 43.6727 38.8636 43.7437 38.7472V7.98437C43.7488 7.47287 43.6511 6.9655 43.4564 6.49195C43.2616 6.0184 42.9736 5.58818 42.6093 5.22648C42.245 4.86478 41.8117 4.57887 41.3348 4.38547C40.8579 4.19207 40.3469 4.09508 39.8317 4.10017H33.3378C32.8226 4.09508 32.3116 4.19207 31.8347 4.38547C31.3577 4.57887 30.9244 4.86478 30.5601 5.22648C30.1958 5.58818 29.9079 6.0184 29.7131 6.49195C29.5183 6.9655 29.4206 7.47287 29.4258 7.98437C29.4206 8.49586 29.5183 9.00323 29.7131 9.47678C29.9079 9.95033 30.1958 10.3805 30.5601 10.7422C30.9244 11.1039 31.3577 11.3899 31.8347 11.5833C32.3116 11.7767 32.8226 11.8737 33.3378 11.8686H35.9979V37.5043L15.4208 72.0737C15.0784 72.6624 14.8977 73.3301 14.8966 74.0099C14.8956 74.6898 15.0743 75.358 15.4148 75.9478C15.7554 76.5376 16.2459 77.0283 16.8373 77.3708C17.4288 77.7134 18.1004 77.8959 18.7851 77.9H77.1523C77.8363 77.9023 78.5085 77.7236 79.0999 77.3822C79.6912 77.0409 80.1802 76.5492 80.5166 75.9579C80.8994 75.3815 81.1035 74.7062 81.1035 74.0158C81.1035 73.3253 80.8994 72.65 80.5166 72.0737Z" fill="#01EFAD"/>
<path d="M62.9015 46.74H46.3448V53.3604H62.9015V46.74Z" fill="#005DF9"/>
<path d="M56.2865 35.26H46.3448V41.82H56.2865V35.26Z" fill="#005DF9"/>
<path d="M68.6897 58.2976H46.3448V64.78H68.6897V58.2976Z" fill="#005DF9"/>
</svg>
