<svg width="394" height="74" viewBox="0 0 394 74" fill="none" xmlns="http://www.w3.org/2000/svg">
<path d="M107 65.9424C107 61.3388 110.398 57.919 115.037 57.919C119.949 57.919 123.073 61.1439 123.073 65.9424C123.073 70.5461 119.675 74 115.037 74C110.129 74 107 70.7799 107 65.9424ZM121.095 65.9424C121.095 61.9624 118.808 59.5607 115.042 59.5607C111.444 59.5607 108.988 62.1572 108.988 65.9424C108.988 69.8884 111.275 72.3242 115.042 72.3242C118.639 72.3242 121.095 69.7617 121.095 65.9424Z" fill="white"/>
<path d="M142.35 65.3189V73.508H140.332V65.616C140.332 61.3388 138.987 59.663 135.454 59.663C133.133 59.663 131.185 60.7834 129.705 61.9672V73.508H127.687V58.3818H129.67V60.3888C131.115 59.2392 133.372 57.9238 136.062 57.9238C140.437 57.919 142.35 60.2232 142.35 65.3189Z" fill="white"/>
<path d="M147.736 52H149.754V69.1674C149.754 71.3401 150.427 72.3242 152.21 72.3242C153.087 72.3242 153.76 72.1244 154.398 71.8321V73.3764C153.69 73.771 152.748 74 151.637 74C149.251 74 147.736 72.5872 147.736 69.7569V52Z" fill="white"/>
<path d="M157.223 54.0071C157.223 53.252 157.691 52.6918 158.568 52.6918C159.41 52.6918 159.913 53.252 159.913 54.0071C159.913 54.6989 159.41 55.2591 158.568 55.2591C157.691 55.2591 157.223 54.6989 157.223 54.0071ZM157.556 58.3818H159.539V73.508H157.556V58.3818Z" fill="white"/>
<path d="M179.723 65.3189V73.508H177.705V65.616C177.705 61.3388 176.36 59.663 172.827 59.663C170.506 59.663 168.558 60.7834 167.078 61.9672V73.508H165.06V58.3818H167.043V60.3888C168.488 59.2392 170.745 57.9238 173.435 57.9238C177.805 57.919 179.723 60.2232 179.723 65.3189Z" fill="white"/>
<path d="M198.895 66.3078H186.18C186.385 70.1563 188.671 72.3242 192.772 72.3242C195.129 72.3242 196.977 71.798 198.492 71.0088V72.5531C196.843 73.508 194.69 73.9659 192.438 73.9659C187.391 73.9659 184.267 70.9406 184.267 65.9765C184.267 61.3729 187.431 57.919 191.935 57.919C196.509 57.919 199 60.8127 199 65.1873C198.995 65.5186 198.96 66.0447 198.895 66.3078ZM197.112 64.7927C197.077 61.407 195.193 59.4632 191.965 59.4632C188.836 59.4632 186.619 61.636 186.245 64.7927H197.112Z" fill="white"/>
<path d="M134.767 0V40.0966H126.061V37.3864C124.202 39.3006 121.55 41 117.619 41C111.036 41 107 35.687 107 28.9432C107 19.3817 113.319 13.9125 121.605 13.9125C123.039 13.9125 124.472 14.1224 125.851 14.391V0H134.767ZM120.856 33.5628C122.664 33.5628 124.362 32.7131 125.846 31.3311V21.5597C124.942 21.3497 123.933 21.2423 122.819 21.2423C118.413 21.2423 115.971 23.7913 115.971 27.8835C115.971 31.4923 117.934 33.5628 120.856 33.5628Z" fill="white"/>
<path d="M161 14.391V22.3605C159.831 22.0919 158.717 21.9894 157.653 21.9894C155.051 21.9894 152.609 22.7317 150.326 24.2699V40.0966H141.405V14.6547H150.166V17.3649C152.504 15.5044 155.266 14.0736 158.133 14.0736C159.407 14.0687 160.046 14.1762 161 14.391Z" fill="white"/>
<path d="M158 34C158 31.235 160.464 29 163.5 29C166.536 29 169 31.2396 169 34C169 36.765 166.536 39 163.5 39C160.459 39.0046 158 36.765 158 34Z" fill="#01EFAE"/>
<path d="M173 27.8249C173 19.7529 178.506 13.8539 187.128 13.8539C189.881 13.8539 191.997 14.3324 194.486 15.4995V22.6682C192.898 21.9259 190.941 21.5011 188.821 21.5011C184.425 21.5011 182.15 23.8353 182.15 27.5563C182.15 31.2188 184.48 33.2942 188.552 33.2942C190.827 33.2942 192.942 32.8156 194.69 32.0197V38.9783C191.992 40.3603 189.453 40.9951 185.64 40.9951C177.55 41 173 35.6333 173 27.8249Z" fill="white"/>
<path d="M198.349 27.4001C198.349 19.6991 204.168 13.8587 212.691 13.8587C221.686 13.8587 227.088 19.3817 227.088 27.4001C227.088 35.0473 221.373 40.9951 212.691 40.9951C203.8 41 198.349 35.3696 198.349 27.4001ZM218.142 27.4001C218.142 23.3616 216.235 21.2911 212.691 21.2911C209.41 21.2911 207.24 23.679 207.24 27.4001C207.24 31.3311 209.196 33.5091 212.691 33.5091C216.026 33.5091 218.142 31.1748 218.142 27.4001Z" fill="white"/>
<path d="M258.48 26.1255V40.0966H249.539V27.5612C249.539 23.5765 248.27 22.0919 245.253 22.0919C243.56 22.0919 242.022 22.7805 240.489 23.8988V40.0966H231.543V14.6547H240.275V17.3112C242.55 15.5044 245.566 13.8587 248.952 13.8587C255.463 13.8587 258.48 17.8923 258.48 26.1255Z" fill="white"/>
<path d="M263.353 38.6609V32.2882C265.947 33.4553 269.915 34.305 273.618 34.305C276.58 34.305 278.597 34.095 278.597 32.6056C278.597 31.2774 277.8 30.8526 273.728 30.4814C266.211 29.8954 263.672 27.1901 263.672 22.1945C263.672 16.6178 269.282 13.8001 275.898 13.8001C279.602 13.8001 283.147 14.5961 285.531 15.7632V21.9796C283.361 20.9688 278.811 20.334 276.854 20.334C274.475 20.334 272.249 20.4414 272.249 21.9259C272.249 23.2542 273.255 23.5716 277.063 23.9964C284.152 24.7387 287.169 27.3952 287.169 32.5471C287.169 37.9089 283.092 40.9902 274.679 40.9902C270.497 41 266.156 40.0429 263.353 38.6609Z" fill="white"/>
<path d="M319.079 14.6547V40.0966H310.402V37.4401C308.182 39.3006 305.269 41 301.879 41C295.368 41 292.351 36.9127 292.351 28.6795V14.6547H301.297V27.3464C301.297 31.3311 302.407 32.7082 305.424 32.7082C307.116 32.7082 308.6 32.0197 310.133 30.9014V14.6547H319.079Z" fill="white"/>
<path d="M325.092 0H334.038V29.6317C334.038 31.756 334.566 33.5628 337.269 33.5628C338.484 33.5628 339.489 33.3528 340.445 33.0305V39.8817C338.752 40.624 336.901 40.9951 333.774 40.9951C327.636 40.9951 325.097 37.1715 325.097 31.1162V0H325.092Z" fill="white"/>
<path d="M363.459 32.4494V39.4569C361.129 40.5166 358.854 40.9951 356.156 40.9951C346.842 40.9951 344.089 35.4184 344.089 27.8249V8.01346H353.035V14.6547H363.195V21.506H353.035V28.196C353.035 31.5948 353.936 33.5091 358.381 33.5091C360.392 33.5091 361.876 33.1379 363.459 32.4494Z" fill="white"/>
<path d="M393.97 30.3496V15.607C390.928 14.6303 387.329 13.8587 383.944 13.8587C373.465 13.8587 366.904 19.3817 366.904 28.8895C366.904 35.687 370.926 41 377.119 41C380.982 41 383.576 39.3006 385.428 37.3913V40.1015H394V30.3496H393.97ZM385.159 31.3311C383.626 32.7131 382.142 33.5091 380.395 33.5091C377.537 33.5091 375.845 31.4385 375.845 27.8249C375.845 23.7327 378.334 21.1837 382.988 21.1837C383.73 21.1837 384.472 21.2374 385.159 21.2911V31.3311Z" fill="white"/>
<path d="M44.3749 61.0396C42.854 61.0396 41.3381 61.6203 40.1823 62.7868C37.8709 65.1198 37.8709 68.9173 40.1823 71.2502C42.4938 73.5832 46.2561 73.5832 48.5675 71.2502C50.8789 68.9173 50.8789 65.1198 48.5675 62.7868C47.4118 61.6203 45.8909 61.0396 44.3749 61.0396Z" fill="white"/>
<path d="M76.6298 34.4627C68.0295 25.7821 56.5724 21 44.3749 21C32.1774 21 20.7204 25.7821 12.1201 34.4627C12.075 34.5081 12.04 34.5536 12 34.599L16.3677 39.4014C16.4878 39.3105 16.6078 39.2095 16.7179 39.0984C31.9723 23.7016 56.7876 23.7016 72.0419 39.0984C72.2471 39.3054 72.4722 39.4721 72.7124 39.6185L77 34.9071C76.8849 34.7505 76.7648 34.6041 76.6298 34.4627Z" fill="white"/>
<path d="M25.2231 47.688C25.1931 47.7183 25.1731 47.7486 25.1431 47.7739L29.6158 52.5055C29.6859 52.4449 29.7509 52.3843 29.816 52.3237C33.6984 48.4051 38.8665 46.2438 44.3749 46.2438C49.8783 46.2438 55.0515 48.4 58.9339 52.3237C58.9389 52.3288 58.9389 52.3288 58.9439 52.3338L63.4717 47.6325C52.9052 37.033 35.7646 37.0482 25.2231 47.688Z" fill="white"/>
<path d="M44.8626 3C27.9348 3 12.0313 9.40201 0 21.0299L4.39183 25.7392C15.219 15.1938 29.5786 9.38725 44.8626 9.38725C60.2615 9.38725 74.716 15.2775 85.5732 25.9655C85.5832 25.9754 85.5982 25.9852 85.6132 26L90 21.2908C77.9337 9.49551 61.9153 3 44.8626 3Z" fill="#01EFAE"/>
</svg>
