<svg width="140" height="21" viewBox="0 0 140 21" fill="none" xmlns="http://www.w3.org/2000/svg">
<path fill-rule="evenodd" clip-rule="evenodd" d="M13.5233 20.5325V0H9.17484V7.3701C8.49512 7.22177 7.80272 7.14075 7.10744 7.12819C3.07906 7.12819 0 9.92563 0 14.8208C0 18.273 1.96099 20.9898 5.17513 20.9906C5.9509 20.9973 6.71908 20.8359 7.42783 20.5171C8.13659 20.1983 8.76945 19.7297 9.28373 19.1428V20.5325H13.5233ZM9.17525 16.0497C8.54082 16.7324 7.66942 17.1405 6.74376 17.1882C5.32435 17.1882 4.36422 16.1299 4.36588 14.282C4.36588 12.1931 5.55461 10.884 7.70222 10.884C8.1978 10.879 8.69223 10.9331 9.17525 11.0453V16.0497Z" fill="#005DF9"/>
<path d="M26.2921 11.4506V7.3701C25.8371 7.2533 25.3687 7.19836 24.8993 7.20673C23.5061 7.20673 22.1574 7.9421 21.0214 8.8925V7.50281H16.7532V20.5333H21.0925V12.4278C22.1297 11.6682 23.3785 11.2603 24.6595 11.2624C25.2091 11.261 25.757 11.3242 26.2921 11.4506Z" fill="#005DF9"/>
<path d="M27.473 20.5054C28.9579 20.5054 30.1617 19.289 30.1617 17.7886C30.1617 16.2881 28.9579 15.0718 27.473 15.0718C25.988 15.0718 24.7842 16.2881 24.7842 17.7886C24.7842 19.289 25.988 20.5054 27.473 20.5054Z" fill="#01EFAE"/>
<path d="M110.706 0H106.341L106.342 15.9329C106.342 19.0353 107.582 20.9898 110.581 20.9898C111.696 21.0486 112.809 20.8525 113.838 20.4161V16.9102C113.339 17.0882 112.814 17.179 112.285 17.179C110.963 17.179 110.706 16.2555 110.706 15.1707V0Z" fill="#005DF9"/>
<path d="M76.1801 16.5339V19.7975C77.9123 20.5976 79.7969 21.0044 81.7015 20.9894C85.8188 20.9894 87.8064 19.4115 87.8064 16.6679C87.8064 14.0321 86.3334 12.6706 82.8727 12.2926C81.0094 12.0776 80.5215 11.9163 80.5215 11.2347C80.5215 10.4724 81.6021 10.4187 82.7659 10.4187C83.7219 10.4187 85.9493 10.7416 87.0054 11.2616V8.07817C85.5306 7.39593 83.9244 7.05297 82.3025 7.07402C79.0738 7.07402 76.3306 8.51746 76.3306 11.3687C76.3306 13.9246 77.5729 15.3164 81.2468 15.6104C83.2348 15.7985 83.625 16.0136 83.625 16.6952C83.625 17.4574 82.64 17.5649 81.1936 17.5649C79.4705 17.5679 77.7649 17.2172 76.1801 16.5339Z" fill="#005DF9"/>
<path d="M38.9463 7.09208C34.7312 7.09208 32.0425 10.1138 32.0425 14.2471C32.0425 18.2457 34.2699 20.9894 38.2272 20.9797C39.7648 21.0398 41.2904 20.6839 42.6463 19.9487V16.389C41.7068 16.8288 40.6824 17.0524 39.647 17.0437C37.6507 17.0437 36.5148 15.9779 36.5148 14.1039C36.5148 12.1939 37.6237 11.0016 39.7713 11.0016C40.7269 10.9912 41.6727 11.1964 42.5399 11.6022V7.93496C41.4292 7.35851 40.1946 7.06893 38.9463 7.09208Z" fill="#005DF9"/>
<path fill-rule="evenodd" clip-rule="evenodd" d="M51.4404 7.10131C47.2698 7.10131 44.4302 10.0856 44.4302 14.0309C44.4302 18.1117 47.0903 20.9898 51.4404 20.9974C55.6733 20.9974 58.4684 17.9492 58.4684 14.0309C58.4684 9.92563 55.8329 7.10131 51.4404 7.10131ZM51.4333 10.9016C53.1616 10.9016 54.0934 11.9596 54.0934 14.0309C54.0934 15.9598 53.0643 17.1613 51.4333 17.1601C49.7317 17.1601 48.7732 16.0392 48.7732 14.0309C48.7732 12.1301 49.8273 10.9016 51.4333 10.9016Z" fill="#005DF9"/>
<path d="M73.8018 13.3774V20.5325H69.4376V14.1128C69.4376 12.0683 68.8162 11.3153 67.3432 11.3153C66.4879 11.352 65.6694 11.6773 65.0185 12.2393V20.5329H60.651V7.50449H64.9192V8.8673C66.0285 7.94336 67.5015 7.10089 69.1608 7.10089C72.3305 7.09207 73.8018 9.16338 73.8018 13.3774Z" fill="#005DF9"/>
<path d="M103.402 7.50448V20.532H99.1625V19.1692C98.0818 20.1196 96.6512 20.9894 95.0007 20.9894C91.8239 20.9894 90.3509 18.8895 90.3509 14.6772V7.50448H94.7151V14.0048C94.7151 16.0492 95.2555 16.7485 96.7293 16.7485C97.5767 16.7114 98.3868 16.3858 99.0278 15.8246V7.50448H103.402Z" fill="#005DF9"/>
<path d="M125.091 16.6141V20.2007C123.979 20.7406 122.758 21.0107 121.524 20.9894C116.972 20.9894 115.632 18.1294 115.632 14.2467V4.10648H119.996V7.50448H124.957V11.0104H119.996V14.4353C119.996 16.1748 120.44 17.1521 122.605 17.1521C123.464 17.1726 124.316 16.9883 125.091 16.6141Z" fill="#005DF9"/>
<path fill-rule="evenodd" clip-rule="evenodd" d="M139.99 7.98872V15.5381H140V20.5312H135.812V19.1419C135.307 19.7267 134.683 20.1945 133.984 20.5134C133.284 20.8323 132.524 20.9948 131.756 20.9898C128.729 20.9898 126.768 18.2642 126.768 14.7851C126.768 9.91639 129.971 7.09207 135.092 7.09207C136.761 7.13188 138.413 7.43439 139.99 7.98872ZM133.361 17.1538C134.213 17.1538 134.941 16.7506 135.686 16.0421L135.677 16.0417V10.8953C135.349 10.8685 134.985 10.8416 134.621 10.8416C132.35 10.8416 131.134 12.1397 131.134 14.2396C131.134 16.0959 131.968 17.1538 133.361 17.1538Z" fill="#005DF9"/>
</svg>
