<svg width="160" height="48" viewBox="0 0 160 48" fill="none" xmlns="http://www.w3.org/2000/svg">
<rect width="160" height="48" rx="4" fill="black"/>
<path d="M81.0052 26.7432C80.3876 26.7289 79.7735 26.8439 79.2001 27.0811C78.6268 27.3183 78.1059 27.6729 77.6691 28.1234C77.2322 28.574 76.8884 29.1111 76.6584 29.7024C76.4284 30.2938 76.3169 30.927 76.3307 31.564C76.3261 32.1985 76.4438 32.8275 76.6771 33.4145C76.9104 34.0016 77.2545 34.5349 77.6895 34.9835C78.1245 35.4322 78.6417 35.7871 79.2109 36.0277C79.7801 36.2682 80.3901 36.3897 81.0052 36.3849C81.6229 36.3992 82.2369 36.2842 82.8103 36.047C83.3837 35.8097 83.9045 35.4552 84.3414 35.0046C84.7782 34.5541 85.122 34.017 85.3521 33.4256C85.5821 32.8343 85.6936 32.201 85.6797 31.564C85.7028 30.9246 85.5976 30.2871 85.3708 29.6915C85.144 29.0958 84.8005 28.5549 84.3618 28.1024C83.923 27.6499 83.3985 27.2956 82.8209 27.0618C82.2434 26.8279 81.6253 26.7194 81.0052 26.7432ZM81.0052 34.3669C80.2939 34.3093 79.6298 33.9772 79.1454 33.4369C78.661 32.8966 78.392 32.1878 78.392 31.4519C78.392 30.7161 78.661 30.0073 79.1454 29.467C79.6298 28.9266 80.2939 28.5946 81.0052 28.537C81.3659 28.5393 81.7222 28.6181 82.0521 28.7684C82.382 28.9186 82.6785 29.1372 82.9231 29.4105C83.1678 29.6838 83.3553 30.006 83.4742 30.3572C83.5931 30.7084 83.6408 31.081 83.6143 31.4519C83.6315 31.8207 83.5773 32.1893 83.455 32.5363C83.3327 32.8833 83.1447 33.2017 82.9018 33.473C82.659 33.7443 82.3662 33.9631 82.0406 34.1165C81.715 34.27 81.363 34.3551 81.0052 34.3669ZM70.8952 26.7432C70.2776 26.7289 69.6635 26.8439 69.0901 27.0811C68.5168 27.3183 67.9959 27.6729 67.5591 28.1234C67.1222 28.574 66.7784 29.1111 66.5484 29.7024C66.3183 30.2938 66.2069 30.927 66.2207 31.564C66.2161 32.1985 66.3338 32.8275 66.5671 33.4145C66.8004 34.0016 67.1445 34.5349 67.5795 34.9835C68.0145 35.4322 68.5317 35.7871 69.1009 36.0277C69.6701 36.2682 70.28 36.3897 70.8952 36.3849C71.5129 36.3992 72.1269 36.2842 72.7003 36.047C73.2737 35.8097 73.7945 35.4552 74.2313 35.0046C74.6682 34.5541 75.012 34.017 75.242 33.4256C75.4721 32.8343 75.5835 32.201 75.5697 31.564C75.5927 30.9246 75.4876 30.2871 75.2608 29.6915C75.034 29.0958 74.6905 28.5549 74.2518 28.1024C73.813 27.6499 73.2885 27.2956 72.7109 27.0618C72.1334 26.8279 71.5153 26.7194 70.8952 26.7432ZM70.8952 34.3669C70.1839 34.3093 69.5198 33.9772 69.0354 33.4369C68.551 32.8966 68.2819 32.1878 68.2819 31.4519C68.2819 30.7161 68.551 30.0073 69.0354 29.467C69.5198 28.9266 70.1839 28.5946 70.8952 28.537C71.2559 28.5393 71.6122 28.6181 71.9421 28.7684C72.272 28.9186 72.5685 29.1372 72.8131 29.4105C73.0577 29.6838 73.2453 30.006 73.3642 30.3572C73.4831 30.7084 73.5308 31.081 73.5042 31.4519C73.5214 31.8207 73.4673 32.1893 73.345 32.5363C73.2227 32.8833 73.0346 33.2017 72.7918 33.473C72.549 33.7443 72.2562 33.9631 71.9306 34.1165C71.605 34.27 71.253 34.3551 70.8952 34.3669ZM58.8284 28.2006V30.2187H63.5029C63.4356 31.1807 63.0521 32.0903 62.4158 32.7973C61.9476 33.2822 61.3873 33.662 60.7699 33.9128C60.1525 34.1636 59.4915 34.2801 58.8284 34.2548C58.1463 34.2617 57.4699 34.1265 56.8398 33.8571C56.2097 33.5877 55.6389 33.1897 55.1616 32.6871C54.6844 32.1844 54.3106 31.5875 54.0627 30.9321C53.8148 30.2767 53.6979 29.5764 53.7191 28.8733C53.7071 28.1726 53.8303 27.4765 54.0815 26.8254C54.3326 26.1742 54.7068 25.581 55.1822 25.0803C55.6576 24.5796 56.2248 24.1813 56.8507 23.9086C57.4767 23.636 58.1489 23.4943 58.8284 23.4919C60.1576 23.5049 61.4352 24.0239 62.4158 24.9493L63.8291 23.4919C62.5175 22.1846 60.7611 21.4601 58.9371 21.4738C57.028 21.4868 55.199 22.2671 53.8389 23.6488C52.4788 25.0305 51.6948 26.9048 51.6536 28.8733C51.6948 30.8418 52.4788 32.7161 53.8389 34.0978C55.199 35.4796 57.028 36.2598 58.9371 36.2728C59.8721 36.3263 60.8068 36.1627 61.6723 35.794C62.5378 35.4254 63.312 34.861 63.9378 34.1426C65.0853 32.8635 65.7085 31.1762 65.6771 29.4339C65.7001 29.0195 65.6635 28.6039 65.5684 28.2006H58.8284ZM108.183 29.7702C107.916 28.9092 107.395 28.1552 106.694 27.6128C105.993 27.0704 105.145 26.7665 104.269 26.7432C103.671 26.746 103.08 26.8753 102.532 27.123C101.984 27.3707 101.491 27.7315 101.083 28.1832C100.676 28.6349 100.363 29.168 100.163 29.7495C99.9627 30.3309 99.8803 30.9485 99.9207 31.564C99.904 32.1924 100.01 32.8178 100.232 33.4031C100.454 33.9884 100.788 34.5218 101.214 34.9714C101.64 35.4211 102.149 35.7779 102.711 36.0208C103.273 36.2636 103.877 36.3874 104.487 36.3849C105.244 36.3925 105.991 36.201 106.657 35.8283C107.322 35.4555 107.885 34.914 108.291 34.2548L106.769 33.1336C106.535 33.5434 106.202 33.883 105.801 34.119C105.401 34.3549 104.948 34.479 104.487 34.479C104.007 34.5042 103.532 34.3783 103.124 34.1179C102.717 33.8575 102.395 33.475 102.204 33.0215L108.4 30.3308L108.183 29.7702ZM101.878 31.3398C101.855 30.6463 102.09 29.9701 102.534 29.4492C102.979 28.9283 103.599 28.602 104.269 28.537C104.621 28.5249 104.969 28.6127 105.276 28.7906C105.582 28.9685 105.836 29.2298 106.008 29.546L101.878 31.3398ZM96.7681 35.9365H98.8336V21.9223H96.7681V35.9365ZM93.5068 27.7522C92.8494 27.053 91.9507 26.65 91.0065 26.631C89.8048 26.6887 88.671 27.222 87.8408 28.1199C87.0107 29.0178 86.5481 30.2113 86.5494 31.4519C86.5409 32.0633 86.6496 32.6704 86.8693 33.2383C87.0889 33.8062 87.4152 34.3238 87.8293 34.7613C88.2435 35.1989 88.7374 35.5477 89.2826 35.7878C89.8278 36.028 90.4137 36.1547 91.0065 36.1607C91.4602 36.1643 91.9092 36.0659 92.3223 35.8723C92.7353 35.6786 93.1025 35.3945 93.3981 35.0395H93.5068V35.7122C93.568 36.3312 93.4074 36.9518 93.0554 37.4571C92.7035 37.9624 92.1845 38.3174 91.5962 38.4553C91.0079 38.5932 90.3911 38.5044 89.8619 38.2056C89.3328 37.9068 88.9279 37.4187 88.7236 36.8334L86.9843 37.6182C87.3306 38.4515 87.9068 39.1615 88.6413 39.6599C89.3758 40.1582 90.2361 40.4229 91.1152 40.421C93.5069 40.421 95.4636 38.9635 95.4636 35.488V26.9674H93.5068V27.7522ZM91.1152 34.3669C90.4039 34.3093 89.7398 33.9772 89.2554 33.4369C88.771 32.8966 88.502 32.1878 88.502 31.4519C88.502 30.7161 88.771 30.0073 89.2554 29.467C89.7398 28.9266 90.4039 28.5946 91.1152 28.537C91.4674 28.5518 91.813 28.6398 92.1314 28.7959C92.4497 28.9519 92.7342 29.1727 92.9677 29.4449C93.2013 29.7172 93.379 30.0353 93.4904 30.3802C93.6017 30.7251 93.6443 31.0896 93.6156 31.4519C93.6443 31.8142 93.6017 32.1787 93.4904 32.5236C93.379 32.8685 93.2013 33.1867 92.9677 33.4589C92.7342 33.7312 92.4497 33.9519 92.1314 34.108C91.813 34.264 91.4674 34.3521 91.1152 34.3669ZM117.64 21.9223H112.748V35.9365H114.814V30.6671H117.64C118.765 30.6671 119.843 30.2065 120.638 29.3865C121.433 28.5665 121.88 27.4543 121.88 26.2947C121.88 25.1351 121.433 24.0229 120.638 23.2029C119.843 22.3829 118.765 21.9223 117.64 21.9223ZM117.749 28.6491H114.814V23.8282H117.749C118.365 23.8276 118.957 24.072 119.403 24.5105C119.848 24.9491 120.113 25.5481 120.141 26.1826C120.117 26.8289 119.857 27.442 119.414 27.8993C118.97 28.3566 118.376 28.6244 117.749 28.6491ZM130.251 26.631C129.514 26.5703 128.777 26.7413 128.136 27.1216C127.496 27.5019 126.982 28.0736 126.663 28.7612L128.511 29.546C128.692 29.2116 128.963 28.9383 129.291 28.7592C129.619 28.5801 129.99 28.5029 130.359 28.537C130.875 28.497 131.385 28.6598 131.789 28.9927C132.192 29.3255 132.458 29.8036 132.534 30.3308V30.4429C131.902 30.0804 131.191 29.8876 130.468 29.8823C128.511 29.8823 126.555 31.0035 126.555 33.0215C126.573 33.457 126.675 33.8844 126.854 34.2789C127.034 34.6734 127.288 35.027 127.602 35.3192C127.916 35.6114 128.283 35.8363 128.681 35.9807C129.08 36.1252 129.503 36.1864 129.925 36.1607C130.434 36.1782 130.939 36.0643 131.395 35.8294C131.85 35.5944 132.242 35.2459 132.534 34.8153H132.642V35.9365H134.599V30.555C134.52 29.4429 134.019 28.4078 133.205 27.6735C132.391 26.9391 131.33 26.5647 130.251 26.631ZM130.033 34.3669C129.381 34.3669 128.403 34.0305 128.403 33.1336C128.403 32.0125 129.599 31.6761 130.577 31.6761C131.218 31.6783 131.85 31.8317 132.425 32.1246C132.342 32.7272 132.058 33.2811 131.621 33.6905C131.185 34.0999 130.623 34.3392 130.033 34.3669ZM141.448 26.9674L139.165 33.0215H139.056L136.665 26.9674H134.49L138.078 35.488L136.012 40.1968H138.078L143.622 26.9674H141.448ZM123.185 35.9365H125.25V21.9223H123.185V35.9365Z" fill="white"/>
<path d="M51.6536 16.1942V9.39262H53.6206C54.5053 9.35893 55.3677 9.68425 56.0249 10.2995C56.3316 10.6279 56.5681 11.0198 56.7188 11.4496C56.8694 11.8794 56.9309 12.3373 56.8991 12.7934C56.9113 13.7076 56.6003 14.5948 56.0249 15.2874C55.7083 15.6056 55.3304 15.8509 54.9161 16.0071C54.5018 16.1634 54.0604 16.2272 53.6206 16.1942H51.6536ZM52.5278 15.4007H53.7299C54.051 15.42 54.3724 15.3695 54.6735 15.2524C54.9746 15.1352 55.2488 14.9541 55.4785 14.7206C55.7046 14.4598 55.8789 14.1554 55.9914 13.8247C56.1039 13.4941 56.1524 13.1436 56.1342 12.7934C56.1524 12.4433 56.1039 12.0928 55.9914 11.7621C55.8789 11.4314 55.7046 11.127 55.4785 10.8663C55.0032 10.4121 54.3759 10.1681 53.7299 10.1861H52.5278V15.4007Z" fill="white"/>
<path d="M58.2105 16.1942V9.39262H59.0848V16.1942H58.2105Z" fill="white"/>
<path d="M62.3633 16.3076C61.8554 16.3159 61.3581 16.1572 60.9426 15.8542C60.4975 15.53 60.1856 15.0447 60.0683 14.4938L60.8333 14.1538C60.9493 14.4938 61.1359 14.8034 61.3797 15.0606C61.6635 15.2814 62.0086 15.4007 62.3633 15.4007C62.7179 15.4007 63.0631 15.2814 63.3468 15.0606C63.4682 14.9665 63.5696 14.8475 63.6448 14.711C63.72 14.5745 63.7674 14.4234 63.7839 14.2671C63.7926 14.0897 63.7569 13.9129 63.6803 13.754C63.6037 13.5951 63.4888 13.4595 63.3468 13.3602C63.0032 13.0615 62.5876 12.8655 62.1447 12.7934C61.6866 12.6131 61.2472 12.3852 60.8333 12.1133C60.6856 11.9684 60.5701 11.792 60.4946 11.5963C60.4191 11.4006 60.3855 11.1902 60.3962 10.9797C60.4149 10.5061 60.6109 10.0587 60.9426 9.7327C61.3299 9.36404 61.8376 9.16148 62.3633 9.1659C62.6001 9.14466 62.8386 9.17393 63.0642 9.25191C63.2897 9.32989 63.4975 9.45494 63.6746 9.61934C63.9604 9.86246 64.1854 10.1736 64.3303 10.5262L63.5654 10.8663C63.4835 10.6328 63.3299 10.4336 63.1282 10.2995C63.004 10.204 62.8629 10.1348 62.7128 10.0959C62.5628 10.057 62.4069 10.0492 62.254 10.0728C61.952 10.0944 61.656 10.1711 61.3797 10.2995C61.2428 10.5403 61.1675 10.8135 61.1611 11.093C61.1693 11.2233 61.2025 11.3507 61.2588 11.4675C61.3151 11.5843 61.3934 11.6882 61.489 11.7732C61.7723 12.0121 62.1117 12.1686 62.4725 12.2266C62.7357 12.3191 62.9915 12.4328 63.2375 12.5667C63.4797 12.6773 63.7016 12.8308 63.8932 13.0202C64.1548 13.1631 64.3513 13.4076 64.4396 13.7003C64.5831 13.9794 64.6582 14.2909 64.6582 14.6072C64.6582 14.9235 64.5831 15.235 64.4396 15.5141C64.3162 15.7554 64.1259 15.9529 63.8932 16.0809L63.2375 16.421C62.9553 16.3276 62.6589 16.2892 62.3633 16.3076Z" fill="white"/>
<path d="M66.6253 16.1942H65.751V9.39262H67.9367C68.4585 9.40895 68.9595 9.60882 69.3573 9.95942C69.5687 10.1361 69.7378 10.361 69.8516 10.6166C69.9653 10.8722 70.0206 11.1517 70.013 11.4331C70.0094 11.7127 69.9491 11.9884 69.8362 12.2422C69.7232 12.4961 69.5601 12.7225 69.3573 12.9068C68.9595 13.2574 68.4585 13.4573 67.9367 13.4736H66.6253V16.1942ZM66.6253 12.5667H68.0459C68.3689 12.5757 68.6826 12.4537 68.9202 12.2266C69.1188 12.0122 69.2353 11.7301 69.2481 11.4331C69.2353 11.1361 69.1188 10.854 68.9202 10.6396C68.6826 10.4125 68.3689 10.2905 68.0459 10.2995H66.6253V12.5667Z" fill="white"/>
<path d="M76.4607 15.2874C75.9869 15.7825 75.3817 16.1201 74.7222 16.2572C74.0627 16.3943 73.3788 16.3247 72.7577 16.0572C72.1365 15.7898 71.6061 15.3365 71.2341 14.7553C70.8621 14.1741 70.6653 13.4911 70.6687 12.7934C70.6687 11.8614 71.0257 10.9676 71.661 10.3085C72.2963 9.6495 73.158 9.27926 74.0565 9.27926C74.955 9.27926 75.8167 9.6495 76.452 10.3085C77.0873 10.9676 77.4443 11.8614 77.4443 12.7934C77.4567 13.2572 77.3756 13.7186 77.2063 14.1481C77.0369 14.5775 76.783 14.9656 76.4607 15.2874ZM72.308 14.7206C72.7715 15.2073 73.3973 15.4912 74.0565 15.5141C74.3869 15.5284 74.7162 15.4644 75.0192 15.3269C75.3221 15.1894 75.5909 14.982 75.805 14.7206C76.2952 14.2081 76.5701 13.5154 76.57 12.7934C76.595 12.4327 76.539 12.0709 76.4062 11.7364C76.2735 11.402 76.0677 11.1041 75.805 10.8663C75.3414 10.3796 74.7157 10.0956 74.0565 10.0728C73.7261 10.0584 73.3968 10.1224 73.0938 10.2599C72.7908 10.3975 72.5221 10.6048 72.308 10.8663C71.8179 11.3788 71.5429 12.0715 71.5429 12.7934C71.5429 13.5153 71.8179 14.208 72.308 14.7206Z" fill="white"/>
<path d="M78.6464 16.1942V9.39262H79.6299L82.7991 14.7206V9.39262H83.6734V16.1942H82.7991L79.4113 10.6396V16.1942H78.6464Z" fill="white"/>
<path d="M85.2033 16.1942V9.39262H86.0776V16.1942H85.2033ZM85.9683 8.82582H85.2033L85.6404 7.57886H86.5147L85.9683 8.82582Z" fill="white"/>
<path d="M89.1375 16.1942L86.8425 9.39262H87.8261L89.5746 14.9473L91.5417 9.39262H92.5252L90.121 16.1942H89.1375Z" fill="white"/>
<path d="M97.2244 10.1861H94.2738V12.34H97.0058V13.1335H94.2738V15.2874H97.2244V16.1942H93.3995V9.39262H97.2244V10.1861Z" fill="white"/>
<path d="M98.5358 16.1942V9.39262H99.41V15.4007H102.251V16.1942H98.5358Z" fill="white"/>
<path d="M105.53 16.1942V9.39262H106.513L109.683 14.7206V9.39262H110.557V16.1942H109.683L106.295 10.6396V16.1942H105.53Z" fill="white"/>
<path d="M117.442 15.2874C116.968 15.7825 116.363 16.1201 115.703 16.2572C115.044 16.3943 114.36 16.3247 113.739 16.0572C113.117 15.7898 112.587 15.3365 112.215 14.7553C111.843 14.1741 111.646 13.4911 111.65 12.7934C111.65 11.8614 112.007 10.9676 112.642 10.3085C113.277 9.6495 114.139 9.27926 115.037 9.27926C115.936 9.27926 116.798 9.6495 117.433 10.3085C118.068 10.9676 118.425 11.8614 118.425 12.7934C118.35 13.7093 118.007 14.5795 117.442 15.2874ZM113.18 14.7206C113.643 15.2073 114.269 15.4912 114.928 15.5141C115.259 15.5284 115.588 15.4644 115.891 15.3269C116.194 15.1894 116.463 14.982 116.677 14.7206C117.167 14.2081 117.442 13.5154 117.442 12.7934C117.467 12.4327 117.411 12.0709 117.278 11.7364C117.145 11.402 116.939 11.1041 116.677 10.8663C116.213 10.3796 115.587 10.0956 114.928 10.0728C114.598 10.0584 114.269 10.1224 113.966 10.2599C113.663 10.3975 113.394 10.6048 113.18 10.8663C112.954 11.127 112.779 11.4314 112.667 11.7621C112.554 12.0928 112.506 12.4433 112.524 12.7934C112.506 13.1436 112.554 13.4941 112.667 13.8247C112.779 14.1554 112.954 14.4598 113.18 14.7206Z" fill="white"/>
<path d="M51.6536 16.1942H51.5536V16.2942H51.6536V16.1942ZM51.6536 9.39262V9.29262H51.5536V9.39262H51.6536ZM53.6206 9.39262V9.49269L53.6245 9.49255L53.6206 9.39262ZM56.0249 10.2995L56.0981 10.2311L56.0932 10.2265L56.0249 10.2995ZM56.8991 12.7934L56.799 12.7865L56.7991 12.7948L56.8991 12.7934ZM56.0249 15.2874L56.096 15.3582L56.1018 15.3513L56.0249 15.2874ZM53.6206 16.1942L53.6281 16.0942H53.6206V16.1942ZM52.5278 15.4007H52.4278V15.5007H52.5278V15.4007ZM53.7299 15.4007L53.7359 15.3007H53.7299V15.4007ZM55.4785 14.7206L55.5499 14.7908L55.554 14.7861L55.4785 14.7206ZM56.1342 12.7934L56.0337 12.7882L56.0343 12.7986L56.1342 12.7934ZM55.4785 10.8663L55.5543 10.8005L55.5475 10.794L55.4785 10.8663ZM53.7299 10.1861V10.2862L53.7327 10.2861L53.7299 10.1861ZM52.5278 10.1861V10.0861H52.4278V10.1861H52.5278ZM58.2105 16.1942H58.1105V16.2942H58.2105V16.1942ZM58.2105 9.39262V9.29262H58.1105V9.39262H58.2105ZM59.0848 9.39262H59.1848V9.29262H59.0848V9.39262ZM59.0848 16.1942V16.2942H59.1848V16.1942H59.0848ZM62.3633 16.3076L62.3649 16.4077L62.3695 16.4074L62.3633 16.3076ZM60.9426 15.8542L61.0015 15.7734L61.0015 15.7733L60.9426 15.8542ZM60.0683 14.4938L60.0277 14.4025L59.9536 14.4354L59.9705 14.5147L60.0683 14.4938ZM60.8333 14.1538L60.9279 14.1215L60.8926 14.0179L60.7927 14.0624L60.8333 14.1538ZM61.3797 15.0606L61.3071 15.1294L61.3123 15.1349L61.3183 15.1396L61.3797 15.0606ZM62.3633 15.4007V15.3007V15.4007ZM63.3468 15.0606L63.2855 14.9816L63.2854 14.9817L63.3468 15.0606ZM63.7839 14.2671L63.8835 14.2777L63.8838 14.272L63.7839 14.2671ZM63.3468 13.3602L63.2808 13.4361L63.2895 13.4422L63.3468 13.3602ZM62.1447 12.7934L62.1081 12.8865L62.118 12.8904L62.1286 12.8921L62.1447 12.7934ZM60.8333 12.1133L60.7633 12.1847L60.7702 12.1915L60.7784 12.1968L60.8333 12.1133ZM60.3962 10.9797L60.496 10.9847L60.4961 10.9836L60.3962 10.9797ZM60.9426 9.7327L60.8736 9.66026L60.8725 9.66139L60.9426 9.7327ZM62.3633 9.1659L62.3624 9.26638L62.3722 9.2655L62.3633 9.1659ZM63.6746 9.61934L63.6066 9.69272L63.6098 9.69551L63.6746 9.61934ZM64.3303 10.5262L64.371 10.6176L64.4598 10.5781L64.4228 10.4882L64.3303 10.5262ZM63.5654 10.8663L63.471 10.8994L63.5069 11.0017L63.606 10.9577L63.5654 10.8663ZM63.1282 10.2995L63.0671 10.379L63.0729 10.3828L63.1282 10.2995ZM62.254 10.0728L62.2611 10.1729L62.2692 10.1716L62.254 10.0728ZM61.3797 10.2995L61.3376 10.2088L61.3086 10.2223L61.2928 10.2501L61.3797 10.2995ZM61.1611 11.093L61.0608 11.0907L61.0613 11.0993L61.1611 11.093ZM61.489 11.7732L61.4225 11.848L61.4245 11.8496L61.489 11.7732ZM62.4725 12.2266L62.5057 12.1323L62.4973 12.1293L62.4884 12.1279L62.4725 12.2266ZM63.2375 12.5667L63.1896 12.6548L63.196 12.6577L63.2375 12.5667ZM63.8932 13.0202L63.8229 13.0913L63.8329 13.1012L63.8453 13.1079L63.8932 13.0202ZM64.4396 13.7003L64.3439 13.7292L64.3465 13.7379L64.3507 13.746L64.4396 13.7003ZM64.4396 15.5141L64.3507 15.4684L64.3506 15.4686L64.4396 15.5141ZM63.8932 16.0809L63.9393 16.1697L63.9414 16.1685L63.8932 16.0809ZM63.2375 16.421L63.2061 16.5159L63.2461 16.5291L63.2836 16.5097L63.2375 16.421ZM66.6253 16.1942V16.2942H66.7253V16.1942H66.6253ZM65.751 16.1942H65.651V16.2942H65.751V16.1942ZM65.751 9.39262V9.29262H65.651V9.39262H65.751ZM67.9367 9.39262L67.9398 9.29262H67.9367V9.39262ZM69.3573 9.95942L69.2912 10.0345L69.2932 10.0362L69.3573 9.95942ZM70.013 11.4331L69.9131 11.4304L69.913 11.4318L70.013 11.4331ZM69.3573 12.9068L69.4235 12.9818L69.4246 12.9808L69.3573 12.9068ZM67.9367 13.4736V13.5736L67.9398 13.5735L67.9367 13.4736ZM66.6253 13.4736V13.3736H66.5253V13.4736H66.6253ZM66.6253 12.5667H66.5253V12.6667H66.6253V12.5667ZM68.0459 12.5667L68.0487 12.4667H68.0459V12.5667ZM68.9202 12.2266L68.9894 12.2991L68.9936 12.2946L68.9202 12.2266ZM69.2481 11.4331L69.3483 11.4374L69.348 11.4288L69.2481 11.4331ZM68.9202 10.6396L68.9937 10.5715L68.9893 10.5673L68.9202 10.6396ZM68.0459 10.2995V10.3995L68.0487 10.3995L68.0459 10.2995ZM66.6253 10.2995V10.1995H66.5253V10.2995H66.6253ZM76.4607 15.2874L76.39 15.2166L76.3885 15.2182L76.4607 15.2874ZM70.6687 12.7934L70.7687 12.7939V12.7934H70.6687ZM74.0565 9.27926V9.17926V9.27926ZM77.4443 12.7934H77.3442L77.3443 12.7961L77.4443 12.7934ZM72.308 14.7206L72.3804 14.6516L72.3802 14.6514L72.308 14.7206ZM74.0565 15.5141L74.0608 15.4142L74.06 15.4141L74.0565 15.5141ZM75.805 14.7206L75.7325 14.6512L75.7276 14.6572L75.805 14.7206ZM76.57 12.7934L76.47 12.7865L76.47 12.7935L76.57 12.7934ZM75.805 10.8663L75.7324 10.9355L75.7379 10.9404L75.805 10.8663ZM74.0565 10.0728L74.0522 10.1727L74.053 10.1727L74.0565 10.0728ZM72.308 10.8663L72.3805 10.9356L72.3853 10.9297L72.308 10.8663ZM78.6464 16.1942H78.5464V16.2942H78.6464V16.1942ZM78.6464 9.39262V9.29262H78.5464V9.39262H78.6464ZM79.6299 9.39262L79.7158 9.3415L79.6868 9.29262H79.6299V9.39262ZM82.7991 14.7206L82.7132 14.7717L82.8991 15.0843V14.7206H82.7991ZM82.7991 9.39262V9.29262H82.6991V9.39262H82.7991ZM83.6734 9.39262H83.7734V9.29262H83.6734V9.39262ZM83.6734 16.1942V16.2942H83.7734V16.1942H83.6734ZM82.7991 16.1942L82.7137 16.2463L82.743 16.2942H82.7991V16.1942ZM79.4113 10.6396L79.4967 10.5875L79.3113 10.2836V10.6396H79.4113ZM79.4113 16.1942V16.2942H79.5113V16.1942H79.4113ZM85.2033 16.1942H85.1033V16.2942H85.2033V16.1942ZM85.2033 9.39262V9.29262H85.1033V9.39262H85.2033ZM86.0776 9.39262H86.1776V9.29262H86.0776V9.39262ZM86.0776 16.1942V16.2942H86.1776V16.1942H86.0776ZM85.9683 8.82582V8.92582H86.0336L86.0599 8.86596L85.9683 8.82582ZM85.2033 8.82582L85.1089 8.79274L85.0623 8.92582H85.2033V8.82582ZM85.6404 7.57886V7.47886H85.5695L85.5461 7.54578L85.6404 7.57886ZM86.5147 7.57886L86.6063 7.61899L86.6677 7.47886H86.5147V7.57886ZM89.1375 16.1942L89.0427 16.2262L89.0657 16.2942H89.1375V16.1942ZM86.8425 9.39262V9.29262H86.7033L86.7478 9.42459L86.8425 9.39262ZM87.8261 9.39262L87.9215 9.3626L87.8995 9.29262H87.8261V9.39262ZM89.5746 14.9473L89.4792 14.9773L89.569 15.2626L89.6689 14.9807L89.5746 14.9473ZM91.5417 9.39262V9.29262H91.471L91.4474 9.35924L91.5417 9.39262ZM92.5252 9.39262L92.6195 9.42595L92.6667 9.29262H92.5252V9.39262ZM90.121 16.1942V16.2942H90.1917L90.2153 16.2276L90.121 16.1942ZM97.2244 10.1861V10.2861H97.3244V10.1861H97.2244ZM94.2738 10.1861V10.0861H94.1738V10.1861H94.2738ZM94.2738 12.34H94.1738V12.44H94.2738V12.34ZM97.0058 12.34H97.1058V12.24H97.0058V12.34ZM97.0058 13.1335V13.2335H97.1058V13.1335H97.0058ZM94.2738 13.1335V13.0335H94.1738V13.1335H94.2738ZM94.2738 15.2874H94.1738V15.3874H94.2738V15.2874ZM97.2244 15.2874H97.3244V15.1874H97.2244V15.2874ZM97.2244 16.1942V16.2942H97.3244V16.1942H97.2244ZM93.3995 16.1942H93.2995V16.2942H93.3995V16.1942ZM93.3995 9.39262V9.29262H93.2995V9.39262H93.3995ZM97.2244 9.39262H97.3244V9.29262H97.2244V9.39262ZM98.5358 16.1942H98.4358V16.2942H98.5358V16.1942ZM98.5358 9.39262V9.29262H98.4358V9.39262H98.5358ZM99.41 9.39262H99.51V9.29262H99.41V9.39262ZM99.41 15.4007H99.31V15.5007H99.41V15.4007ZM102.251 15.4007H102.351V15.3007H102.251V15.4007ZM102.251 16.1942V16.2942H102.351V16.1942H102.251ZM105.53 16.1942H105.43V16.2942H105.53V16.1942ZM105.53 9.39262V9.29262H105.43V9.39262H105.53ZM106.513 9.39262L106.599 9.3415L106.57 9.29262H106.513V9.39262ZM109.683 14.7206L109.597 14.7717L109.783 15.0843V14.7206H109.683ZM109.683 9.39262V9.29262H109.583V9.39262H109.683ZM110.557 9.39262H110.657V9.29262H110.557V9.39262ZM110.557 16.1942V16.2942H110.657V16.1942H110.557ZM109.683 16.1942L109.597 16.2463L109.626 16.2942H109.683V16.1942ZM106.295 10.6396L106.38 10.5875L106.195 10.2836V10.6396H106.295ZM106.295 16.1942V16.2942H106.395V16.1942H106.295ZM117.442 15.2874L117.514 15.3568L117.52 15.3498L117.442 15.2874ZM111.65 12.7934L111.75 12.7939V12.7934H111.65ZM115.037 9.27926V9.17926V9.27926ZM118.425 12.7934L118.525 12.8016V12.7934H118.425ZM113.18 14.7206L113.104 14.7861L113.107 14.7895L113.18 14.7206ZM114.928 15.5141L114.933 15.4142L114.932 15.4141L114.928 15.5141ZM116.677 14.7206L116.604 14.6512L116.599 14.6572L116.677 14.7206ZM117.442 12.7934L117.342 12.7865V12.7935L117.442 12.7934ZM116.677 10.8663L116.604 10.9355L116.61 10.9404L116.677 10.8663ZM114.928 10.0728L114.924 10.1727L114.925 10.1727L114.928 10.0728ZM113.18 10.8663L113.255 10.9319L113.257 10.9297L113.18 10.8663ZM112.524 12.7934L112.624 12.7987L112.624 12.7882L112.524 12.7934ZM51.7536 16.1942V9.39262H51.5536V16.1942H51.7536ZM51.6536 9.49262H53.6206V9.29262H51.6536V9.49262ZM53.6245 9.49255C54.4819 9.45989 55.3185 9.77515 55.9565 10.3725L56.0932 10.2265C55.417 9.59335 54.5287 9.25797 53.6168 9.29269L53.6245 9.49255ZM55.9518 10.3678C56.249 10.6859 56.4782 11.0658 56.6244 11.4827L56.8131 11.4165C56.6579 10.9739 56.4143 10.5699 56.0979 10.2312L55.9518 10.3678ZM56.6244 11.4827C56.7705 11.8996 56.8302 12.3439 56.7994 12.7865L56.9989 12.8004C57.0316 12.3307 56.9683 11.8592 56.8131 11.4165L56.6244 11.4827ZM56.7991 12.7948C56.811 13.6856 56.5079 14.5495 55.948 15.2235L56.1018 15.3513C56.6927 14.6401 57.0116 13.7297 56.9991 12.7921L56.7991 12.7948ZM55.954 15.2168C55.6473 15.5251 55.2816 15.7624 54.8808 15.9136L54.9514 16.1007C55.3793 15.9393 55.7692 15.6861 56.0958 15.3579L55.954 15.2168ZM54.8808 15.9136C54.4801 16.0647 54.0532 16.1264 53.6281 16.0945L53.6132 16.294C54.0675 16.328 54.5235 16.2621 54.9514 16.1007L54.8808 15.9136ZM53.6206 16.0942H51.6536V16.2942H53.6206V16.0942ZM52.5278 15.5007H53.7299V15.3007H52.5278V15.5007ZM53.7239 15.5005C54.0595 15.5207 54.3953 15.4679 54.7098 15.3456L54.6373 15.1592C54.3495 15.2711 54.0425 15.3193 53.7359 15.3009L53.7239 15.5005ZM54.7098 15.3456C55.0242 15.2232 55.3103 15.0341 55.5498 14.7907L55.4072 14.6504C55.1873 14.874 54.925 15.0472 54.6373 15.1592L54.7098 15.3456ZM55.554 14.7861C55.7887 14.5155 55.9694 14.1997 56.086 13.857L55.8967 13.7925C55.7883 14.1111 55.6204 14.4042 55.4029 14.655L55.554 14.7861ZM56.086 13.857C56.2027 13.5142 56.2529 13.151 56.234 12.7882L56.0343 12.7986C56.0519 13.1362 56.0051 13.4739 55.8967 13.7925L56.086 13.857ZM56.234 12.7986C56.2529 12.4358 56.2027 12.0727 56.086 11.7299L55.8967 11.7943C56.0051 12.1129 56.0519 12.4507 56.0343 12.7882L56.234 12.7986ZM56.086 11.7299C55.9694 11.3871 55.7887 11.0714 55.554 10.8008L55.4029 10.9318C55.6204 11.1826 55.7883 11.4757 55.8967 11.7943L56.086 11.7299ZM55.5475 10.794C55.0534 10.3217 54.4003 10.0674 53.7271 10.0862L53.7327 10.2861C54.3515 10.2688 54.953 10.5025 55.4094 10.9386L55.5475 10.794ZM53.7299 10.0861H52.5278V10.2861H53.7299V10.0861ZM52.4278 10.1861V15.4007H52.6278V10.1861H52.4278ZM58.3105 16.1942V9.39262H58.1105V16.1942H58.3105ZM58.2105 9.49262H59.0848V9.29262H58.2105V9.49262ZM58.9848 9.39262V16.1942H59.1848V9.39262H58.9848ZM59.0848 16.0942H58.2105V16.2942H59.0848V16.0942ZM62.3616 16.2076C61.8758 16.2156 61.3997 16.0637 61.0015 15.7734L60.8837 15.935C61.3165 16.2506 61.835 16.4163 62.3649 16.4076L62.3616 16.2076ZM61.0015 15.7733C60.5768 15.464 60.2784 15.0003 60.1661 14.473L59.9705 14.5147C60.0928 15.089 60.4182 15.5959 60.8837 15.935L61.0015 15.7733ZM60.1089 14.5852L60.8739 14.2451L60.7927 14.0624L60.0277 14.4025L60.1089 14.5852ZM60.7387 14.186C60.8593 14.5396 61.0533 14.8616 61.3071 15.1294L61.4523 14.9918C61.2185 14.7452 61.0394 14.4481 60.9279 14.1215L60.7387 14.186ZM61.3183 15.1396C61.6194 15.3738 61.986 15.5007 62.3633 15.5007V15.3007C62.0311 15.3007 61.7076 15.189 61.4411 14.9817L61.3183 15.1396ZM62.3633 15.5007C62.7405 15.5007 63.1072 15.3738 63.4082 15.1396L63.2854 14.9817C63.0189 15.189 62.6954 15.3007 62.3633 15.3007V15.5007ZM63.4081 15.1397C63.5404 15.037 63.6507 14.9075 63.7324 14.7592L63.5572 14.6627C63.4885 14.7875 63.396 14.896 63.2855 14.9816L63.4081 15.1397ZM63.7324 14.7592C63.8141 14.611 63.8654 14.4471 63.8834 14.2777L63.6845 14.2566C63.6693 14.3997 63.626 14.538 63.5572 14.6627L63.7324 14.7592ZM63.8838 14.272C63.8933 14.078 63.8543 13.8847 63.7704 13.7106L63.5903 13.7975C63.6595 13.9412 63.6919 14.1013 63.684 14.2622L63.8838 14.272ZM63.7704 13.7106C63.6865 13.5366 63.5604 13.3875 63.4041 13.2783L63.2895 13.4422C63.4172 13.5314 63.521 13.6537 63.5903 13.7975L63.7704 13.7106ZM63.4124 13.2848C63.055 12.974 62.6223 12.7699 62.1608 12.6947L62.1286 12.8921C62.5529 12.9612 62.9514 13.149 63.2812 13.4357L63.4124 13.2848ZM62.1813 12.7004C61.7297 12.5226 61.2964 12.2979 60.8882 12.0297L60.7784 12.1968C61.198 12.4725 61.6435 12.7036 62.1081 12.8865L62.1813 12.7004ZM60.9033 12.0419C60.766 11.9072 60.6583 11.7429 60.5879 11.5603L60.4013 11.6323C60.4818 11.8412 60.6053 12.0297 60.7633 12.1847L60.9033 12.0419ZM60.5879 11.5603C60.5175 11.3777 60.4861 11.1813 60.496 10.9847L60.2963 10.9746C60.285 11.1991 60.3208 11.4234 60.4013 11.6323L60.5879 11.5603ZM60.4961 10.9836C60.5138 10.5349 60.6995 10.1118 61.0127 9.80402L60.8725 9.66139C60.5223 10.0056 60.3159 10.4772 60.2962 10.9757L60.4961 10.9836ZM61.0115 9.80514C61.3804 9.45402 61.8632 9.2617 62.3624 9.2659L62.3641 9.06591C61.812 9.06126 61.2794 9.27405 60.8736 9.66027L61.0115 9.80514ZM62.3722 9.2655C62.5949 9.24553 62.8193 9.27304 63.0315 9.34642L63.0968 9.1574C62.858 9.07482 62.6053 9.04379 62.3543 9.0663L62.3722 9.2655ZM63.0315 9.34642C63.2437 9.41981 63.4395 9.53756 63.6066 9.69265L63.7427 9.54604C63.5554 9.37231 63.3357 9.23998 63.0968 9.1574L63.0315 9.34642ZM63.6098 9.69551C63.8833 9.92813 64.0988 10.2261 64.2379 10.5642L64.4228 10.4882C64.2719 10.1211 64.0376 9.79679 63.7394 9.54318L63.6098 9.69551ZM64.2897 10.4348L63.5247 10.7749L63.606 10.9577L64.371 10.6176L64.2897 10.4348ZM63.6597 10.8332C63.5708 10.5797 63.4038 10.3627 63.1836 10.2162L63.0729 10.3828C63.256 10.5046 63.3961 10.6859 63.471 10.8994L63.6597 10.8332ZM63.1892 10.2202C63.0544 10.1166 62.9011 10.0414 62.738 9.99911L62.6877 10.1927C62.8246 10.2282 62.9536 10.2914 63.0673 10.3788L63.1892 10.2202ZM62.738 9.99911C62.5748 9.9568 62.4051 9.94824 62.2387 9.97396L62.2692 10.1716C62.4087 10.1501 62.5509 10.1572 62.6877 10.1927L62.738 9.99911ZM62.2468 9.97304C61.9326 9.99551 61.6248 10.0754 61.3376 10.2088L61.4219 10.3902C61.6872 10.2669 61.9713 10.1933 62.2611 10.1725L62.2468 9.97304ZM61.2928 10.2501C61.1476 10.5054 61.0679 10.7948 61.0612 11.0907L61.2611 11.0953C61.2671 10.8322 61.338 10.5752 61.4666 10.3489L61.2928 10.2501ZM61.0613 11.0993C61.0703 11.2424 61.1068 11.3823 61.1688 11.5109L61.3489 11.424C61.2983 11.319 61.2683 11.2043 61.261 11.0868L61.0613 11.0993ZM61.1688 11.5109C61.2307 11.6394 61.3169 11.7541 61.4226 11.8479L61.5554 11.6984C61.4698 11.6224 61.3996 11.5291 61.3489 11.424L61.1688 11.5109ZM61.4245 11.8496C61.7215 12.1001 62.0777 12.2644 62.4567 12.3254L62.4884 12.1279C62.1458 12.0728 61.8231 11.9242 61.5535 11.6967L61.4245 11.8496ZM62.4394 12.321C62.6975 12.4117 62.9483 12.5232 63.1897 12.6546L63.2853 12.4789C63.0346 12.3424 62.7739 12.2266 62.5057 12.1323L62.4394 12.321ZM63.196 12.6577C63.4274 12.7634 63.6395 12.91 63.8229 13.0913L63.9635 12.949C63.7636 12.7515 63.5321 12.5913 63.2791 12.4758L63.196 12.6577ZM63.8453 13.1079C64.0832 13.2379 64.2629 13.4609 64.3439 13.7292L64.5354 13.6714C64.4396 13.3543 64.2265 13.0883 63.9412 12.9324L63.8453 13.1079ZM64.3507 13.746C64.4869 14.0109 64.5582 14.3067 64.5582 14.6072H64.7582C64.7582 14.2751 64.6794 13.948 64.5286 13.6546L64.3507 13.746ZM64.5582 14.6072C64.5582 14.9077 64.4869 15.2035 64.3507 15.4684L64.5286 15.5598C64.6794 15.2664 64.7582 14.9393 64.7582 14.6072H64.5582ZM64.3506 15.4686C64.2361 15.6925 64.0598 15.8751 63.845 15.9933L63.9414 16.1685C64.192 16.0307 64.3964 15.8184 64.5287 15.5596L64.3506 15.4686ZM63.8472 15.9921L63.1915 16.3322L63.2836 16.5097L63.9393 16.1697L63.8472 15.9921ZM63.2689 16.326C62.9746 16.2287 62.6655 16.1886 62.357 16.2078L62.3695 16.4074C62.6524 16.3898 62.936 16.4266 63.2061 16.5159L63.2689 16.326ZM66.6253 16.0942H65.751V16.2942H66.6253V16.0942ZM65.851 16.1942V9.39262H65.651V16.1942H65.851ZM65.751 9.49262H67.9367V9.29262H65.751V9.49262ZM67.9335 9.49257C68.4317 9.50816 68.9105 9.69896 69.2912 10.0345L69.4235 9.8844C69.0084 9.51867 68.4853 9.30973 67.9398 9.29267L67.9335 9.49257ZM69.2932 10.0362C69.4927 10.2028 69.6526 10.4153 69.7602 10.6573L69.9429 10.576C69.8231 10.3066 69.6447 10.0693 69.4215 9.88269L69.2932 10.0362ZM69.7602 10.6573C69.8678 10.8992 69.9202 11.1638 69.9131 11.4304L70.113 11.4358C70.1209 11.1395 70.0628 10.8453 69.9429 10.576L69.7602 10.6573ZM69.913 11.4318C69.9096 11.6979 69.8522 11.9602 69.7448 12.2016L69.9275 12.2829C70.0461 12.0165 70.1092 11.7275 70.113 11.4344L69.913 11.4318ZM69.7448 12.2016C69.6374 12.443 69.4824 12.658 69.2901 12.8328L69.4246 12.9808C69.6378 12.7871 69.809 12.5492 69.9275 12.2829L69.7448 12.2016ZM69.2912 12.8318C68.9105 13.1673 68.4317 13.3581 67.9335 13.3736L67.9398 13.5735C68.4853 13.5565 69.0084 13.3475 69.4235 12.9818L69.2912 12.8318ZM67.9367 13.3736H66.6253V13.5736H67.9367V13.3736ZM66.5253 13.4736V16.1942H66.7253V13.4736H66.5253ZM66.6253 12.6667H68.0459V12.4667H66.6253V12.6667ZM68.0432 12.6667C68.3933 12.6764 68.7327 12.5441 68.9893 12.2989L68.8511 12.1543C68.6324 12.3633 68.3445 12.475 68.0487 12.4668L68.0432 12.6667ZM68.9936 12.2946C69.2085 12.0624 69.3342 11.7577 69.348 11.4374L69.1482 11.4288C69.1364 11.7026 69.029 11.962 68.8468 12.1587L68.9936 12.2946ZM69.348 11.4288C69.3342 11.1085 69.2085 10.8038 68.9936 10.5716L68.8468 10.7075C69.029 10.9042 69.1364 11.1636 69.1482 11.4374L69.348 11.4288ZM68.9893 10.5673C68.7327 10.3221 68.3933 10.1898 68.0432 10.1995L68.0487 10.3995C68.3445 10.3913 68.6324 10.5029 68.8511 10.7119L68.9893 10.5673ZM68.0459 10.1995H66.6253V10.3995H68.0459V10.1995ZM66.5253 10.2995V12.5667H66.7253V10.2995H66.5253ZM76.3885 15.2182C75.9283 15.699 75.3411 16.0264 74.7018 16.1593L74.7425 16.3551C75.4222 16.2138 76.0454 15.866 76.533 15.3565L76.3885 15.2182ZM74.7018 16.1593C74.0626 16.2922 73.3996 16.2248 72.7972 15.9654L72.7181 16.1491C73.3581 16.4246 74.0629 16.4964 74.7425 16.3551L74.7018 16.1593ZM72.7972 15.9654C72.1948 15.706 71.6798 15.2662 71.3183 14.7014L71.1498 14.8092C71.5324 15.4069 72.0782 15.8735 72.7181 16.1491L72.7972 15.9654ZM71.3183 14.7014C70.9568 14.1366 70.7654 13.4725 70.7687 12.7939L70.5687 12.7929C70.5652 13.5097 70.7673 14.2115 71.1498 14.8092L71.3183 14.7014ZM70.7687 12.7934C70.7687 11.8868 71.116 11.018 71.733 10.3779L71.589 10.2391C70.9353 10.9172 70.5687 11.8361 70.5687 12.7934H70.7687ZM71.733 10.3779C72.3499 9.73804 73.1857 9.37926 74.0565 9.37926V9.17926C73.1303 9.17926 72.2428 9.56096 71.589 10.2391L71.733 10.3779ZM74.0565 9.37926C74.9273 9.37926 75.7631 9.73804 76.38 10.3779L76.524 10.2391C75.8702 9.56096 74.9827 9.17926 74.0565 9.17926V9.37926ZM76.38 10.3779C76.997 11.018 77.3442 11.8868 77.3442 12.7934H77.5442C77.5442 11.8361 77.1776 10.9172 76.524 10.2391L76.38 10.3779ZM77.3443 12.7961C77.3564 13.2465 77.2777 13.6945 77.1133 14.1114L77.2993 14.1848C77.4736 13.7427 77.557 13.268 77.5442 12.7907L77.3443 12.7961ZM77.1133 14.1114C76.9489 14.5283 76.7025 14.9047 76.3901 15.2166L76.5314 15.3581C76.8635 15.0265 77.125 14.6268 77.2993 14.1848L77.1133 14.1114ZM72.2356 14.7895C72.7168 15.2948 73.3671 15.5902 74.053 15.614L74.06 15.4141C73.4274 15.3922 72.8263 15.1198 72.3804 14.6516L72.2356 14.7895ZM74.0522 15.614C74.3984 15.629 74.7433 15.5619 75.0605 15.418L74.9778 15.2359C74.6891 15.3669 74.3755 15.4278 74.0608 15.4142L74.0522 15.614ZM75.0605 15.418C75.3777 15.274 75.6587 15.0571 75.8824 14.7839L75.7276 14.6572C75.5231 14.907 75.2666 15.1048 74.9778 15.2359L75.0605 15.418ZM75.8773 14.7897C76.3856 14.2582 76.6701 13.5406 76.67 12.7934L76.47 12.7935C76.4701 13.4901 76.2047 14.1579 75.7327 14.6514L75.8773 14.7897ZM76.6697 12.8004C76.6958 12.4248 76.6375 12.048 76.4992 11.6995L76.3133 11.7733C76.4405 12.0938 76.4943 12.4406 76.4702 12.7865L76.6697 12.8004ZM76.4992 11.6995C76.3609 11.3511 76.1463 11.0404 75.8721 10.7922L75.7379 10.9404C75.989 11.1678 76.1861 11.4529 76.3133 11.7733L76.4992 11.6995ZM75.8774 10.7973C75.3962 10.2921 74.7459 9.99661 74.06 9.97284L74.053 10.1727C74.6855 10.1946 75.2867 10.4671 75.7326 10.9353L75.8774 10.7973ZM74.0608 9.97288C73.7146 9.95784 73.3697 10.0249 73.0525 10.1689L73.1352 10.351C73.4239 10.22 73.7375 10.159 74.0522 10.1727L74.0608 9.97288ZM73.0525 10.1689C72.7353 10.3128 72.4543 10.5298 72.2306 10.803L72.3853 10.9297C72.5899 10.6799 72.8464 10.4821 73.1352 10.351L73.0525 10.1689ZM72.2357 10.7972C71.7274 11.3287 71.4429 12.0463 71.4429 12.7934H71.6429C71.6429 12.0967 71.9083 11.429 72.3802 10.9354L72.2357 10.7972ZM71.4429 12.7934C71.4429 13.5406 71.7274 14.2581 72.2357 14.7897L72.3802 14.6514C71.9083 14.1579 71.6429 13.4901 71.6429 12.7934H71.4429ZM78.7464 16.1942V9.39262H78.5464V16.1942H78.7464ZM78.6464 9.49262H79.6299V9.29262H78.6464V9.49262ZM79.544 9.44374L82.7132 14.7717L82.885 14.6694L79.7158 9.3415L79.544 9.44374ZM82.8991 14.7206V9.39262H82.6991V14.7206H82.8991ZM82.7991 9.49262H83.6734V9.29262H82.7991V9.49262ZM83.5734 9.39262V16.1942H83.7734V9.39262H83.5734ZM83.6734 16.0942H82.7991V16.2942H83.6734V16.0942ZM82.8845 16.1422L79.4967 10.5875L79.326 10.6917L82.7137 16.2463L82.8845 16.1422ZM79.3113 10.6396V16.1942H79.5113V10.6396H79.3113ZM79.4113 16.0942H78.6464V16.2942H79.4113V16.0942ZM85.3033 16.1942V9.39262H85.1033V16.1942H85.3033ZM85.2033 9.49262H86.0776V9.29262H85.2033V9.49262ZM85.9776 9.39262V16.1942H86.1776V9.39262H85.9776ZM86.0776 16.0942H85.2033V16.2942H86.0776V16.0942ZM85.9683 8.72582H85.2033V8.92582H85.9683V8.72582ZM85.2977 8.8589L85.7348 7.61194L85.5461 7.54578L85.1089 8.79274L85.2977 8.8589ZM85.6404 7.67886H86.5147V7.47886H85.6404V7.67886ZM86.4231 7.53872L85.8767 8.78569L86.0599 8.86596L86.6063 7.61899L86.4231 7.53872ZM89.2322 16.1623L86.9373 9.36065L86.7478 9.42459L89.0427 16.2262L89.2322 16.1623ZM86.8425 9.49262H87.8261V9.29262H86.8425V9.49262ZM87.7307 9.42265L89.4792 14.9773L89.67 14.9173L87.9215 9.3626L87.7307 9.42265ZM89.6689 14.9807L91.636 9.426L91.4474 9.35924L89.4804 14.9139L89.6689 14.9807ZM91.5417 9.49262H92.5252V9.29262H91.5417V9.49262ZM92.431 9.3593L90.0267 16.1609L90.2153 16.2276L92.6195 9.42595L92.431 9.3593ZM90.121 16.0942H89.1375V16.2942H90.121V16.0942ZM97.2244 10.0861H94.2738V10.2861H97.2244V10.0861ZM94.1738 10.1861V12.34H94.3738V10.1861H94.1738ZM94.2738 12.44H97.0058V12.24H94.2738V12.44ZM96.9058 12.34V13.1335H97.1058V12.34H96.9058ZM97.0058 13.0335H94.2738V13.2335H97.0058V13.0335ZM94.1738 13.1335V15.2874H94.3738V13.1335H94.1738ZM94.2738 15.3874H97.2244V15.1874H94.2738V15.3874ZM97.1244 15.2874V16.1942H97.3244V15.2874H97.1244ZM97.2244 16.0942H93.3995V16.2942H97.2244V16.0942ZM93.4995 16.1942V9.39262H93.2995V16.1942H93.4995ZM93.3995 9.49262H97.2244V9.29262H93.3995V9.49262ZM97.1244 9.39262V10.1861H97.3244V9.39262H97.1244ZM98.6358 16.1942V9.39262H98.4358V16.1942H98.6358ZM98.5358 9.49262H99.41V9.29262H98.5358V9.49262ZM99.31 9.39262V15.4007H99.51V9.39262H99.31ZM99.41 15.5007H102.251V15.3007H99.41V15.5007ZM102.151 15.4007V16.1942H102.351V15.4007H102.151ZM102.251 16.0942H98.5358V16.2942H102.251V16.0942ZM105.63 16.1942V9.39262H105.43V16.1942H105.63ZM105.53 9.49262H106.513V9.29262H105.53V9.49262ZM106.427 9.44374L109.597 14.7717L109.769 14.6694L106.599 9.3415L106.427 9.44374ZM109.783 14.7206V9.39262H109.583V14.7206H109.783ZM109.683 9.49262H110.557V9.29262H109.683V9.49262ZM110.457 9.39262V16.1942H110.657V9.39262H110.457ZM110.557 16.0942H109.683V16.2942H110.557V16.0942ZM109.768 16.1422L106.38 10.5875L106.209 10.6917L109.597 16.2463L109.768 16.1422ZM106.195 10.6396V16.1942H106.395V10.6396H106.195ZM106.295 16.0942H105.53V16.2942H106.295V16.0942ZM117.369 15.2182C116.909 15.699 116.322 16.0264 115.683 16.1593L115.724 16.3551C116.403 16.2138 117.026 15.866 117.514 15.3565L117.369 15.2182ZM115.683 16.1593C115.044 16.2922 114.381 16.2248 113.778 15.9654L113.699 16.1491C114.339 16.4246 115.044 16.4964 115.724 16.3551L115.683 16.1593ZM113.778 15.9654C113.176 15.706 112.661 15.2662 112.299 14.7014L112.131 14.8092C112.513 15.4069 113.059 15.8735 113.699 16.1491L113.778 15.9654ZM112.299 14.7014C111.938 14.1366 111.746 13.4725 111.75 12.7939L111.55 12.7929C111.546 13.5097 111.748 14.2115 112.131 14.8092L112.299 14.7014ZM111.75 12.7934C111.75 11.8868 112.097 11.018 112.714 10.3779L112.57 10.2391C111.916 10.9172 111.55 11.8361 111.55 12.7934H111.75ZM112.714 10.3779C113.331 9.73804 114.167 9.37926 115.037 9.37926V9.17926C114.111 9.17926 113.224 9.56096 112.57 10.2391L112.714 10.3779ZM115.037 9.37926C115.908 9.37926 116.744 9.73804 117.361 10.3779L117.505 10.2391C116.851 9.56096 115.964 9.17926 115.037 9.17926V9.37926ZM117.361 10.3779C117.978 11.018 118.325 11.8868 118.325 12.7934H118.525C118.525 11.8361 118.159 10.9172 117.505 10.2391L117.361 10.3779ZM118.326 12.7853C118.252 13.6816 117.916 14.5328 117.364 15.225L117.52 15.3498C118.098 14.6261 118.448 13.737 118.525 12.8016L118.326 12.7853ZM113.107 14.7895C113.588 15.2948 114.239 15.5902 114.925 15.614L114.932 15.4141C114.299 15.3922 113.698 15.1198 113.252 14.6516L113.107 14.7895ZM114.924 15.614C115.27 15.629 115.615 15.5619 115.932 15.418L115.85 15.2359C115.561 15.3669 115.247 15.4278 114.933 15.4142L114.924 15.614ZM115.932 15.418C116.249 15.274 116.53 15.0571 116.754 14.7839L116.599 14.6572C116.395 14.907 116.138 15.1048 115.85 15.2359L115.932 15.418ZM116.749 14.7897C117.257 14.2582 117.542 13.5406 117.542 12.7934L117.342 12.7935C117.342 13.4901 117.076 14.1579 116.604 14.6514L116.749 14.7897ZM117.541 12.8004C117.568 12.4248 117.509 12.048 117.371 11.6995L117.185 11.7733C117.312 12.0938 117.366 12.4406 117.342 12.7865L117.541 12.8004ZM117.371 11.6995C117.233 11.3511 117.018 11.0404 116.744 10.7922L116.61 10.9404C116.861 11.1678 117.058 11.4529 117.185 11.7733L117.371 11.6995ZM116.749 10.7973C116.268 10.2921 115.618 9.99661 114.932 9.97284L114.925 10.1727C115.557 10.1946 116.158 10.4671 116.604 10.9353L116.749 10.7973ZM114.933 9.97288C114.586 9.95784 114.241 10.0249 113.924 10.1689L114.007 10.351C114.296 10.22 114.609 10.159 114.924 10.1727L114.933 9.97288ZM113.924 10.1689C113.607 10.3128 113.326 10.5298 113.102 10.803L113.257 10.9297C113.462 10.6799 113.718 10.4821 114.007 10.351L113.924 10.1689ZM113.104 10.8008C112.869 11.0714 112.689 11.3871 112.572 11.7299L112.761 11.7943C112.87 11.4757 113.038 11.1826 113.255 10.9318L113.104 10.8008ZM112.572 11.7299C112.455 12.0727 112.405 12.4358 112.424 12.7986L112.624 12.7882C112.606 12.4507 112.653 12.1129 112.761 11.7943L112.572 11.7299ZM112.424 12.7882C112.405 13.151 112.455 13.5142 112.572 13.857L112.761 13.7925C112.653 13.4739 112.606 13.1362 112.624 12.7986L112.424 12.7882ZM112.572 13.857C112.689 14.1997 112.869 14.5155 113.104 14.7861L113.255 14.655C113.038 14.4042 112.87 14.1111 112.761 13.7925L112.572 13.857Z" fill="white"/>
<path d="M16.8307 10.6035C16.4935 11.0527 16.3326 11.5028 16.3894 12.0683V37.0246C16.3656 37.605 16.4664 38.2911 16.8405 38.7246L30.5937 24.7158V24.49L16.8307 10.6035Z" fill="url(#paint0_linear)"/>
<path d="M35.0639 29.3509L30.4844 24.8286V24.4899L35.0885 19.9619L40.4275 23.1348C41.9572 24.0382 41.9572 25.5062 40.4275 26.4096L35.0639 29.3509Z" fill="url(#paint1_linear)"/>
<path d="M35.0736 29.3454L30.4845 24.6025L16.8455 38.7192C17.3918 39.2838 18.1376 39.2827 19.121 38.831L35.0736 29.3454Z" fill="url(#paint2_linear)"/>
<path d="M35.1083 19.9827L19.121 10.4877C18.7879 10.2216 18.3741 10.0868 17.9536 10.1075C17.5331 10.1282 17.1335 10.303 16.8264 10.6006L30.4845 24.6032L35.1083 19.9827Z" fill="url(#paint3_linear)"/>
<defs>
<linearGradient id="paint0_linear" x1="29.2716" y1="670.419" x2="7.4556" y2="676.128" gradientUnits="userSpaceOnUse">
<stop stop-color="#01D1FF"/>
<stop offset="0.007" stop-color="#00A1FF"/>
<stop offset="0.26" stop-color="#00BEFF"/>
<stop offset="0.512" stop-color="#00D2FF"/>
<stop offset="0.76" stop-color="#00DFFF"/>
<stop offset="1" stop-color="#00E3FF"/>
</linearGradient>
<linearGradient id="paint1_linear" x1="42.4287" y1="683.228" x2="15.9893" y2="683.228" gradientUnits="userSpaceOnUse">
<stop stop-color="#FFD201"/>
<stop offset="0.409" stop-color="#FFBD00"/>
<stop offset="0.775" stop-color="#FFA500"/>
<stop offset="1" stop-color="#FF9C00"/>
</linearGradient>
<linearGradient id="paint2_linear" x1="32.5738" y1="685.748" x2="14.2643" y2="715.49" gradientUnits="userSpaceOnUse">
<stop stop-color="#F83548"/>
<stop offset="1" stop-color="#C31162"/>
</linearGradient>
<linearGradient id="paint3_linear" x1="13.396" y1="661.301" x2="21.5246" y2="674.607" gradientUnits="userSpaceOnUse">
<stop stop-color="#01F076"/>
<stop offset="0.068" stop-color="#2DA771"/>
<stop offset="0.476" stop-color="#15CF74"/>
<stop offset="0.801" stop-color="#06E775"/>
<stop offset="1" stop-color="#00F076"/>
</linearGradient>
</defs>
</svg>
