<svg width="160" height="48" viewBox="0 0 160 48" fill="none" xmlns="http://www.w3.org/2000/svg">
<rect width="160" height="48" rx="4" fill="black"/>
<path d="M61.1704 35.758H58.5111L57.0485 31.2246H51.8629L50.4003 35.758H47.874L53.0596 20.2148H56.2507L61.1704 35.758ZM56.5166 29.2817L55.187 25.2663C55.054 24.8777 54.7881 23.8415 54.3892 22.2872C54.0972 23.2641 53.875 24.2595 53.7244 25.2663L52.2618 29.4112H56.5166V29.2817Z" fill="white"/>
<path d="M74.4667 29.9293C74.5099 31.6174 73.9455 33.267 72.8711 34.5923C72.4033 35.0547 71.8438 35.4194 71.2266 35.6644C70.6094 35.9093 69.9475 36.0293 69.2811 36.0171C68.6528 36.0779 68.0197 35.9642 67.455 35.6891C66.8903 35.414 66.417 34.9889 66.09 34.4627V40.421H63.5637V28.1159C63.5858 26.9056 63.5414 25.6949 63.4307 24.4892H65.6911L65.8241 26.3025C66.2028 25.6481 66.7694 25.1156 67.4544 24.7704C68.1393 24.4253 68.9129 24.2825 69.68 24.3596C70.321 24.3427 70.9569 24.4749 71.535 24.7452C72.1131 25.0155 72.6167 25.4162 73.0041 25.914C73.9733 27.0365 74.4928 28.4627 74.4667 29.9293ZM71.8074 30.0588C71.848 29.0922 71.5683 28.1386 71.0096 27.3388C70.7594 26.988 70.4187 26.7076 70.0219 26.5257C69.6252 26.3438 69.1862 26.2668 68.7493 26.3025C68.1421 26.3549 67.5531 26.5314 67.0207 26.8207C66.5481 27.2521 66.1841 27.784 65.957 28.375C65.8564 28.6668 65.8114 28.9741 65.8241 29.2817V31.095C65.8263 31.8567 66.1094 32.5922 66.6219 33.1675C66.8914 33.4635 67.2245 33.6982 67.5975 33.8548C67.9706 34.0115 68.3744 34.0863 68.7804 34.0739C69.1864 34.0616 69.5847 33.9624 69.947 33.7833C70.3092 33.6043 70.6266 33.3498 70.8767 33.0379C71.5377 32.1828 71.8673 31.1277 71.8074 30.0588Z" fill="white"/>
<path d="M87.763 29.9293C87.8063 31.6174 87.2418 33.267 86.1675 34.5923C85.2077 35.5056 83.9192 36.017 82.5775 36.0171C81.9306 36.0776 81.279 35.9648 80.6932 35.6909C80.1073 35.417 79.6095 34.9923 79.2534 34.4627V40.421H76.7271V28.1159C76.7492 26.9056 76.7048 25.6949 76.5941 24.4892H78.8545L78.9874 26.3025C79.3661 25.6481 79.9327 25.1156 80.6177 24.7704C81.3027 24.4253 82.0763 24.2825 82.8434 24.3596C83.4844 24.3427 84.1203 24.4749 84.6984 24.7452C85.2765 25.0155 85.7801 25.4162 86.1675 25.914C86.6936 26.4466 87.1057 27.076 87.3797 27.7654C87.6536 28.4547 87.7839 29.1903 87.763 29.9293ZM85.1038 30.0588C85.1208 29.1121 84.8921 28.1765 84.4389 27.3388C84.1682 27.0096 83.8238 26.7451 83.432 26.5655C83.0402 26.386 82.6115 26.296 82.1786 26.3025C81.5714 26.3549 80.9824 26.5314 80.45 26.8207C79.9774 27.2521 79.6134 27.784 79.3863 28.375C79.2857 28.6668 79.2407 28.9741 79.2534 29.2817V31.095C79.2556 31.8567 79.5387 32.5922 80.0512 33.1675C80.3207 33.4635 80.6538 33.6982 81.0268 33.8548C81.3999 34.0115 81.8037 34.0863 82.2097 34.0739C82.6157 34.0616 83.014 33.9624 83.3763 33.7833C83.7385 33.6043 84.0559 33.3498 84.306 33.0379C84.8649 32.1421 85.1423 31.1065 85.1038 30.0588Z" fill="white"/>
<path d="M102.522 31.3541C102.534 31.9649 102.409 32.5709 102.157 33.1301C101.904 33.6893 101.53 34.1882 101.059 34.5923C99.8274 35.5784 98.2645 36.0859 96.6716 36.0171C95.2177 36.1266 93.7677 35.762 92.5497 34.9808L93.0816 32.9084C94.1743 33.6381 95.481 34.0018 96.8045 33.9446C97.595 34.0056 98.3853 33.8245 99.0649 33.4265C99.3221 33.2247 99.5279 32.9677 99.6662 32.6756C99.8046 32.3835 99.8719 32.0642 99.8627 31.7427C99.8709 31.4397 99.8025 31.1394 99.6633 30.8683C99.5242 30.5972 99.3187 30.3637 99.0649 30.1883C98.3931 29.6652 97.6263 29.2698 96.8045 29.0226C93.8793 27.9864 92.6827 26.5616 92.6827 24.6187C92.6538 24.0056 92.7708 23.3944 93.0245 22.8327C93.2782 22.271 93.6618 21.774 94.1453 21.3805C95.2563 20.5745 96.617 20.1631 98.0012 20.2148C99.288 20.1818 100.564 20.4482 101.724 20.9919L101.192 22.8053C100.259 22.2923 99.2055 22.0244 98.1342 22.0282C97.7435 22.0061 97.3525 22.0638 96.9861 22.1977C96.6198 22.3315 96.2862 22.5385 96.0068 22.8053C95.8246 22.996 95.6836 23.2203 95.5923 23.4651C95.5009 23.7099 95.461 23.97 95.4749 24.2301C95.4811 24.5306 95.5559 24.8261 95.6939 25.0949C95.8319 25.3638 96.0296 25.5993 96.2727 25.7844C96.9445 26.3075 97.7113 26.703 98.5331 26.9502C99.7153 27.3139 100.773 27.9858 101.591 28.8931C101.925 29.2099 102.181 29.5952 102.342 30.021C102.503 30.4468 102.565 30.9023 102.522 31.3541Z" fill="white"/>
<path d="M111.165 26.4321H108.239V31.8722C108.239 33.297 108.771 33.9446 109.835 33.9446C110.195 33.9741 110.557 33.93 110.899 33.8151L111.032 35.6285C110.398 35.8689 109.714 35.9578 109.037 35.8875C108.593 35.9298 108.145 35.8698 107.729 35.7123C107.314 35.5548 106.942 35.3042 106.644 34.9808C105.995 34.075 105.712 32.9687 105.846 31.8722V26.3025H104.118V24.3596H105.846V22.2872L108.372 21.6396V24.3596H111.298L111.165 26.4321Z" fill="white"/>
<path d="M123.796 30.0588C123.862 31.6327 123.289 33.1685 122.201 34.3332C121.663 34.8665 121.021 35.29 120.313 35.5791C119.606 35.8682 118.846 36.0171 118.079 36.0171C117.311 36.0171 116.552 35.8682 115.844 35.5791C115.136 35.29 114.495 34.8665 113.957 34.3332C112.891 33.2066 112.319 31.7196 112.361 30.1883C112.316 29.4078 112.435 28.6264 112.709 27.8917C112.983 27.157 113.408 26.4841 113.957 25.914C114.48 25.3625 115.119 24.9268 115.83 24.6364C116.541 24.3459 117.308 24.2074 118.079 24.2301C118.848 24.2204 119.61 24.3649 120.319 24.6545C121.028 24.9442 121.669 25.3729 122.201 25.914C123.266 27.0405 123.838 28.5275 123.796 30.0588ZM121.137 30.1883C121.158 29.2241 120.88 28.2761 120.339 27.4683C120.131 27.0527 119.811 26.7003 119.413 26.4492C119.014 26.198 118.553 26.0578 118.079 26.0435C117.583 26.0389 117.096 26.17 116.673 26.4219C116.249 26.6738 115.907 27.0364 115.685 27.4683C115.127 28.2681 114.847 29.2218 114.888 30.1883C114.866 31.1123 115.145 32.0191 115.685 32.7789C115.907 33.2108 116.249 33.5734 116.673 33.8252C117.096 34.0771 117.583 34.2083 118.079 34.2037C118.559 34.2166 119.032 34.0874 119.436 33.833C119.839 33.5787 120.154 33.2111 120.339 32.7789C120.897 32.0278 121.179 31.1148 121.137 30.1883Z" fill="white"/>
<path d="M132.173 26.6911C131.907 26.6911 131.641 26.5616 131.375 26.5616C130.957 26.527 130.537 26.6055 130.162 26.7883C129.786 26.9711 129.47 27.2512 129.248 27.5978C128.839 28.2599 128.653 29.0297 128.716 29.7998V35.6285H126.189V27.8569C126.217 26.6896 126.172 25.5218 126.056 24.3596H128.317L128.45 26.5616H128.583C128.82 25.8364 129.285 25.2021 129.912 24.7482C130.459 24.3837 131.112 24.2019 131.774 24.2301H132.306V26.6911H132.173Z" fill="white"/>
<path d="M143.608 29.6702C143.648 30.021 143.603 30.3762 143.475 30.7065H135.763C135.755 31.1854 135.845 31.661 136.028 32.1057C136.21 32.5504 136.482 32.9553 136.827 33.297C137.588 33.8594 138.532 34.1353 139.486 34.0742C140.525 34.039 141.554 33.8646 142.544 33.556L142.943 35.2399C141.693 35.7961 140.327 36.0621 138.954 36.0171C138.194 36.0493 137.435 35.9278 136.726 35.6603C136.017 35.3928 135.372 34.985 134.832 34.4627C134.284 33.9183 133.859 33.2684 133.585 32.5546C133.31 31.8408 133.191 31.0789 133.236 30.3179C133.211 28.7725 133.727 27.2647 134.699 26.0435C135.185 25.4402 135.814 24.9603 136.532 24.6446C137.249 24.3289 138.035 24.1867 138.821 24.2301C139.552 24.173 140.286 24.3118 140.942 24.6314C141.598 24.951 142.152 25.4393 142.544 26.0435C143.31 27.1001 143.685 28.3788 143.608 29.6702ZM141.214 29.0226C141.263 28.3759 141.074 27.7334 140.682 27.2092C140.478 26.876 140.185 26.6033 139.833 26.4207C139.482 26.2381 139.086 26.1524 138.688 26.173C138.293 26.168 137.903 26.2603 137.554 26.4415C137.205 26.6226 136.909 26.8867 136.694 27.2092C136.193 27.7916 135.912 28.5226 135.896 29.2817H141.214V29.0226Z" fill="white"/>
<path d="M51.6534 16.1942V9.39262H53.6205C54.5052 9.35893 55.3676 9.68425 56.0247 10.2995C56.3315 10.6279 56.568 11.0198 56.7186 11.4496C56.8693 11.8794 56.9308 12.3373 56.899 12.7934C56.9112 13.7076 56.6002 14.5948 56.0247 15.2874C55.7081 15.6056 55.3303 15.8509 54.916 16.0071C54.5017 16.1634 54.0602 16.2272 53.6205 16.1942H51.6534ZM52.5277 15.4007H53.7298C54.0509 15.42 54.3723 15.3695 54.6734 15.2524C54.9745 15.1352 55.2487 14.9541 55.4783 14.7206C55.7044 14.4598 55.8787 14.1554 55.9912 13.8247C56.1038 13.4941 56.1523 13.1436 56.134 12.7934C56.1523 12.4433 56.1038 12.0928 55.9912 11.7621C55.8787 11.4314 55.7044 11.127 55.4783 10.8663C55.0031 10.4121 54.3758 10.1681 53.7298 10.1861H52.5277V15.4007Z" fill="white"/>
<path d="M58.2104 16.1942V9.39262H59.0847V16.1942H58.2104Z" fill="white"/>
<path d="M62.3631 16.3076C61.8553 16.3159 61.358 16.1572 60.9425 15.8542C60.4974 15.53 60.1855 15.0447 60.0682 14.4938L60.8332 14.1538C60.9492 14.4938 61.1357 14.8034 61.3796 15.0606C61.6633 15.2814 62.0085 15.4007 62.3631 15.4007C62.7178 15.4007 63.0629 15.2814 63.3467 15.0606C63.4681 14.9665 63.5695 14.8475 63.6447 14.711C63.7199 14.5745 63.7673 14.4234 63.7838 14.2671C63.7925 14.0897 63.7568 13.9129 63.6802 13.754C63.6036 13.5951 63.4887 13.4595 63.3467 13.3602C63.0031 13.0615 62.5875 12.8655 62.1446 12.7934C61.6865 12.6131 61.2471 12.3852 60.8332 12.1133C60.6855 11.9684 60.57 11.792 60.4945 11.5963C60.419 11.4006 60.3854 11.1902 60.396 10.9797C60.4148 10.5061 60.6108 10.0587 60.9425 9.7327C61.3298 9.36404 61.8375 9.16148 62.3631 9.1659C62.6 9.14466 62.8385 9.17393 63.064 9.25191C63.2896 9.32989 63.4973 9.45494 63.6745 9.61934C63.9603 9.86246 64.1852 10.1736 64.3302 10.5262L63.5652 10.8663C63.4834 10.6328 63.3298 10.4336 63.1281 10.2995C63.0039 10.204 62.8627 10.1348 62.7127 10.0959C62.5627 10.057 62.4068 10.0492 62.2539 10.0728C61.9518 10.0944 61.6559 10.1711 61.3796 10.2995C61.2426 10.5403 61.1674 10.8135 61.161 11.093C61.1692 11.2233 61.2024 11.3507 61.2587 11.4675C61.315 11.5843 61.3933 11.6882 61.4889 11.7732C61.7722 12.0121 62.1116 12.1686 62.4724 12.2266C62.7356 12.3191 62.9913 12.4328 63.2374 12.5667C63.4796 12.6773 63.7015 12.8308 63.8931 13.0202C64.1547 13.1631 64.3511 13.4076 64.4395 13.7003C64.583 13.9794 64.6581 14.2909 64.6581 14.6072C64.6581 14.9235 64.583 15.235 64.4395 15.5141C64.3161 15.7554 64.1258 15.9529 63.8931 16.0809L63.2374 16.421C62.9552 16.3276 62.6588 16.2892 62.3631 16.3076Z" fill="white"/>
<path d="M66.6252 16.1942H65.7509V9.39262H67.9365C68.4584 9.40895 68.9593 9.60882 69.3572 9.95942C69.5686 10.1361 69.7377 10.361 69.8514 10.6166C69.9652 10.8722 70.0204 11.1517 70.0129 11.4331C70.0093 11.7127 69.949 11.9884 69.8361 12.2422C69.7231 12.4961 69.56 12.7225 69.3572 12.9068C68.9593 13.2574 68.4584 13.4573 67.9365 13.4736H66.6252V16.1942ZM66.6252 12.5667H68.0458C68.3688 12.5757 68.6824 12.4537 68.9201 12.2266C69.1186 12.0122 69.2352 11.7301 69.2479 11.4331C69.2352 11.1361 69.1186 10.854 68.9201 10.6396C68.6824 10.4125 68.3688 10.2905 68.0458 10.2995H66.6252V12.5667Z" fill="white"/>
<path d="M76.4606 15.2874C75.9867 15.7825 75.3815 16.1201 74.7221 16.2572C74.0626 16.3943 73.3787 16.3247 72.7575 16.0572C72.1363 15.7898 71.606 15.3365 71.2339 14.7553C70.8619 14.1741 70.6651 13.4911 70.6686 12.7934C70.6686 11.8614 71.0255 10.9676 71.6609 10.3085C72.2962 9.6495 73.1579 9.27926 74.0564 9.27926C74.9549 9.27926 75.8165 9.6495 76.4519 10.3085C77.0872 10.9676 77.4441 11.8614 77.4441 12.7934C77.4566 13.2572 77.3755 13.7186 77.2062 14.1481C77.0368 14.5775 76.7829 14.9656 76.4606 15.2874ZM72.3078 14.7206C72.7714 15.2073 73.3972 15.4912 74.0564 15.5141C74.3868 15.5284 74.716 15.4644 75.019 15.3269C75.322 15.1894 75.5908 14.982 75.8049 14.7206C76.295 14.2081 76.57 13.5154 76.5699 12.7934C76.5949 12.4327 76.5389 12.0709 76.4061 11.7364C76.2734 11.402 76.0676 11.1041 75.8049 10.8663C75.3413 10.3796 74.7156 10.0956 74.0564 10.0728C73.7259 10.0584 73.3967 10.1224 73.0937 10.2599C72.7907 10.3975 72.5219 10.6048 72.3078 10.8663C71.8177 11.3788 71.5427 12.0715 71.5427 12.7934C71.5427 13.5153 71.8177 14.208 72.3078 14.7206Z" fill="white"/>
<path d="M78.6462 16.1942V9.39262H79.6298L82.799 14.7206V9.39262H83.6732V16.1942H82.799L79.4112 10.6396V16.1942H78.6462Z" fill="white"/>
<path d="M85.2032 16.1942V9.39262H86.0775V16.1942H85.2032ZM85.9682 8.82582H85.2032L85.6403 7.57886H86.5146L85.9682 8.82582Z" fill="white"/>
<path d="M89.1374 16.1942L86.8424 9.39262H87.826L89.5745 14.9473L91.5416 9.39262H92.5251L90.1209 16.1942H89.1374Z" fill="white"/>
<path d="M97.2243 10.1861H94.2736V12.34H97.0057V13.1335H94.2736V15.2874H97.2243V16.1942H93.3994V9.39262H97.2243V10.1861Z" fill="white"/>
<path d="M98.5357 16.1942V9.39262H99.4099V15.4007H102.251V16.1942H98.5357Z" fill="white"/>
<path d="M105.53 16.1942V9.39262H106.513L109.682 14.7206V9.39262H110.557V16.1942H109.682L106.295 10.6396V16.1942H105.53Z" fill="white"/>
<path d="M117.442 15.2874C116.968 15.7825 116.363 16.1201 115.703 16.2572C115.044 16.3943 114.36 16.3247 113.738 16.0572C113.117 15.7898 112.587 15.3365 112.215 14.7553C111.843 14.1741 111.646 13.4911 111.65 12.7934C111.65 11.8614 112.006 10.9676 112.642 10.3085C113.277 9.6495 114.139 9.27926 115.037 9.27926C115.936 9.27926 116.798 9.6495 117.433 10.3085C118.068 10.9676 118.425 11.8614 118.425 12.7934C118.35 13.7093 118.007 14.5795 117.442 15.2874ZM113.18 14.7206C113.643 15.2073 114.269 15.4912 114.928 15.5141C115.258 15.5284 115.588 15.4644 115.891 15.3269C116.194 15.1894 116.462 14.982 116.677 14.7206C117.167 14.2081 117.442 13.5154 117.442 12.7934C117.467 12.4327 117.411 12.0709 117.278 11.7364C117.145 11.402 116.939 11.1041 116.677 10.8663C116.213 10.3796 115.587 10.0956 114.928 10.0728C114.598 10.0584 114.268 10.1224 113.965 10.2599C113.662 10.3975 113.394 10.6048 113.18 10.8663C112.953 11.127 112.779 11.4314 112.667 11.7621C112.554 12.0928 112.506 12.4433 112.524 12.7934C112.506 13.1436 112.554 13.4941 112.667 13.8247C112.779 14.1554 112.953 14.4598 113.18 14.7206Z" fill="white"/>
<path d="M51.6534 16.1942H51.5534V16.2942H51.6534V16.1942ZM51.6534 9.39262V9.29262H51.5534V9.39262H51.6534ZM53.6205 9.39262V9.49269L53.6243 9.49255L53.6205 9.39262ZM56.0247 10.2995L56.098 10.2311L56.0931 10.2265L56.0247 10.2995ZM56.899 12.7934L56.7989 12.7865L56.799 12.7948L56.899 12.7934ZM56.0247 15.2874L56.0959 15.3582L56.1017 15.3513L56.0247 15.2874ZM53.6205 16.1942L53.628 16.0942H53.6205V16.1942ZM52.5277 15.4007H52.4277V15.5007H52.5277V15.4007ZM53.7298 15.4007L53.7358 15.3007H53.7298V15.4007ZM55.4783 14.7206L55.5498 14.7908L55.5539 14.7861L55.4783 14.7206ZM56.134 12.7934L56.0336 12.7882L56.0342 12.7986L56.134 12.7934ZM55.4783 10.8663L55.5542 10.8005L55.5474 10.794L55.4783 10.8663ZM53.7298 10.1861V10.2862L53.7326 10.2861L53.7298 10.1861ZM52.5277 10.1861V10.0861H52.4277V10.1861H52.5277ZM58.2104 16.1942H58.1104V16.2942H58.2104V16.1942ZM58.2104 9.39262V9.29262H58.1104V9.39262H58.2104ZM59.0847 9.39262H59.1847V9.29262H59.0847V9.39262ZM59.0847 16.1942V16.2942H59.1847V16.1942H59.0847ZM62.3631 16.3076L62.3648 16.4077L62.3693 16.4074L62.3631 16.3076ZM60.9425 15.8542L61.0014 15.7734L61.0013 15.7733L60.9425 15.8542ZM60.0682 14.4938L60.0276 14.4025L59.9535 14.4354L59.9704 14.5147L60.0682 14.4938ZM60.8332 14.1538L60.9278 14.1215L60.8925 14.0179L60.7926 14.0624L60.8332 14.1538ZM61.3796 15.0606L61.307 15.1294L61.3122 15.1349L61.3182 15.1396L61.3796 15.0606ZM62.3631 15.4007V15.3007V15.4007ZM63.3467 15.0606L63.2854 14.9816L63.2853 14.9817L63.3467 15.0606ZM63.7838 14.2671L63.8834 14.2777L63.8837 14.272L63.7838 14.2671ZM63.3467 13.3602L63.2807 13.4361L63.2894 13.4422L63.3467 13.3602ZM62.1446 12.7934L62.1079 12.8865L62.1179 12.8904L62.1285 12.8921L62.1446 12.7934ZM60.8332 12.1133L60.7632 12.1847L60.7701 12.1915L60.7783 12.1968L60.8332 12.1133ZM60.396 10.9797L60.4959 10.9847L60.496 10.9836L60.396 10.9797ZM60.9425 9.7327L60.8735 9.66026L60.8724 9.66139L60.9425 9.7327ZM62.3631 9.1659L62.3623 9.26638L62.3721 9.2655L62.3631 9.1659ZM63.6745 9.61934L63.6064 9.69272L63.6097 9.69551L63.6745 9.61934ZM64.3302 10.5262L64.3708 10.6176L64.4597 10.5781L64.4227 10.4882L64.3302 10.5262ZM63.5652 10.8663L63.4709 10.8994L63.5068 11.0017L63.6059 10.9577L63.5652 10.8663ZM63.1281 10.2995L63.067 10.379L63.0727 10.3828L63.1281 10.2995ZM62.2539 10.0728L62.261 10.1729L62.2691 10.1716L62.2539 10.0728ZM61.3796 10.2995L61.3375 10.2088L61.3085 10.2223L61.2927 10.2501L61.3796 10.2995ZM61.161 11.093L61.0607 11.0907L61.0612 11.0993L61.161 11.093ZM61.4889 11.7732L61.4224 11.848L61.4244 11.8496L61.4889 11.7732ZM62.4724 12.2266L62.5056 12.1323L62.4971 12.1293L62.4883 12.1279L62.4724 12.2266ZM63.2374 12.5667L63.1895 12.6548L63.1958 12.6577L63.2374 12.5667ZM63.8931 13.0202L63.8228 13.0913L63.8328 13.1012L63.8451 13.1079L63.8931 13.0202ZM64.4395 13.7003L64.3438 13.7292L64.3464 13.7379L64.3506 13.746L64.4395 13.7003ZM64.4395 15.5141L64.3506 15.4684L64.3505 15.4686L64.4395 15.5141ZM63.8931 16.0809L63.9391 16.1697L63.9413 16.1685L63.8931 16.0809ZM63.2374 16.421L63.206 16.5159L63.246 16.5291L63.2834 16.5097L63.2374 16.421ZM66.6252 16.1942V16.2942H66.7252V16.1942H66.6252ZM65.7509 16.1942H65.6509V16.2942H65.7509V16.1942ZM65.7509 9.39262V9.29262H65.6509V9.39262H65.7509ZM67.9365 9.39262L67.9397 9.29262H67.9365V9.39262ZM69.3572 9.95942L69.2911 10.0345L69.2931 10.0362L69.3572 9.95942ZM70.0129 11.4331L69.9129 11.4304L69.9129 11.4318L70.0129 11.4331ZM69.3572 12.9068L69.4233 12.9818L69.4245 12.9808L69.3572 12.9068ZM67.9365 13.4736V13.5736L67.9397 13.5735L67.9365 13.4736ZM66.6252 13.4736V13.3736H66.5252V13.4736H66.6252ZM66.6252 12.5667H66.5252V12.6667H66.6252V12.5667ZM68.0458 12.5667L68.0486 12.4667H68.0458V12.5667ZM68.9201 12.2266L68.9893 12.2991L68.9935 12.2946L68.9201 12.2266ZM69.2479 11.4331L69.3482 11.4374L69.3478 11.4288L69.2479 11.4331ZM68.9201 10.6396L68.9936 10.5715L68.9892 10.5673L68.9201 10.6396ZM68.0458 10.2995V10.3995L68.0486 10.3995L68.0458 10.2995ZM66.6252 10.2995V10.1995H66.5252V10.2995H66.6252ZM76.4606 15.2874L76.3899 15.2166L76.3883 15.2182L76.4606 15.2874ZM70.6686 12.7934L70.7686 12.7939V12.7934H70.6686ZM74.0564 9.27926V9.17926V9.27926ZM77.4441 12.7934H77.3441L77.3442 12.7961L77.4441 12.7934ZM72.3078 14.7206L72.3803 14.6516L72.3801 14.6514L72.3078 14.7206ZM74.0564 15.5141L74.0607 15.4142L74.0598 15.4141L74.0564 15.5141ZM75.8049 14.7206L75.7324 14.6512L75.7275 14.6572L75.8049 14.7206ZM76.5699 12.7934L76.4699 12.7865L76.4699 12.7935L76.5699 12.7934ZM75.8049 10.8663L75.7323 10.9355L75.7378 10.9404L75.8049 10.8663ZM74.0564 10.0728L74.052 10.1727L74.0529 10.1727L74.0564 10.0728ZM72.3078 10.8663L72.3803 10.9356L72.3852 10.9297L72.3078 10.8663ZM78.6462 16.1942H78.5462V16.2942H78.6462V16.1942ZM78.6462 9.39262V9.29262H78.5462V9.39262H78.6462ZM79.6298 9.39262L79.7157 9.3415L79.6867 9.29262H79.6298V9.39262ZM82.799 14.7206L82.713 14.7717L82.899 15.0843V14.7206H82.799ZM82.799 9.39262V9.29262H82.699V9.39262H82.799ZM83.6732 9.39262H83.7732V9.29262H83.6732V9.39262ZM83.6732 16.1942V16.2942H83.7732V16.1942H83.6732ZM82.799 16.1942L82.7136 16.2463L82.7428 16.2942H82.799V16.1942ZM79.4112 10.6396L79.4966 10.5875L79.3112 10.2836V10.6396H79.4112ZM79.4112 16.1942V16.2942H79.5112V16.1942H79.4112ZM85.2032 16.1942H85.1032V16.2942H85.2032V16.1942ZM85.2032 9.39262V9.29262H85.1032V9.39262H85.2032ZM86.0775 9.39262H86.1775V9.29262H86.0775V9.39262ZM86.0775 16.1942V16.2942H86.1775V16.1942H86.0775ZM85.9682 8.82582V8.92582H86.0335L86.0598 8.86596L85.9682 8.82582ZM85.2032 8.82582L85.1088 8.79274L85.0622 8.92582H85.2032V8.82582ZM85.6403 7.57886V7.47886H85.5694L85.546 7.54578L85.6403 7.57886ZM86.5146 7.57886L86.6062 7.61899L86.6676 7.47886H86.5146V7.57886ZM89.1374 16.1942L89.0426 16.2262L89.0656 16.2942H89.1374V16.1942ZM86.8424 9.39262V9.29262H86.7031L86.7477 9.42459L86.8424 9.39262ZM87.826 9.39262L87.9214 9.3626L87.8993 9.29262H87.826V9.39262ZM89.5745 14.9473L89.4791 14.9773L89.5689 15.2626L89.6688 14.9807L89.5745 14.9473ZM91.5416 9.39262V9.29262H91.4709L91.4473 9.35924L91.5416 9.39262ZM92.5251 9.39262L92.6194 9.42595L92.6665 9.29262H92.5251V9.39262ZM90.1209 16.1942V16.2942H90.1916L90.2152 16.2276L90.1209 16.1942ZM97.2243 10.1861V10.2861H97.3243V10.1861H97.2243ZM94.2736 10.1861V10.0861H94.1736V10.1861H94.2736ZM94.2736 12.34H94.1736V12.44H94.2736V12.34ZM97.0057 12.34H97.1057V12.24H97.0057V12.34ZM97.0057 13.1335V13.2335H97.1057V13.1335H97.0057ZM94.2736 13.1335V13.0335H94.1736V13.1335H94.2736ZM94.2736 15.2874H94.1736V15.3874H94.2736V15.2874ZM97.2243 15.2874H97.3243V15.1874H97.2243V15.2874ZM97.2243 16.1942V16.2942H97.3243V16.1942H97.2243ZM93.3994 16.1942H93.2994V16.2942H93.3994V16.1942ZM93.3994 9.39262V9.29262H93.2994V9.39262H93.3994ZM97.2243 9.39262H97.3243V9.29262H97.2243V9.39262ZM98.5357 16.1942H98.4357V16.2942H98.5357V16.1942ZM98.5357 9.39262V9.29262H98.4357V9.39262H98.5357ZM99.4099 9.39262H99.5099V9.29262H99.4099V9.39262ZM99.4099 15.4007H99.3099V15.5007H99.4099V15.4007ZM102.251 15.4007H102.351V15.3007H102.251V15.4007ZM102.251 16.1942V16.2942H102.351V16.1942H102.251ZM105.53 16.1942H105.43V16.2942H105.53V16.1942ZM105.53 9.39262V9.29262H105.43V9.39262H105.53ZM106.513 9.39262L106.599 9.3415L106.57 9.29262H106.513V9.39262ZM109.682 14.7206L109.597 14.7717L109.782 15.0843V14.7206H109.682ZM109.682 9.39262V9.29262H109.582V9.39262H109.682ZM110.557 9.39262H110.657V9.29262H110.557V9.39262ZM110.557 16.1942V16.2942H110.657V16.1942H110.557ZM109.682 16.1942L109.597 16.2463L109.626 16.2942H109.682V16.1942ZM106.295 10.6396L106.38 10.5875L106.195 10.2836V10.6396H106.295ZM106.295 16.1942V16.2942H106.395V16.1942H106.295ZM117.442 15.2874L117.514 15.3568L117.52 15.3498L117.442 15.2874ZM111.65 12.7934L111.75 12.7939V12.7934H111.65ZM115.037 9.27926V9.17926V9.27926ZM118.425 12.7934L118.525 12.8016V12.7934H118.425ZM113.18 14.7206L113.104 14.7861L113.107 14.7895L113.18 14.7206ZM114.928 15.5141L114.932 15.4142L114.932 15.4141L114.928 15.5141ZM116.677 14.7206L116.604 14.6512L116.599 14.6572L116.677 14.7206ZM117.442 12.7934L117.342 12.7865V12.7935L117.442 12.7934ZM116.677 10.8663L116.604 10.9355L116.609 10.9404L116.677 10.8663ZM114.928 10.0728L114.924 10.1727L114.925 10.1727L114.928 10.0728ZM113.18 10.8663L113.255 10.9319L113.257 10.9297L113.18 10.8663ZM112.524 12.7934L112.624 12.7987L112.624 12.7882L112.524 12.7934ZM51.7534 16.1942V9.39262H51.5534V16.1942H51.7534ZM51.6534 9.49262H53.6205V9.29262H51.6534V9.49262ZM53.6243 9.49255C54.4818 9.45989 55.3184 9.77515 55.9564 10.3725L56.0931 10.2265C55.4168 9.59335 54.5285 9.25797 53.6167 9.29269L53.6243 9.49255ZM55.9517 10.3678C56.2489 10.6859 56.4781 11.0658 56.6243 11.4827L56.813 11.4165C56.6578 10.9739 56.4142 10.5699 56.0978 10.2312L55.9517 10.3678ZM56.6243 11.4827C56.7704 11.8996 56.8301 12.3439 56.7992 12.7865L56.9988 12.8004C57.0315 12.3307 56.9682 11.8592 56.813 11.4165L56.6243 11.4827ZM56.799 12.7948C56.8109 13.6856 56.5078 14.5495 55.9478 15.2235L56.1017 15.3513C56.6926 14.6401 57.0115 13.7297 56.999 12.7921L56.799 12.7948ZM55.9539 15.2168C55.6472 15.5251 55.2815 15.7624 54.8807 15.9136L54.9513 16.1007C55.3792 15.9393 55.7691 15.6861 56.0956 15.3579L55.9539 15.2168ZM54.8807 15.9136C54.48 16.0647 54.0531 16.1264 53.628 16.0945L53.6131 16.294C54.0674 16.328 54.5234 16.2621 54.9513 16.1007L54.8807 15.9136ZM53.6205 16.0942H51.6534V16.2942H53.6205V16.0942ZM52.5277 15.5007H53.7298V15.3007H52.5277V15.5007ZM53.7238 15.5005C54.0593 15.5207 54.3951 15.4679 54.7096 15.3456L54.6371 15.1592C54.3494 15.2711 54.0424 15.3193 53.7358 15.3009L53.7238 15.5005ZM54.7096 15.3456C55.0241 15.2232 55.3102 15.0341 55.5496 14.7907L55.407 14.6504C55.1872 14.874 54.9249 15.0472 54.6371 15.1592L54.7096 15.3456ZM55.5539 14.7861C55.7885 14.5155 55.9693 14.1997 56.0859 13.857L55.8966 13.7925C55.7882 14.1111 55.6203 14.4042 55.4028 14.655L55.5539 14.7861ZM56.0859 13.857C56.2025 13.5142 56.2528 13.151 56.2339 12.7882L56.0342 12.7986C56.0518 13.1362 56.005 13.4739 55.8966 13.7925L56.0859 13.857ZM56.2339 12.7986C56.2528 12.4358 56.2025 12.0727 56.0859 11.7299L55.8966 11.7943C56.005 12.1129 56.0518 12.4507 56.0342 12.7882L56.2339 12.7986ZM56.0859 11.7299C55.9693 11.3871 55.7885 11.0714 55.5539 10.8008L55.4028 10.9318C55.6203 11.1826 55.7882 11.4757 55.8966 11.7943L56.0859 11.7299ZM55.5474 10.794C55.0532 10.3217 54.4002 10.0674 53.727 10.0862L53.7326 10.2861C54.3514 10.2688 54.9529 10.5025 55.4092 10.9386L55.5474 10.794ZM53.7298 10.0861H52.5277V10.2861H53.7298V10.0861ZM52.4277 10.1861V15.4007H52.6277V10.1861H52.4277ZM58.3104 16.1942V9.39262H58.1104V16.1942H58.3104ZM58.2104 9.49262H59.0847V9.29262H58.2104V9.49262ZM58.9847 9.39262V16.1942H59.1847V9.39262H58.9847ZM59.0847 16.0942H58.2104V16.2942H59.0847V16.0942ZM62.3615 16.2076C61.8757 16.2156 61.3996 16.0637 61.0014 15.7734L60.8835 15.935C61.3164 16.2506 61.8349 16.4163 62.3648 16.4076L62.3615 16.2076ZM61.0013 15.7733C60.5767 15.464 60.2783 15.0003 60.166 14.473L59.9704 14.5147C60.0927 15.089 60.4181 15.5959 60.8836 15.935L61.0013 15.7733ZM60.1088 14.5852L60.8738 14.2451L60.7926 14.0624L60.0276 14.4025L60.1088 14.5852ZM60.7385 14.186C60.8592 14.5396 61.0531 14.8616 61.307 15.1294L61.4522 14.9918C61.2184 14.7452 61.0393 14.4481 60.9278 14.1215L60.7385 14.186ZM61.3182 15.1396C61.6192 15.3738 61.9859 15.5007 62.3631 15.5007V15.3007C62.031 15.3007 61.7074 15.189 61.441 14.9817L61.3182 15.1396ZM62.3631 15.5007C62.7404 15.5007 63.107 15.3738 63.4081 15.1396L63.2853 14.9817C63.0188 15.189 62.6952 15.3007 62.3631 15.3007V15.5007ZM63.408 15.1397C63.5403 15.037 63.6506 14.9075 63.7323 14.7592L63.5571 14.6627C63.4884 14.7875 63.3959 14.896 63.2854 14.9816L63.408 15.1397ZM63.7323 14.7592C63.814 14.611 63.8653 14.4471 63.8833 14.2777L63.6844 14.2566C63.6692 14.3997 63.6258 14.538 63.5571 14.6627L63.7323 14.7592ZM63.8837 14.272C63.8932 14.078 63.8542 13.8847 63.7703 13.7106L63.5901 13.7975C63.6594 13.9412 63.6918 14.1013 63.6839 14.2622L63.8837 14.272ZM63.7703 13.7106C63.6864 13.5366 63.5603 13.3875 63.404 13.2783L63.2894 13.4422C63.4171 13.5314 63.5208 13.6537 63.5901 13.7975L63.7703 13.7106ZM63.4123 13.2848C63.0549 12.974 62.6222 12.7699 62.1606 12.6947L62.1285 12.8921C62.5528 12.9612 62.9513 13.149 63.2811 13.4357L63.4123 13.2848ZM62.1812 12.7004C61.7295 12.5226 61.2963 12.2979 60.8881 12.0297L60.7783 12.1968C61.1979 12.4725 61.6434 12.7036 62.1079 12.8865L62.1812 12.7004ZM60.9032 12.0419C60.7659 11.9072 60.6582 11.7429 60.5878 11.5603L60.4012 11.6323C60.4817 11.8412 60.6052 12.0297 60.7632 12.1847L60.9032 12.0419ZM60.5878 11.5603C60.5174 11.3777 60.486 11.1813 60.4959 10.9847L60.2962 10.9746C60.2849 11.1991 60.3206 11.4234 60.4012 11.6323L60.5878 11.5603ZM60.496 10.9836C60.5137 10.5349 60.6994 10.1118 61.0126 9.80402L60.8724 9.66139C60.5221 10.0056 60.3158 10.4772 60.2961 10.9757L60.496 10.9836ZM61.0114 9.80514C61.3803 9.45402 61.8631 9.2617 62.3623 9.2659L62.364 9.06591C61.8119 9.06126 61.2793 9.27405 60.8735 9.66027L61.0114 9.80514ZM62.3721 9.2655C62.5948 9.24553 62.8191 9.27304 63.0314 9.34642L63.0967 9.1574C62.8579 9.07482 62.6052 9.04379 62.3542 9.0663L62.3721 9.2655ZM63.0314 9.34642C63.2436 9.41981 63.4394 9.53756 63.6065 9.69265L63.7425 9.54604C63.5553 9.37231 63.3356 9.23998 63.0967 9.1574L63.0314 9.34642ZM63.6097 9.69551C63.8832 9.92813 64.0987 10.2261 64.2377 10.5642L64.4227 10.4882C64.2718 10.1211 64.0374 9.79679 63.7393 9.54318L63.6097 9.69551ZM64.2896 10.4348L63.5246 10.7749L63.6059 10.9577L64.3708 10.6176L64.2896 10.4348ZM63.6596 10.8332C63.5707 10.5797 63.4037 10.3627 63.1835 10.2162L63.0727 10.3828C63.2559 10.5046 63.396 10.6859 63.4709 10.8994L63.6596 10.8332ZM63.1891 10.2202C63.0543 10.1166 62.901 10.0414 62.7378 9.99911L62.6876 10.1927C62.8245 10.2282 62.9535 10.2914 63.0672 10.3788L63.1891 10.2202ZM62.7378 9.99911C62.5747 9.9568 62.405 9.94824 62.2386 9.97396L62.2691 10.1716C62.4086 10.1501 62.5508 10.1572 62.6876 10.1927L62.7378 9.99911ZM62.2467 9.97304C61.9325 9.99551 61.6247 10.0754 61.3375 10.2088L61.4217 10.3902C61.6871 10.2669 61.9712 10.1933 62.261 10.1725L62.2467 9.97304ZM61.2927 10.2501C61.1475 10.5054 61.0678 10.7948 61.0611 11.0907L61.261 11.0953C61.267 10.8322 61.3378 10.5752 61.4665 10.3489L61.2927 10.2501ZM61.0612 11.0993C61.0702 11.2424 61.1067 11.3823 61.1686 11.5109L61.3488 11.424C61.2981 11.319 61.2682 11.2043 61.2608 11.0868L61.0612 11.0993ZM61.1686 11.5109C61.2306 11.6394 61.3168 11.7541 61.4224 11.8479L61.5553 11.6984C61.4697 11.6224 61.3994 11.5291 61.3488 11.424L61.1686 11.5109ZM61.4244 11.8496C61.7214 12.1001 62.0775 12.2644 62.4565 12.3254L62.4883 12.1279C62.1457 12.0728 61.823 11.9242 61.5533 11.6967L61.4244 11.8496ZM62.4393 12.321C62.6973 12.4117 62.9482 12.5232 63.1896 12.6546L63.2852 12.4789C63.0345 12.3424 62.7738 12.2266 62.5056 12.1323L62.4393 12.321ZM63.1958 12.6577C63.4273 12.7634 63.6394 12.91 63.8228 13.0913L63.9634 12.949C63.7635 12.7515 63.532 12.5913 63.2789 12.4758L63.1958 12.6577ZM63.8451 13.1079C64.0831 13.2379 64.2628 13.4609 64.3438 13.7292L64.5352 13.6714C64.4395 13.3543 64.2263 13.0883 63.941 12.9324L63.8451 13.1079ZM64.3506 13.746C64.4867 14.0109 64.5581 14.3067 64.5581 14.6072H64.7581C64.7581 14.2751 64.6793 13.948 64.5284 13.6546L64.3506 13.746ZM64.5581 14.6072C64.5581 14.9077 64.4867 15.2035 64.3506 15.4684L64.5284 15.5598C64.6793 15.2664 64.7581 14.9393 64.7581 14.6072H64.5581ZM64.3505 15.4686C64.236 15.6925 64.0597 15.8751 63.8449 15.9933L63.9413 16.1685C64.1919 16.0307 64.3962 15.8184 64.5285 15.5596L64.3505 15.4686ZM63.847 15.9921L63.1914 16.3322L63.2834 16.5097L63.9391 16.1697L63.847 15.9921ZM63.2688 16.326C62.9745 16.2287 62.6654 16.1886 62.3569 16.2078L62.3693 16.4074C62.6522 16.3898 62.9359 16.4266 63.206 16.5159L63.2688 16.326ZM66.6252 16.0942H65.7509V16.2942H66.6252V16.0942ZM65.8509 16.1942V9.39262H65.6509V16.1942H65.8509ZM65.7509 9.49262H67.9365V9.29262H65.7509V9.49262ZM67.9334 9.49257C68.4316 9.50816 68.9104 9.69896 69.2911 10.0345L69.4233 9.8844C69.0083 9.51867 68.4851 9.30973 67.9397 9.29267L67.9334 9.49257ZM69.2931 10.0362C69.4925 10.2028 69.6525 10.4153 69.7601 10.6573L69.9428 10.576C69.823 10.3066 69.6446 10.0693 69.4213 9.88269L69.2931 10.0362ZM69.7601 10.6573C69.8677 10.8992 69.9201 11.1638 69.9129 11.4304L70.1129 11.4358C70.1208 11.1395 70.0627 10.8453 69.9428 10.576L69.7601 10.6573ZM69.9129 11.4318C69.9095 11.6979 69.8521 11.9602 69.7447 12.2016L69.9274 12.2829C70.0459 12.0165 70.1091 11.7275 70.1129 11.4344L69.9129 11.4318ZM69.7447 12.2016C69.6373 12.443 69.4823 12.658 69.29 12.8328L69.4245 12.9808C69.6376 12.7871 69.8089 12.5492 69.9274 12.2829L69.7447 12.2016ZM69.2911 12.8318C68.9104 13.1673 68.4316 13.3581 67.9334 13.3736L67.9397 13.5735C68.4851 13.5565 69.0083 13.3475 69.4233 12.9818L69.2911 12.8318ZM67.9365 13.3736H66.6252V13.5736H67.9365V13.3736ZM66.5252 13.4736V16.1942H66.7252V13.4736H66.5252ZM66.6252 12.6667H68.0458V12.4667H66.6252V12.6667ZM68.043 12.6667C68.3932 12.6764 68.7326 12.5441 68.9892 12.2989L68.851 12.1543C68.6323 12.3633 68.3444 12.475 68.0486 12.4668L68.043 12.6667ZM68.9935 12.2946C69.2084 12.0624 69.3341 11.7577 69.3478 11.4374L69.148 11.4288C69.1363 11.7026 69.0288 11.962 68.8467 12.1587L68.9935 12.2946ZM69.3478 11.4288C69.3341 11.1085 69.2084 10.8038 68.9935 10.5716L68.8467 10.7075C69.0288 10.9042 69.1363 11.1636 69.148 11.4374L69.3478 11.4288ZM68.9892 10.5673C68.7326 10.3221 68.3932 10.1898 68.043 10.1995L68.0486 10.3995C68.3444 10.3913 68.6323 10.5029 68.851 10.7119L68.9892 10.5673ZM68.0458 10.1995H66.6252V10.3995H68.0458V10.1995ZM66.5252 10.2995V12.5667H66.7252V10.2995H66.5252ZM76.3883 15.2182C75.9282 15.699 75.341 16.0264 74.7017 16.1593L74.7424 16.3551C75.4221 16.2138 76.0453 15.866 76.5328 15.3565L76.3883 15.2182ZM74.7017 16.1593C74.0625 16.2922 73.3995 16.2248 72.7971 15.9654L72.718 16.1491C73.358 16.4246 74.0628 16.4964 74.7424 16.3551L74.7017 16.1593ZM72.7971 15.9654C72.1946 15.706 71.6796 15.2662 71.3182 14.7014L71.1497 14.8092C71.5323 15.4069 72.0781 15.8735 72.718 16.1491L72.7971 15.9654ZM71.3182 14.7014C70.9567 14.1366 70.7652 13.4725 70.7686 12.7939L70.5686 12.7929C70.565 13.5097 70.7672 14.2115 71.1497 14.8092L71.3182 14.7014ZM70.7686 12.7934C70.7686 11.8868 71.1159 11.018 71.7329 10.3779L71.5889 10.2391C70.9352 10.9172 70.5686 11.8361 70.5686 12.7934H70.7686ZM71.7329 10.3779C72.3497 9.73804 73.1856 9.37926 74.0564 9.37926V9.17926C73.1301 9.17926 72.2426 9.56096 71.5889 10.2391L71.7329 10.3779ZM74.0564 9.37926C74.9271 9.37926 75.763 9.73804 76.3799 10.3779L76.5239 10.2391C75.8701 9.56096 74.9826 9.17926 74.0564 9.17926V9.37926ZM76.3799 10.3779C76.9969 11.018 77.3441 11.8868 77.3441 12.7934H77.5441C77.5441 11.8361 77.1775 10.9172 76.5239 10.2391L76.3799 10.3779ZM77.3442 12.7961C77.3563 13.2465 77.2775 13.6945 77.1131 14.1114L77.2992 14.1848C77.4735 13.7427 77.5569 13.268 77.5441 12.7907L77.3442 12.7961ZM77.1131 14.1114C76.9487 14.5283 76.7023 14.9047 76.3899 15.2166L76.5312 15.3581C76.8634 15.0265 77.1249 14.6268 77.2992 14.1848L77.1131 14.1114ZM72.2354 14.7895C72.7167 15.2948 73.367 15.5902 74.0529 15.614L74.0598 15.4141C73.4273 15.3922 72.8262 15.1198 72.3803 14.6516L72.2354 14.7895ZM74.052 15.614C74.3983 15.629 74.7431 15.5619 75.0604 15.418L74.9777 15.2359C74.6889 15.3669 74.3753 15.4278 74.0607 15.4142L74.052 15.614ZM75.0604 15.418C75.3776 15.274 75.6586 15.0571 75.8823 14.7839L75.7275 14.6572C75.523 14.907 75.2665 15.1048 74.9777 15.2359L75.0604 15.418ZM75.8772 14.7897C76.3855 14.2582 76.67 13.5406 76.6699 12.7934L76.4699 12.7935C76.47 13.4901 76.2046 14.1579 75.7326 14.6514L75.8772 14.7897ZM76.6696 12.8004C76.6957 12.4248 76.6374 12.048 76.4991 11.6995L76.3132 11.7733C76.4404 12.0938 76.4941 12.4406 76.4701 12.7865L76.6696 12.8004ZM76.4991 11.6995C76.3608 11.3511 76.1462 11.0404 75.872 10.7922L75.7378 10.9404C75.9889 11.1678 76.186 11.4529 76.3132 11.7733L76.4991 11.6995ZM75.8773 10.7973C75.3961 10.2921 74.7457 9.99661 74.0598 9.97284L74.0529 10.1727C74.6854 10.1946 75.2866 10.4671 75.7325 10.9353L75.8773 10.7973ZM74.0607 9.97288C73.7145 9.95784 73.3696 10.0249 73.0524 10.1689L73.135 10.351C73.4238 10.22 73.7374 10.159 74.052 10.1727L74.0607 9.97288ZM73.0524 10.1689C72.7352 10.3128 72.4541 10.5298 72.2305 10.803L72.3852 10.9297C72.5897 10.6799 72.8462 10.4821 73.135 10.351L73.0524 10.1689ZM72.2356 10.7972C71.7273 11.3287 71.4427 12.0463 71.4427 12.7934H71.6427C71.6427 12.0967 71.9082 11.429 72.3801 10.9354L72.2356 10.7972ZM71.4427 12.7934C71.4427 13.5406 71.7273 14.2581 72.2356 14.7897L72.3801 14.6514C71.9082 14.1579 71.6427 13.4901 71.6427 12.7934H71.4427ZM78.7462 16.1942V9.39262H78.5462V16.1942H78.7462ZM78.6462 9.49262H79.6298V9.29262H78.6462V9.49262ZM79.5438 9.44374L82.713 14.7717L82.8849 14.6694L79.7157 9.3415L79.5438 9.44374ZM82.899 14.7206V9.39262H82.699V14.7206H82.899ZM82.799 9.49262H83.6732V9.29262H82.799V9.49262ZM83.5732 9.39262V16.1942H83.7732V9.39262H83.5732ZM83.6732 16.0942H82.799V16.2942H83.6732V16.0942ZM82.8844 16.1422L79.4966 10.5875L79.3258 10.6917L82.7136 16.2463L82.8844 16.1422ZM79.3112 10.6396V16.1942H79.5112V10.6396H79.3112ZM79.4112 16.0942H78.6462V16.2942H79.4112V16.0942ZM85.3032 16.1942V9.39262H85.1032V16.1942H85.3032ZM85.2032 9.49262H86.0775V9.29262H85.2032V9.49262ZM85.9775 9.39262V16.1942H86.1775V9.39262H85.9775ZM86.0775 16.0942H85.2032V16.2942H86.0775V16.0942ZM85.9682 8.72582H85.2032V8.92582H85.9682V8.72582ZM85.2976 8.8589L85.7347 7.61194L85.546 7.54578L85.1088 8.79274L85.2976 8.8589ZM85.6403 7.67886H86.5146V7.47886H85.6403V7.67886ZM86.423 7.53872L85.8766 8.78569L86.0598 8.86596L86.6062 7.61899L86.423 7.53872ZM89.2321 16.1623L86.9372 9.36065L86.7477 9.42459L89.0426 16.2262L89.2321 16.1623ZM86.8424 9.49262H87.826V9.29262H86.8424V9.49262ZM87.7306 9.42265L89.4791 14.9773L89.6699 14.9173L87.9214 9.3626L87.7306 9.42265ZM89.6688 14.9807L91.6358 9.426L91.4473 9.35924L89.4802 14.9139L89.6688 14.9807ZM91.5416 9.49262H92.5251V9.29262H91.5416V9.49262ZM92.4308 9.3593L90.0266 16.1609L90.2152 16.2276L92.6194 9.42595L92.4308 9.3593ZM90.1209 16.0942H89.1374V16.2942H90.1209V16.0942ZM97.2243 10.0861H94.2736V10.2861H97.2243V10.0861ZM94.1736 10.1861V12.34H94.3736V10.1861H94.1736ZM94.2736 12.44H97.0057V12.24H94.2736V12.44ZM96.9057 12.34V13.1335H97.1057V12.34H96.9057ZM97.0057 13.0335H94.2736V13.2335H97.0057V13.0335ZM94.1736 13.1335V15.2874H94.3736V13.1335H94.1736ZM94.2736 15.3874H97.2243V15.1874H94.2736V15.3874ZM97.1243 15.2874V16.1942H97.3243V15.2874H97.1243ZM97.2243 16.0942H93.3994V16.2942H97.2243V16.0942ZM93.4994 16.1942V9.39262H93.2994V16.1942H93.4994ZM93.3994 9.49262H97.2243V9.29262H93.3994V9.49262ZM97.1243 9.39262V10.1861H97.3243V9.39262H97.1243ZM98.6357 16.1942V9.39262H98.4357V16.1942H98.6357ZM98.5357 9.49262H99.4099V9.29262H98.5357V9.49262ZM99.3099 9.39262V15.4007H99.5099V9.39262H99.3099ZM99.4099 15.5007H102.251V15.3007H99.4099V15.5007ZM102.151 15.4007V16.1942H102.351V15.4007H102.151ZM102.251 16.0942H98.5357V16.2942H102.251V16.0942ZM105.63 16.1942V9.39262H105.43V16.1942H105.63ZM105.53 9.49262H106.513V9.29262H105.53V9.49262ZM106.427 9.44374L109.597 14.7717L109.768 14.6694L106.599 9.3415L106.427 9.44374ZM109.782 14.7206V9.39262H109.582V14.7206H109.782ZM109.682 9.49262H110.557V9.29262H109.682V9.49262ZM110.457 9.39262V16.1942H110.657V9.39262H110.457ZM110.557 16.0942H109.682V16.2942H110.557V16.0942ZM109.768 16.1422L106.38 10.5875L106.209 10.6917L109.597 16.2463L109.768 16.1422ZM106.195 10.6396V16.1942H106.395V10.6396H106.195ZM106.295 16.0942H105.53V16.2942H106.295V16.0942ZM117.369 15.2182C116.909 15.699 116.322 16.0264 115.683 16.1593L115.723 16.3551C116.403 16.2138 117.026 15.866 117.514 15.3565L117.369 15.2182ZM115.683 16.1593C115.043 16.2922 114.38 16.2248 113.778 15.9654L113.699 16.1491C114.339 16.4246 115.044 16.4964 115.723 16.3551L115.683 16.1593ZM113.778 15.9654C113.176 15.706 112.661 15.2662 112.299 14.7014L112.131 14.8092C112.513 15.4069 113.059 15.8735 113.699 16.1491L113.778 15.9654ZM112.299 14.7014C111.938 14.1366 111.746 13.4725 111.75 12.7939L111.55 12.7929C111.546 13.5097 111.748 14.2115 112.131 14.8092L112.299 14.7014ZM111.75 12.7934C111.75 11.8868 112.097 11.018 112.714 10.3779L112.57 10.2391C111.916 10.9172 111.55 11.8361 111.55 12.7934H111.75ZM112.714 10.3779C113.331 9.73804 114.167 9.37926 115.037 9.37926V9.17926C114.111 9.17926 113.224 9.56096 112.57 10.2391L112.714 10.3779ZM115.037 9.37926C115.908 9.37926 116.744 9.73804 117.361 10.3779L117.505 10.2391C116.851 9.56096 115.964 9.17926 115.037 9.17926V9.37926ZM117.361 10.3779C117.978 11.018 118.325 11.8868 118.325 12.7934H118.525C118.525 11.8361 118.158 10.9172 117.505 10.2391L117.361 10.3779ZM118.325 12.7853C118.252 13.6816 117.916 14.5328 117.363 15.225L117.52 15.3498C118.097 14.6261 118.448 13.737 118.525 12.8016L118.325 12.7853ZM113.107 14.7895C113.588 15.2948 114.239 15.5902 114.925 15.614L114.932 15.4141C114.299 15.3922 113.698 15.1198 113.252 14.6516L113.107 14.7895ZM114.924 15.614C115.27 15.629 115.615 15.5619 115.932 15.418L115.849 15.2359C115.561 15.3669 115.247 15.4278 114.932 15.4142L114.924 15.614ZM115.932 15.418C116.249 15.274 116.53 15.0571 116.754 14.7839L116.599 14.6572C116.395 14.907 116.138 15.1048 115.849 15.2359L115.932 15.418ZM116.749 14.7897C117.257 14.2582 117.542 13.5406 117.542 12.7934L117.342 12.7935C117.342 13.4901 117.076 14.1579 116.604 14.6514L116.749 14.7897ZM117.541 12.8004C117.567 12.4248 117.509 12.048 117.371 11.6995L117.185 11.7733C117.312 12.0938 117.366 12.4406 117.342 12.7865L117.541 12.8004ZM117.371 11.6995C117.232 11.3511 117.018 11.0404 116.744 10.7922L116.609 10.9404C116.861 11.1678 117.058 11.4529 117.185 11.7733L117.371 11.6995ZM116.749 10.7973C116.268 10.2921 115.617 9.99661 114.932 9.97284L114.925 10.1727C115.557 10.1946 116.158 10.4671 116.604 10.9353L116.749 10.7973ZM114.932 9.97288C114.586 9.95784 114.241 10.0249 113.924 10.1689L114.007 10.351C114.295 10.22 114.609 10.159 114.924 10.1727L114.932 9.97288ZM113.924 10.1689C113.607 10.3128 113.326 10.5298 113.102 10.803L113.257 10.9297C113.461 10.6799 113.718 10.4821 114.007 10.351L113.924 10.1689ZM113.104 10.8008C112.869 11.0714 112.689 11.3871 112.572 11.7299L112.761 11.7943C112.87 11.4757 113.038 11.1826 113.255 10.9318L113.104 10.8008ZM112.572 11.7299C112.455 12.0727 112.405 12.4358 112.424 12.7986L112.624 12.7882C112.606 12.4507 112.653 12.1129 112.761 11.7943L112.572 11.7299ZM112.424 12.7882C112.405 13.151 112.455 13.5142 112.572 13.857L112.761 13.7925C112.653 13.4739 112.606 13.1362 112.624 12.7986L112.424 12.7882ZM112.572 13.857C112.689 14.1997 112.869 14.5155 113.104 14.7861L113.255 14.655C113.038 14.4042 112.87 14.1111 112.761 13.7925L112.572 13.857Z" fill="white"/>
<path d="M37.663 24.2461C37.6678 23.0632 37.9816 21.9024 38.5729 20.8798C39.1642 19.8572 40.0124 19.0087 41.0324 18.4193C40.4034 17.4847 39.5617 16.7143 38.5772 16.1723C37.5927 15.6303 36.4938 15.3321 35.3718 15.3027C32.9458 15.0317 30.5197 16.7933 29.3067 16.7933C28.0937 16.7933 26.2069 15.3027 24.1852 15.5737C22.8548 15.5822 21.5514 15.9518 20.4127 16.6435C19.2739 17.3352 18.3422 18.3233 17.7158 19.5034C14.8855 24.2461 17.0419 31.2924 19.6027 35.2221C20.9505 37.1192 22.5678 39.2873 24.4547 39.1518C26.3416 39.0163 27.1503 37.9322 29.5763 37.9322C31.8675 37.9322 32.6762 39.1518 34.6979 39.1518C36.8543 39.1518 38.2021 37.2547 39.4151 35.3576C40.4283 34.0296 41.162 32.5082 41.5715 30.8859C41.7063 30.6149 37.663 28.8533 37.663 24.2461Z" fill="white"/>
<path d="M33.6198 12.5926C34.7677 11.1858 35.3453 9.39525 35.2371 7.57886C34.3783 7.63564 33.5402 7.86944 32.7751 8.26574C32.0099 8.66204 31.334 9.21235 30.7894 9.88246C30.1825 10.5329 29.7141 11.301 29.4128 12.1398C29.1115 12.9786 28.9838 13.8705 29.0373 14.7607C29.9174 14.7903 30.7918 14.6091 31.5886 14.2322C32.3853 13.8552 33.0815 13.2932 33.6198 12.5926Z" fill="white"/>
</svg>
