<svg width="24" height="24" viewBox="0 0 24 24" fill="none" xmlns="http://www.w3.org/2000/svg">
<circle cx="12" cy="12" r="12" fill="#01EFAD"/>
<path d="M12 6C12.9061 6 13.7751 6.32397 14.4158 6.90065C15.0565 7.47732 15.4164 8.25946 15.4164 9.075C15.4164 9.89054 15.0565 10.6727 14.4158 11.2494C13.7751 11.826 12.9061 12.15 12 12.15C11.0939 12.15 10.2249 11.826 9.58424 11.2494C8.94354 10.6727 8.5836 9.89054 8.5836 9.075C8.5836 8.25946 8.94354 7.47732 9.58424 6.90065C10.2249 6.32397 11.0939 6 12 6Z" fill="#055DF9"/>
<path d="M7.0004 18C6.98363 16.788 7.49971 15.6192 8.43619 14.7482C9.37267 13.8772 10.6536 13.3746 12 13.35C13.3464 13.3746 14.6273 13.8772 15.5638 14.7482C16.5003 15.6192 17.0164 16.788 16.9996 18H7.0004Z" fill="#055DF9"/>
</svg>
