<svg width="116" height="100" viewBox="0 0 116 100" fill="none" xmlns="http://www.w3.org/2000/svg">
<path d="M58.1259 94.9841C49.2258 95.009 40.5182 92.3947 33.1042 87.4716C25.6901 82.5485 19.9027 75.5379 16.4738 67.3262C13.0449 59.1145 12.1284 50.0706 13.8403 41.3381C15.5522 32.6056 19.8156 24.5768 26.0913 18.267C32.367 11.9571 40.3732 7.64965 49.0975 5.88923C57.8217 4.12881 66.8722 4.99453 75.1043 8.37691C83.3365 11.7593 90.3806 17.5064 95.3459 24.8915C100.311 32.2766 102.975 40.968 102.999 49.8666C103.04 58.0589 100.768 66.0964 96.4448 73.0553C95.6759 74.292 94.4472 75.1726 93.0289 75.5035C91.6107 75.8344 90.119 75.5884 88.8821 74.8197C87.6452 74.051 86.7644 72.8225 86.4335 71.4044C86.1025 69.9864 86.3485 68.495 87.1174 67.2583C90.3355 61.9417 91.9944 55.8279 91.9051 49.6141C91.9054 42.8839 89.9097 36.3047 86.1702 30.7086C82.4307 25.1125 77.1154 20.7508 70.8965 18.1751C64.6776 15.5994 57.8344 14.9254 51.2324 16.2383C44.6304 17.5512 38.566 20.7921 33.8062 25.5511C29.0465 30.31 25.805 36.3734 24.4919 42.9743C23.1788 49.5752 23.8529 56.4171 26.429 62.635C29.0052 68.8528 33.3676 74.1672 38.9647 77.9061C44.5617 81.6449 51.142 83.6404 57.8734 83.64C60.9389 83.5917 63.9869 83.1677 66.9491 82.3775C68.3532 81.9764 69.8592 82.1494 71.1357 82.8584C72.4122 83.5675 73.3547 84.7545 73.7559 86.1584C74.1571 87.5622 73.984 89.0679 73.2749 90.3442C72.5657 91.6205 71.3784 92.5629 69.9743 92.964C66.2013 94.4287 62.1712 95.1158 58.1259 94.9841Z" fill="#FC5BB3"/>
<path d="M54 34H44V44H54V34Z" fill="#055DF9"/>
<path d="M80 56H37V66H80V56Z" fill="#055DF9"/>
<path d="M61 34H71V44H61V34Z" fill="#055DF9"/>
</svg>
