<svg width="116" height="100" viewBox="0 0 116 100" fill="none" xmlns="http://www.w3.org/2000/svg">
<path d="M39.0691 89.8467C36.0261 89.7934 33.0907 88.7122 30.7402 86.7792C24.1643 81.0818 16.7128 57.8507 16.0547 40.7604C15.6169 30.0226 17.8124 22.3532 22.4113 17.5322C29.8628 10.0812 39.2875 8.10927 50.0275 11.8347C54.8813 13.5262 59.4046 16.0473 63.3959 19.2857C64.2678 20.0412 64.8038 21.1121 64.886 22.2627C64.9682 23.4134 64.5898 24.5495 63.8342 25.4213C63.46 25.8529 63.0044 26.2066 62.4935 26.4622C61.9826 26.7179 61.4264 26.8704 60.8565 26.9111C59.7057 26.9932 58.5693 26.6149 57.6974 25.8594C57.0384 25.2005 40.3824 11.6154 28.3245 23.8828C25.4748 26.732 24.1605 32.6487 24.3789 40.7566C25.2554 58.2875 33.1465 77.5719 36.4293 80.4201C37.3058 81.079 38.8404 81.7378 39.9362 81.2964C41.032 80.8549 41.4707 79.5428 41.6901 78.4472C44.7677 63.9886 52.4385 61.3597 56.5997 60.9211H57.2587C61.4227 61.3597 69.0944 63.9886 72.1626 78.4519C72.3819 79.5475 72.8216 81.0818 73.9165 81.3011C75.0123 81.7397 76.5469 81.0818 77.4234 80.4248C81.5873 76.9186 91.2314 56.7579 91.2314 40.3274C91.2314 32.8765 89.2544 27.1791 85.5329 23.8922C83.1219 21.9156 80.7109 20.8247 78.0805 20.8247C77.5167 20.8177 76.96 20.6977 76.4434 20.4718C75.9268 20.2458 75.4608 19.9185 75.0731 19.5092C74.6853 19.0999 74.3836 18.617 74.1859 18.0891C73.9882 17.5611 73.8985 16.9988 73.9221 16.4356C73.9284 15.872 74.0476 15.3154 74.2729 14.7987C74.4981 14.282 74.8248 13.8157 75.2335 13.4275C75.6423 13.0393 76.1247 12.7371 76.6524 12.5387C77.1801 12.3403 77.7422 12.2497 78.3055 12.2724C82.9082 12.2724 87.2915 14.2491 91.2371 17.5322C97.1512 22.5726 100 30.4603 100 40.5411C100 51.7166 96.0544 63.1123 93.8628 68.8097C91.2324 75.3834 87.0684 83.7107 83.1228 86.9985C81.5223 88.3816 79.5928 89.3297 77.5199 89.7519C75.4469 90.1741 73.3002 90.056 71.2861 89.4091C69.0944 88.7502 65.1489 86.5599 63.8337 80.2055C63.1747 77.1379 61.2033 70.1256 56.82 69.4677C52.4366 70.1265 50.4634 77.137 50.0256 80.2055C48.7076 86.5608 44.7648 88.7521 42.5732 89.4091C41.4412 89.7698 40.2523 89.9185 39.0663 89.8477" fill="#FC5BB3"/>
<path d="M39.968 42H32C32.031 37.5009 33.832 33.1949 37.0135 30.0135C40.1949 26.832 44.5009 25.031 49 25V32.968C47.8111 32.958 46.6321 33.1847 45.5318 33.6351C44.4314 34.0854 43.4317 34.7503 42.591 35.591C41.7503 36.4317 41.0854 37.4314 40.6351 38.5318C40.1847 39.6321 39.958 40.8111 39.968 42" fill="#055DF9"/>
</svg>
