<svg width="154" height="41" viewBox="0 0 154 41" fill="none" xmlns="http://www.w3.org/2000/svg">
<rect width="154" height="41" fill="black" fill-opacity="0" transform="translate(0 -0.000976562)"/>
<rect y="-0.000976562" width="154" height="41" rx="4" fill="white"/>
<path fill-rule="evenodd" clip-rule="evenodd" d="M30 24.6183C29.4535 25.8768 29.2012 26.441 28.4866 27.5259C27.5197 29.0882 26.1324 30.9977 24.4087 30.9977C22.8953 30.9977 22.4749 29.9562 20.415 29.9996C18.355 29.9996 17.9346 31.0411 16.3792 30.9977C14.6555 30.9977 13.3523 29.2618 12.3854 27.6995C9.65284 23.4032 9.35856 18.3257 11.0401 15.635C12.2593 13.7256 14.1511 12.5972 15.9167 12.5972C17.7244 12.5972 18.8595 13.6388 20.3729 13.6388C21.8443 13.6388 22.7271 12.5972 24.8291 12.5972C26.4266 12.5972 28.1082 13.5086 29.2853 15.0275C25.3756 17.2841 26.0062 23.056 30 24.6183Z" fill="#544AF9"/>
<path fill-rule="evenodd" clip-rule="evenodd" d="M23.2316 10.9048C23.9883 9.90664 24.5769 8.47453 24.3667 6.99902C23.1055 7.08582 21.6762 7.91037 20.7933 8.9953C20.0366 9.95004 19.364 11.3822 19.6162 12.8143C21.0035 12.8143 22.4329 11.9897 23.2316 10.9048Z" fill="#544AF9"/>
<path d="M44.4525 14.2056L40 27.2603H42.0295L43.3549 23.253H47.6624L49.0292 27.2603H51.1209L46.6477 14.2056H44.4525ZM45.4879 16.3538C45.6329 16.9322 45.7986 17.5312 46.0057 18.1922L47.2068 21.6418H43.8105L44.9909 18.1509C45.1566 17.6139 45.343 16.9942 45.4879 16.3538Z" fill="#544AF9"/>
<path d="M56.8573 17.5932C55.5112 17.5932 54.4343 18.1096 53.7095 19.1011L53.6267 17.7997H51.825L51.8457 17.965C51.9078 18.7706 51.9285 19.6588 51.9285 20.9395V30.999H53.9166V26.2894C54.5379 27.0124 55.5112 27.4462 56.6295 27.4462C57.7892 27.4462 58.8454 26.9917 59.6323 26.1655C60.5021 25.2566 60.9577 23.9346 60.9577 22.3647C60.9577 20.9808 60.5642 19.7827 59.798 18.8945C59.0318 18.0683 57.9963 17.5932 56.8573 17.5932ZM56.381 19.225C58.1413 19.225 58.9282 20.8568 58.9282 22.468C58.9282 24.5543 57.9135 25.835 56.2982 25.835C55.2006 25.835 54.2272 25.0914 53.958 23.9966C53.9166 23.8313 53.8959 23.6041 53.8959 23.3562V21.7657C53.8959 21.6211 53.9373 21.4559 53.958 21.27C53.958 21.208 53.9787 21.1667 53.9787 21.1047C54.2894 20.0099 55.2627 19.225 56.381 19.225Z" fill="#544AF9"/>
<path d="M67.0462 17.5932C65.7001 17.5932 64.6233 18.1096 63.8984 19.1011L63.8156 17.7997H62.0139V17.965C62.076 18.7706 62.0967 19.6588 62.0967 20.9395V30.999H64.0848V26.2894C64.7061 27.0124 65.6794 27.4462 66.7977 27.4462C67.9574 27.4462 69.0136 26.9917 69.8006 26.1655C70.6703 25.2566 71.126 23.9346 71.126 22.3647C71.126 20.9808 70.7325 19.7827 69.9662 18.8945C69.2207 18.0683 68.1852 17.5932 67.0462 17.5932ZM66.5699 19.225C68.3302 19.225 69.1172 20.8568 69.1172 22.468C69.1172 24.5543 68.1024 25.835 66.4871 25.835C65.3895 25.835 64.4162 25.0914 64.1469 23.9966C64.1055 23.8313 64.0848 23.6041 64.0848 23.3562V21.7657C64.0848 21.6211 64.1262 21.4559 64.1469 21.27C64.1469 21.208 64.1677 21.1667 64.1677 21.1047C64.4783 20.0099 65.4516 19.225 66.5699 19.225Z" fill="#544AF9"/>
<path d="M79.8238 19.7414C77.9807 19.0185 77.3801 18.4608 77.3801 17.4279C77.3801 16.5604 78.0842 15.6722 79.6374 15.6722C80.9214 15.6722 81.7498 16.1266 81.9569 16.2505L82.1225 16.3538L82.6817 14.7013L82.5782 14.6394C82.2468 14.4535 81.2942 13.999 79.6996 13.999C77.173 13.999 75.4128 15.4863 75.4128 17.6139C75.4128 19.3283 76.5103 20.5264 78.8919 21.3939C80.5694 22.0136 81.1906 22.654 81.1906 23.7694C81.1906 25.0088 80.2173 25.7937 78.6848 25.7937C77.6701 25.7937 76.6346 25.5045 75.8269 24.9881L75.6613 24.8848L75.1228 26.5786L75.2057 26.5993C75.9512 27.095 77.3594 27.4668 78.5399 27.4668C81.9362 27.4668 83.1373 25.4012 83.1373 23.6248C83.158 21.7864 82.1847 20.671 79.8238 19.7414Z" fill="#544AF9"/>
<path d="M86.72 15.5482L84.7733 16.1473V17.7791H83.3444V19.3696H84.7733V24.2032C84.7733 25.3806 85.0011 26.1862 85.4567 26.7026C85.8916 27.1777 86.575 27.4462 87.362 27.4462C88.1075 27.4462 88.646 27.3016 88.8945 27.219L88.998 27.1777L88.8945 25.6078L88.7081 25.6698C88.4596 25.7524 88.2111 25.773 87.7969 25.773C87.0306 25.773 86.6993 25.2979 86.6993 24.1619V19.3696H89.0808V17.7998H86.6993V15.5482H86.72Z" fill="#544AF9"/>
<path d="M94.0096 17.5932C91.2346 17.5932 89.3086 19.6588 89.3086 22.6126C89.3086 25.4838 91.1725 27.4668 93.8647 27.4668H93.8854C96.1427 27.4668 98.5864 25.897 98.5864 22.4474C98.5864 21.0428 98.1515 19.8447 97.3231 18.9565C96.474 18.0476 95.335 17.5932 94.0096 17.5932ZM93.9475 19.1424C95.7285 19.1424 96.5362 20.8775 96.5362 22.4887C96.5362 24.4717 95.4386 25.897 93.9061 25.897H93.8854C92.3943 25.897 91.2967 24.4923 91.2967 22.53C91.2967 20.8568 92.1251 19.1424 93.9475 19.1424Z" fill="#544AF9"/>
<path d="M104.633 17.6758L104.509 17.6551C104.344 17.6138 104.199 17.5932 104.012 17.5932C102.977 17.5932 102.045 18.1922 101.527 19.1837L101.465 17.7997H99.684L99.7047 17.965C99.7668 18.7499 99.7875 19.6175 99.7875 20.8155L99.7668 27.2603H101.755V22.2202C101.755 21.9516 101.776 21.6831 101.817 21.4559C102.045 20.2372 102.852 19.4729 103.909 19.4729C104.116 19.4729 104.261 19.4935 104.447 19.5142L104.654 19.5349V17.6758H104.633Z" fill="#544AF9"/>
<path d="M109.086 17.5725C106.456 17.5725 104.613 19.6588 104.613 22.6746C104.613 25.5664 106.435 27.4461 109.272 27.4461C110.763 27.4461 111.799 27.1156 112.399 26.8471L112.524 26.7851L112.151 25.3186L111.985 25.3805C111.447 25.6077 110.722 25.8143 109.5 25.8143C108.63 25.8143 106.663 25.5251 106.539 22.9431L112.917 22.9638L112.938 22.8398C112.979 22.6333 113 22.3647 113 22.0136C113 19.9686 111.985 17.5725 109.086 17.5725ZM108.941 19.0804C109.542 19.0804 110.039 19.2663 110.391 19.6381C110.95 20.2165 111.053 21.0634 111.074 21.4765H106.559C106.746 20.3198 107.471 19.0804 108.941 19.0804Z" fill="#544AF9"/>
</svg>
