<svg width="154" height="41" viewBox="0 0 154 41" fill="none" xmlns="http://www.w3.org/2000/svg">
<rect width="154" height="41" fill="black" fill-opacity="0" transform="translate(0 -0.000976562)"/>
<rect y="-0.000976562" width="154" height="41" rx="4" fill="white"/>
<path fill-rule="evenodd" clip-rule="evenodd" d="M11.4275 30.999C11.5149 30.9701 11.6023 30.9268 11.7043 30.869L24.4793 23.9364L21.4494 20.9468L11.4275 30.999ZM25.0474 23.6476L21.8864 20.5135L25.0474 17.3505L29.3883 19.7047C30.4517 20.2824 29.9127 21.0045 29.3883 21.2934L25.0474 23.6476ZM24.4793 17.0472L11.7043 10.1435C11.5732 10.0712 11.413 10.0279 11.2527 9.99902L21.4349 20.0802L24.4793 17.0472ZM10.5098 10.129L21.0124 20.5279L10.5681 30.999C10.2622 30.8113 10.102 30.3924 10.102 29.858C10.0874 28.8326 10 12.4688 10 11.2411C10 10.6634 10.2185 10.3023 10.5098 10.129Z" fill="#544AF9"/>
<path fill-rule="evenodd" clip-rule="evenodd" d="M53.4707 20.0028H47.0802V21.8H51.6127C51.3875 24.316 49.1775 25.3943 47.0802 25.3943C44.4058 25.3943 42.0692 23.4108 42.0692 20.6152C42.0692 17.8995 44.2932 15.8095 47.0802 15.8095C49.2338 15.8095 50.5007 17.1008 50.5007 17.1008L51.8238 15.7962C51.8379 15.7962 50.1347 13.999 47.0239 13.999C43.0686 13.999 40 17.154 40 20.5753C40 23.9166 42.8856 27.1781 47.1224 27.1781C50.8526 27.1781 53.5833 24.7553 53.5833 21.1876C53.5833 20.4288 53.4707 20.0028 53.4707 20.0028Z" fill="#544AF9"/>
<path fill-rule="evenodd" clip-rule="evenodd" d="M58.904 18.6985C56.2859 18.6985 54.3997 20.6421 54.3997 22.9052C54.3997 25.1949 56.2296 27.1784 58.9322 27.1784C61.3814 27.1784 63.3943 25.4079 63.3943 22.9584C63.3943 20.1495 61.0577 18.6985 58.904 18.6985ZM58.9181 25.5144C57.4824 25.5144 56.3563 24.4361 56.3563 22.9318C56.3563 21.4675 57.4683 20.3625 58.9181 20.3625C60.2131 20.3625 61.4236 21.3476 61.4236 22.9318C61.4377 24.4893 60.2272 25.5144 58.9181 25.5144Z" fill="#544AF9"/>
<path fill-rule="evenodd" clip-rule="evenodd" d="M68.7995 18.6985C66.1813 18.6985 64.2951 20.6421 64.2951 22.9052C64.2951 25.1949 66.125 27.1784 68.8276 27.1784C71.2768 27.1784 73.2897 25.4079 73.2897 22.9584C73.3038 20.1495 70.9531 18.6985 68.7995 18.6985ZM68.8276 25.5144C67.3919 25.5144 66.2658 24.4361 66.2658 22.9318C66.2658 21.4675 67.3778 20.3625 68.8276 20.3625C70.1226 20.3625 71.3331 21.3476 71.3331 22.9318C71.3472 24.4893 70.1226 25.5144 68.8276 25.5144Z" fill="#544AF9"/>
<path fill-rule="evenodd" clip-rule="evenodd" d="M80.9189 19.6703C80.3418 19.0846 79.5535 18.6985 78.4978 18.6985C76.0908 18.6985 74.1906 20.6953 74.1906 22.9318C74.1906 25.4878 76.3864 27.1784 78.4556 27.1784C79.7365 27.1784 80.4122 26.6992 80.9189 26.1534V26.992C80.9189 28.4564 79.9758 29.335 78.5682 29.335C77.2028 29.335 76.5131 28.3765 76.2738 27.8307L74.5565 28.5096C75.1618 29.7344 76.4005 30.999 78.5823 30.999C80.9752 30.999 82.8051 29.5746 82.8051 26.5794V18.9648H80.933V19.6703H80.9189ZM78.6527 25.5144C77.3717 25.5144 76.1753 24.5293 76.1753 22.9584C76.1753 21.3343 77.414 20.3625 78.6808 20.3625C79.8632 20.3625 81.0737 21.321 81.0737 22.9451C81.0737 24.5958 79.8632 25.5144 78.6527 25.5144Z" fill="#544AF9"/>
<path fill-rule="evenodd" clip-rule="evenodd" d="M95.2623 21.1746C94.6852 19.8167 93.3339 18.6985 91.5322 18.6985C89.2659 18.6985 87.3516 20.4025 87.3516 22.9318C87.3516 25.5943 89.4771 27.1784 91.7433 27.1784C93.6436 27.1784 94.7978 26.1933 95.5016 25.3147L93.9532 24.3429C93.545 24.9286 92.8835 25.5144 91.7574 25.5144C90.5046 25.5144 89.9134 24.8621 89.5615 24.2364L95.572 21.8801L95.2623 21.1746ZM89.2659 22.812C89.097 21.5873 90.3216 20.3226 91.6166 20.3226C92.433 20.3226 93.0242 20.7353 93.2776 21.2278L89.2659 22.812Z" fill="#544AF9"/>
<path d="M86.2677 14.4387H84.2971V26.9256H86.2677V14.4387Z" fill="#544AF9"/>
<path d="M112.716 14.4387H110.746V26.9256H112.716V14.4387Z" fill="#544AF9"/>
<path fill-rule="evenodd" clip-rule="evenodd" d="M105.059 14.4387H100.287V26.9256H102.258V22.3995H105.059C107.368 22.3995 109.268 20.6156 109.268 18.4191C109.268 16.2226 107.382 14.4387 105.059 14.4387ZM105.059 20.5224H102.258V16.3024H105.059C106.284 16.3024 107.297 17.2609 107.297 18.4191C107.297 19.5773 106.284 20.5224 105.059 20.5224Z" fill="#544AF9"/>
<path fill-rule="evenodd" clip-rule="evenodd" d="M130.846 18.6985L128.256 24.263L125.68 18.6985H123.527L127.187 26.5794L125.132 30.9857H127.285L133 18.6985H130.846Z" fill="#544AF9"/>
<path fill-rule="evenodd" clip-rule="evenodd" d="M114.518 20.0562L116.109 21.0679C117.263 19.1643 120.529 19.6036 120.754 21.6404C119.769 21.3874 118.699 21.2144 117.728 21.3076C116.207 21.454 114.912 22.3592 114.701 23.8635C114.589 24.6756 114.786 25.6607 115.377 26.273C116.306 27.2182 117.826 27.338 119.079 27.0185C119.783 26.8321 120.332 26.4461 120.796 25.9269V26.9386H122.767V22.4391C123.076 17.8064 116.869 16.7148 114.518 20.0562ZM118.614 25.3811C116.334 25.9668 115.771 22.4657 119.149 22.945C119.726 23.0115 120.233 23.1446 120.796 23.3177C120.543 24.3561 119.698 25.1015 118.614 25.3811Z" fill="#544AF9"/>
</svg>
