<svg width="28" height="28" viewBox="0 0 28 28" fill="none" xmlns="http://www.w3.org/2000/svg">
<rect width="26" height="26" fill="black" fill-opacity="0" transform="translate(1 1)"/>
<circle cx="14" cy="14" r="13" stroke="#E0E0E0" stroke-width="2"/>
<path d="M19.5605 10.5606C20.1465 9.97487 20.1465 9.0251 19.5605 8.43935C18.975 7.85355 18.025 7.85355 17.4394 8.43935L14 11.8788L10.5605 8.43935C9.97497 7.85355 9.02502 7.85355 8.43945 8.43935C7.85352 9.0251 7.85352 9.97487 8.43945 10.5606L11.8789 14L8.43945 17.4394C7.85352 18.0251 7.85352 18.9749 8.43945 19.5606C9.02502 20.1464 9.97497 20.1464 10.5605 19.5606L14 16.1212L17.4394 19.5606C18.025 20.1464 18.975 20.1464 19.5605 19.5606C20.1465 18.9749 20.1465 18.0251 19.5605 17.4394L16.1211 14L19.5605 10.5606Z" fill="#E0E0E0"/>
</svg>
