<svg width="30" height="30" viewBox="0 0 30 30" fill="none" xmlns="http://www.w3.org/2000/svg">
<rect width="30" height="30" fill="black" fill-opacity="0" transform="translate(0 -0.000976562)"/>
<circle cx="15" cy="14.999" r="15" fill="white"/>
<path d="M21.235 17.9129C19.9047 17.243 19.0621 16.8411 18.7073 16.7072C18.5299 16.6625 18.3747 16.6402 18.2417 16.6402C18.1086 16.6402 17.9978 16.7295 17.9091 16.9081C17.6874 17.2207 17.2882 17.7119 16.7118 18.3818C16.5344 18.6051 16.2683 18.6274 15.9135 18.4488C14.6718 17.8236 13.7406 17.2654 13.1197 16.7741C12.2772 16.1043 11.5455 15.1888 10.9246 14.0277C10.7916 13.8938 10.7472 13.7821 10.7916 13.6928C10.8359 13.5588 10.9468 13.4025 11.1242 13.2239C11.4789 12.8666 11.7672 12.4647 11.9889 12.0182C12.0776 11.8395 12.0554 11.6162 11.9224 11.3483L10.7916 8.60189C10.7029 8.33395 10.592 8.17765 10.459 8.13299C10.3703 8.04368 10.2373 7.99902 10.0599 7.99902H9.26164C8.90687 7.99902 8.57428 8.15532 8.26386 8.46792L8.19734 8.53491C7.39911 9.38339 7 10.3882 7 11.5493C7 12.7103 7.4878 13.9831 8.46341 15.3674L8.59645 15.5014C10.459 18.1808 12.5211 20.0118 14.7827 20.9942C15.8914 21.4855 16.7783 21.7981 17.4435 21.932C18.02 22.0214 18.6186 22.0214 19.2395 21.932C19.6386 21.8874 20.1042 21.6864 20.6364 21.3292C21.2129 20.9273 21.5676 20.5477 21.7007 20.1904C21.878 19.7885 21.9667 19.4089 21.9667 19.0517C22.0111 18.6944 22.0111 18.4711 21.9667 18.3818C21.9224 18.2925 21.745 18.1808 21.4346 18.0469L21.235 17.9129Z" fill="#544AF9"/>
</svg>
