<svg width="100" height="100" viewBox="0 0 100 100" fill="none" xmlns="http://www.w3.org/2000/svg">
<rect width="100" height="100" fill="black" fill-opacity="0"/>
<circle cx="50" cy="50" r="49.5" stroke="#E0E0E0"/>
<rect x="31" y="62" width="6" height="6" stroke="#544AF9" stroke-width="2"/>
<rect x="42" y="54" width="6" height="14" stroke="#544AF9" stroke-width="2"/>
<rect x="52" y="45" width="8" height="24" fill="#544AF9"/>
<rect x="64" y="38" width="6" height="30" stroke="#544AF9" stroke-width="2"/>
<path d="M60.9806 32.1961C61.0889 31.6546 60.7377 31.1277 60.1961 31.0194L51.3709 29.2544C50.8293 29.1461 50.3025 29.4973 50.1942 30.0388C50.0859 30.5804 50.4371 31.1072 50.9787 31.2155L58.8233 32.7845L57.2544 40.6291C57.1461 41.1707 57.4973 41.6975 58.0388 41.8058C58.5804 41.9141 59.1072 41.5629 59.2155 41.0213L60.9806 32.1961ZM30.5547 52.8321L60.5547 32.8321L59.4453 31.1679L29.4453 51.1679L30.5547 52.8321Z" fill="#544AF9"/>
</svg>
