<svg width="30" height="30" viewBox="0 0 30 30" fill="none" xmlns="http://www.w3.org/2000/svg">
<rect width="30" height="30" fill="black" fill-opacity="0" transform="translate(0 -0.000976562)"/>
<circle cx="15" cy="14.999" r="15" fill="white"/>
<path fill-rule="evenodd" clip-rule="evenodd" d="M7.02808 9.76358C7.04114 9.70952 7.05862 9.65721 7.08005 9.60698C7.23645 9.23976 7.59775 8.99902 8 8.99902H22C22.3662 8.99902 22.6985 9.19853 22.8731 9.51134C22.9107 9.57855 22.9407 9.65056 22.9621 9.7262C22.9868 9.8132 22.9992 9.90189 23 9.98999C23.0001 9.99634 23.0001 10.0027 23 10.009V19.999C23 20.5513 22.5522 20.999 22 20.999H8C7.44775 20.999 7 20.5513 7 19.999V10.009L7.02808 9.76358ZM19.2968 10.999H10.7032L15 14.6819L19.2968 10.999ZM9 12.1732L14.3492 16.7583C14.7237 17.0793 15.2763 17.0793 15.6508 16.7583L21 12.1732V18.999H9V12.1732Z" fill="#544AF9"/>
<path d="M7 9.99902C7 9.92059 7.00919 9.84146 7.02808 9.76358L7 9.99902Z" fill="#544AF9"/>
</svg>
