<svg width="100" height="100" viewBox="0 0 100 100" fill="none" xmlns="http://www.w3.org/2000/svg">
<rect width="100" height="100" fill="black" fill-opacity="0"/>
<circle cx="50" cy="50" r="49.5" stroke="#E0E0E0"/>
<mask id="path-2-inside-1" fill="white">
<path d="M33 42.7367C33 33.5012 40.6101 26 49.9795 26C59.3489 26 66.959 33.5012 67 42.6963C67 47.3326 65.4871 49.9538 64.1374 52.2922L64.136 52.2946C63.0312 54.1901 62.1721 55.6823 61.8448 58.5861C61.8448 59.2312 61.6811 59.8766 61.3946 60.4411C61.5992 61.0058 61.722 61.6107 61.722 62.2157C61.722 62.8609 61.5583 63.5465 61.3128 64.1515C61.5992 64.7564 61.722 65.4016 61.722 66.0872C61.722 68.023 60.5763 69.8379 58.7761 70.6444C57.9169 73.2256 55.4212 75 52.6389 75H47.361C44.5379 75 42.083 73.2256 41.2238 70.6444C39.4645 69.8379 38.278 68.0634 38.278 66.0872C38.278 65.4016 38.4416 64.7564 38.6871 64.1515C38.4007 63.5465 38.278 62.9013 38.278 62.2157C38.278 61.6107 38.4007 61.0058 38.6053 60.4411C38.3598 59.8362 38.1961 59.2312 38.1552 58.5861C37.8279 55.6823 36.9687 54.1901 35.864 52.2946C34.5138 49.9959 33 47.3342 33 42.7367Z"/>
</mask>
<path d="M35.864 52.2946L37.592 51.2876L37.5885 51.2817L35.864 52.2946ZM38.1552 58.5861L40.1512 58.4595C40.1492 58.427 40.1463 58.3944 40.1427 58.362L38.1552 58.5861ZM38.6053 60.4411L40.4856 61.1225C40.654 60.6578 40.6444 60.1473 40.4586 59.6893L38.6053 60.4411ZM38.6871 64.1515L40.5403 64.9036C40.7508 64.3848 40.7343 63.8016 40.4947 63.2957L38.6871 64.1515ZM41.2238 70.6444L43.1214 70.0127C42.9464 69.4869 42.561 69.0573 42.0573 68.8263L41.2238 70.6444ZM58.7761 70.6444L57.9584 68.8192C57.4472 69.0482 57.0554 69.4812 56.8785 70.0127L58.7761 70.6444ZM61.3128 64.1515L59.4596 63.3994C59.2491 63.918 59.2656 64.5012 59.5051 65.0071L61.3128 64.1515ZM61.3946 60.4411L59.6112 59.5361C59.3611 60.0287 59.3261 60.6028 59.5142 61.1223L61.3946 60.4411ZM61.8448 58.5861L59.8573 58.362C59.849 58.4364 59.8448 58.5112 59.8448 58.5861H61.8448ZM64.136 52.2946L65.8639 53.3017L65.8674 53.2957L64.136 52.2946ZM64.1374 52.2922L65.8688 53.2933L65.8695 53.292L64.1374 52.2922ZM67 42.6963H69L69 42.6874L67 42.6963ZM49.9795 24C39.5328 24 31 32.3696 31 42.7367H35C35 34.6329 41.6874 28 49.9795 28V24ZM31 42.7367C31 47.8757 32.7344 50.9155 34.1395 53.3076L37.5885 51.2817C36.2931 49.0763 35 46.7927 35 42.7367H31ZM34.1361 53.3017C35.203 55.1325 35.8883 56.3307 36.1678 58.8101L40.1427 58.362C39.7675 55.034 38.7344 53.2478 37.592 51.2876L34.1361 53.3017ZM36.1593 58.7126C36.217 59.6234 36.4474 60.4422 36.752 61.193L40.4586 59.6893C40.2723 59.2302 40.1753 58.839 40.1512 58.4595L36.1593 58.7126ZM36.7249 59.7598C36.4537 60.5083 36.278 61.3442 36.278 62.2157H40.278C40.278 61.8772 40.3476 61.5033 40.4856 61.1225L36.7249 59.7598ZM36.278 62.2157C36.278 63.1464 36.4463 64.0924 36.8794 65.0073L40.4947 63.2957C40.355 63.0006 40.278 62.6561 40.278 62.2157H36.278ZM36.8339 63.3994C36.5193 64.1745 36.278 65.0788 36.278 66.0872H40.278C40.278 65.7244 40.3638 65.3383 40.5403 64.9036L36.8339 63.3994ZM36.278 66.0872C36.278 68.8698 37.9427 71.3404 40.3903 72.4624L42.0573 68.8263C40.9863 68.3353 40.278 67.257 40.278 66.0872H36.278ZM39.3262 71.2761C40.4626 74.6899 43.6933 77 47.361 77V73C45.3824 73 43.7035 71.7612 43.1214 70.0127L39.3262 71.2761ZM47.361 77H52.6389V73H47.361V77ZM52.6389 77C56.2583 77 59.535 74.6969 60.6737 71.2761L56.8785 70.0127C56.2988 71.7542 54.584 73 52.6389 73V77ZM59.5939 72.4696C62.1249 71.3356 63.722 68.7985 63.722 66.0872H59.722C59.722 67.2475 59.0277 68.3401 57.9584 68.8192L59.5939 72.4696ZM63.722 66.0872C63.722 65.1562 63.5535 64.2105 63.1206 63.2959L59.5051 65.0071C59.6449 65.3024 59.722 65.647 59.722 66.0872H63.722ZM63.166 64.9036C63.4844 64.1192 63.722 63.1759 63.722 62.2157H59.722C59.722 62.5458 59.6323 62.9739 59.4596 63.3994L63.166 64.9036ZM63.722 62.2157C63.722 61.3441 63.5461 60.5082 63.2751 59.76L59.5142 61.1223C59.6522 61.5034 59.722 61.8774 59.722 62.2157H63.722ZM63.1781 61.3462C63.5996 60.5158 63.8448 59.5617 63.8448 58.5861H59.8448C59.8448 58.9008 59.7627 59.2374 59.6112 59.5361L63.1781 61.3462ZM63.8322 58.8101C64.1117 56.3306 64.7969 55.1324 65.8639 53.3017L62.408 51.2876C61.2655 53.2479 60.2325 55.0341 59.8573 58.362L63.8322 58.8101ZM65.8674 53.2957L65.8688 53.2933L62.406 51.2911L62.4046 51.2935L65.8674 53.2957ZM65.8695 53.292C67.2641 50.876 69 47.8754 69 42.6963H65C65 46.7898 63.7101 49.0316 62.4052 51.2924L65.8695 53.292ZM69 42.6874C68.954 32.3663 60.4249 24 49.9795 24V28C58.2728 28 64.9641 34.6361 65 42.7053L69 42.6874Z" fill="#544AF9" mask="url(#path-2-inside-1)"/>
<path d="M39 60H61" stroke="#544AF9" stroke-width="2"/>
<path d="M39 65H61" stroke="#544AF9" stroke-width="2"/>
<path d="M42 70H58" stroke="#544AF9" stroke-width="2"/>
<line x1="53" y1="59" x2="53" y2="49" stroke="#544AF9" stroke-width="4" stroke-linecap="round" stroke-linejoin="round"/>
<line x1="47" y1="59" x2="47" y2="49" stroke="#544AF9" stroke-width="4" stroke-linecap="round" stroke-linejoin="round"/>
</svg>
