<svg width="28" height="28" viewBox="0 0 28 28" fill="none" xmlns="http://www.w3.org/2000/svg">
<rect width="26" height="26" fill="black" fill-opacity="0" transform="translate(1 1)"/>
<circle cx="14" cy="14" r="13" stroke="#E0E0E0" stroke-width="2"/>
<path d="M14.9007 7H13.0993C12.4202 7 11.9036 7.77681 12.0152 8.63016L12.7479 14.2302C12.8362 14.9052 13.2947 15.4 13.832 15.4H14.168C14.7053 15.4 15.1638 14.9052 15.2521 14.2302L15.9848 8.63016C16.0964 7.77681 15.5798 7 14.9007 7Z" fill="#E0E0E0"/>
<path d="M14.252 21H13.748C12.7293 21 11.9544 19.8348 12.1219 18.5548C12.2544 17.5422 12.9421 16.8 13.748 16.8H14.252C15.0579 16.8 15.7456 17.5422 15.8781 18.5548C16.0456 19.8348 15.2707 21 14.252 21Z" fill="#E0E0E0"/>
</svg>
