<svg width="8" height="8" viewBox="0 0 8 8" fill="none" xmlns="http://www.w3.org/2000/svg">
<path d="M7.22449 0.252686C6.88757 -0.0842285 6.34119 -0.0842285 6.00427 0.252686L3.99988 2.25696L1.99548 0.252686C1.65857 -0.0842285 1.11218 -0.0842285 0.775269 0.252686L0.252319 0.775513C-0.0841064 1.11243 -0.0841064 1.65869 0.252319 1.99561L2.25671 4L0.252319 6.00439C-0.0841064 6.34131 -0.0841064 6.88757 0.252319 7.22449L0.775269 7.74731C1.11218 8.08423 1.65857 8.08423 1.99548 7.74731L3.99988 5.74304L6.00427 7.74731C6.34119 8.08423 6.88757 8.08423 7.22449 7.74731L7.74744 7.22449C8.08386 6.88757 8.08386 6.34131 7.74744 6.00439L5.74304 4L7.74744 1.99561C8.08386 1.65869 8.08386 1.11243 7.74744 0.775513L7.22449 0.252686Z" fill="#E0E0E0"/>
</svg>
