<svg width="100" height="100" viewBox="0 0 100 100" fill="none" xmlns="http://www.w3.org/2000/svg">
<rect width="100" height="100" fill="black" fill-opacity="0"/>
<circle cx="50" cy="50" r="49.5" stroke="#E0E0E0"/>
<path d="M28.0551 41.6725C27.8743 42.1943 28.1507 42.764 28.6725 42.9448C29.1943 43.1257 29.764 42.8493 29.9449 42.3275L28.0551 41.6725ZM69.5635 42.8997C70.0604 43.1408 70.6586 42.9334 70.8997 42.4365L74.8285 34.3393C75.0696 33.8424 74.8622 33.2442 74.3653 33.0031C73.8684 32.762 73.2702 32.9694 73.0291 33.4663L69.5368 40.6638L62.3393 37.1715C61.8424 36.9304 61.2442 37.1378 61.0031 37.6347C60.762 38.1316 60.9694 38.7298 61.4663 38.9709L69.5635 42.8997ZM29.9449 42.3275C32.8493 33.9482 40.5269 28 49.5 28V26C39.6052 26 31.2151 32.5559 28.0551 41.6725L29.9449 42.3275ZM49.5 28C58.4731 28 66.1507 33.9482 69.0551 42.3275L70.9449 41.6725C67.7849 32.5559 59.3948 26 49.5 26V28Z" fill="#544AF9"/>
<path d="M54.7234 43.7667C54.6019 43.9631 54.476 44.1083 54.3457 44.2023C54.2241 44.2877 54.0635 44.3304 53.8637 44.3304C53.6727 44.3304 53.4643 44.2664 53.2385 44.1382C53.0214 44.0016 52.7652 43.8564 52.4699 43.7026C52.1747 43.5489 51.836 43.408 51.4539 43.2798C51.0718 43.1432 50.6246 43.0748 50.1122 43.0748C49.2091 43.0748 48.5317 43.2756 48.0802 43.677C47.6286 44.0699 47.4028 44.5866 47.4028 45.2272C47.4028 45.6372 47.5244 45.9789 47.7675 46.2522C48.0194 46.517 48.345 46.7476 48.7445 46.944C49.1526 47.1405 49.6129 47.3156 50.1253 47.4693C50.6376 47.6231 51.163 47.7939 51.7014 47.9818C52.2398 48.1612 52.7652 48.3747 53.2776 48.6224C53.7899 48.8701 54.2458 49.1818 54.6453 49.5577C55.0534 49.9335 55.3791 50.3947 55.6222 50.9413C55.8741 51.4794 56 52.1371 56 52.9144C56 53.7599 55.848 54.5543 55.5441 55.2974C55.2488 56.0319 54.819 56.6768 54.2545 57.232C53.69 57.7786 52.991 58.2099 52.1573 58.526C51.3323 58.842 50.3945 59 49.3437 59C48.7445 59 48.1453 58.9402 47.5461 58.8206C46.9556 58.7011 46.3824 58.5345 45.8267 58.321C45.2796 58.1074 44.7629 57.8512 44.2766 57.5523C43.7902 57.2533 43.3647 56.9202 43 56.5529L44.1463 54.7336C44.2418 54.597 44.3677 54.486 44.524 54.4005C44.6804 54.3066 44.8454 54.2596 45.019 54.2596C45.2535 54.2596 45.501 54.345 45.7615 54.5158C46.022 54.6867 46.3216 54.8746 46.6603 55.0796C46.999 55.2846 47.3898 55.4725 47.8327 55.6433C48.2842 55.8141 48.8226 55.8995 49.4479 55.8995C50.3597 55.8995 51.0631 55.6945 51.5581 55.2846C52.0618 54.8746 52.3136 54.2639 52.3136 53.4525C52.3136 52.9827 52.1877 52.6026 51.9359 52.3122C51.6927 52.0218 51.3714 51.7784 50.9719 51.5819C50.5725 51.3855 50.1166 51.2189 49.6042 51.0823C49.0919 50.9371 48.5665 50.7791 48.0281 50.6082C47.4896 50.4374 46.9643 50.2324 46.4519 49.9933C45.9395 49.7541 45.4836 49.4381 45.0842 49.0452C44.6847 48.6523 44.3591 48.1654 44.1072 47.5846C43.8641 47.0038 43.7425 46.2821 43.7425 45.4194C43.7425 44.7276 43.8814 44.0571 44.1593 43.408C44.4372 42.7588 44.8454 42.1823 45.3838 41.6784C45.9222 41.1744 46.5822 40.7687 47.3637 40.4612C48.154 40.1537 49.0571 40 50.0731 40C51.2108 40 52.2615 40.1751 53.2255 40.5253C54.1981 40.8669 55.0187 41.3452 55.6874 41.9602L54.7234 43.7667Z" fill="#544AF9"/>
<path d="M50 37V62" stroke="#544AF9" stroke-width="2" stroke-linecap="round"/>
<path d="M70.9448 57.3275C71.1257 56.8057 70.8493 56.236 70.3275 56.0552C69.8057 55.8743 69.236 56.1507 69.0551 56.6725L70.9448 57.3275ZM29.4365 56.1003C28.9396 55.8592 28.3414 56.0666 28.1003 56.5635L24.1715 64.6607C23.9304 65.1576 24.1378 65.7558 24.6347 65.9969C25.1316 66.238 25.7298 66.0306 25.9709 65.5337L29.4632 58.3362L36.6607 61.8285C37.1576 62.0696 37.7558 61.8622 37.9969 61.3653C38.238 60.8684 38.0306 60.2702 37.5337 60.0291L29.4365 56.1003ZM69.0551 56.6725C66.1507 65.0518 58.4731 71 49.5 71L49.5 73C59.3948 73 67.7849 66.4441 70.9448 57.3275L69.0551 56.6725ZM49.5 71C40.5269 71 32.8493 65.0518 29.9448 56.6725L28.0551 57.3275C31.2151 66.4441 39.6052 73 49.5 73L49.5 71Z" fill="#544AF9"/>
</svg>
