<svg width="254" height="140" viewBox="0 0 254 140" fill="none" xmlns="http://www.w3.org/2000/svg">
<path d="M16.0721 9.43349C16.9033 9.43349 17.5772 8.76183 17.5772 7.9333C17.5772 7.10476 16.9033 6.43311 16.0721 6.43311C15.2408 6.43311 14.5669 7.10476 14.5669 7.9333C14.5669 8.76183 15.2408 9.43349 16.0721 9.43349Z" fill="url(#paint0_linear)"/>
<path d="M11.3779 12.3067C12.4206 12.3067 13.2658 11.4642 13.2658 10.4251C13.2658 9.38588 12.4206 8.54346 11.3779 8.54346C10.3353 8.54346 9.49011 9.38588 9.49011 10.4251C9.49011 11.4642 10.3353 12.3067 11.3779 12.3067Z" fill="url(#paint1_linear)"/>
<path d="M24.4909 10.8577C25.5899 10.8577 26.4808 9.96977 26.4808 8.87442C26.4808 7.77907 25.5899 6.89111 24.4909 6.89111C23.3919 6.89111 22.501 7.77907 22.501 8.87442C22.501 9.96977 23.3919 10.8577 24.4909 10.8577Z" fill="url(#paint2_linear)"/>
<path d="M12.2199 15.739C13.2061 15.739 14.0057 14.9421 14.0057 13.9591C14.0057 12.9761 13.2061 12.1792 12.2199 12.1792C11.2336 12.1792 10.4341 12.9761 10.4341 13.9591C10.4341 14.9421 11.2336 15.739 12.2199 15.739Z" fill="url(#paint3_linear)"/>
<path d="M4.71963 18.1296C5.7059 18.1296 6.50542 17.3327 6.50542 16.3497C6.50542 15.3667 5.7059 14.5698 4.71963 14.5698C3.73336 14.5698 2.93384 15.3667 2.93384 16.3497C2.93384 17.3327 3.73336 18.1296 4.71963 18.1296Z" fill="url(#paint4_linear)"/>
<path d="M23.7766 17.2648C24.6642 17.2648 25.3838 16.5476 25.3838 15.6629C25.3838 14.7782 24.6642 14.061 23.7766 14.061C22.8889 14.061 22.1694 14.7782 22.1694 15.6629C22.1694 16.5476 22.8889 17.2648 23.7766 17.2648Z" fill="url(#paint5_linear)"/>
<path d="M23.4704 3.2038C24.358 3.2038 25.0776 2.48661 25.0776 1.6019C25.0776 0.717196 24.358 0 23.4704 0C22.5827 0 21.8632 0.717196 21.8632 1.6019C21.8632 2.48661 22.5827 3.2038 23.4704 3.2038Z" fill="url(#paint6_linear)"/>
<path d="M17.7048 21.9435C18.4797 21.9435 19.1079 21.3173 19.1079 20.545C19.1079 19.7726 18.4797 19.1465 17.7048 19.1465C16.9299 19.1465 16.3017 19.7726 16.3017 20.545C16.3017 21.3173 16.9299 21.9435 17.7048 21.9435Z" fill="url(#paint7_linear)"/>
<path d="M9.43917 26.0119C10.4114 26.0119 11.1995 25.2264 11.1995 24.2574C11.1995 23.2884 10.4114 22.5029 9.43917 22.5029C8.467 22.5029 7.67889 23.2884 7.67889 24.2574C7.67889 25.2264 8.467 26.0119 9.43917 26.0119Z" fill="url(#paint8_linear)"/>
<path d="M23.9297 24.6389C25.1132 24.6389 26.0726 23.6827 26.0726 22.5031C26.0726 21.3234 25.1132 20.3672 23.9297 20.3672C22.7462 20.3672 21.7867 21.3234 21.7867 22.5031C21.7867 23.6827 22.7462 24.6389 23.9297 24.6389Z" fill="url(#paint9_linear)"/>
<path d="M16.8374 29.3172C18.035 29.3172 19.0059 28.3496 19.0059 27.1559C19.0059 25.9623 18.035 24.9946 16.8374 24.9946C15.6398 24.9946 14.6689 25.9623 14.6689 27.1559C14.6689 28.3496 15.6398 29.3172 16.8374 29.3172Z" fill="url(#paint10_linear)"/>
<path d="M9.94947 31.8091C11.1753 31.8091 12.1689 30.8186 12.1689 29.5969C12.1689 28.3752 11.1753 27.3848 9.94947 27.3848C8.72368 27.3848 7.72998 28.3752 7.72998 29.5969C7.72998 30.8186 8.72368 31.8091 9.94947 31.8091Z" fill="url(#paint11_linear)"/>
<path d="M23.8021 29.7495C25.0279 29.7495 26.0215 28.7591 26.0215 27.5373C26.0215 26.3156 25.0279 25.3252 23.8021 25.3252C22.5763 25.3252 21.5826 26.3156 21.5826 27.5373C21.5826 28.7591 22.5763 29.7495 23.8021 29.7495Z" fill="url(#paint12_linear)"/>
<path d="M29.4401 33.4364C30.2714 33.4364 30.9453 32.7648 30.9453 31.9362C30.9453 31.1077 30.2714 30.436 29.4401 30.436C28.6088 30.436 27.9349 31.1077 27.9349 31.9362C27.9349 32.7648 28.6088 33.4364 29.4401 33.4364Z" fill="url(#paint13_linear)"/>
<path d="M15.7405 37.0472C16.7409 37.0472 17.5518 36.2389 17.5518 35.2418C17.5518 34.2448 16.7409 33.4365 15.7405 33.4365C14.7401 33.4365 13.9292 34.2448 13.9292 35.2418C13.9292 36.2389 14.7401 37.0472 15.7405 37.0472Z" fill="url(#paint14_linear)"/>
<path d="M11.8373 36.3608C12.7672 36.3608 13.521 35.6094 13.521 34.6826C13.521 33.7557 12.7672 33.0044 11.8373 33.0044C10.9073 33.0044 10.1535 33.7557 10.1535 34.6826C10.1535 35.6094 10.9073 36.3608 11.8373 36.3608Z" fill="url(#paint15_linear)"/>
<path d="M3.85214 36.5898C4.78205 36.5898 5.53589 35.8384 5.53589 34.9116C5.53589 33.9847 4.78205 33.2334 3.85214 33.2334C2.92223 33.2334 2.1684 33.9847 2.1684 34.9116C2.1684 35.8384 2.92223 36.5898 3.85214 36.5898Z" fill="url(#paint16_linear)"/>
<path d="M24.0571 37.5558C24.9307 37.5558 25.6388 36.85 25.6388 35.9793C25.6388 35.1086 24.9307 34.4028 24.0571 34.4028C23.1836 34.4028 22.4754 35.1086 22.4754 35.9793C22.4754 36.85 23.1836 37.5558 24.0571 37.5558Z" fill="url(#paint17_linear)"/>
<path d="M16.4038 44.7258C17.5732 44.7258 18.5212 43.7809 18.5212 42.6153C18.5212 41.4498 17.5732 40.5049 16.4038 40.5049C15.2343 40.5049 14.2863 41.4498 14.2863 42.6153C14.2863 43.7809 15.2343 44.7258 16.4038 44.7258Z" fill="url(#paint18_linear)"/>
<path d="M24.5163 42.9715C25.5167 42.9715 26.3276 42.1632 26.3276 41.1662C26.3276 40.1691 25.5167 39.3608 24.5163 39.3608C23.516 39.3608 22.705 40.1691 22.705 41.1662C22.705 42.1632 23.516 42.9715 24.5163 42.9715Z" fill="url(#paint19_linear)"/>
<path d="M16.1997 49.2012C17.5382 49.2012 18.6233 48.1198 18.6233 46.7857C18.6233 45.4516 17.5382 44.3701 16.1997 44.3701C14.8612 44.3701 13.7761 45.4516 13.7761 46.7857C13.7761 48.1198 14.8612 49.2012 16.1997 49.2012Z" fill="url(#paint20_linear)"/>
<path d="M11.0463 50.6251C12.3003 50.6251 13.3168 49.6119 13.3168 48.3621C13.3168 47.1123 12.3003 46.0991 11.0463 46.0991C9.79236 46.0991 8.77582 47.1123 8.77582 48.3621C8.77582 49.6119 9.79236 50.6251 11.0463 50.6251Z" fill="url(#paint21_linear)"/>
<path d="M17.0925 57.4907C18.4169 57.4907 19.4906 56.4206 19.4906 55.1006C19.4906 53.7806 18.4169 52.7104 17.0925 52.7104C15.7681 52.7104 14.6945 53.7806 14.6945 55.1006C14.6945 56.4206 15.7681 57.4907 17.0925 57.4907Z" fill="url(#paint22_linear)"/>
<path d="M23.0112 56.9565C24.0397 56.9565 24.8735 56.1254 24.8735 55.1003C24.8735 54.0752 24.0397 53.2441 23.0112 53.2441C21.9827 53.2441 21.1489 54.0752 21.1489 55.1003C21.1489 56.1254 21.9827 56.9565 23.0112 56.9565Z" fill="url(#paint23_linear)"/>
<path d="M16.1486 61.2025C17.163 61.2025 17.9854 60.3829 17.9854 59.3718C17.9854 58.3607 17.163 57.541 16.1486 57.541C15.1341 57.541 14.3118 58.3607 14.3118 59.3718C14.3118 60.3829 15.1341 61.2025 16.1486 61.2025Z" fill="url(#paint24_linear)"/>
<path d="M10.6128 61.7115C11.4722 61.7115 12.169 61.017 12.169 60.1604C12.169 59.3038 11.4722 58.6094 10.6128 58.6094C9.75331 58.6094 9.05658 59.3038 9.05658 60.1604C9.05658 61.017 9.75331 61.7115 10.6128 61.7115Z" fill="url(#paint25_linear)"/>
<path d="M5.91862 63.5162C6.77808 63.5162 7.47481 62.8217 7.47481 61.9651C7.47481 61.1085 6.77808 60.4141 5.91862 60.4141C5.05916 60.4141 4.36243 61.1085 4.36243 61.9651C4.36243 62.8217 5.05916 63.5162 5.91862 63.5162Z" fill="url(#paint26_linear)"/>
<path d="M23.1898 62.9574C24.2042 62.9574 25.0266 62.1377 25.0266 61.1266C25.0266 60.1155 24.2042 59.2959 23.1898 59.2959C22.1753 59.2959 21.353 60.1155 21.353 61.1266C21.353 62.1377 22.1753 62.9574 23.1898 62.9574Z" fill="url(#paint27_linear)"/>
<path d="M18.3426 70.2803C19.2866 70.2803 20.0519 69.5175 20.0519 68.5767C20.0519 67.6358 19.2866 66.873 18.3426 66.873C17.3986 66.873 16.6334 67.6358 16.6334 68.5767C16.6334 69.5175 17.3986 70.2803 18.3426 70.2803Z" fill="url(#paint28_linear)"/>
<path d="M11.2761 70.6619C12.3751 70.6619 13.266 69.774 13.266 68.6786C13.266 67.5833 12.3751 66.6953 11.2761 66.6953C10.1771 66.6953 9.28619 67.5833 9.28619 68.6786C9.28619 69.774 10.1771 70.6619 11.2761 70.6619Z" fill="url(#paint29_linear)"/>
<path d="M16.9396 77.0182C18.109 77.0182 19.057 76.0734 19.057 74.9078C19.057 73.7422 18.109 72.7974 16.9396 72.7974C15.7702 72.7974 14.8221 73.7422 14.8221 74.9078C14.8221 76.0734 15.7702 77.0182 16.9396 77.0182Z" fill="url(#paint30_linear)"/>
<path d="M10.3831 78.2899C11.2989 78.2899 12.0413 77.5499 12.0413 76.6371C12.0413 75.7243 11.2989 74.9844 10.3831 74.9844C9.46727 74.9844 8.72485 75.7243 8.72485 76.6371C8.72485 77.5499 9.46727 78.2899 10.3831 78.2899Z" fill="url(#paint31_linear)"/>
<path d="M25.5368 75.7468C26.8049 75.7468 27.8328 74.7222 27.8328 73.4583C27.8328 72.1945 26.8049 71.1699 25.5368 71.1699C24.2687 71.1699 23.2408 72.1945 23.2408 73.4583C23.2408 74.7222 24.2687 75.7468 25.5368 75.7468Z" fill="url(#paint32_linear)"/>
<path d="M17.2712 83.2992C18.4829 83.2992 19.4652 82.3202 19.4652 81.1125C19.4652 79.9048 18.4829 78.9258 17.2712 78.9258C16.0595 78.9258 15.0772 79.9048 15.0772 81.1125C15.0772 82.3202 16.0595 83.2992 17.2712 83.2992Z" fill="url(#paint33_linear)"/>
<path d="M24.5929 82.7905C25.9173 82.7905 26.991 81.7204 26.991 80.4004C26.991 79.0804 25.9173 78.0103 24.5929 78.0103C23.2685 78.0103 22.1948 79.0804 22.1948 80.4004C22.1948 81.7204 23.2685 82.7905 24.5929 82.7905Z" fill="url(#paint34_linear)"/>
<path d="M17.5262 87.9519C18.3293 87.9519 18.9804 87.303 18.9804 86.5026C18.9804 85.7021 18.3293 85.0532 17.5262 85.0532C16.7231 85.0532 16.0721 85.7021 16.0721 86.5026C16.0721 87.303 16.7231 87.9519 17.5262 87.9519Z" fill="url(#paint35_linear)"/>
<path d="M5.12791 88.7654C5.93101 88.7654 6.58206 88.1165 6.58206 87.316C6.58206 86.5156 5.93101 85.8667 5.12791 85.8667C4.32481 85.8667 3.67377 86.5156 3.67377 87.316C3.67377 88.1165 4.32481 88.7654 5.12791 88.7654Z" fill="url(#paint36_linear)"/>
<path d="M9.49022 90.5968C10.8287 90.5968 11.9138 89.5153 11.9138 88.1812C11.9138 86.8471 10.8287 85.7656 9.49022 85.7656C8.15172 85.7656 7.06665 86.8471 7.06665 88.1812C7.06665 89.5153 8.15172 90.5968 9.49022 90.5968Z" fill="url(#paint37_linear)"/>
<path d="M30.4606 89.8334C31.8696 89.8334 33.0117 88.695 33.0117 87.2907C33.0117 85.8864 31.8696 84.748 30.4606 84.748C29.0517 84.748 27.9095 85.8864 27.9095 87.2907C27.9095 88.695 29.0517 89.8334 30.4606 89.8334Z" fill="url(#paint38_linear)"/>
<path d="M31.2258 94.1557C32.3529 94.1557 33.2667 93.245 33.2667 92.1216C33.2667 90.9981 32.3529 90.0874 31.2258 90.0874C30.0986 90.0874 29.1849 90.9981 29.1849 92.1216C29.1849 93.245 30.0986 94.1557 31.2258 94.1557Z" fill="url(#paint39_linear)"/>
<path d="M29.7972 102.827C30.5862 102.827 31.2258 102.189 31.2258 101.403C31.2258 100.617 30.5862 99.979 29.7972 99.979C29.0082 99.979 28.3685 100.617 28.3685 101.403C28.3685 102.189 29.0082 102.827 29.7972 102.827Z" fill="url(#paint40_linear)"/>
<path d="M29.542 107.81C30.8524 107.81 31.9146 106.752 31.9146 105.446C31.9146 104.14 30.8524 103.081 29.542 103.081C28.2317 103.081 27.1695 104.14 27.1695 105.446C27.1695 106.752 28.2317 107.81 29.542 107.81Z" fill="url(#paint41_linear)"/>
<path d="M36.022 82.8667C36.8673 82.8667 37.5526 82.1836 37.5526 81.341C37.5526 80.4985 36.8673 79.8154 36.022 79.8154C35.1766 79.8154 34.4913 80.4985 34.4913 81.341C34.4913 82.1836 35.1766 82.8667 36.022 82.8667Z" fill="url(#paint42_linear)"/>
<path d="M37.5782 90.1129C38.5363 90.1129 39.313 89.3387 39.313 88.3838C39.313 87.4289 38.5363 86.6548 37.5782 86.6548C36.6201 86.6548 35.8434 87.4289 35.8434 88.3838C35.8434 89.3387 36.6201 90.1129 37.5782 90.1129Z" fill="url(#paint43_linear)"/>
<path d="M36.0221 95.122C37.0506 95.122 37.8844 94.291 37.8844 93.2658C37.8844 92.2407 37.0506 91.4097 36.0221 91.4097C34.9935 91.4097 34.1597 92.2407 34.1597 93.2658C34.1597 94.291 34.9935 95.122 36.0221 95.122Z" fill="url(#paint44_linear)"/>
<path d="M44.4662 95.275C45.2412 95.275 45.8694 94.6489 45.8694 93.8765C45.8694 93.1042 45.2412 92.478 44.4662 92.478C43.6913 92.478 43.0631 93.1042 43.0631 93.8765C43.0631 94.6489 43.6913 95.275 44.4662 95.275Z" fill="url(#paint45_linear)"/>
<path d="M43.4712 100.92C44.2743 100.92 44.9254 100.271 44.9254 99.4708C44.9254 98.6704 44.2743 98.0215 43.4712 98.0215C42.6681 98.0215 42.0171 98.6704 42.0171 99.4708C42.0171 100.271 42.6681 100.92 43.4712 100.92Z" fill="url(#paint46_linear)"/>
<path d="M49.7725 109.285C50.956 109.285 51.9154 108.329 51.9154 107.149C51.9154 105.969 50.956 105.013 49.7725 105.013C48.5889 105.013 47.6295 105.969 47.6295 107.149C47.6295 108.329 48.5889 109.285 49.7725 109.285Z" fill="url(#paint47_linear)"/>
<path d="M55.0533 116.151C55.955 116.151 56.686 115.422 56.686 114.523C56.686 113.625 55.955 112.896 55.0533 112.896C54.1516 112.896 53.4206 113.625 53.4206 114.523C53.4206 115.422 54.1516 116.151 55.0533 116.151Z" fill="url(#paint48_linear)"/>
<path d="M62.2474 121.999C63.0646 121.999 63.7271 121.339 63.7271 120.524C63.7271 119.71 63.0646 119.049 62.2474 119.049C61.4302 119.049 60.7678 119.71 60.7678 120.524C60.7678 121.339 61.4302 121.999 62.2474 121.999Z" fill="url(#paint49_linear)"/>
<path d="M58.3699 119.812C59.187 119.812 59.8495 119.152 59.8495 118.337C59.8495 117.523 59.187 116.862 58.3699 116.862C57.5527 116.862 56.8902 117.523 56.8902 118.337C56.8902 119.152 57.5527 119.812 58.3699 119.812Z" fill="url(#paint50_linear)"/>
<path d="M67.6306 129.423C68.5323 129.423 69.2633 128.695 69.2633 127.796C69.2633 126.897 68.5323 126.168 67.6306 126.168C66.7289 126.168 65.9979 126.897 65.9979 127.796C65.9979 128.695 66.7289 129.423 67.6306 129.423Z" fill="url(#paint51_linear)"/>
<path d="M69.6203 136.594C70.5221 136.594 71.2531 135.865 71.2531 134.966C71.2531 134.067 70.5221 133.339 69.6203 133.339C68.7186 133.339 67.9876 134.067 67.9876 134.966C67.9876 135.865 68.7186 136.594 69.6203 136.594Z" fill="url(#paint52_linear)"/>
<path d="M50.895 95.2753C52.0081 95.2753 52.9104 94.3759 52.9104 93.2665C52.9104 92.1571 52.0081 91.2578 50.895 91.2578C49.782 91.2578 48.8796 92.1571 48.8796 93.2665C48.8796 94.3759 49.782 95.2753 50.895 95.2753Z" fill="url(#paint53_linear)"/>
<path d="M57.3238 96.3941C58.1833 96.3941 58.88 95.6997 58.88 94.843C58.88 93.9864 58.1833 93.292 57.3238 93.292C56.4644 93.292 55.7676 93.9864 55.7676 94.843C55.7676 95.6997 56.4644 96.3941 57.3238 96.3941Z" fill="url(#paint54_linear)"/>
<path d="M56.9925 103.437C58.4296 103.437 59.5946 102.276 59.5946 100.844C59.5946 99.4112 58.4296 98.25 56.9925 98.25C55.5553 98.25 54.3903 99.4112 54.3903 100.844C54.3903 102.276 55.5553 103.437 56.9925 103.437Z" fill="url(#paint55_linear)"/>
<path d="M61.9924 103.717C63.2182 103.717 64.2119 102.726 64.2119 101.505C64.2119 100.283 63.2182 99.2925 61.9924 99.2925C60.7666 99.2925 59.7729 100.283 59.7729 101.505C59.7729 102.726 60.7666 103.717 61.9924 103.717Z" fill="url(#paint56_linear)"/>
<path d="M57.5281 107.786C58.458 107.786 59.2119 107.034 59.2119 106.107C59.2119 105.181 58.458 104.429 57.5281 104.429C56.5982 104.429 55.8444 105.181 55.8444 106.107C55.8444 107.034 56.5982 107.786 57.5281 107.786Z" fill="url(#paint57_linear)"/>
<path d="M70.2581 109.463C71.6389 109.463 72.7582 108.348 72.7582 106.971C72.7582 105.595 71.6389 104.479 70.2581 104.479C68.8773 104.479 67.758 105.595 67.758 106.971C67.758 108.348 68.8773 109.463 70.2581 109.463Z" fill="url(#paint58_linear)"/>
<path d="M61.6864 115.82C62.5459 115.82 63.2426 115.125 63.2426 114.269C63.2426 113.412 62.5459 112.718 61.6864 112.718C60.827 112.718 60.1303 113.412 60.1303 114.269C60.1303 115.125 60.827 115.82 61.6864 115.82Z" fill="url(#paint59_linear)"/>
<path d="M70.6665 114.04C71.4414 114.04 72.0696 113.414 72.0696 112.641C72.0696 111.869 71.4414 111.243 70.6665 111.243C69.8916 111.243 69.2634 111.869 69.2634 112.641C69.2634 113.414 69.8916 114.04 70.6665 114.04Z" fill="url(#paint60_linear)"/>
<path d="M75.6412 116.837C76.402 116.837 77.0188 116.223 77.0188 115.464C77.0188 114.706 76.402 114.091 75.6412 114.091C74.8803 114.091 74.2635 114.706 74.2635 115.464C74.2635 116.223 74.8803 116.837 75.6412 116.837Z" fill="url(#paint61_linear)"/>
<path d="M82.1463 106.793C82.9072 106.793 83.524 106.178 83.524 105.42C83.524 104.662 82.9072 104.047 82.1463 104.047C81.3855 104.047 80.7687 104.662 80.7687 105.42C80.7687 106.178 81.3855 106.793 82.1463 106.793Z" fill="url(#paint62_linear)"/>
<path d="M71.0235 121.007C71.9816 121.007 72.7582 120.233 72.7582 119.278C72.7582 118.323 71.9816 117.549 71.0235 117.549C70.0654 117.549 69.2887 118.323 69.2887 119.278C69.2887 120.233 70.0654 121.007 71.0235 121.007Z" fill="url(#paint63_linear)"/>
<path d="M77.7586 122.609C78.5053 122.609 79.1107 122.005 79.1107 121.261C79.1107 120.517 78.5053 119.914 77.7586 119.914C77.0118 119.914 76.4065 120.517 76.4065 121.261C76.4065 122.005 77.0118 122.609 77.7586 122.609Z" fill="url(#paint64_linear)"/>
<path d="M82.6313 122.431C83.8994 122.431 84.9274 121.407 84.9274 120.143C84.9274 118.879 83.8994 117.854 82.6313 117.854C81.3633 117.854 80.3353 118.879 80.3353 120.143C80.3353 121.407 81.3633 122.431 82.6313 122.431Z" fill="url(#paint65_linear)"/>
<path d="M75.8962 127.644C77.1642 127.644 78.1922 126.619 78.1922 125.355C78.1922 124.091 77.1642 123.067 75.8962 123.067C74.6281 123.067 73.6002 124.091 73.6002 125.355C73.6002 126.619 74.6281 127.644 75.8962 127.644Z" fill="url(#paint66_linear)"/>
<path d="M89.1366 127.821C89.9116 127.821 90.5398 127.195 90.5398 126.423C90.5398 125.651 89.9116 125.024 89.1366 125.024C88.3617 125.024 87.7335 125.651 87.7335 126.423C87.7335 127.195 88.3617 127.821 89.1366 127.821Z" fill="url(#paint67_linear)"/>
<path d="M38.6241 103.59C39.6245 103.59 40.4354 102.781 40.4354 101.784C40.4354 100.787 39.6245 99.979 38.6241 99.979C37.6238 99.979 36.8128 100.787 36.8128 101.784C36.8128 102.781 37.6238 103.59 38.6241 103.59Z" fill="url(#paint68_linear)"/>
<path d="M43.3438 76.7892C44.1187 76.7892 44.7469 76.163 44.7469 75.3907C44.7469 74.6183 44.1187 73.9922 43.3438 73.9922C42.5689 73.9922 41.9407 74.6183 41.9407 75.3907C41.9407 76.163 42.5689 76.7892 43.3438 76.7892Z" fill="url(#paint69_linear)"/>
<path d="M48.9052 70.382C49.8774 70.382 50.6655 69.5965 50.6655 68.6275C50.6655 67.6585 49.8774 66.873 48.9052 66.873C47.9331 66.873 47.145 67.6585 47.145 68.6275C47.145 69.5965 47.9331 70.382 48.9052 70.382Z" fill="url(#paint70_linear)"/>
<path d="M57.0179 64.2538C58.0464 64.2538 58.8802 63.4228 58.8802 62.3977C58.8802 61.3725 58.0464 60.5415 57.0179 60.5415C55.9894 60.5415 55.1556 61.3725 55.1556 62.3977C55.1556 63.4228 55.9894 64.2538 57.0179 64.2538Z" fill="url(#paint71_linear)"/>
<path d="M63.0638 57.363C64.3318 57.363 65.3598 56.3384 65.3598 55.0746C65.3598 53.8107 64.3318 52.7861 63.0638 52.7861C61.7957 52.7861 60.7678 53.8107 60.7678 55.0746C60.7678 56.3384 61.7957 57.363 63.0638 57.363Z" fill="url(#paint72_linear)"/>
<path d="M71.3552 49.6078C72.6655 49.6078 73.7278 48.5491 73.7278 47.2431C73.7278 45.9371 72.6655 44.8784 71.3552 44.8784C70.0449 44.8784 68.9827 45.9371 68.9827 47.2431C68.9827 48.5491 70.0449 49.6078 71.3552 49.6078Z" fill="url(#paint73_linear)"/>
<path d="M77.4014 45.1585C78.599 45.1585 79.5698 44.1909 79.5698 42.9972C79.5698 41.8036 78.599 40.8359 77.4014 40.8359C76.2038 40.8359 75.2329 41.8036 75.2329 42.9972C75.2329 44.1909 76.2038 45.1585 77.4014 45.1585Z" fill="url(#paint74_linear)"/>
<path d="M32.2719 82.2817C33.1173 82.2817 33.8026 81.5987 33.8026 80.7561C33.8026 79.9135 33.1173 79.2305 32.2719 79.2305C31.4265 79.2305 30.7412 79.9135 30.7412 80.7561C30.7412 81.5987 31.4265 82.2817 32.2719 82.2817Z" fill="url(#paint75_linear)"/>
<path d="M37.5781 76.9422C38.7757 76.9422 39.7466 75.9746 39.7466 74.7809C39.7466 73.5873 38.7757 72.6196 37.5781 72.6196C36.3805 72.6196 35.4097 73.5873 35.4097 74.7809C35.4097 75.9746 36.3805 76.9422 37.5781 76.9422Z" fill="url(#paint76_linear)"/>
<path d="M42.1448 70.2294C43.5396 70.2294 44.6704 69.1023 44.6704 67.7121C44.6704 66.3218 43.5396 65.1948 42.1448 65.1948C40.7499 65.1948 39.6191 66.3218 39.6191 67.7121C39.6191 69.1023 40.7499 70.2294 42.1448 70.2294Z" fill="url(#paint77_linear)"/>
<path d="M51.839 62.4995C53.1634 62.4995 54.237 61.4294 54.237 60.1094C54.237 58.7893 53.1634 57.7192 51.839 57.7192C50.5146 57.7192 49.4409 58.7893 49.4409 60.1094C49.4409 61.4294 50.5146 62.4995 51.839 62.4995Z" fill="url(#paint78_linear)"/>
<path d="M57.0177 55.8635C57.8068 55.8635 58.4464 55.2259 58.4464 54.4395C58.4464 53.6531 57.8068 53.0156 57.0177 53.0156C56.2287 53.0156 55.5891 53.6531 55.5891 54.4395C55.5891 55.2259 56.2287 55.8635 57.0177 55.8635Z" fill="url(#paint79_linear)"/>
<path d="M62.6814 50.9807C63.5832 50.9807 64.3142 50.2522 64.3142 49.3534C64.3142 48.4547 63.5832 47.7261 62.6814 47.7261C61.7797 47.7261 61.0487 48.4547 61.0487 49.3534C61.0487 50.2522 61.7797 50.9807 62.6814 50.9807Z" fill="url(#paint80_linear)"/>
<path d="M69.6459 43.1495C70.5054 43.1495 71.2021 42.455 71.2021 41.5984C71.2021 40.7418 70.5054 40.0474 69.6459 40.0474C68.7865 40.0474 68.0897 40.7418 68.0897 41.5984C68.0897 42.455 68.7865 43.1495 69.6459 43.1495Z" fill="url(#paint81_linear)"/>
<path d="M44.6958 90.3677C46.1189 90.3677 47.2725 89.2179 47.2725 87.7996C47.2725 86.3812 46.1189 85.2314 44.6958 85.2314C43.2728 85.2314 42.1192 86.3812 42.1192 87.7996C42.1192 89.2179 43.2728 90.3677 44.6958 90.3677Z" fill="url(#paint82_linear)"/>
<path d="M48.446 82.9678C49.4041 82.9678 50.1808 82.1937 50.1808 81.2388C50.1808 80.2839 49.4041 79.5098 48.446 79.5098C47.4879 79.5098 46.7112 80.2839 46.7112 81.2388C46.7112 82.1937 47.4879 82.9678 48.446 82.9678Z" fill="url(#paint83_linear)"/>
<path d="M49.6706 87.5961C50.6851 87.5961 51.5074 86.7764 51.5074 85.7653C51.5074 84.7542 50.6851 83.9346 49.6706 83.9346C48.6562 83.9346 47.8338 84.7542 47.8338 85.7653C47.8338 86.7764 48.6562 87.5961 49.6706 87.5961Z" fill="url(#paint84_linear)"/>
<path d="M56.0483 74.196C57.1332 74.196 58.0127 73.3195 58.0127 72.2382C58.0127 71.1568 57.1332 70.2803 56.0483 70.2803C54.9634 70.2803 54.0839 71.1568 54.0839 72.2382C54.0839 73.3195 54.9634 74.196 56.0483 74.196Z" fill="url(#paint85_linear)"/>
<path d="M64.2884 69.2125C65.3451 69.2125 66.2018 68.3587 66.2018 67.3055C66.2018 66.2522 65.3451 65.3984 64.2884 65.3984C63.2317 65.3984 62.3751 66.2522 62.3751 67.3055C62.3751 68.3587 63.2317 69.2125 64.2884 69.2125Z" fill="url(#paint86_linear)"/>
<path d="M75.3604 69.5177C76.4171 69.5177 77.2737 68.6639 77.2737 67.6106C77.2737 66.5574 76.4171 65.7036 75.3604 65.7036C74.3037 65.7036 73.447 66.5574 73.447 67.6106C73.447 68.6639 74.3037 69.5177 75.3604 69.5177Z" fill="url(#paint87_linear)"/>
<path d="M69.0082 63.3894C70.2904 63.3894 71.3298 62.3535 71.3298 61.0756C71.3298 59.7977 70.2904 58.7617 69.0082 58.7617C67.7261 58.7617 66.6867 59.7977 66.6867 61.0756C66.6867 62.3535 67.7261 63.3894 69.0082 63.3894Z" fill="url(#paint88_linear)"/>
<path d="M76.3809 58.3549C77.4095 58.3549 78.2433 57.5239 78.2433 56.4988C78.2433 55.4736 77.4095 54.6426 76.3809 54.6426C75.3524 54.6426 74.5186 55.4736 74.5186 56.4988C74.5186 57.5239 75.3524 58.3549 76.3809 58.3549Z" fill="url(#paint89_linear)"/>
<path d="M88.167 43.8615C89.5196 43.8615 90.6161 42.7686 90.6161 41.4205C90.6161 40.0724 89.5196 38.9795 88.167 38.9795C86.8145 38.9795 85.718 40.0724 85.718 41.4205C85.718 42.7686 86.8145 43.8615 88.167 43.8615Z" fill="url(#paint90_linear)"/>
<path d="M49.543 75.2388C50.4025 75.2388 51.0992 74.5444 51.0992 73.6878C51.0992 72.8311 50.4025 72.1367 49.543 72.1367C48.6835 72.1367 47.9868 72.8311 47.9868 73.6878C47.9868 74.5444 48.6835 75.2388 49.543 75.2388Z" fill="url(#paint91_linear)"/>
<path d="M55.9463 69.8479C56.848 69.8479 57.579 69.1193 57.579 68.2206C57.579 67.3218 56.848 66.5933 55.9463 66.5933C55.0445 66.5933 54.3135 67.3218 54.3135 68.2206C54.3135 69.1193 55.0445 69.8479 55.9463 69.8479Z" fill="url(#paint92_linear)"/>
<path d="M65.2578 60.923C66.0468 60.923 66.6864 60.2855 66.6864 59.4991C66.6864 58.7127 66.0468 58.0752 65.2578 58.0752C64.4688 58.0752 63.8292 58.7127 63.8292 59.4991C63.8292 60.2855 64.4688 60.923 65.2578 60.923Z" fill="url(#paint93_linear)"/>
<path d="M69.0081 54.7188C69.7689 54.7188 70.3857 54.104 70.3857 53.3457C70.3857 52.5874 69.7689 51.9727 69.0081 51.9727C68.2473 51.9727 67.6305 52.5874 67.6305 53.3457C67.6305 54.104 68.2473 54.7188 69.0081 54.7188Z" fill="url(#paint94_linear)"/>
<path d="M76.4319 50.8034C77.3195 50.8034 78.0391 50.0862 78.0391 49.2015C78.0391 48.3168 77.3195 47.5996 76.4319 47.5996C75.5442 47.5996 74.8246 48.3168 74.8246 49.2015C74.8246 50.0862 75.5442 50.8034 76.4319 50.8034Z" fill="url(#paint95_linear)"/>
<path d="M83.9834 42.8698C85.0542 42.8698 85.9222 42.0046 85.9222 40.9373C85.9222 39.8701 85.0542 39.0049 83.9834 39.0049C82.9126 39.0049 82.0445 39.8701 82.0445 40.9373C82.0445 42.0046 82.9126 42.8698 83.9834 42.8698Z" fill="url(#paint96_linear)"/>
<path d="M15.9701 95.1988C16.8436 95.1988 17.5518 94.493 17.5518 93.6224C17.5518 92.7517 16.8436 92.0459 15.9701 92.0459C15.0965 92.0459 14.3884 92.7517 14.3884 93.6224C14.3884 94.493 15.0965 95.1988 15.9701 95.1988Z" fill="url(#paint97_linear)"/>
<path d="M10.4852 96.4956C11.6124 96.4956 12.5261 95.5848 12.5261 94.4614C12.5261 93.338 11.6124 92.4272 10.4852 92.4272C9.35808 92.4272 8.44434 93.338 8.44434 94.4614C8.44434 95.5848 9.35808 96.4956 10.4852 96.4956Z" fill="url(#paint98_linear)"/>
<path d="M23.6745 96.8004C24.8298 96.8004 25.7664 95.8669 25.7664 94.7154C25.7664 93.5639 24.8298 92.6304 23.6745 92.6304C22.5192 92.6304 21.5826 93.5639 21.5826 94.7154C21.5826 95.8669 22.5192 96.8004 23.6745 96.8004Z" fill="url(#paint99_linear)"/>
<path d="M17.2201 101.683C17.9951 101.683 18.6233 101.057 18.6233 100.284C18.6233 99.5119 17.9951 98.8857 17.2201 98.8857C16.4452 98.8857 15.817 99.5119 15.817 100.284C15.817 101.057 16.4452 101.683 17.2201 101.683Z" fill="url(#paint100_linear)"/>
<path d="M1.40312 101.123C2.17805 101.123 2.80624 100.497 2.80624 99.7247C2.80624 98.9523 2.17805 98.3262 1.40312 98.3262C0.628199 98.3262 0 98.9523 0 99.7247C0 100.497 0.628199 101.123 1.40312 101.123Z" fill="url(#paint101_linear)"/>
<path d="M10.6892 102.598C11.6473 102.598 12.424 101.824 12.424 100.869C12.424 99.9138 11.6473 99.1396 10.6892 99.1396C9.73115 99.1396 8.95447 99.9138 8.95447 100.869C8.95447 101.824 9.73115 102.598 10.6892 102.598Z" fill="url(#paint102_linear)"/>
<path d="M24.4398 102.598C25.5529 102.598 26.4552 101.698 26.4552 100.589C26.4552 99.4794 25.5529 98.5801 24.4398 98.5801C23.3268 98.5801 22.4244 99.4794 22.4244 100.589C22.4244 101.698 23.3268 102.598 24.4398 102.598Z" fill="url(#paint103_linear)"/>
<path d="M17.0925 107.48C17.8393 107.48 18.4446 106.877 18.4446 106.132C18.4446 105.388 17.8393 104.785 17.0925 104.785C16.3458 104.785 15.7404 105.388 15.7404 106.132C15.7404 106.877 16.3458 107.48 17.0925 107.48Z" fill="url(#paint104_linear)"/>
<path d="M9.64334 107.963C10.5592 107.963 11.3016 107.223 11.3016 106.31C11.3016 105.398 10.5592 104.658 9.64334 104.658C8.72753 104.658 7.98511 105.398 7.98511 106.31C7.98511 107.223 8.72753 107.963 9.64334 107.963Z" fill="url(#paint105_linear)"/>
<path d="M23.9042 108.598C24.82 108.598 25.5624 107.859 25.5624 106.946C25.5624 106.033 24.82 105.293 23.9042 105.293C22.9884 105.293 22.246 106.033 22.246 106.946C22.246 107.859 22.9884 108.598 23.9042 108.598Z" fill="url(#paint106_linear)"/>
<path d="M12.0413 113.277C13.1403 113.277 14.0312 112.389 14.0312 111.294C14.0312 110.199 13.1403 109.311 12.0413 109.311C10.9424 109.311 10.0515 110.199 10.0515 111.294C10.0515 112.389 10.9424 113.277 12.0413 113.277Z" fill="url(#paint107_linear)"/>
<path d="M22.8326 114.472C23.7062 114.472 24.4143 113.766 24.4143 112.896C24.4143 112.025 23.7062 111.319 22.8326 111.319C21.9591 111.319 21.2509 112.025 21.2509 112.896C21.2509 113.766 21.9591 114.472 22.8326 114.472Z" fill="url(#paint108_linear)"/>
<path d="M19.0825 119.431C19.8574 119.431 20.4856 118.805 20.4856 118.032C20.4856 117.26 19.8574 116.634 19.0825 116.634C18.3076 116.634 17.6794 117.26 17.6794 118.032C17.6794 118.805 18.3076 119.431 19.0825 119.431Z" fill="url(#paint109_linear)"/>
<path d="M4.66863 120.041C5.44355 120.041 6.07175 119.414 6.07175 118.642C6.07175 117.87 5.44355 117.244 4.66863 117.244C3.8937 117.244 3.2655 117.87 3.2655 118.642C3.2655 119.414 3.8937 120.041 4.66863 120.041Z" fill="url(#paint110_linear)"/>
<path d="M10.7657 120.651C11.921 120.651 12.8576 119.717 12.8576 118.566C12.8576 117.414 11.921 116.481 10.7657 116.481C9.61035 116.481 8.67377 117.414 8.67377 118.566C8.67377 119.717 9.61035 120.651 10.7657 120.651Z" fill="url(#paint111_linear)"/>
<path d="M22.7306 120.956C23.7591 120.956 24.5929 120.125 24.5929 119.1C24.5929 118.075 23.7591 117.244 22.7306 117.244C21.7021 117.244 20.8683 118.075 20.8683 119.1C20.8683 120.125 21.7021 120.956 22.7306 120.956Z" fill="url(#paint112_linear)"/>
<path d="M17.6029 128.076C18.73 128.076 19.6438 127.165 19.6438 126.041C19.6438 124.918 18.73 124.007 17.6029 124.007C16.4757 124.007 15.562 124.918 15.562 126.041C15.562 127.165 16.4757 128.076 17.6029 128.076Z" fill="url(#paint113_linear)"/>
<path d="M9.975 129.754C10.9472 129.754 11.7353 128.969 11.7353 128C11.7353 127.031 10.9472 126.245 9.975 126.245C9.00283 126.245 8.21472 127.031 8.21472 128C8.21472 128.969 9.00283 129.754 9.975 129.754Z" fill="url(#paint114_linear)"/>
<path d="M24.8481 128.177C25.6793 128.177 26.3532 127.505 26.3532 126.677C26.3532 125.848 25.6793 125.177 24.8481 125.177C24.0168 125.177 23.3429 125.848 23.3429 126.677C23.3429 127.505 24.0168 128.177 24.8481 128.177Z" fill="url(#paint115_linear)"/>
<path d="M24.1083 137.255C24.9395 137.255 25.6134 136.583 25.6134 135.755C25.6134 134.926 24.9395 134.254 24.1083 134.254C23.277 134.254 22.6031 134.926 22.6031 135.755C22.6031 136.583 23.277 137.255 24.1083 137.255Z" fill="url(#paint116_linear)"/>
<path d="M253.441 79.6078C252.958 78.6928 252.474 78.2353 251.99 77.7777C251.506 77.3202 250.539 76.8627 250.055 76.4052C249.087 75.9477 248.604 75.9477 247.636 75.4902C246.669 75.0326 246.185 75.0327 245.217 74.5751C244.25 74.1176 243.766 74.1176 243.282 73.6601C242.798 73.2026 242.315 73.2026 241.831 72.7451C240.863 72.2875 240.863 71.83 240.863 71.3725C240.863 70.915 240.863 70.4575 241.347 70C241.347 69.5425 241.831 69.0849 242.315 69.0849C242.798 68.6274 243.282 68.6274 243.766 68.1699C244.25 68.1699 245.217 67.7124 245.701 67.7124C246.668 67.7124 247.152 67.7124 248.12 68.1699C248.604 68.1699 249.571 68.6274 250.055 68.6274C250.539 68.6274 251.022 69.0849 251.022 69.0849C251.506 69.0849 251.99 70 251.99 70L253.925 67.2549C252.958 66.3398 251.506 65.4248 250.539 64.9673C249.087 64.5098 247.636 64.0522 245.701 64.0522C244.25 64.0522 242.798 64.0522 241.831 64.5098C240.863 64.9673 239.896 65.4248 238.928 65.8823C237.961 66.3398 237.477 67.2549 236.993 68.1699C236.509 69.5424 236.025 70.4575 236.025 71.83C236.025 72.7451 236.025 73.6601 236.509 74.5751C236.993 75.4902 237.477 75.9477 237.961 76.4052C238.444 76.8627 239.412 77.3202 240.379 77.7777C241.347 78.2353 241.831 78.2353 242.798 78.6928C243.766 79.1503 244.25 79.1503 245.217 79.6078C246.185 80.0653 246.669 80.0653 247.636 80.5229C248.12 80.9804 248.604 81.4379 249.087 81.8954C249.571 82.3529 249.571 82.8104 249.571 83.7255C249.571 84.183 249.571 84.6405 249.087 85.098C248.604 85.5555 248.604 86.013 248.12 86.4706C247.636 86.9281 247.152 86.9281 246.669 87.3856C246.185 87.3856 245.217 87.8431 244.25 87.8431C243.282 87.8431 242.315 87.8431 241.831 87.3856C241.347 87.3856 240.379 86.9281 239.896 86.4706C239.412 86.013 238.928 86.013 238.444 85.5555C237.961 85.5555 236.993 84.183 236.993 84.183L235.058 87.3856C236.025 88.3006 237.477 89.2157 238.928 89.6732C240.379 90.1307 241.831 90.5882 243.766 90.5882C245.217 90.5882 246.668 90.5882 248.12 90.1307C249.571 89.6732 250.539 89.2157 251.022 88.3006C251.99 87.3856 252.474 86.9281 252.958 85.5555C253.441 84.183 253.441 83.7255 253.441 82.3529C254.409 80.9804 253.925 80.0653 253.441 79.6078Z" fill="#A03CFA"/>
<path d="M225.866 67.7124C224.899 66.7974 223.448 65.8823 221.996 64.9673C220.545 64.5098 218.61 64.0522 216.675 64.0522C214.74 64.0522 212.805 64.5098 211.353 64.9673C209.902 65.4248 208.451 66.3398 207.483 67.7124C206.515 68.6274 205.548 70 205.064 71.83C204.58 73.2026 204.097 75.0326 204.097 77.3202C204.097 79.1503 204.58 80.9804 205.064 82.8104C205.548 84.183 206.515 85.5555 207.483 86.9281C208.451 87.8431 209.902 88.7582 211.353 89.6732C212.805 90.1307 214.74 90.5882 216.675 90.5882C218.61 90.5882 220.545 90.1307 221.996 89.6732C223.448 89.2157 224.899 88.3006 225.866 86.9281C226.834 86.013 227.802 84.6405 228.285 82.8104C228.769 81.4379 229.253 79.6078 229.253 77.3202C229.253 75.4902 228.769 73.6601 228.285 71.83C227.802 70.4575 226.834 69.0849 225.866 67.7124ZM222.48 84.183C221.029 86.013 219.094 86.4706 216.675 86.4706C214.256 86.4706 212.321 85.5555 210.869 84.183C209.418 82.3529 208.934 80.0653 208.934 77.3202C208.934 75.9477 208.934 74.5751 209.418 73.2026C209.902 71.83 210.386 70.915 210.869 70.4575C211.353 69.5424 212.321 69.0849 213.288 68.6274C214.256 68.1699 215.223 68.1699 216.675 68.1699C219.094 68.1699 221.029 69.0849 222.48 70.4575C223.931 72.2875 224.415 74.5751 224.415 77.3202C224.415 80.0653 223.448 82.3529 222.48 84.183Z" fill="#A03CFA"/>
<path d="M193.453 67.2544C192.485 66.3393 192.002 65.8818 190.55 65.4243C189.583 64.9668 188.131 64.9668 186.68 64.9668H186.196H173.618V65.4243V68.6269V90.1302H178.456V72.2871V68.6269H185.229H185.712C187.164 68.6269 188.615 69.0845 189.583 69.9995C190.55 70.9145 191.034 72.2871 191.034 74.5747V90.1302H195.872V74.5747C195.872 73.2021 195.872 71.8295 195.388 70.9145C194.904 69.0844 194.42 68.1694 193.453 67.2544Z" fill="#A03CFA"/>
<path d="M162.492 67.7124C161.524 66.7974 160.073 65.8823 158.621 64.9673C157.17 64.5098 155.235 64.0522 153.3 64.0522C151.365 64.0522 149.43 64.5098 147.978 64.9673C146.527 65.4248 145.076 66.3398 144.108 67.7124C143.141 68.6274 142.173 70 141.689 71.83C141.205 73.2026 140.722 75.0326 140.722 77.3202C140.722 79.1503 141.205 80.9804 141.689 82.8104C142.173 84.183 143.141 85.5555 144.108 86.9281C145.076 87.8431 146.527 88.7582 147.978 89.6732C149.43 90.1307 151.365 90.5882 153.3 90.5882C155.235 90.5882 157.17 90.1307 158.621 89.6732C160.073 89.2157 161.524 88.3006 162.492 86.9281C163.459 86.013 164.427 84.6405 164.911 82.8104C165.394 81.4379 165.878 79.6078 165.878 77.3202C165.878 75.4902 165.394 73.6601 164.911 71.83C164.427 70.4575 163.459 69.0849 162.492 67.7124ZM159.105 84.183C157.654 86.013 155.719 86.4706 153.3 86.4706C150.881 86.4706 148.946 85.5555 147.495 84.183C146.043 82.3529 145.559 80.0653 145.559 77.3202C145.559 75.9477 145.559 74.5751 146.043 73.2026C146.527 71.83 147.011 70.915 147.495 70.4575C147.978 69.5424 148.946 69.0849 149.913 68.6274C150.881 68.1699 151.849 68.1699 153.3 68.1699C155.719 68.1699 157.654 69.0849 159.105 70.4575C160.557 72.2875 161.04 74.5751 161.04 77.3202C161.04 80.0653 160.073 82.3529 159.105 84.183Z" fill="#A03CFA"/>
<path d="M128.627 64.9672L115.565 78.6927V56.2744L111.211 59.9346V80.5228V89.6731H115.565V84.6404L120.886 79.1502L131.046 89.6731H136.851L123.789 75.9476L134.916 64.9672H128.627Z" fill="#A03CFA"/>
<defs>
<linearGradient id="paint0_linear" x1="-30.5963" y1="28.0101" x2="43.8191" y2="-4.20719" gradientUnits="userSpaceOnUse">
<stop offset="0.05" stop-color="#1EC8E6"/>
<stop offset="0.4" stop-color="#554BFA"/>
<stop offset="0.6" stop-color="#A03CFA"/>
<stop offset="0.95" stop-color="#FA2DAF"/>
</linearGradient>
<linearGradient id="paint1_linear" x1="-30.4268" y1="28.4015" x2="43.9886" y2="-3.81574" gradientUnits="userSpaceOnUse">
<stop offset="0.05" stop-color="#1EC8E6"/>
<stop offset="0.4" stop-color="#554BFA"/>
<stop offset="0.6" stop-color="#A03CFA"/>
<stop offset="0.95" stop-color="#FA2DAF"/>
</linearGradient>
<linearGradient id="paint2_linear" x1="-28.9355" y1="31.8462" x2="45.4799" y2="-0.371048" gradientUnits="userSpaceOnUse">
<stop offset="0.05" stop-color="#1EC8E6"/>
<stop offset="0.4" stop-color="#554BFA"/>
<stop offset="0.6" stop-color="#A03CFA"/>
<stop offset="0.95" stop-color="#FA2DAF"/>
</linearGradient>
<linearGradient id="paint3_linear" x1="-29.004" y1="31.6876" x2="45.4115" y2="-0.529654" gradientUnits="userSpaceOnUse">
<stop offset="0.05" stop-color="#1EC8E6"/>
<stop offset="0.4" stop-color="#554BFA"/>
<stop offset="0.6" stop-color="#A03CFA"/>
<stop offset="0.95" stop-color="#FA2DAF"/>
</linearGradient>
<linearGradient id="paint4_linear" x1="-29.3045" y1="30.9937" x2="45.1109" y2="-1.22353" gradientUnits="userSpaceOnUse">
<stop offset="0.05" stop-color="#1EC8E6"/>
<stop offset="0.4" stop-color="#554BFA"/>
<stop offset="0.6" stop-color="#A03CFA"/>
<stop offset="0.95" stop-color="#FA2DAF"/>
</linearGradient>
<linearGradient id="paint5_linear" x1="-26.5717" y1="37.3057" x2="47.8437" y2="5.08842" gradientUnits="userSpaceOnUse">
<stop offset="0.05" stop-color="#1EC8E6"/>
<stop offset="0.4" stop-color="#554BFA"/>
<stop offset="0.6" stop-color="#A03CFA"/>
<stop offset="0.95" stop-color="#FA2DAF"/>
</linearGradient>
<linearGradient id="paint6_linear" x1="-31.7505" y1="25.344" x2="42.665" y2="-6.87324" gradientUnits="userSpaceOnUse">
<stop offset="0.05" stop-color="#1EC8E6"/>
<stop offset="0.4" stop-color="#554BFA"/>
<stop offset="0.6" stop-color="#A03CFA"/>
<stop offset="0.95" stop-color="#FA2DAF"/>
</linearGradient>
<linearGradient id="paint7_linear" x1="-25.7386" y1="39.2303" x2="48.6769" y2="7.01304" gradientUnits="userSpaceOnUse">
<stop offset="0.05" stop-color="#1EC8E6"/>
<stop offset="0.4" stop-color="#554BFA"/>
<stop offset="0.6" stop-color="#A03CFA"/>
<stop offset="0.95" stop-color="#FA2DAF"/>
</linearGradient>
<linearGradient id="paint8_linear" x1="-25.6805" y1="39.3644" x2="48.7349" y2="7.14717" gradientUnits="userSpaceOnUse">
<stop offset="0.05" stop-color="#1EC8E6"/>
<stop offset="0.4" stop-color="#554BFA"/>
<stop offset="0.6" stop-color="#A03CFA"/>
<stop offset="0.95" stop-color="#FA2DAF"/>
</linearGradient>
<linearGradient id="paint9_linear" x1="-24.0523" y1="43.1252" x2="50.3631" y2="10.9079" gradientUnits="userSpaceOnUse">
<stop offset="0.05" stop-color="#1EC8E6"/>
<stop offset="0.4" stop-color="#554BFA"/>
<stop offset="0.6" stop-color="#A03CFA"/>
<stop offset="0.95" stop-color="#FA2DAF"/>
</linearGradient>
<linearGradient id="paint10_linear" x1="-23.4582" y1="44.4975" x2="50.9572" y2="12.2802" gradientUnits="userSpaceOnUse">
<stop offset="0.05" stop-color="#1EC8E6"/>
<stop offset="0.4" stop-color="#554BFA"/>
<stop offset="0.6" stop-color="#A03CFA"/>
<stop offset="0.95" stop-color="#FA2DAF"/>
</linearGradient>
<linearGradient id="paint11_linear" x1="-23.655" y1="44.0427" x2="50.7605" y2="11.8254" gradientUnits="userSpaceOnUse">
<stop offset="0.05" stop-color="#1EC8E6"/>
<stop offset="0.4" stop-color="#554BFA"/>
<stop offset="0.6" stop-color="#A03CFA"/>
<stop offset="0.95" stop-color="#FA2DAF"/>
</linearGradient>
<linearGradient id="paint12_linear" x1="-22.227" y1="47.3412" x2="52.1885" y2="15.124" gradientUnits="userSpaceOnUse">
<stop offset="0.05" stop-color="#1EC8E6"/>
<stop offset="0.4" stop-color="#554BFA"/>
<stop offset="0.6" stop-color="#A03CFA"/>
<stop offset="0.95" stop-color="#FA2DAF"/>
</linearGradient>
<linearGradient id="paint13_linear" x1="-19.7418" y1="53.0814" x2="54.6737" y2="20.8642" gradientUnits="userSpaceOnUse">
<stop offset="0.05" stop-color="#1EC8E6"/>
<stop offset="0.4" stop-color="#554BFA"/>
<stop offset="0.6" stop-color="#A03CFA"/>
<stop offset="0.95" stop-color="#FA2DAF"/>
</linearGradient>
<linearGradient id="paint14_linear" x1="-20.6862" y1="50.9001" x2="53.7292" y2="18.6828" gradientUnits="userSpaceOnUse">
<stop offset="0.05" stop-color="#1EC8E6"/>
<stop offset="0.4" stop-color="#554BFA"/>
<stop offset="0.6" stop-color="#A03CFA"/>
<stop offset="0.95" stop-color="#FA2DAF"/>
</linearGradient>
<linearGradient id="paint15_linear" x1="-21.4991" y1="49.0226" x2="52.9163" y2="16.8053" gradientUnits="userSpaceOnUse">
<stop offset="0.05" stop-color="#1EC8E6"/>
<stop offset="0.4" stop-color="#554BFA"/>
<stop offset="0.6" stop-color="#A03CFA"/>
<stop offset="0.95" stop-color="#FA2DAF"/>
</linearGradient>
<linearGradient id="paint16_linear" x1="-22.6712" y1="46.3158" x2="51.7443" y2="14.0985" gradientUnits="userSpaceOnUse">
<stop offset="0.05" stop-color="#1EC8E6"/>
<stop offset="0.4" stop-color="#554BFA"/>
<stop offset="0.6" stop-color="#A03CFA"/>
<stop offset="0.95" stop-color="#FA2DAF"/>
</linearGradient>
<linearGradient id="paint17_linear" x1="-19.1064" y1="54.5496" x2="55.3091" y2="22.3323" gradientUnits="userSpaceOnUse">
<stop offset="0.05" stop-color="#1EC8E6"/>
<stop offset="0.4" stop-color="#554BFA"/>
<stop offset="0.6" stop-color="#A03CFA"/>
<stop offset="0.95" stop-color="#FA2DAF"/>
</linearGradient>
<linearGradient id="paint18_linear" x1="-17.8854" y1="57.3692" x2="56.53" y2="25.1519" gradientUnits="userSpaceOnUse">
<stop offset="0.05" stop-color="#1EC8E6"/>
<stop offset="0.4" stop-color="#554BFA"/>
<stop offset="0.6" stop-color="#A03CFA"/>
<stop offset="0.95" stop-color="#FA2DAF"/>
</linearGradient>
<linearGradient id="paint19_linear" x1="-17.1424" y1="59.0842" x2="57.273" y2="26.8669" gradientUnits="userSpaceOnUse">
<stop offset="0.05" stop-color="#1EC8E6"/>
<stop offset="0.4" stop-color="#554BFA"/>
<stop offset="0.6" stop-color="#A03CFA"/>
<stop offset="0.95" stop-color="#FA2DAF"/>
</linearGradient>
<linearGradient id="paint20_linear" x1="-16.3998" y1="60.801" x2="58.0157" y2="28.5838" gradientUnits="userSpaceOnUse">
<stop offset="0.05" stop-color="#1EC8E6"/>
<stop offset="0.4" stop-color="#554BFA"/>
<stop offset="0.6" stop-color="#A03CFA"/>
<stop offset="0.95" stop-color="#FA2DAF"/>
</linearGradient>
<linearGradient id="paint21_linear" x1="-16.6284" y1="60.2731" x2="57.787" y2="28.0558" gradientUnits="userSpaceOnUse">
<stop offset="0.05" stop-color="#1EC8E6"/>
<stop offset="0.4" stop-color="#554BFA"/>
<stop offset="0.6" stop-color="#A03CFA"/>
<stop offset="0.95" stop-color="#FA2DAF"/>
</linearGradient>
<linearGradient id="paint22_linear" x1="-13.2268" y1="68.1303" x2="61.1886" y2="35.9131" gradientUnits="userSpaceOnUse">
<stop offset="0.05" stop-color="#1EC8E6"/>
<stop offset="0.4" stop-color="#554BFA"/>
<stop offset="0.6" stop-color="#A03CFA"/>
<stop offset="0.95" stop-color="#FA2DAF"/>
</linearGradient>
<linearGradient id="paint23_linear" x1="-12.297" y1="70.2776" x2="62.1184" y2="38.0604" gradientUnits="userSpaceOnUse">
<stop offset="0.05" stop-color="#1EC8E6"/>
<stop offset="0.4" stop-color="#554BFA"/>
<stop offset="0.6" stop-color="#A03CFA"/>
<stop offset="0.95" stop-color="#FA2DAF"/>
</linearGradient>
<linearGradient id="paint24_linear" x1="-11.8146" y1="71.3918" x2="62.6008" y2="39.1745" gradientUnits="userSpaceOnUse">
<stop offset="0.05" stop-color="#1EC8E6"/>
<stop offset="0.4" stop-color="#554BFA"/>
<stop offset="0.6" stop-color="#A03CFA"/>
<stop offset="0.95" stop-color="#FA2DAF"/>
</linearGradient>
<linearGradient id="paint25_linear" x1="-12.3894" y1="70.0643" x2="62.0261" y2="37.847" gradientUnits="userSpaceOnUse">
<stop offset="0.05" stop-color="#1EC8E6"/>
<stop offset="0.4" stop-color="#554BFA"/>
<stop offset="0.6" stop-color="#A03CFA"/>
<stop offset="0.95" stop-color="#FA2DAF"/>
</linearGradient>
<linearGradient id="paint26_linear" x1="-12.4651" y1="69.8889" x2="61.9504" y2="37.6716" gradientUnits="userSpaceOnUse">
<stop offset="0.05" stop-color="#1EC8E6"/>
<stop offset="0.4" stop-color="#554BFA"/>
<stop offset="0.6" stop-color="#A03CFA"/>
<stop offset="0.95" stop-color="#FA2DAF"/>
</linearGradient>
<linearGradient id="paint27_linear" x1="-10.0649" y1="75.4334" x2="64.3505" y2="43.2162" gradientUnits="userSpaceOnUse">
<stop offset="0.05" stop-color="#1EC8E6"/>
<stop offset="0.4" stop-color="#554BFA"/>
<stop offset="0.6" stop-color="#A03CFA"/>
<stop offset="0.95" stop-color="#FA2DAF"/>
</linearGradient>
<linearGradient id="paint28_linear" x1="-8.10878" y1="79.9516" x2="66.3066" y2="47.7343" gradientUnits="userSpaceOnUse">
<stop offset="0.05" stop-color="#1EC8E6"/>
<stop offset="0.4" stop-color="#554BFA"/>
<stop offset="0.6" stop-color="#A03CFA"/>
<stop offset="0.95" stop-color="#FA2DAF"/>
</linearGradient>
<linearGradient id="paint29_linear" x1="-9.18017" y1="77.4769" x2="65.2353" y2="45.2597" gradientUnits="userSpaceOnUse">
<stop offset="0.05" stop-color="#1EC8E6"/>
<stop offset="0.4" stop-color="#554BFA"/>
<stop offset="0.6" stop-color="#A03CFA"/>
<stop offset="0.95" stop-color="#FA2DAF"/>
</linearGradient>
<linearGradient id="paint30_linear" x1="-6.01871" y1="84.7789" x2="68.3967" y2="52.5616" gradientUnits="userSpaceOnUse">
<stop offset="0.05" stop-color="#1EC8E6"/>
<stop offset="0.4" stop-color="#554BFA"/>
<stop offset="0.6" stop-color="#A03CFA"/>
<stop offset="0.95" stop-color="#FA2DAF"/>
</linearGradient>
<linearGradient id="paint31_linear" x1="-6.41769" y1="83.8578" x2="67.9977" y2="51.6405" gradientUnits="userSpaceOnUse">
<stop offset="0.05" stop-color="#1EC8E6"/>
<stop offset="0.4" stop-color="#554BFA"/>
<stop offset="0.6" stop-color="#A03CFA"/>
<stop offset="0.95" stop-color="#FA2DAF"/>
</linearGradient>
<linearGradient id="paint32_linear" x1="-5.1962" y1="86.6788" x2="69.2192" y2="54.4616" gradientUnits="userSpaceOnUse">
<stop offset="0.05" stop-color="#1EC8E6"/>
<stop offset="0.4" stop-color="#554BFA"/>
<stop offset="0.6" stop-color="#A03CFA"/>
<stop offset="0.95" stop-color="#FA2DAF"/>
</linearGradient>
<linearGradient id="paint33_linear" x1="-3.69818" y1="90.1395" x2="70.7173" y2="57.9222" gradientUnits="userSpaceOnUse">
<stop offset="0.05" stop-color="#1EC8E6"/>
<stop offset="0.4" stop-color="#554BFA"/>
<stop offset="0.6" stop-color="#A03CFA"/>
<stop offset="0.95" stop-color="#FA2DAF"/>
</linearGradient>
<linearGradient id="paint34_linear" x1="-2.8081" y1="92.1953" x2="71.6073" y2="59.9781" gradientUnits="userSpaceOnUse">
<stop offset="0.05" stop-color="#1EC8E6"/>
<stop offset="0.4" stop-color="#554BFA"/>
<stop offset="0.6" stop-color="#A03CFA"/>
<stop offset="0.95" stop-color="#FA2DAF"/>
</linearGradient>
<linearGradient id="paint35_linear" x1="-1.6929" y1="94.771" x2="72.7225" y2="62.5537" gradientUnits="userSpaceOnUse">
<stop offset="0.05" stop-color="#1EC8E6"/>
<stop offset="0.4" stop-color="#554BFA"/>
<stop offset="0.6" stop-color="#A03CFA"/>
<stop offset="0.95" stop-color="#FA2DAF"/>
</linearGradient>
<linearGradient id="paint36_linear" x1="-3.3445" y1="90.9555" x2="71.0709" y2="58.7382" gradientUnits="userSpaceOnUse">
<stop offset="0.05" stop-color="#1EC8E6"/>
<stop offset="0.4" stop-color="#554BFA"/>
<stop offset="0.6" stop-color="#A03CFA"/>
<stop offset="0.95" stop-color="#FA2DAF"/>
</linearGradient>
<linearGradient id="paint37_linear" x1="-2.34355" y1="93.2684" x2="72.0719" y2="61.0511" gradientUnits="userSpaceOnUse">
<stop offset="0.05" stop-color="#1EC8E6"/>
<stop offset="0.4" stop-color="#554BFA"/>
<stop offset="0.6" stop-color="#A03CFA"/>
<stop offset="0.95" stop-color="#FA2DAF"/>
</linearGradient>
<linearGradient id="paint38_linear" x1="0.626616" y1="100.128" x2="75.0421" y2="67.9109" gradientUnits="userSpaceOnUse">
<stop offset="0.05" stop-color="#1EC8E6"/>
<stop offset="0.4" stop-color="#554BFA"/>
<stop offset="0.6" stop-color="#A03CFA"/>
<stop offset="0.95" stop-color="#FA2DAF"/>
</linearGradient>
<linearGradient id="paint39_linear" x1="2.51149" y1="104.482" x2="76.9269" y2="72.2647" gradientUnits="userSpaceOnUse">
<stop offset="0.05" stop-color="#1EC8E6"/>
<stop offset="0.4" stop-color="#554BFA"/>
<stop offset="0.6" stop-color="#A03CFA"/>
<stop offset="0.95" stop-color="#FA2DAF"/>
</linearGradient>
<linearGradient id="paint40_linear" x1="5.67045" y1="111.779" x2="80.0859" y2="79.5617" gradientUnits="userSpaceOnUse">
<stop offset="0.05" stop-color="#1EC8E6"/>
<stop offset="0.4" stop-color="#554BFA"/>
<stop offset="0.6" stop-color="#A03CFA"/>
<stop offset="0.95" stop-color="#FA2DAF"/>
</linearGradient>
<linearGradient id="paint41_linear" x1="7.10666" y1="115.096" x2="81.5221" y2="82.879" gradientUnits="userSpaceOnUse">
<stop offset="0.05" stop-color="#1EC8E6"/>
<stop offset="0.4" stop-color="#554BFA"/>
<stop offset="0.6" stop-color="#A03CFA"/>
<stop offset="0.95" stop-color="#FA2DAF"/>
</linearGradient>
<linearGradient id="paint42_linear" x1="-0.674167" y1="97.1241" x2="73.7413" y2="64.9069" gradientUnits="userSpaceOnUse">
<stop offset="0.05" stop-color="#1EC8E6"/>
<stop offset="0.4" stop-color="#554BFA"/>
<stop offset="0.6" stop-color="#A03CFA"/>
<stop offset="0.95" stop-color="#FA2DAF"/>
</linearGradient>
<linearGradient id="paint43_linear" x1="2.13461" y1="103.611" x2="76.55" y2="71.3939" gradientUnits="userSpaceOnUse">
<stop offset="0.05" stop-color="#1EC8E6"/>
<stop offset="0.4" stop-color="#554BFA"/>
<stop offset="0.6" stop-color="#A03CFA"/>
<stop offset="0.95" stop-color="#FA2DAF"/>
</linearGradient>
<linearGradient id="paint44_linear" x1="3.67667" y1="107.173" x2="78.0921" y2="74.9557" gradientUnits="userSpaceOnUse">
<stop offset="0.05" stop-color="#1EC8E6"/>
<stop offset="0.4" stop-color="#554BFA"/>
<stop offset="0.6" stop-color="#A03CFA"/>
<stop offset="0.95" stop-color="#FA2DAF"/>
</linearGradient>
<linearGradient id="paint45_linear" x1="5.22712" y1="110.755" x2="79.6426" y2="78.5376" gradientUnits="userSpaceOnUse">
<stop offset="0.05" stop-color="#1EC8E6"/>
<stop offset="0.4" stop-color="#554BFA"/>
<stop offset="0.6" stop-color="#A03CFA"/>
<stop offset="0.95" stop-color="#FA2DAF"/>
</linearGradient>
<linearGradient id="paint46_linear" x1="7.11363" y1="115.113" x2="81.5291" y2="82.8955" gradientUnits="userSpaceOnUse">
<stop offset="0.05" stop-color="#1EC8E6"/>
<stop offset="0.4" stop-color="#554BFA"/>
<stop offset="0.6" stop-color="#A03CFA"/>
<stop offset="0.95" stop-color="#FA2DAF"/>
</linearGradient>
<linearGradient id="paint47_linear" x1="10.9016" y1="123.862" x2="85.317" y2="91.6443" gradientUnits="userSpaceOnUse">
<stop offset="0.05" stop-color="#1EC8E6"/>
<stop offset="0.4" stop-color="#554BFA"/>
<stop offset="0.6" stop-color="#A03CFA"/>
<stop offset="0.95" stop-color="#FA2DAF"/>
</linearGradient>
<linearGradient id="paint48_linear" x1="14.4202" y1="131.989" x2="88.8356" y2="99.7721" gradientUnits="userSpaceOnUse">
<stop offset="0.05" stop-color="#1EC8E6"/>
<stop offset="0.4" stop-color="#554BFA"/>
<stop offset="0.6" stop-color="#A03CFA"/>
<stop offset="0.95" stop-color="#FA2DAF"/>
</linearGradient>
<linearGradient id="paint49_linear" x1="17.7425" y1="139.663" x2="92.1579" y2="107.446" gradientUnits="userSpaceOnUse">
<stop offset="0.05" stop-color="#1EC8E6"/>
<stop offset="0.4" stop-color="#554BFA"/>
<stop offset="0.6" stop-color="#A03CFA"/>
<stop offset="0.95" stop-color="#FA2DAF"/>
</linearGradient>
<linearGradient id="paint50_linear" x1="16.3403" y1="136.424" x2="90.7557" y2="104.207" gradientUnits="userSpaceOnUse">
<stop offset="0.05" stop-color="#1EC8E6"/>
<stop offset="0.4" stop-color="#554BFA"/>
<stop offset="0.6" stop-color="#A03CFA"/>
<stop offset="0.95" stop-color="#FA2DAF"/>
</linearGradient>
<linearGradient id="paint51_linear" x1="21.248" y1="147.759" x2="95.6634" y2="115.542" gradientUnits="userSpaceOnUse">
<stop offset="0.05" stop-color="#1EC8E6"/>
<stop offset="0.4" stop-color="#554BFA"/>
<stop offset="0.6" stop-color="#A03CFA"/>
<stop offset="0.95" stop-color="#FA2DAF"/>
</linearGradient>
<linearGradient id="paint52_linear" x1="24.1774" y1="154.526" x2="98.5929" y2="122.309" gradientUnits="userSpaceOnUse">
<stop offset="0.05" stop-color="#1EC8E6"/>
<stop offset="0.4" stop-color="#554BFA"/>
<stop offset="0.6" stop-color="#A03CFA"/>
<stop offset="0.95" stop-color="#FA2DAF"/>
</linearGradient>
<linearGradient id="paint53_linear" x1="6.00884" y1="112.561" x2="80.4243" y2="80.3436" gradientUnits="userSpaceOnUse">
<stop offset="0.05" stop-color="#1EC8E6"/>
<stop offset="0.4" stop-color="#554BFA"/>
<stop offset="0.6" stop-color="#A03CFA"/>
<stop offset="0.95" stop-color="#FA2DAF"/>
</linearGradient>
<linearGradient id="paint54_linear" x1="7.59368" y1="116.222" x2="82.0091" y2="84.0044" gradientUnits="userSpaceOnUse">
<stop offset="0.05" stop-color="#1EC8E6"/>
<stop offset="0.4" stop-color="#554BFA"/>
<stop offset="0.6" stop-color="#A03CFA"/>
<stop offset="0.95" stop-color="#FA2DAF"/>
</linearGradient>
<linearGradient id="paint55_linear" x1="9.73921" y1="121.176" x2="84.1547" y2="88.9592" gradientUnits="userSpaceOnUse">
<stop offset="0.05" stop-color="#1EC8E6"/>
<stop offset="0.4" stop-color="#554BFA"/>
<stop offset="0.6" stop-color="#A03CFA"/>
<stop offset="0.95" stop-color="#FA2DAF"/>
</linearGradient>
<linearGradient id="paint56_linear" x1="10.7578" y1="123.53" x2="85.1733" y2="91.3128" gradientUnits="userSpaceOnUse">
<stop offset="0.05" stop-color="#1EC8E6"/>
<stop offset="0.4" stop-color="#554BFA"/>
<stop offset="0.6" stop-color="#A03CFA"/>
<stop offset="0.95" stop-color="#FA2DAF"/>
</linearGradient>
<linearGradient id="paint57_linear" x1="11.7378" y1="125.794" x2="86.1533" y2="93.5763" gradientUnits="userSpaceOnUse">
<stop offset="0.05" stop-color="#1EC8E6"/>
<stop offset="0.4" stop-color="#554BFA"/>
<stop offset="0.6" stop-color="#A03CFA"/>
<stop offset="0.95" stop-color="#FA2DAF"/>
</linearGradient>
<linearGradient id="paint58_linear" x1="14.0517" y1="131.138" x2="88.4672" y2="98.9207" gradientUnits="userSpaceOnUse">
<stop offset="0.05" stop-color="#1EC8E6"/>
<stop offset="0.4" stop-color="#554BFA"/>
<stop offset="0.6" stop-color="#A03CFA"/>
<stop offset="0.95" stop-color="#FA2DAF"/>
</linearGradient>
<linearGradient id="paint59_linear" x1="15.3696" y1="134.182" x2="89.7851" y2="101.964" gradientUnits="userSpaceOnUse">
<stop offset="0.05" stop-color="#1EC8E6"/>
<stop offset="0.4" stop-color="#554BFA"/>
<stop offset="0.6" stop-color="#A03CFA"/>
<stop offset="0.95" stop-color="#FA2DAF"/>
</linearGradient>
<linearGradient id="paint60_linear" x1="16.1917" y1="136.08" x2="90.6071" y2="103.863" gradientUnits="userSpaceOnUse">
<stop offset="0.05" stop-color="#1EC8E6"/>
<stop offset="0.4" stop-color="#554BFA"/>
<stop offset="0.6" stop-color="#A03CFA"/>
<stop offset="0.95" stop-color="#FA2DAF"/>
</linearGradient>
<linearGradient id="paint61_linear" x1="17.9957" y1="140.248" x2="92.4111" y2="108.03" gradientUnits="userSpaceOnUse">
<stop offset="0.05" stop-color="#1EC8E6"/>
<stop offset="0.4" stop-color="#554BFA"/>
<stop offset="0.6" stop-color="#A03CFA"/>
<stop offset="0.95" stop-color="#FA2DAF"/>
</linearGradient>
<linearGradient id="paint62_linear" x1="15.3496" y1="134.136" x2="89.7651" y2="101.918" gradientUnits="userSpaceOnUse">
<stop offset="0.05" stop-color="#1EC8E6"/>
<stop offset="0.4" stop-color="#554BFA"/>
<stop offset="0.6" stop-color="#A03CFA"/>
<stop offset="0.95" stop-color="#FA2DAF"/>
</linearGradient>
<linearGradient id="paint63_linear" x1="18.6678" y1="141.8" x2="93.0832" y2="109.583" gradientUnits="userSpaceOnUse">
<stop offset="0.05" stop-color="#1EC8E6"/>
<stop offset="0.4" stop-color="#554BFA"/>
<stop offset="0.6" stop-color="#A03CFA"/>
<stop offset="0.95" stop-color="#FA2DAF"/>
</linearGradient>
<linearGradient id="paint64_linear" x1="20.4471" y1="145.91" x2="94.8626" y2="113.692" gradientUnits="userSpaceOnUse">
<stop offset="0.05" stop-color="#1EC8E6"/>
<stop offset="0.4" stop-color="#554BFA"/>
<stop offset="0.6" stop-color="#A03CFA"/>
<stop offset="0.95" stop-color="#FA2DAF"/>
</linearGradient>
<linearGradient id="paint65_linear" x1="20.8048" y1="146.736" x2="95.2203" y2="114.519" gradientUnits="userSpaceOnUse">
<stop offset="0.05" stop-color="#1EC8E6"/>
<stop offset="0.4" stop-color="#554BFA"/>
<stop offset="0.6" stop-color="#A03CFA"/>
<stop offset="0.95" stop-color="#FA2DAF"/>
</linearGradient>
<linearGradient id="paint66_linear" x1="21.6532" y1="148.696" x2="96.0687" y2="116.479" gradientUnits="userSpaceOnUse">
<stop offset="0.05" stop-color="#1EC8E6"/>
<stop offset="0.4" stop-color="#554BFA"/>
<stop offset="0.6" stop-color="#A03CFA"/>
<stop offset="0.95" stop-color="#FA2DAF"/>
</linearGradient>
<linearGradient id="paint67_linear" x1="24.1159" y1="154.384" x2="98.5314" y2="122.167" gradientUnits="userSpaceOnUse">
<stop offset="0.05" stop-color="#1EC8E6"/>
<stop offset="0.4" stop-color="#554BFA"/>
<stop offset="0.6" stop-color="#A03CFA"/>
<stop offset="0.95" stop-color="#FA2DAF"/>
</linearGradient>
<linearGradient id="paint68_linear" x1="7.19789" y1="115.307" x2="81.6133" y2="83.0898" gradientUnits="userSpaceOnUse">
<stop offset="0.05" stop-color="#1EC8E6"/>
<stop offset="0.4" stop-color="#554BFA"/>
<stop offset="0.6" stop-color="#A03CFA"/>
<stop offset="0.95" stop-color="#FA2DAF"/>
</linearGradient>
<linearGradient id="paint69_linear" x1="-1.69365" y1="94.7686" x2="72.7218" y2="62.5514" gradientUnits="userSpaceOnUse">
<stop offset="0.05" stop-color="#1EC8E6"/>
<stop offset="0.4" stop-color="#554BFA"/>
<stop offset="0.6" stop-color="#A03CFA"/>
<stop offset="0.95" stop-color="#FA2DAF"/>
</linearGradient>
<linearGradient id="paint70_linear" x1="-3.29752" y1="91.0645" x2="71.1179" y2="58.8472" gradientUnits="userSpaceOnUse">
<stop offset="0.05" stop-color="#1EC8E6"/>
<stop offset="0.4" stop-color="#554BFA"/>
<stop offset="0.6" stop-color="#A03CFA"/>
<stop offset="0.95" stop-color="#FA2DAF"/>
</linearGradient>
<linearGradient id="paint71_linear" x1="-4.29786" y1="88.7536" x2="70.1176" y2="56.5363" gradientUnits="userSpaceOnUse">
<stop offset="0.05" stop-color="#1EC8E6"/>
<stop offset="0.4" stop-color="#554BFA"/>
<stop offset="0.6" stop-color="#A03CFA"/>
<stop offset="0.95" stop-color="#FA2DAF"/>
</linearGradient>
<linearGradient id="paint72_linear" x1="-6.02097" y1="84.7741" x2="68.3945" y2="52.5568" gradientUnits="userSpaceOnUse">
<stop offset="0.05" stop-color="#1EC8E6"/>
<stop offset="0.4" stop-color="#554BFA"/>
<stop offset="0.6" stop-color="#A03CFA"/>
<stop offset="0.95" stop-color="#FA2DAF"/>
</linearGradient>
<linearGradient id="paint73_linear" x1="-7.57237" y1="81.1901" x2="66.8431" y2="48.9728" gradientUnits="userSpaceOnUse">
<stop offset="0.05" stop-color="#1EC8E6"/>
<stop offset="0.4" stop-color="#554BFA"/>
<stop offset="0.6" stop-color="#A03CFA"/>
<stop offset="0.95" stop-color="#FA2DAF"/>
</linearGradient>
<linearGradient id="paint74_linear" x1="-8.17907" y1="79.7893" x2="66.2364" y2="47.572" gradientUnits="userSpaceOnUse">
<stop offset="0.05" stop-color="#1EC8E6"/>
<stop offset="0.4" stop-color="#554BFA"/>
<stop offset="0.6" stop-color="#A03CFA"/>
<stop offset="0.95" stop-color="#FA2DAF"/>
</linearGradient>
<linearGradient id="paint75_linear" x1="-1.4756" y1="95.2726" x2="72.9398" y2="63.0553" gradientUnits="userSpaceOnUse">
<stop offset="0.05" stop-color="#1EC8E6"/>
<stop offset="0.4" stop-color="#554BFA"/>
<stop offset="0.6" stop-color="#A03CFA"/>
<stop offset="0.95" stop-color="#FA2DAF"/>
</linearGradient>
<linearGradient id="paint76_linear" x1="-2.82611" y1="92.1537" x2="71.5893" y2="59.9364" gradientUnits="userSpaceOnUse">
<stop offset="0.05" stop-color="#1EC8E6"/>
<stop offset="0.4" stop-color="#554BFA"/>
<stop offset="0.6" stop-color="#A03CFA"/>
<stop offset="0.95" stop-color="#FA2DAF"/>
</linearGradient>
<linearGradient id="paint77_linear" x1="-4.69059" y1="87.8467" x2="69.7249" y2="55.6295" gradientUnits="userSpaceOnUse">
<stop offset="0.05" stop-color="#1EC8E6"/>
<stop offset="0.4" stop-color="#554BFA"/>
<stop offset="0.6" stop-color="#A03CFA"/>
<stop offset="0.95" stop-color="#FA2DAF"/>
</linearGradient>
<linearGradient id="paint78_linear" x1="-5.94431" y1="84.951" x2="68.4711" y2="52.7337" gradientUnits="userSpaceOnUse">
<stop offset="0.05" stop-color="#1EC8E6"/>
<stop offset="0.4" stop-color="#554BFA"/>
<stop offset="0.6" stop-color="#A03CFA"/>
<stop offset="0.95" stop-color="#FA2DAF"/>
</linearGradient>
<linearGradient id="paint79_linear" x1="-7.19379" y1="82.0654" x2="67.2216" y2="49.8481" gradientUnits="userSpaceOnUse">
<stop offset="0.05" stop-color="#1EC8E6"/>
<stop offset="0.4" stop-color="#554BFA"/>
<stop offset="0.6" stop-color="#A03CFA"/>
<stop offset="0.95" stop-color="#FA2DAF"/>
</linearGradient>
<linearGradient id="paint80_linear" x1="-8.16116" y1="79.8299" x2="66.2543" y2="47.6126" gradientUnits="userSpaceOnUse">
<stop offset="0.05" stop-color="#1EC8E6"/>
<stop offset="0.4" stop-color="#554BFA"/>
<stop offset="0.6" stop-color="#A03CFA"/>
<stop offset="0.95" stop-color="#FA2DAF"/>
</linearGradient>
<linearGradient id="paint81_linear" x1="-9.89768" y1="75.8193" x2="64.5178" y2="43.6021" gradientUnits="userSpaceOnUse">
<stop offset="0.05" stop-color="#1EC8E6"/>
<stop offset="0.4" stop-color="#554BFA"/>
<stop offset="0.6" stop-color="#A03CFA"/>
<stop offset="0.95" stop-color="#FA2DAF"/>
</linearGradient>
<linearGradient id="paint82_linear" x1="3.04755" y1="105.721" x2="77.463" y2="73.5033" gradientUnits="userSpaceOnUse">
<stop offset="0.05" stop-color="#1EC8E6"/>
<stop offset="0.4" stop-color="#554BFA"/>
<stop offset="0.6" stop-color="#A03CFA"/>
<stop offset="0.95" stop-color="#FA2DAF"/>
</linearGradient>
<linearGradient id="paint83_linear" x1="1.23679" y1="101.537" x2="75.6522" y2="69.3202" gradientUnits="userSpaceOnUse">
<stop offset="0.05" stop-color="#1EC8E6"/>
<stop offset="0.4" stop-color="#554BFA"/>
<stop offset="0.6" stop-color="#A03CFA"/>
<stop offset="0.95" stop-color="#FA2DAF"/>
</linearGradient>
<linearGradient id="paint84_linear" x1="3.08675" y1="105.811" x2="77.5022" y2="73.5936" gradientUnits="userSpaceOnUse">
<stop offset="0.05" stop-color="#1EC8E6"/>
<stop offset="0.4" stop-color="#554BFA"/>
<stop offset="0.6" stop-color="#A03CFA"/>
<stop offset="0.95" stop-color="#FA2DAF"/>
</linearGradient>
<linearGradient id="paint85_linear" x1="-0.859153" y1="96.6969" x2="73.5563" y2="64.4797" gradientUnits="userSpaceOnUse">
<stop offset="0.05" stop-color="#1EC8E6"/>
<stop offset="0.4" stop-color="#554BFA"/>
<stop offset="0.6" stop-color="#A03CFA"/>
<stop offset="0.95" stop-color="#FA2DAF"/>
</linearGradient>
<linearGradient id="paint86_linear" x1="-1.36274" y1="95.534" x2="73.0527" y2="63.3167" gradientUnits="userSpaceOnUse">
<stop offset="0.05" stop-color="#1EC8E6"/>
<stop offset="0.4" stop-color="#554BFA"/>
<stop offset="0.6" stop-color="#A03CFA"/>
<stop offset="0.95" stop-color="#FA2DAF"/>
</linearGradient>
<linearGradient id="paint87_linear" x1="0.490782" y1="99.8152" x2="74.9062" y2="67.598" gradientUnits="userSpaceOnUse">
<stop offset="0.05" stop-color="#1EC8E6"/>
<stop offset="0.4" stop-color="#554BFA"/>
<stop offset="0.6" stop-color="#A03CFA"/>
<stop offset="0.95" stop-color="#FA2DAF"/>
</linearGradient>
<linearGradient id="paint88_linear" x1="-2.89026" y1="92.0049" x2="71.5252" y2="59.7876" gradientUnits="userSpaceOnUse">
<stop offset="0.05" stop-color="#1EC8E6"/>
<stop offset="0.4" stop-color="#554BFA"/>
<stop offset="0.6" stop-color="#A03CFA"/>
<stop offset="0.95" stop-color="#FA2DAF"/>
</linearGradient>
<linearGradient id="paint89_linear" x1="-3.40101" y1="90.8253" x2="71.0144" y2="58.6081" gradientUnits="userSpaceOnUse">
<stop offset="0.05" stop-color="#1EC8E6"/>
<stop offset="0.4" stop-color="#554BFA"/>
<stop offset="0.6" stop-color="#A03CFA"/>
<stop offset="0.95" stop-color="#FA2DAF"/>
</linearGradient>
<linearGradient id="paint90_linear" x1="-7.06346" y1="82.3661" x2="67.352" y2="50.1488" gradientUnits="userSpaceOnUse">
<stop offset="0.05" stop-color="#1EC8E6"/>
<stop offset="0.4" stop-color="#554BFA"/>
<stop offset="0.6" stop-color="#A03CFA"/>
<stop offset="0.95" stop-color="#FA2DAF"/>
</linearGradient>
<linearGradient id="paint91_linear" x1="-1.34153" y1="95.5828" x2="73.0739" y2="63.3655" gradientUnits="userSpaceOnUse">
<stop offset="0.05" stop-color="#1EC8E6"/>
<stop offset="0.4" stop-color="#554BFA"/>
<stop offset="0.6" stop-color="#A03CFA"/>
<stop offset="0.95" stop-color="#FA2DAF"/>
</linearGradient>
<linearGradient id="paint92_linear" x1="-2.33182" y1="93.2953" x2="72.0837" y2="61.078" gradientUnits="userSpaceOnUse">
<stop offset="0.05" stop-color="#1EC8E6"/>
<stop offset="0.4" stop-color="#554BFA"/>
<stop offset="0.6" stop-color="#A03CFA"/>
<stop offset="0.95" stop-color="#FA2DAF"/>
</linearGradient>
<linearGradient id="paint93_linear" x1="-4.06114" y1="89.301" x2="70.3543" y2="57.0838" gradientUnits="userSpaceOnUse">
<stop offset="0.05" stop-color="#1EC8E6"/>
<stop offset="0.4" stop-color="#554BFA"/>
<stop offset="0.6" stop-color="#A03CFA"/>
<stop offset="0.95" stop-color="#FA2DAF"/>
</linearGradient>
<linearGradient id="paint94_linear" x1="-5.71663" y1="85.4768" x2="68.6988" y2="53.2596" gradientUnits="userSpaceOnUse">
<stop offset="0.05" stop-color="#1EC8E6"/>
<stop offset="0.4" stop-color="#554BFA"/>
<stop offset="0.6" stop-color="#A03CFA"/>
<stop offset="0.95" stop-color="#FA2DAF"/>
</linearGradient>
<linearGradient id="paint95_linear" x1="-6.05669" y1="84.6918" x2="68.3588" y2="52.4746" gradientUnits="userSpaceOnUse">
<stop offset="0.05" stop-color="#1EC8E6"/>
<stop offset="0.4" stop-color="#554BFA"/>
<stop offset="0.6" stop-color="#A03CFA"/>
<stop offset="0.95" stop-color="#FA2DAF"/>
</linearGradient>
<linearGradient id="paint96_linear" x1="-7.8939" y1="80.4475" x2="66.5215" y2="48.2303" gradientUnits="userSpaceOnUse">
<stop offset="0.05" stop-color="#1EC8E6"/>
<stop offset="0.4" stop-color="#554BFA"/>
<stop offset="0.6" stop-color="#A03CFA"/>
<stop offset="0.95" stop-color="#FA2DAF"/>
</linearGradient>
<linearGradient id="paint97_linear" x1="0.660371" y1="100.207" x2="75.0758" y2="67.9895" gradientUnits="userSpaceOnUse">
<stop offset="0.05" stop-color="#1EC8E6"/>
<stop offset="0.4" stop-color="#554BFA"/>
<stop offset="0.6" stop-color="#A03CFA"/>
<stop offset="0.95" stop-color="#FA2DAF"/>
</linearGradient>
<linearGradient id="paint98_linear" x1="0.103182" y1="98.9194" x2="74.5186" y2="66.7022" gradientUnits="userSpaceOnUse">
<stop offset="0.05" stop-color="#1EC8E6"/>
<stop offset="0.4" stop-color="#554BFA"/>
<stop offset="0.6" stop-color="#A03CFA"/>
<stop offset="0.95" stop-color="#FA2DAF"/>
</linearGradient>
<linearGradient id="paint99_linear" x1="2.26965" y1="103.923" x2="76.6851" y2="71.7062" gradientUnits="userSpaceOnUse">
<stop offset="0.05" stop-color="#1EC8E6"/>
<stop offset="0.4" stop-color="#554BFA"/>
<stop offset="0.6" stop-color="#A03CFA"/>
<stop offset="0.95" stop-color="#FA2DAF"/>
</linearGradient>
<linearGradient id="paint100_linear" x1="3.28846" y1="106.277" x2="77.7039" y2="74.0598" gradientUnits="userSpaceOnUse">
<stop offset="0.05" stop-color="#1EC8E6"/>
<stop offset="0.4" stop-color="#554BFA"/>
<stop offset="0.6" stop-color="#A03CFA"/>
<stop offset="0.95" stop-color="#FA2DAF"/>
</linearGradient>
<linearGradient id="paint101_linear" x1="0.597679" y1="100.062" x2="75.0131" y2="67.8444" gradientUnits="userSpaceOnUse">
<stop offset="0.05" stop-color="#1EC8E6"/>
<stop offset="0.4" stop-color="#554BFA"/>
<stop offset="0.6" stop-color="#A03CFA"/>
<stop offset="0.95" stop-color="#FA2DAF"/>
</linearGradient>
<linearGradient id="paint102_linear" x1="2.47653" y1="104.401" x2="76.892" y2="72.184" gradientUnits="userSpaceOnUse">
<stop offset="0.05" stop-color="#1EC8E6"/>
<stop offset="0.4" stop-color="#554BFA"/>
<stop offset="0.6" stop-color="#A03CFA"/>
<stop offset="0.95" stop-color="#FA2DAF"/>
</linearGradient>
<linearGradient id="paint103_linear" x1="4.53756" y1="109.162" x2="78.953" y2="76.9445" gradientUnits="userSpaceOnUse">
<stop offset="0.05" stop-color="#1EC8E6"/>
<stop offset="0.4" stop-color="#554BFA"/>
<stop offset="0.6" stop-color="#A03CFA"/>
<stop offset="0.95" stop-color="#FA2DAF"/>
</linearGradient>
<linearGradient id="paint104_linear" x1="5.40563" y1="111.167" x2="79.8211" y2="78.95" gradientUnits="userSpaceOnUse">
<stop offset="0.05" stop-color="#1EC8E6"/>
<stop offset="0.4" stop-color="#554BFA"/>
<stop offset="0.6" stop-color="#A03CFA"/>
<stop offset="0.95" stop-color="#FA2DAF"/>
</linearGradient>
<linearGradient id="paint105_linear" x1="4.30178" y1="108.618" x2="78.7172" y2="76.4003" gradientUnits="userSpaceOnUse">
<stop offset="0.05" stop-color="#1EC8E6"/>
<stop offset="0.4" stop-color="#554BFA"/>
<stop offset="0.6" stop-color="#A03CFA"/>
<stop offset="0.95" stop-color="#FA2DAF"/>
</linearGradient>
<linearGradient id="paint106_linear" x1="6.76708" y1="114.311" x2="81.1825" y2="82.0941" gradientUnits="userSpaceOnUse">
<stop offset="0.05" stop-color="#1EC8E6"/>
<stop offset="0.4" stop-color="#554BFA"/>
<stop offset="0.6" stop-color="#A03CFA"/>
<stop offset="0.95" stop-color="#FA2DAF"/>
</linearGradient>
<linearGradient id="paint107_linear" x1="6.49441" y1="113.682" x2="80.9098" y2="81.4647" gradientUnits="userSpaceOnUse">
<stop offset="0.05" stop-color="#1EC8E6"/>
<stop offset="0.4" stop-color="#554BFA"/>
<stop offset="0.6" stop-color="#A03CFA"/>
<stop offset="0.95" stop-color="#FA2DAF"/>
</linearGradient>
<linearGradient id="paint108_linear" x1="8.77325" y1="118.946" x2="83.1887" y2="86.7284" gradientUnits="userSpaceOnUse">
<stop offset="0.05" stop-color="#1EC8E6"/>
<stop offset="0.4" stop-color="#554BFA"/>
<stop offset="0.6" stop-color="#A03CFA"/>
<stop offset="0.95" stop-color="#FA2DAF"/>
</linearGradient>
<linearGradient id="paint109_linear" x1="10.0638" y1="121.927" x2="84.4792" y2="89.7093" gradientUnits="userSpaceOnUse">
<stop offset="0.05" stop-color="#1EC8E6"/>
<stop offset="0.4" stop-color="#554BFA"/>
<stop offset="0.6" stop-color="#A03CFA"/>
<stop offset="0.95" stop-color="#FA2DAF"/>
</linearGradient>
<linearGradient id="paint110_linear" x1="8.01887" y1="117.203" x2="82.4343" y2="84.9856" gradientUnits="userSpaceOnUse">
<stop offset="0.05" stop-color="#1EC8E6"/>
<stop offset="0.4" stop-color="#554BFA"/>
<stop offset="0.6" stop-color="#A03CFA"/>
<stop offset="0.95" stop-color="#FA2DAF"/>
</linearGradient>
<linearGradient id="paint111_linear" x1="8.95082" y1="119.356" x2="83.3663" y2="87.1386" gradientUnits="userSpaceOnUse">
<stop offset="0.05" stop-color="#1EC8E6"/>
<stop offset="0.4" stop-color="#554BFA"/>
<stop offset="0.6" stop-color="#A03CFA"/>
<stop offset="0.95" stop-color="#FA2DAF"/>
</linearGradient>
<linearGradient id="paint112_linear" x1="11.0244" y1="124.145" x2="85.4398" y2="91.9278" gradientUnits="userSpaceOnUse">
<stop offset="0.05" stop-color="#1EC8E6"/>
<stop offset="0.4" stop-color="#554BFA"/>
<stop offset="0.6" stop-color="#A03CFA"/>
<stop offset="0.95" stop-color="#FA2DAF"/>
</linearGradient>
<linearGradient id="paint113_linear" x1="12.7497" y1="128.13" x2="87.1651" y2="95.9129" gradientUnits="userSpaceOnUse">
<stop offset="0.05" stop-color="#1EC8E6"/>
<stop offset="0.4" stop-color="#554BFA"/>
<stop offset="0.6" stop-color="#A03CFA"/>
<stop offset="0.95" stop-color="#FA2DAF"/>
</linearGradient>
<linearGradient id="paint114_linear" x1="12.2623" y1="127.004" x2="86.6777" y2="94.7872" gradientUnits="userSpaceOnUse">
<stop offset="0.05" stop-color="#1EC8E6"/>
<stop offset="0.4" stop-color="#554BFA"/>
<stop offset="0.6" stop-color="#A03CFA"/>
<stop offset="0.95" stop-color="#FA2DAF"/>
</linearGradient>
<linearGradient id="paint115_linear" x1="14.1211" y1="131.298" x2="88.5366" y2="99.0805" gradientUnits="userSpaceOnUse">
<stop offset="0.05" stop-color="#1EC8E6"/>
<stop offset="0.4" stop-color="#554BFA"/>
<stop offset="0.6" stop-color="#A03CFA"/>
<stop offset="0.95" stop-color="#FA2DAF"/>
</linearGradient>
<linearGradient id="paint116_linear" x1="17.3172" y1="138.68" x2="91.7326" y2="106.463" gradientUnits="userSpaceOnUse">
<stop offset="0.05" stop-color="#1EC8E6"/>
<stop offset="0.4" stop-color="#554BFA"/>
<stop offset="0.6" stop-color="#A03CFA"/>
<stop offset="0.95" stop-color="#FA2DAF"/>
</linearGradient>
</defs>
</svg>
