<svg width="185" height="102" viewBox="0 0 185 102" fill="none" xmlns="http://www.w3.org/2000/svg">
<rect width="185" height="102" fill="black" fill-opacity="0"/>
<rect width="185" height="102" fill="black" fill-opacity="0"/>
<rect width="65.9999" height="99.9998" fill="black" fill-opacity="0"/>
<path d="M11.7057 6.87301C12.3111 6.87301 12.8019 6.38365 12.8019 5.78001C12.8019 5.17636 12.3111 4.68701 11.7057 4.68701C11.1002 4.68701 10.6094 5.17636 10.6094 5.78001C10.6094 6.38365 11.1002 6.87301 11.7057 6.87301Z" fill="url(#paint0_linear)"/>
<path d="M8.28711 8.96637C9.0465 8.96637 9.66211 8.3526 9.66211 7.59549C9.66211 6.83837 9.0465 6.22461 8.28711 6.22461C7.52772 6.22461 6.91211 6.83837 6.91211 7.59549C6.91211 8.3526 7.52772 8.96637 8.28711 8.96637Z" fill="url(#paint1_linear)"/>
<path d="M17.838 7.91047C18.6384 7.91047 19.2873 7.26353 19.2873 6.46549C19.2873 5.66745 18.6384 5.02051 17.838 5.02051C17.0376 5.02051 16.3887 5.66745 16.3887 6.46549C16.3887 7.26353 17.0376 7.91047 17.838 7.91047Z" fill="url(#paint2_linear)"/>
<path d="M8.90029 11.4671C9.61863 11.4671 10.201 10.8865 10.201 10.1703C10.201 9.45412 9.61863 8.87354 8.90029 8.87354C8.18194 8.87354 7.59961 9.45412 7.59961 10.1703C7.59961 10.8865 8.18194 11.4671 8.90029 11.4671Z" fill="url(#paint3_linear)"/>
<path d="M3.43739 13.2088C4.15574 13.2088 4.73807 12.6282 4.73807 11.912C4.73807 11.1958 4.15574 10.6152 3.43739 10.6152C2.71905 10.6152 2.13672 11.1958 2.13672 11.912C2.13672 12.6282 2.71905 13.2088 3.43739 13.2088Z" fill="url(#paint4_linear)"/>
<path d="M17.3171 12.5788C17.9636 12.5788 18.4877 12.0563 18.4877 11.4117C18.4877 10.7672 17.9636 10.2446 17.3171 10.2446C16.6706 10.2446 16.1465 10.7672 16.1465 11.4117C16.1465 12.0563 16.6706 12.5788 17.3171 12.5788Z" fill="url(#paint5_linear)"/>
<path d="M17.0944 2.3342C17.7409 2.3342 18.265 1.81167 18.265 1.1671C18.265 0.522529 17.7409 0 17.0944 0C16.4479 0 15.9238 0.522529 15.9238 1.1671C15.9238 1.81167 16.4479 2.3342 17.0944 2.3342Z" fill="url(#paint6_linear)"/>
<path d="M12.895 15.9875C13.4594 15.9875 13.917 15.5313 13.917 14.9686C13.917 14.4059 13.4594 13.9497 12.895 13.9497C12.3306 13.9497 11.873 14.4059 11.873 14.9686C11.873 15.5313 12.3306 15.9875 12.895 15.9875Z" fill="url(#paint7_linear)"/>
<path d="M6.87487 18.9515C7.58295 18.9515 8.15696 18.3792 8.15696 17.6733C8.15696 16.9673 7.58295 16.395 6.87487 16.395C6.16679 16.395 5.59277 16.9673 5.59277 17.6733C5.59277 18.3792 6.16679 18.9515 6.87487 18.9515Z" fill="url(#paint8_linear)"/>
<path d="M17.429 17.9511C18.291 17.9511 18.9898 17.2544 18.9898 16.395C18.9898 15.5356 18.291 14.8389 17.429 14.8389C16.567 14.8389 15.8682 15.5356 15.8682 16.395C15.8682 17.2544 16.567 17.9511 17.429 17.9511Z" fill="url(#paint9_linear)"/>
<path d="M12.263 21.3598C13.1353 21.3598 13.8424 20.6548 13.8424 19.7851C13.8424 18.9154 13.1353 18.2104 12.263 18.2104C11.3907 18.2104 10.6836 18.9154 10.6836 19.7851C10.6836 20.6548 11.3907 21.3598 12.263 21.3598Z" fill="url(#paint10_linear)"/>
<path d="M7.24644 23.1751C8.13924 23.1751 8.86299 22.4535 8.86299 21.5634C8.86299 20.6732 8.13924 19.9517 7.24644 19.9517C6.35364 19.9517 5.62988 20.6732 5.62988 21.5634C5.62988 22.4535 6.35364 23.1751 7.24644 23.1751Z" fill="url(#paint11_linear)"/>
<path d="M17.3363 21.6746C18.2291 21.6746 18.9528 20.953 18.9528 20.0629C18.9528 19.1728 18.2291 18.4512 17.3363 18.4512C16.4435 18.4512 15.7197 19.1728 15.7197 20.0629C15.7197 20.953 16.4435 21.6746 17.3363 21.6746Z" fill="url(#paint12_linear)"/>
<path d="M21.443 24.3608C22.0484 24.3608 22.5392 23.8714 22.5392 23.2678C22.5392 22.6642 22.0484 22.1748 21.443 22.1748C20.8375 22.1748 20.3467 22.6642 20.3467 23.2678C20.3467 23.8714 20.8375 24.3608 21.443 24.3608Z" fill="url(#paint13_linear)"/>
<path d="M11.4648 26.9914C12.1934 26.9914 12.784 26.4026 12.784 25.6761C12.784 24.9497 12.1934 24.3608 11.4648 24.3608C10.7362 24.3608 10.1455 24.9497 10.1455 25.6761C10.1455 26.4026 10.7362 26.9914 11.4648 26.9914Z" fill="url(#paint14_linear)"/>
<path d="M8.62186 26.4912C9.29915 26.4912 9.84821 25.9438 9.84821 25.2686C9.84821 24.5933 9.29915 24.0459 8.62186 24.0459C7.94456 24.0459 7.39551 24.5933 7.39551 25.2686C7.39551 25.9438 7.94456 26.4912 8.62186 26.4912Z" fill="url(#paint15_linear)"/>
<path d="M2.80545 26.6582C3.48275 26.6582 4.0318 26.1108 4.0318 25.4356C4.0318 24.7603 3.48275 24.2129 2.80545 24.2129C2.12816 24.2129 1.5791 24.7603 1.5791 25.4356C1.5791 26.1108 2.12816 26.6582 2.80545 26.6582Z" fill="url(#paint16_linear)"/>
<path d="M17.5221 27.3621C18.1584 27.3621 18.6742 26.8479 18.6742 26.2135C18.6742 25.5792 18.1584 25.0649 17.5221 25.0649C16.8859 25.0649 16.3701 25.5792 16.3701 26.2135C16.3701 26.8479 16.8859 27.3621 17.5221 27.3621Z" fill="url(#paint17_linear)"/>
<path d="M11.9475 32.586C12.7993 32.586 13.4897 31.8975 13.4897 31.0483C13.4897 30.1992 12.7993 29.5107 11.9475 29.5107C11.0958 29.5107 10.4053 30.1992 10.4053 31.0483C10.4053 31.8975 11.0958 32.586 11.9475 32.586Z" fill="url(#paint18_linear)"/>
<path d="M17.8564 31.3079C18.585 31.3079 19.1756 30.719 19.1756 29.9925C19.1756 29.2661 18.585 28.6772 17.8564 28.6772C17.1278 28.6772 16.5371 29.2661 16.5371 29.9925C16.5371 30.719 17.1278 31.3079 17.8564 31.3079Z" fill="url(#paint19_linear)"/>
<path d="M11.7994 35.8465C12.7743 35.8465 13.5646 35.0585 13.5646 34.0866C13.5646 33.1146 12.7743 32.3267 11.7994 32.3267C10.8245 32.3267 10.0342 33.1146 10.0342 34.0866C10.0342 35.0585 10.8245 35.8465 11.7994 35.8465Z" fill="url(#paint20_linear)"/>
<path d="M8.04532 36.8839C8.95864 36.8839 9.69903 36.1458 9.69903 35.2352C9.69903 34.3246 8.95864 33.5864 8.04532 33.5864C7.132 33.5864 6.3916 34.3246 6.3916 35.2352C6.3916 36.1458 7.132 36.8839 8.04532 36.8839Z" fill="url(#paint21_linear)"/>
<path d="M12.4497 41.8861C13.4144 41.8861 14.1964 41.1064 14.1964 40.1447C14.1964 39.183 13.4144 38.4033 12.4497 38.4033C11.4851 38.4033 10.7031 39.183 10.7031 40.1447C10.7031 41.1064 11.4851 41.8861 12.4497 41.8861Z" fill="url(#paint22_linear)"/>
<path d="M16.7597 41.4967C17.5089 41.4967 18.1162 40.8912 18.1162 40.1443C18.1162 39.3975 17.5089 38.792 16.7597 38.792C16.0106 38.792 15.4033 39.3975 15.4033 40.1443C15.4033 40.8912 16.0106 41.4967 16.7597 41.4967Z" fill="url(#paint23_linear)"/>
<path d="M11.7617 44.5905C12.5005 44.5905 13.0995 43.9933 13.0995 43.2567C13.0995 42.52 12.5005 41.9228 11.7617 41.9228C11.0228 41.9228 10.4238 42.52 10.4238 43.2567C10.4238 43.9933 11.0228 44.5905 11.7617 44.5905Z" fill="url(#paint24_linear)"/>
<path d="M7.73013 44.9613C8.35611 44.9613 8.86357 44.4553 8.86357 43.8312C8.86357 43.2071 8.35611 42.7012 7.73013 42.7012C7.10414 42.7012 6.59668 43.2071 6.59668 43.8312C6.59668 44.4553 7.10414 44.9613 7.73013 44.9613Z" fill="url(#paint25_linear)"/>
<path d="M4.31118 46.2762C4.93716 46.2762 5.44463 45.7703 5.44463 45.1462C5.44463 44.5221 4.93716 44.0161 4.31118 44.0161C3.68519 44.0161 3.17773 44.5221 3.17773 45.1462C3.17773 45.7703 3.68519 46.2762 4.31118 46.2762Z" fill="url(#paint26_linear)"/>
<path d="M16.8906 45.8688C17.6294 45.8688 18.2284 45.2717 18.2284 44.535C18.2284 43.7983 17.6294 43.2012 16.8906 43.2012C16.1517 43.2012 15.5527 43.7983 15.5527 44.535C15.5527 45.2717 16.1517 45.8688 16.8906 45.8688Z" fill="url(#paint27_linear)"/>
<path d="M13.3602 51.2041C14.0477 51.2041 14.6051 50.6484 14.6051 49.9629C14.6051 49.2774 14.0477 48.7217 13.3602 48.7217C12.6726 48.7217 12.1152 49.2774 12.1152 49.9629C12.1152 50.6484 12.6726 51.2041 13.3602 51.2041Z" fill="url(#paint28_linear)"/>
<path d="M8.213 51.4822C9.01344 51.4822 9.66232 50.8353 9.66232 50.0373C9.66232 49.2392 9.01344 48.5923 8.213 48.5923C7.41256 48.5923 6.76367 49.2392 6.76367 50.0373C6.76367 50.8353 7.41256 51.4822 8.213 51.4822Z" fill="url(#paint29_linear)"/>
<path d="M12.3381 56.1133C13.1899 56.1133 13.8804 55.4249 13.8804 54.5757C13.8804 53.7265 13.1899 53.0381 12.3381 53.0381C11.4864 53.0381 10.7959 53.7265 10.7959 54.5757C10.7959 55.4249 11.4864 56.1133 12.3381 56.1133Z" fill="url(#paint30_linear)"/>
<path d="M7.56226 57.0396C8.22929 57.0396 8.77003 56.5005 8.77003 55.8355C8.77003 55.1705 8.22929 54.6313 7.56226 54.6313C6.89523 54.6313 6.35449 55.1705 6.35449 55.8355C6.35449 56.5005 6.89523 57.0396 7.56226 57.0396Z" fill="url(#paint31_linear)"/>
<path d="M18.6 55.1871C19.5236 55.1871 20.2723 54.4406 20.2723 53.5198C20.2723 52.599 19.5236 51.8525 18.6 51.8525C17.6764 51.8525 16.9277 52.599 16.9277 53.5198C16.9277 54.4406 17.6764 55.1871 18.6 55.1871Z" fill="url(#paint32_linear)"/>
<path d="M12.5794 60.6893C13.462 60.6893 14.1774 59.976 14.1774 59.0961C14.1774 58.2162 13.462 57.5029 12.5794 57.5029C11.6969 57.5029 10.9814 58.2162 10.9814 59.0961C10.9814 59.976 11.6969 60.6893 12.5794 60.6893Z" fill="url(#paint33_linear)"/>
<path d="M17.9126 60.3187C18.8773 60.3187 19.6593 59.5391 19.6593 58.5773C19.6593 57.6156 18.8773 56.8359 17.9126 56.8359C16.948 56.8359 16.166 57.6156 16.166 58.5773C16.166 59.5391 16.948 60.3187 17.9126 60.3187Z" fill="url(#paint34_linear)"/>
<path d="M12.7652 64.0792C13.3501 64.0792 13.8243 63.6064 13.8243 63.0232C13.8243 62.4401 13.3501 61.9673 12.7652 61.9673C12.1802 61.9673 11.7061 62.4401 11.7061 63.0232C11.7061 63.6064 12.1802 64.0792 12.7652 64.0792Z" fill="url(#paint35_linear)"/>
<path d="M3.7349 64.672C4.31984 64.672 4.79403 64.1992 4.79403 63.616C4.79403 63.0328 4.31984 62.5601 3.7349 62.5601C3.14997 62.5601 2.67578 63.0328 2.67578 63.616C2.67578 64.1992 3.14997 64.672 3.7349 64.672Z" fill="url(#paint36_linear)"/>
<path d="M6.91169 66.0061C7.88658 66.0061 8.67689 65.2182 8.67689 64.2462C8.67689 63.2743 7.88658 62.4863 6.91169 62.4863C5.93679 62.4863 5.14648 63.2743 5.14648 64.2462C5.14648 65.2182 5.93679 66.0061 6.91169 66.0061Z" fill="url(#paint37_linear)"/>
<path d="M22.1862 65.4502C23.2124 65.4502 24.0443 64.6208 24.0443 63.5977C24.0443 62.5745 23.2124 61.7451 22.1862 61.7451C21.16 61.7451 20.3281 62.5745 20.3281 63.5977C20.3281 64.6208 21.16 65.4502 22.1862 65.4502Z" fill="url(#paint38_linear)"/>
<path d="M22.7433 68.5993C23.5643 68.5993 24.2298 67.9358 24.2298 67.1173C24.2298 66.2988 23.5643 65.6353 22.7433 65.6353C21.9224 65.6353 21.2568 66.2988 21.2568 67.1173C21.2568 67.9358 21.9224 68.5993 22.7433 68.5993Z" fill="url(#paint39_linear)"/>
<path d="M21.7027 74.9166C22.2773 74.9166 22.7432 74.4522 22.7432 73.8792C22.7432 73.3063 22.2773 72.8418 21.7027 72.8418C21.128 72.8418 20.6621 73.3063 20.6621 73.8792C20.6621 74.4522 21.128 74.9166 21.7027 74.9166Z" fill="url(#paint40_linear)"/>
<path d="M21.5171 78.5478C22.4715 78.5478 23.2451 77.7764 23.2451 76.8249C23.2451 75.8734 22.4715 75.1021 21.5171 75.1021C20.5627 75.1021 19.7891 75.8734 19.7891 76.8249C19.7891 77.7764 20.5627 78.5478 21.5171 78.5478Z" fill="url(#paint41_linear)"/>
<path d="M26.236 60.3744C26.8517 60.3744 27.3508 59.8768 27.3508 59.2629C27.3508 58.649 26.8517 58.1514 26.236 58.1514C25.6202 58.1514 25.1211 58.649 25.1211 59.2629C25.1211 59.8768 25.6202 60.3744 26.236 60.3744Z" fill="url(#paint42_linear)"/>
<path d="M27.37 65.6537C28.0678 65.6537 28.6335 65.0897 28.6335 64.394C28.6335 63.6983 28.0678 63.1343 27.37 63.1343C26.6721 63.1343 26.1064 63.6983 26.1064 64.394C26.1064 65.0897 26.6721 65.6537 27.37 65.6537Z" fill="url(#paint43_linear)"/>
<path d="M26.2363 69.3033C26.9854 69.3033 27.5927 68.6979 27.5927 67.951C27.5927 67.2041 26.9854 66.5986 26.2363 66.5986C25.4872 66.5986 24.8799 67.2041 24.8799 67.951C24.8799 68.6979 25.4872 69.3033 26.2363 69.3033Z" fill="url(#paint44_linear)"/>
<path d="M32.3872 69.4147C32.9516 69.4147 33.4092 68.9586 33.4092 68.3959C33.4092 67.8331 32.9516 67.377 32.3872 67.377C31.8228 67.377 31.3652 67.8331 31.3652 68.3959C31.3652 68.9586 31.8228 69.4147 32.3872 69.4147Z" fill="url(#paint45_linear)"/>
<path d="M31.6626 73.5274C32.2476 73.5274 32.7218 73.0547 32.7218 72.4715C32.7218 71.8883 32.2476 71.4155 31.6626 71.4155C31.0777 71.4155 30.6035 71.8883 30.6035 72.4715C30.6035 73.0547 31.0777 73.5274 31.6626 73.5274Z" fill="url(#paint46_linear)"/>
<path d="M36.2512 79.622C37.1133 79.622 37.8121 78.9253 37.8121 78.0659C37.8121 77.2065 37.1133 76.5098 36.2512 76.5098C35.3892 76.5098 34.6904 77.2065 34.6904 78.0659C34.6904 78.9253 35.3892 79.622 36.2512 79.622Z" fill="url(#paint47_linear)"/>
<path d="M40.0974 84.6242C40.7542 84.6242 41.2866 84.0934 41.2866 83.4386C41.2866 82.7838 40.7542 82.2529 40.0974 82.2529C39.4406 82.2529 38.9082 82.7838 38.9082 83.4386C38.9082 84.0934 39.4406 84.6242 40.0974 84.6242Z" fill="url(#paint48_linear)"/>
<path d="M45.3375 88.8848C45.9327 88.8848 46.4152 88.4037 46.4152 87.8103C46.4152 87.2169 45.9327 86.7358 45.3375 86.7358C44.7423 86.7358 44.2598 87.2169 44.2598 87.8103C44.2598 88.4037 44.7423 88.8848 45.3375 88.8848Z" fill="url(#paint49_linear)"/>
<path d="M42.5132 87.2915C43.1084 87.2915 43.591 86.8105 43.591 86.2171C43.591 85.6236 43.1084 85.1426 42.5132 85.1426C41.918 85.1426 41.4355 85.6236 41.4355 86.2171C41.4355 86.8105 41.918 87.2915 42.5132 87.2915Z" fill="url(#paint50_linear)"/>
<path d="M49.2585 94.2941C49.9153 94.2941 50.4477 93.7633 50.4477 93.1085C50.4477 92.4537 49.9153 91.9229 49.2585 91.9229C48.6018 91.9229 48.0693 92.4537 48.0693 93.1085C48.0693 93.7633 48.6018 94.2941 49.2585 94.2941Z" fill="url(#paint51_linear)"/>
<path d="M50.7077 99.5182C51.3645 99.5182 51.8969 98.9874 51.8969 98.3326C51.8969 97.6778 51.3645 97.147 50.7077 97.147C50.051 97.147 49.5186 97.6778 49.5186 98.3326C49.5186 98.9874 50.051 99.5182 50.7077 99.5182Z" fill="url(#paint52_linear)"/>
<path d="M37.0695 69.4148C37.8802 69.4148 38.5374 68.7596 38.5374 67.9513C38.5374 67.143 37.8802 66.4878 37.0695 66.4878C36.2588 66.4878 35.6016 67.143 35.6016 67.9513C35.6016 68.7596 36.2588 69.4148 37.0695 69.4148Z" fill="url(#paint53_linear)"/>
<path d="M41.7516 70.2298C42.3776 70.2298 42.8851 69.7239 42.8851 69.0998C42.8851 68.4757 42.3776 67.9697 41.7516 67.9697C41.1256 67.9697 40.6182 68.4757 40.6182 69.0998C40.6182 69.7239 41.1256 70.2298 41.7516 70.2298Z" fill="url(#paint54_linear)"/>
<path d="M41.5105 75.3612C42.5572 75.3612 43.4058 74.5152 43.4058 73.4716C43.4058 72.428 42.5572 71.582 41.5105 71.582C40.4638 71.582 39.6152 72.428 39.6152 73.4716C39.6152 74.5152 40.4638 75.3612 41.5105 75.3612Z" fill="url(#paint55_linear)"/>
<path d="M45.1517 75.5652C46.0445 75.5652 46.7683 74.8436 46.7683 73.9535C46.7683 73.0634 46.0445 72.3418 45.1517 72.3418C44.2589 72.3418 43.5352 73.0634 43.5352 73.9535C43.5352 74.8436 44.2589 75.5652 45.1517 75.5652Z" fill="url(#paint56_linear)"/>
<path d="M41.9002 78.5293C42.5775 78.5293 43.1265 77.9819 43.1265 77.3067C43.1265 76.6314 42.5775 76.084 41.9002 76.084C41.2229 76.084 40.6738 76.6314 40.6738 77.3067C40.6738 77.9819 41.2229 78.5293 41.9002 78.5293Z" fill="url(#paint57_linear)"/>
<path d="M51.1725 79.7516C52.1782 79.7516 52.9935 78.9388 52.9935 77.9361C52.9935 76.9334 52.1782 76.1206 51.1725 76.1206C50.1668 76.1206 49.3516 76.9334 49.3516 77.9361C49.3516 78.9388 50.1668 79.7516 51.1725 79.7516Z" fill="url(#paint58_linear)"/>
<path d="M44.9293 84.3831C45.5553 84.3831 46.0628 83.8772 46.0628 83.2531C46.0628 82.629 45.5553 82.123 44.9293 82.123C44.3034 82.123 43.7959 82.629 43.7959 83.2531C43.7959 83.8772 44.3034 84.3831 44.9293 84.3831Z" fill="url(#paint59_linear)"/>
<path d="M51.4692 83.0861C52.0336 83.0861 52.4912 82.63 52.4912 82.0672C52.4912 81.5045 52.0336 81.0483 51.4692 81.0483C50.9048 81.0483 50.4473 81.5045 50.4473 82.0672C50.4473 82.63 50.9048 83.0861 51.4692 83.0861Z" fill="url(#paint60_linear)"/>
<path d="M55.0932 85.1243C55.6474 85.1243 56.0966 84.6764 56.0966 84.1239C56.0966 83.5714 55.6474 83.1235 55.0932 83.1235C54.5391 83.1235 54.0898 83.5714 54.0898 84.1239C54.0898 84.6764 54.5391 85.1243 55.0932 85.1243Z" fill="url(#paint61_linear)"/>
<path d="M59.8315 77.8064C60.3857 77.8064 60.8349 77.3585 60.8349 76.806C60.8349 76.2535 60.3857 75.8057 59.8315 75.8057C59.2774 75.8057 58.8281 76.2535 58.8281 76.806C58.8281 77.3585 59.2774 77.8064 59.8315 77.8064Z" fill="url(#paint62_linear)"/>
<path d="M51.7293 88.1625C52.4272 88.1625 52.9928 87.5985 52.9928 86.9028C52.9928 86.2071 52.4272 85.6431 51.7293 85.6431C51.0315 85.6431 50.4658 86.2071 50.4658 86.9028C50.4658 87.5985 51.0315 88.1625 51.7293 88.1625Z" fill="url(#paint63_linear)"/>
<path d="M56.6352 89.3294C57.1791 89.3294 57.62 88.8898 57.62 88.3476C57.62 87.8053 57.1791 87.3657 56.6352 87.3657C56.0913 87.3657 55.6504 87.8053 55.6504 88.3476C55.6504 88.8898 56.0913 89.3294 56.6352 89.3294Z" fill="url(#paint64_linear)"/>
<path d="M60.184 89.1998C61.1076 89.1998 61.8563 88.4533 61.8563 87.5325C61.8563 86.6117 61.1076 85.8652 60.184 85.8652C59.2604 85.8652 58.5117 86.6117 58.5117 87.5325C58.5117 88.4533 59.2604 89.1998 60.184 89.1998Z" fill="url(#paint65_linear)"/>
<path d="M55.2787 92.9977C56.2023 92.9977 56.951 92.2512 56.951 91.3304C56.951 90.4096 56.2023 89.6631 55.2787 89.6631C54.3552 89.6631 53.6064 90.4096 53.6064 91.3304C53.6064 92.2512 54.3552 92.9977 55.2787 92.9977Z" fill="url(#paint66_linear)"/>
<path d="M64.9223 93.1271C65.4868 93.1271 65.9443 92.671 65.9443 92.1083C65.9443 91.5455 65.4868 91.0894 64.9223 91.0894C64.3579 91.0894 63.9004 91.5455 63.9004 92.1083C63.9004 92.671 64.3579 93.1271 64.9223 93.1271Z" fill="url(#paint67_linear)"/>
<path d="M28.1318 75.4724C28.8604 75.4724 29.451 74.8835 29.451 74.1571C29.451 73.4307 28.8604 72.8418 28.1318 72.8418C27.4032 72.8418 26.8125 73.4307 26.8125 74.1571C26.8125 74.8835 27.4032 75.4724 28.1318 75.4724Z" fill="url(#paint68_linear)"/>
<path d="M31.5688 55.9465C32.1332 55.9465 32.5908 55.4903 32.5908 54.9276C32.5908 54.3649 32.1332 53.9087 31.5688 53.9087C31.0044 53.9087 30.5469 54.3649 30.5469 54.9276C30.5469 55.4903 31.0044 55.9465 31.5688 55.9465Z" fill="url(#paint69_linear)"/>
<path d="M35.62 51.2782C36.3281 51.2782 36.9021 50.7059 36.9021 49.9999C36.9021 49.294 36.3281 48.7217 35.62 48.7217C34.9119 48.7217 34.3379 49.294 34.3379 49.9999C34.3379 50.7059 34.9119 51.2782 35.62 51.2782Z" fill="url(#paint70_linear)"/>
<path d="M41.5283 46.8136C42.2774 46.8136 42.8847 46.2081 42.8847 45.4612C42.8847 44.7144 42.2774 44.1089 41.5283 44.1089C40.7792 44.1089 40.1719 44.7144 40.1719 45.4612C40.1719 46.2081 40.7792 46.8136 41.5283 46.8136Z" fill="url(#paint71_linear)"/>
<path d="M45.9321 41.7931C46.8556 41.7931 47.6044 41.0466 47.6044 40.1258C47.6044 39.205 46.8556 38.4585 45.9321 38.4585C45.0085 38.4585 44.2598 39.205 44.2598 40.1258C44.2598 41.0466 45.0085 41.7931 45.9321 41.7931Z" fill="url(#paint72_linear)"/>
<path d="M51.9712 36.143C52.9256 36.143 53.6992 35.3716 53.6992 34.4201C53.6992 33.4686 52.9256 32.6973 51.9712 32.6973C51.0168 32.6973 50.2432 33.4686 50.2432 34.4201C50.2432 35.3716 51.0168 36.143 51.9712 36.143Z" fill="url(#paint73_linear)"/>
<path d="M56.3753 32.9013C57.2476 32.9013 57.9547 32.1963 57.9547 31.3266C57.9547 30.457 57.2476 29.752 56.3753 29.752C55.503 29.752 54.7959 30.457 54.7959 31.3266C54.7959 32.1963 55.503 32.9013 56.3753 32.9013Z" fill="url(#paint74_linear)"/>
<path d="M23.5055 59.9481C24.1212 59.9481 24.6204 59.4505 24.6204 58.8366C24.6204 58.2227 24.1212 57.7251 23.5055 57.7251C22.8898 57.7251 22.3906 58.2227 22.3906 58.8366C22.3906 59.4505 22.8898 59.9481 23.5055 59.9481Z" fill="url(#paint75_linear)"/>
<path d="M27.3704 56.058C28.2427 56.058 28.9498 55.353 28.9498 54.4833C28.9498 53.6137 28.2427 52.9087 27.3704 52.9087C26.4981 52.9087 25.791 53.6137 25.791 54.4833C25.791 55.353 26.4981 56.058 27.3704 56.058Z" fill="url(#paint76_linear)"/>
<path d="M30.696 51.1671C31.7119 51.1671 32.5355 50.3459 32.5355 49.333C32.5355 48.3201 31.7119 47.499 30.696 47.499C29.68 47.499 28.8564 48.3201 28.8564 49.333C28.8564 50.3459 29.68 51.1671 30.696 51.1671Z" fill="url(#paint77_linear)"/>
<path d="M37.7564 45.5355C38.721 45.5355 39.503 44.7559 39.503 43.7941C39.503 42.8324 38.721 42.0527 37.7564 42.0527C36.7918 42.0527 36.0098 42.8324 36.0098 43.7941C36.0098 44.7559 36.7918 45.5355 37.7564 45.5355Z" fill="url(#paint78_linear)"/>
<path d="M41.5288 40.7003C42.1035 40.7003 42.5694 40.2359 42.5694 39.6629C42.5694 39.09 42.1035 38.6255 41.5288 38.6255C40.9541 38.6255 40.4883 39.09 40.4883 39.6629C40.4883 40.2359 40.9541 40.7003 41.5288 40.7003Z" fill="url(#paint79_linear)"/>
<path d="M45.654 37.1432C46.3108 37.1432 46.8432 36.6124 46.8432 35.9576C46.8432 35.3028 46.3108 34.772 45.654 34.772C44.9973 34.772 44.4648 35.3028 44.4648 35.9576C44.4648 36.6124 44.9973 37.1432 45.654 37.1432Z" fill="url(#paint80_linear)"/>
<path d="M50.7262 31.4373C51.3522 31.4373 51.8597 30.9314 51.8597 30.3073C51.8597 29.6832 51.3522 29.1772 50.7262 29.1772C50.1002 29.1772 49.5928 29.6832 49.5928 30.3073C49.5928 30.9314 50.1002 31.4373 50.7262 31.4373Z" fill="url(#paint81_linear)"/>
<path d="M32.5544 65.8393C33.5909 65.8393 34.4311 65.0016 34.4311 63.9682C34.4311 62.9349 33.5909 62.0972 32.5544 62.0972C31.518 62.0972 30.6777 62.9349 30.6777 63.9682C30.6777 65.0016 31.518 65.8393 32.5544 65.8393Z" fill="url(#paint82_linear)"/>
<path d="M35.285 60.4482C35.9828 60.4482 36.5485 59.8842 36.5485 59.1884C36.5485 58.4927 35.9828 57.9287 35.285 57.9287C34.5872 57.9287 34.0215 58.4927 34.0215 59.1884C34.0215 59.8842 34.5872 60.4482 35.285 60.4482Z" fill="url(#paint83_linear)"/>
<path d="M36.1777 63.82C36.9166 63.82 37.5155 63.2228 37.5155 62.4862C37.5155 61.7495 36.9166 61.1523 36.1777 61.1523C35.4388 61.1523 34.8398 61.7495 34.8398 62.4862C34.8398 63.2228 35.4388 63.82 36.1777 63.82Z" fill="url(#paint84_linear)"/>
<path d="M40.8223 54.057C41.6125 54.057 42.2531 53.4184 42.2531 52.6306C42.2531 51.8427 41.6125 51.2041 40.8223 51.2041C40.0322 51.2041 39.3916 51.8427 39.3916 52.6306C39.3916 53.4184 40.0322 54.057 40.8223 54.057Z" fill="url(#paint85_linear)"/>
<path d="M46.8242 50.4263C47.5939 50.4263 48.2178 49.8042 48.2178 49.0369C48.2178 48.2695 47.5939 47.6475 46.8242 47.6475C46.0546 47.6475 45.4307 48.2695 45.4307 49.0369C45.4307 49.8042 46.0546 50.4263 46.8242 50.4263Z" fill="url(#paint86_linear)"/>
<path d="M54.8887 50.6484C55.6584 50.6484 56.2823 50.0264 56.2823 49.259C56.2823 48.4917 55.6584 47.8696 54.8887 47.8696C54.119 47.8696 53.4951 48.4917 53.4951 49.259C53.4951 50.0264 54.119 50.6484 54.8887 50.6484Z" fill="url(#paint87_linear)"/>
<path d="M50.2622 46.1836C51.196 46.1836 51.953 45.4289 51.953 44.4978C51.953 43.5668 51.196 42.812 50.2622 42.812C49.3283 42.812 48.5713 43.5668 48.5713 44.4978C48.5713 45.4289 49.3283 46.1836 50.2622 46.1836Z" fill="url(#paint88_linear)"/>
<path d="M55.6318 42.5157C56.3809 42.5157 56.9882 41.9103 56.9882 41.1634C56.9882 40.4165 56.3809 39.811 55.6318 39.811C54.8827 39.811 54.2754 40.4165 54.2754 41.1634C54.2754 41.9103 54.8827 42.5157 55.6318 42.5157Z" fill="url(#paint89_linear)"/>
<path d="M64.2164 31.9563C65.2016 31.9563 66.0002 31.1601 66.0002 30.1778C66.0002 29.1956 65.2016 28.3994 64.2164 28.3994C63.2312 28.3994 62.4326 29.1956 62.4326 30.1778C62.4326 31.1601 63.2312 31.9563 64.2164 31.9563Z" fill="url(#paint90_linear)"/>
<path d="M36.0846 54.8167C36.7106 54.8167 37.2181 54.3108 37.2181 53.6867C37.2181 53.0626 36.7106 52.5566 36.0846 52.5566C35.4586 52.5566 34.9512 53.0626 34.9512 53.6867C34.9512 54.3108 35.4586 54.8167 36.0846 54.8167Z" fill="url(#paint91_linear)"/>
<path d="M40.7478 50.8893C41.4046 50.8893 41.937 50.3585 41.937 49.7037C41.937 49.0489 41.4046 48.5181 40.7478 48.5181C40.091 48.5181 39.5586 49.0489 39.5586 49.7037C39.5586 50.3585 40.091 50.8893 40.7478 50.8893Z" fill="url(#paint92_linear)"/>
<path d="M47.5308 44.3869C48.1054 44.3869 48.5713 43.9224 48.5713 43.3494C48.5713 42.7765 48.1054 42.312 47.5308 42.312C46.9561 42.312 46.4902 42.7765 46.4902 43.3494C46.4902 43.9224 46.9561 44.3869 47.5308 44.3869Z" fill="url(#paint93_linear)"/>
<path d="M50.2622 39.8665C50.8163 39.8665 51.2655 39.4186 51.2655 38.8661C51.2655 38.3136 50.8163 37.8657 50.2622 37.8657C49.708 37.8657 49.2588 38.3136 49.2588 38.8661C49.2588 39.4186 49.708 39.8665 50.2622 39.8665Z" fill="url(#paint94_linear)"/>
<path d="M55.6687 37.0139C56.3152 37.0139 56.8393 36.4914 56.8393 35.8468C56.8393 35.2022 56.3152 34.6797 55.6687 34.6797C55.0221 34.6797 54.498 35.2022 54.498 35.8468C54.498 36.4914 55.0221 37.0139 55.6687 37.0139Z" fill="url(#paint95_linear)"/>
<path d="M61.169 31.2338C61.9489 31.2338 62.5812 30.6035 62.5812 29.8259C62.5812 29.0483 61.9489 28.418 61.169 28.418C60.3891 28.418 59.7568 29.0483 59.7568 29.8259C59.7568 30.6035 60.3891 31.2338 61.169 31.2338Z" fill="url(#paint96_linear)"/>
<path d="M11.6315 69.3592C12.2678 69.3592 12.7835 68.8449 12.7835 68.2106C12.7835 67.5762 12.2678 67.062 11.6315 67.062C10.9953 67.062 10.4795 67.5762 10.4795 68.2106C10.4795 68.8449 10.9953 69.3592 11.6315 69.3592Z" fill="url(#paint97_linear)"/>
<path d="M7.63688 70.3039C8.45784 70.3039 9.12336 69.6404 9.12336 68.8219C9.12336 68.0034 8.45784 67.3398 7.63688 67.3398C6.81591 67.3398 6.15039 68.0034 6.15039 68.8219C6.15039 69.6404 6.81591 70.3039 7.63688 70.3039Z" fill="url(#paint98_linear)"/>
<path d="M17.2434 70.526C18.0849 70.526 18.767 69.8458 18.767 69.0069C18.767 68.1679 18.0849 67.4878 17.2434 67.4878C16.4019 67.4878 15.7197 68.1679 15.7197 69.0069C15.7197 69.8458 16.4019 70.526 17.2434 70.526Z" fill="url(#paint99_linear)"/>
<path d="M12.5425 74.0832C13.1069 74.0832 13.5644 73.627 13.5644 73.0643C13.5644 72.5016 13.1069 72.0454 12.5425 72.0454C11.9781 72.0454 11.5205 72.5016 11.5205 73.0643C11.5205 73.627 11.9781 74.0832 12.5425 74.0832Z" fill="url(#paint100_linear)"/>
<path d="M1.02196 73.6755C1.58637 73.6755 2.04392 73.2193 2.04392 72.6566C2.04392 72.0939 1.58637 71.6377 1.02196 71.6377C0.457547 71.6377 0 72.0939 0 72.6566C0 73.2193 0.457547 73.6755 1.02196 73.6755Z" fill="url(#paint101_linear)"/>
<path d="M7.785 74.7499C8.48282 74.7499 9.04851 74.1859 9.04851 73.4902C9.04851 72.7945 8.48282 72.2305 7.785 72.2305C7.08718 72.2305 6.52148 72.7945 6.52148 73.4902C6.52148 74.1859 7.08718 74.7499 7.785 74.7499Z" fill="url(#paint102_linear)"/>
<path d="M17.8009 74.7498C18.6116 74.7498 19.2688 74.0945 19.2688 73.2863C19.2688 72.478 18.6116 71.8228 17.8009 71.8228C16.9902 71.8228 16.333 72.478 16.333 73.2863C16.333 74.0945 16.9902 74.7498 17.8009 74.7498Z" fill="url(#paint103_linear)"/>
<path d="M12.4496 78.307C12.9935 78.307 13.4344 77.8674 13.4344 77.3251C13.4344 76.7828 12.9935 76.3433 12.4496 76.3433C11.9058 76.3433 11.4648 76.7828 11.4648 77.3251C11.4648 77.8674 11.9058 78.307 12.4496 78.307Z" fill="url(#paint104_linear)"/>
<path d="M7.02418 78.6588C7.69121 78.6588 8.23195 78.1197 8.23195 77.4546C8.23195 76.7896 7.69121 76.2505 7.02418 76.2505C6.35714 76.2505 5.81641 76.7896 5.81641 77.4546C5.81641 78.1197 6.35714 78.6588 7.02418 78.6588Z" fill="url(#paint105_linear)"/>
<path d="M17.4109 79.1217C18.0779 79.1217 18.6187 78.5826 18.6187 77.9175C18.6187 77.2525 18.0779 76.7134 17.4109 76.7134C16.7439 76.7134 16.2031 77.2525 16.2031 77.9175C16.2031 78.5826 16.7439 79.1217 17.4109 79.1217Z" fill="url(#paint106_linear)"/>
<path d="M8.77061 82.5306C9.57105 82.5306 10.2199 81.8836 10.2199 81.0856C10.2199 80.2876 9.57105 79.6406 8.77061 79.6406C7.97017 79.6406 7.32129 80.2876 7.32129 81.0856C7.32129 81.8836 7.97017 82.5306 8.77061 82.5306Z" fill="url(#paint107_linear)"/>
<path d="M16.6305 83.4012C17.2668 83.4012 17.7826 82.8869 17.7826 82.2526C17.7826 81.6182 17.2668 81.104 16.6305 81.104C15.9943 81.104 15.4785 81.6182 15.4785 82.2526C15.4785 82.8869 15.9943 83.4012 16.6305 83.4012Z" fill="url(#paint108_linear)"/>
<path d="M13.8989 87.0139C14.4633 87.0139 14.9209 86.5577 14.9209 85.995C14.9209 85.4323 14.4633 84.9761 13.8989 84.9761C13.3345 84.9761 12.877 85.4323 12.877 85.995C12.877 86.5577 13.3345 87.0139 13.8989 87.0139Z" fill="url(#paint109_linear)"/>
<path d="M3.40087 87.4582C3.96528 87.4582 4.42283 87.002 4.42283 86.4393C4.42283 85.8766 3.96528 85.4204 3.40087 85.4204C2.83645 85.4204 2.37891 85.8766 2.37891 86.4393C2.37891 87.002 2.83645 87.4582 3.40087 87.4582Z" fill="url(#paint110_linear)"/>
<path d="M7.84103 87.9029C8.68252 87.9029 9.36468 87.2228 9.36468 86.3838C9.36468 85.5449 8.68252 84.8647 7.84103 84.8647C6.99954 84.8647 6.31738 85.5449 6.31738 86.3838C6.31738 87.2228 6.99954 87.9029 7.84103 87.9029Z" fill="url(#paint111_linear)"/>
<path d="M16.5556 88.1251C17.3048 88.1251 17.9121 87.5197 17.9121 86.7728C17.9121 86.0259 17.3048 85.4204 16.5556 85.4204C15.8065 85.4204 15.1992 86.0259 15.1992 86.7728C15.1992 87.5197 15.8065 88.1251 16.5556 88.1251Z" fill="url(#paint112_linear)"/>
<path d="M12.8205 93.3122C13.6414 93.3122 14.307 92.6487 14.307 91.8302C14.307 91.0117 13.6414 90.3481 12.8205 90.3481C11.9995 90.3481 11.334 91.0117 11.334 91.8302C11.334 92.6487 11.9995 93.3122 12.8205 93.3122Z" fill="url(#paint113_linear)"/>
<path d="M7.26549 94.535C7.97357 94.535 8.54759 93.9627 8.54759 93.2568C8.54759 92.5508 7.97357 91.9785 7.26549 91.9785C6.55741 91.9785 5.9834 92.5508 5.9834 93.2568C5.9834 93.9627 6.55741 94.535 7.26549 94.535Z" fill="url(#paint114_linear)"/>
<path d="M18.0982 93.3862C18.7037 93.3862 19.1945 92.8968 19.1945 92.2932C19.1945 91.6895 18.7037 91.2002 18.0982 91.2002C17.4928 91.2002 17.002 91.6895 17.002 92.2932C17.002 92.8968 17.4928 93.3862 18.0982 93.3862Z" fill="url(#paint115_linear)"/>
<path d="M17.5592 100C18.1646 100 18.6555 99.5106 18.6555 98.907C18.6555 98.3033 18.1646 97.814 17.5592 97.814C16.9537 97.814 16.4629 98.3033 16.4629 98.907C16.4629 99.5106 16.9537 100 17.5592 100Z" fill="url(#paint116_linear)"/>
<rect width="104" height="24.9999" fill="black" fill-opacity="0" transform="translate(81 41)"/>
<path d="M184.593 57.9998C184.24 57.3332 183.888 56.9998 183.536 56.6665C183.183 56.3332 182.479 55.9998 182.126 55.6665C181.421 55.3332 181.069 55.3332 180.364 54.9998C179.66 54.6665 179.307 54.6665 178.603 54.3332C177.898 53.9998 177.546 53.9998 177.193 53.6665C176.841 53.3332 176.488 53.3332 176.136 52.9998C175.431 52.6665 175.431 52.3332 175.431 51.9998C175.431 51.6665 175.431 51.3332 175.784 50.9998C175.784 50.6665 176.136 50.3332 176.488 50.3332C176.841 49.9998 177.193 49.9998 177.546 49.6665C177.898 49.6665 178.603 49.3332 178.955 49.3332C179.66 49.3332 180.012 49.3332 180.717 49.6665C181.069 49.6665 181.774 49.9998 182.126 49.9998C182.479 49.9998 182.831 50.3332 182.831 50.3332C183.183 50.3332 183.536 50.9998 183.536 50.9998L184.945 48.9998C184.24 48.3332 183.183 47.6665 182.479 47.3332C181.421 46.9998 180.364 46.6665 178.955 46.6665C177.898 46.6665 176.841 46.6665 176.136 46.9998C175.431 47.3332 174.727 47.6665 174.022 47.9998C173.317 48.3332 172.965 48.9998 172.613 49.6665C172.26 50.6665 171.908 51.3332 171.908 52.3332C171.908 52.9998 171.908 53.6665 172.26 54.3332C172.613 54.9998 172.965 55.3332 173.317 55.6665C173.67 55.9998 174.374 56.3332 175.079 56.6665C175.784 56.9998 176.136 56.9998 176.841 57.3332C177.546 57.6665 177.898 57.6665 178.603 57.9998C179.307 58.3332 179.66 58.3332 180.364 58.6665C180.717 58.9998 181.069 59.3332 181.421 59.6665C181.774 59.9998 181.774 60.3332 181.774 60.9999C181.774 61.3332 181.774 61.6665 181.421 61.9999C181.069 62.3332 181.069 62.6665 180.717 62.9998C180.364 63.3332 180.012 63.3332 179.66 63.6665C179.307 63.6665 178.603 63.9998 177.898 63.9998C177.193 63.9998 176.488 63.9999 176.136 63.6665C175.784 63.6665 175.079 63.3332 174.727 62.9998C174.374 62.6665 174.022 62.6665 173.67 62.3332C173.317 62.3332 172.613 61.3332 172.613 61.3332L171.203 63.6665C171.908 64.3332 172.965 64.9999 174.022 65.3332C175.079 65.6665 176.136 65.9999 177.546 65.9999C178.603 65.9999 179.66 65.9998 180.717 65.6665C181.774 65.3332 182.479 64.9999 182.831 64.3332C183.536 63.6665 183.888 63.3332 184.24 62.3332C184.593 61.3332 184.593 60.9998 184.593 59.9998C185.297 58.9998 184.945 58.3332 184.593 57.9998Z" fill="#A03CFA"/>
<path d="M164.509 49.3332C163.805 48.6665 162.748 47.9998 161.691 47.3332C160.633 46.9998 159.224 46.6665 157.815 46.6665C156.405 46.6665 154.996 46.9998 153.939 47.3332C152.882 47.6665 151.825 48.3332 151.12 49.3332C150.415 49.9998 149.71 50.9998 149.358 52.3332C149.006 53.3332 148.653 54.6665 148.653 56.3332C148.653 57.6665 149.006 58.9998 149.358 60.3332C149.71 61.3332 150.415 62.3332 151.12 63.3332C151.825 63.9998 152.882 64.6665 153.939 65.3332C154.996 65.6665 156.405 65.9999 157.815 65.9999C159.224 65.9999 160.633 65.6665 161.691 65.3332C162.748 64.9999 163.805 64.3332 164.509 63.3332C165.214 62.6665 165.919 61.6665 166.271 60.3332C166.624 59.3332 166.976 57.9998 166.976 56.3332C166.976 54.9998 166.624 53.6665 166.271 52.3332C165.919 51.3332 165.214 50.3332 164.509 49.3332ZM162.043 61.3332C160.986 62.6665 159.576 62.9998 157.815 62.9998C156.053 62.9998 154.643 62.3332 153.586 61.3332C152.529 59.9998 152.177 58.3332 152.177 56.3332C152.177 55.3332 152.177 54.3332 152.529 53.3332C152.882 52.3332 153.234 51.6665 153.586 51.3332C153.939 50.6665 154.643 50.3332 155.348 49.9998C156.053 49.6665 156.758 49.6665 157.815 49.6665C159.576 49.6665 160.986 50.3332 162.043 51.3332C163.1 52.6665 163.452 54.3332 163.452 56.3332C163.452 58.3332 162.748 59.9998 162.043 61.3332Z" fill="#A03CFA"/>
<path d="M140.901 48.9997C140.196 48.333 139.844 47.9997 138.787 47.6663C138.082 47.333 137.025 47.333 135.968 47.333H135.615H126.454V47.6663V49.9997V65.6664H129.978V52.6664V49.9997H134.911H135.263C136.32 49.9997 137.377 50.333 138.082 50.9997C138.787 51.6663 139.139 52.6664 139.139 54.333V65.6664H142.663V54.333C142.663 53.333 142.663 52.333 142.31 51.6663C141.958 50.333 141.605 49.6663 140.901 48.9997Z" fill="#A03CFA"/>
<path d="M118.35 49.3332C117.645 48.6665 116.588 47.9998 115.531 47.3332C114.474 46.9998 113.065 46.6665 111.655 46.6665C110.246 46.6665 108.837 46.9998 107.779 47.3332C106.722 47.6665 105.665 48.3332 104.961 49.3332C104.256 49.9998 103.551 50.9998 103.199 52.3332C102.846 53.3332 102.494 54.6665 102.494 56.3332C102.494 57.6665 102.846 58.9998 103.199 60.3332C103.551 61.3332 104.256 62.3332 104.961 63.3332C105.665 63.9998 106.722 64.6665 107.779 65.3332C108.837 65.6665 110.246 65.9999 111.655 65.9999C113.065 65.9999 114.474 65.6665 115.531 65.3332C116.588 64.9999 117.645 64.3332 118.35 63.3332C119.055 62.6665 119.76 61.6665 120.112 60.3332C120.464 59.3332 120.817 57.9998 120.817 56.3332C120.817 54.9998 120.464 53.6665 120.112 52.3332C119.76 51.3332 119.055 50.3332 118.35 49.3332ZM115.884 61.3332C114.827 62.6665 113.417 62.9998 111.655 62.9998C109.894 62.9998 108.484 62.3332 107.427 61.3332C106.37 59.9998 106.018 58.3332 106.018 56.3332C106.018 55.3332 106.018 54.3332 106.37 53.3332C106.722 52.3332 107.075 51.6665 107.427 51.3332C107.779 50.6665 108.484 50.3332 109.189 49.9998C109.894 49.6665 110.598 49.6665 111.655 49.6665C113.417 49.6665 114.827 50.3332 115.884 51.3332C116.941 52.6665 117.293 54.3332 117.293 56.3332C117.293 58.3332 116.588 59.9998 115.884 61.3332Z" fill="#A03CFA"/>
<path d="M93.6849 47.3333L84.1712 57.3333V41L81 43.6667V58.6667V65.3333H84.1712V61.6667L88.0471 57.6667L95.4466 65.3333H99.6749L90.1613 55.3333L98.2655 47.3333H93.6849Z" fill="#A03CFA"/>
<defs>
<linearGradient id="paint0_linear" x1="-22.2851" y1="20.4074" x2="31.9204" y2="-3.05301" gradientUnits="userSpaceOnUse">
<stop offset="0.05" stop-color="#1EC8E6"/>
<stop offset="0.4" stop-color="#554BFA"/>
<stop offset="0.6" stop-color="#A03CFA"/>
<stop offset="0.95" stop-color="#FA2DAF"/>
</linearGradient>
<linearGradient id="paint1_linear" x1="-22.1613" y1="20.6926" x2="32.0443" y2="-2.76776" gradientUnits="userSpaceOnUse">
<stop offset="0.05" stop-color="#1EC8E6"/>
<stop offset="0.4" stop-color="#554BFA"/>
<stop offset="0.6" stop-color="#A03CFA"/>
<stop offset="0.95" stop-color="#FA2DAF"/>
</linearGradient>
<linearGradient id="paint2_linear" x1="-21.075" y1="23.2021" x2="33.1305" y2="-0.258299" gradientUnits="userSpaceOnUse">
<stop offset="0.05" stop-color="#1EC8E6"/>
<stop offset="0.4" stop-color="#554BFA"/>
<stop offset="0.6" stop-color="#A03CFA"/>
<stop offset="0.95" stop-color="#FA2DAF"/>
</linearGradient>
<linearGradient id="paint3_linear" x1="-21.125" y1="23.0868" x2="33.0806" y2="-0.373578" gradientUnits="userSpaceOnUse">
<stop offset="0.05" stop-color="#1EC8E6"/>
<stop offset="0.4" stop-color="#554BFA"/>
<stop offset="0.6" stop-color="#A03CFA"/>
<stop offset="0.95" stop-color="#FA2DAF"/>
</linearGradient>
<linearGradient id="paint4_linear" x1="-21.344" y1="22.5812" x2="32.8615" y2="-0.879157" gradientUnits="userSpaceOnUse">
<stop offset="0.05" stop-color="#1EC8E6"/>
<stop offset="0.4" stop-color="#554BFA"/>
<stop offset="0.6" stop-color="#A03CFA"/>
<stop offset="0.95" stop-color="#FA2DAF"/>
</linearGradient>
<linearGradient id="paint5_linear" x1="-19.3539" y1="27.18" x2="34.8516" y2="3.71963" gradientUnits="userSpaceOnUse">
<stop offset="0.05" stop-color="#1EC8E6"/>
<stop offset="0.4" stop-color="#554BFA"/>
<stop offset="0.6" stop-color="#A03CFA"/>
<stop offset="0.95" stop-color="#FA2DAF"/>
</linearGradient>
<linearGradient id="paint6_linear" x1="-23.1255" y1="18.4649" x2="31.08" y2="-4.99545" gradientUnits="userSpaceOnUse">
<stop offset="0.05" stop-color="#1EC8E6"/>
<stop offset="0.4" stop-color="#554BFA"/>
<stop offset="0.6" stop-color="#A03CFA"/>
<stop offset="0.95" stop-color="#FA2DAF"/>
</linearGradient>
<linearGradient id="paint7_linear" x1="-18.7468" y1="28.5822" x2="35.4587" y2="5.12182" gradientUnits="userSpaceOnUse">
<stop offset="0.05" stop-color="#1EC8E6"/>
<stop offset="0.4" stop-color="#554BFA"/>
<stop offset="0.6" stop-color="#A03CFA"/>
<stop offset="0.95" stop-color="#FA2DAF"/>
</linearGradient>
<linearGradient id="paint8_linear" x1="-18.7044" y1="28.6798" x2="35.5011" y2="5.21945" gradientUnits="userSpaceOnUse">
<stop offset="0.05" stop-color="#1EC8E6"/>
<stop offset="0.4" stop-color="#554BFA"/>
<stop offset="0.6" stop-color="#A03CFA"/>
<stop offset="0.95" stop-color="#FA2DAF"/>
</linearGradient>
<linearGradient id="paint9_linear" x1="-17.5185" y1="31.4197" x2="36.687" y2="7.95929" gradientUnits="userSpaceOnUse">
<stop offset="0.05" stop-color="#1EC8E6"/>
<stop offset="0.4" stop-color="#554BFA"/>
<stop offset="0.6" stop-color="#A03CFA"/>
<stop offset="0.95" stop-color="#FA2DAF"/>
</linearGradient>
<linearGradient id="paint10_linear" x1="-17.0862" y1="32.4197" x2="37.1193" y2="8.95928" gradientUnits="userSpaceOnUse">
<stop offset="0.05" stop-color="#1EC8E6"/>
<stop offset="0.4" stop-color="#554BFA"/>
<stop offset="0.6" stop-color="#A03CFA"/>
<stop offset="0.95" stop-color="#FA2DAF"/>
</linearGradient>
<linearGradient id="paint11_linear" x1="-17.2293" y1="32.0881" x2="36.9763" y2="8.62776" gradientUnits="userSpaceOnUse">
<stop offset="0.05" stop-color="#1EC8E6"/>
<stop offset="0.4" stop-color="#554BFA"/>
<stop offset="0.6" stop-color="#A03CFA"/>
<stop offset="0.95" stop-color="#FA2DAF"/>
</linearGradient>
<linearGradient id="paint12_linear" x1="-16.1888" y1="34.4914" x2="38.0167" y2="11.031" gradientUnits="userSpaceOnUse">
<stop offset="0.05" stop-color="#1EC8E6"/>
<stop offset="0.4" stop-color="#554BFA"/>
<stop offset="0.6" stop-color="#A03CFA"/>
<stop offset="0.95" stop-color="#FA2DAF"/>
</linearGradient>
<linearGradient id="paint13_linear" x1="-14.3785" y1="38.6736" x2="39.827" y2="15.2132" gradientUnits="userSpaceOnUse">
<stop offset="0.05" stop-color="#1EC8E6"/>
<stop offset="0.4" stop-color="#554BFA"/>
<stop offset="0.6" stop-color="#A03CFA"/>
<stop offset="0.95" stop-color="#FA2DAF"/>
</linearGradient>
<linearGradient id="paint14_linear" x1="-15.0665" y1="37.0843" x2="39.139" y2="13.6239" gradientUnits="userSpaceOnUse">
<stop offset="0.05" stop-color="#1EC8E6"/>
<stop offset="0.4" stop-color="#554BFA"/>
<stop offset="0.6" stop-color="#A03CFA"/>
<stop offset="0.95" stop-color="#FA2DAF"/>
</linearGradient>
<linearGradient id="paint15_linear" x1="-15.6586" y1="35.7163" x2="38.5469" y2="12.2559" gradientUnits="userSpaceOnUse">
<stop offset="0.05" stop-color="#1EC8E6"/>
<stop offset="0.4" stop-color="#554BFA"/>
<stop offset="0.6" stop-color="#A03CFA"/>
<stop offset="0.95" stop-color="#FA2DAF"/>
</linearGradient>
<linearGradient id="paint16_linear" x1="-16.5127" y1="33.7443" x2="37.6928" y2="10.284" gradientUnits="userSpaceOnUse">
<stop offset="0.05" stop-color="#1EC8E6"/>
<stop offset="0.4" stop-color="#554BFA"/>
<stop offset="0.6" stop-color="#A03CFA"/>
<stop offset="0.95" stop-color="#FA2DAF"/>
</linearGradient>
<linearGradient id="paint17_linear" x1="-13.9158" y1="39.7433" x2="40.2897" y2="16.2829" gradientUnits="userSpaceOnUse">
<stop offset="0.05" stop-color="#1EC8E6"/>
<stop offset="0.4" stop-color="#554BFA"/>
<stop offset="0.6" stop-color="#A03CFA"/>
<stop offset="0.95" stop-color="#FA2DAF"/>
</linearGradient>
<linearGradient id="paint18_linear" x1="-13.0269" y1="41.7976" x2="41.1786" y2="18.3372" gradientUnits="userSpaceOnUse">
<stop offset="0.05" stop-color="#1EC8E6"/>
<stop offset="0.4" stop-color="#554BFA"/>
<stop offset="0.6" stop-color="#A03CFA"/>
<stop offset="0.95" stop-color="#FA2DAF"/>
</linearGradient>
<linearGradient id="paint19_linear" x1="-12.4856" y1="43.0471" x2="41.7199" y2="19.5867" gradientUnits="userSpaceOnUse">
<stop offset="0.05" stop-color="#1EC8E6"/>
<stop offset="0.4" stop-color="#554BFA"/>
<stop offset="0.6" stop-color="#A03CFA"/>
<stop offset="0.95" stop-color="#FA2DAF"/>
</linearGradient>
<linearGradient id="paint20_linear" x1="-11.9443" y1="44.2977" x2="42.2612" y2="20.8374" gradientUnits="userSpaceOnUse">
<stop offset="0.05" stop-color="#1EC8E6"/>
<stop offset="0.4" stop-color="#554BFA"/>
<stop offset="0.6" stop-color="#A03CFA"/>
<stop offset="0.95" stop-color="#FA2DAF"/>
</linearGradient>
<linearGradient id="paint21_linear" x1="-12.1115" y1="43.9132" x2="42.094" y2="20.4528" gradientUnits="userSpaceOnUse">
<stop offset="0.05" stop-color="#1EC8E6"/>
<stop offset="0.4" stop-color="#554BFA"/>
<stop offset="0.6" stop-color="#A03CFA"/>
<stop offset="0.95" stop-color="#FA2DAF"/>
</linearGradient>
<linearGradient id="paint22_linear" x1="-9.63323" y1="49.6378" x2="44.5723" y2="26.1774" gradientUnits="userSpaceOnUse">
<stop offset="0.05" stop-color="#1EC8E6"/>
<stop offset="0.4" stop-color="#554BFA"/>
<stop offset="0.6" stop-color="#A03CFA"/>
<stop offset="0.95" stop-color="#FA2DAF"/>
</linearGradient>
<linearGradient id="paint23_linear" x1="-8.95687" y1="51.2021" x2="45.2486" y2="27.7417" gradientUnits="userSpaceOnUse">
<stop offset="0.05" stop-color="#1EC8E6"/>
<stop offset="0.4" stop-color="#554BFA"/>
<stop offset="0.6" stop-color="#A03CFA"/>
<stop offset="0.95" stop-color="#FA2DAF"/>
</linearGradient>
<linearGradient id="paint24_linear" x1="-8.60521" y1="52.0141" x2="45.6003" y2="28.5537" gradientUnits="userSpaceOnUse">
<stop offset="0.05" stop-color="#1EC8E6"/>
<stop offset="0.4" stop-color="#554BFA"/>
<stop offset="0.6" stop-color="#A03CFA"/>
<stop offset="0.95" stop-color="#FA2DAF"/>
</linearGradient>
<linearGradient id="paint25_linear" x1="-9.0234" y1="51.0469" x2="45.1821" y2="27.5865" gradientUnits="userSpaceOnUse">
<stop offset="0.05" stop-color="#1EC8E6"/>
<stop offset="0.4" stop-color="#554BFA"/>
<stop offset="0.6" stop-color="#A03CFA"/>
<stop offset="0.95" stop-color="#FA2DAF"/>
</linearGradient>
<linearGradient id="paint26_linear" x1="-9.07851" y1="50.9192" x2="45.127" y2="27.4588" gradientUnits="userSpaceOnUse">
<stop offset="0.05" stop-color="#1EC8E6"/>
<stop offset="0.4" stop-color="#554BFA"/>
<stop offset="0.6" stop-color="#A03CFA"/>
<stop offset="0.95" stop-color="#FA2DAF"/>
</linearGradient>
<linearGradient id="paint27_linear" x1="-7.33037" y1="54.9585" x2="46.8751" y2="31.4982" gradientUnits="userSpaceOnUse">
<stop offset="0.05" stop-color="#1EC8E6"/>
<stop offset="0.4" stop-color="#554BFA"/>
<stop offset="0.6" stop-color="#A03CFA"/>
<stop offset="0.95" stop-color="#FA2DAF"/>
</linearGradient>
<linearGradient id="paint28_linear" x1="-5.90562" y1="58.2503" x2="48.2999" y2="34.7899" gradientUnits="userSpaceOnUse">
<stop offset="0.05" stop-color="#1EC8E6"/>
<stop offset="0.4" stop-color="#554BFA"/>
<stop offset="0.6" stop-color="#A03CFA"/>
<stop offset="0.95" stop-color="#FA2DAF"/>
</linearGradient>
<linearGradient id="paint29_linear" x1="-6.68624" y1="56.4475" x2="47.5193" y2="32.9871" gradientUnits="userSpaceOnUse">
<stop offset="0.05" stop-color="#1EC8E6"/>
<stop offset="0.4" stop-color="#554BFA"/>
<stop offset="0.6" stop-color="#A03CFA"/>
<stop offset="0.95" stop-color="#FA2DAF"/>
</linearGradient>
<linearGradient id="paint30_linear" x1="-4.38347" y1="61.7675" x2="49.822" y2="38.3071" gradientUnits="userSpaceOnUse">
<stop offset="0.05" stop-color="#1EC8E6"/>
<stop offset="0.4" stop-color="#554BFA"/>
<stop offset="0.6" stop-color="#A03CFA"/>
<stop offset="0.95" stop-color="#FA2DAF"/>
</linearGradient>
<linearGradient id="paint31_linear" x1="-4.67453" y1="61.0963" x2="49.531" y2="37.6359" gradientUnits="userSpaceOnUse">
<stop offset="0.05" stop-color="#1EC8E6"/>
<stop offset="0.4" stop-color="#554BFA"/>
<stop offset="0.6" stop-color="#A03CFA"/>
<stop offset="0.95" stop-color="#FA2DAF"/>
</linearGradient>
<linearGradient id="paint32_linear" x1="-3.78425" y1="63.1519" x2="50.4213" y2="39.6915" gradientUnits="userSpaceOnUse">
<stop offset="0.05" stop-color="#1EC8E6"/>
<stop offset="0.4" stop-color="#554BFA"/>
<stop offset="0.6" stop-color="#A03CFA"/>
<stop offset="0.95" stop-color="#FA2DAF"/>
</linearGradient>
<linearGradient id="paint33_linear" x1="-2.69354" y1="65.6729" x2="51.512" y2="42.2125" gradientUnits="userSpaceOnUse">
<stop offset="0.05" stop-color="#1EC8E6"/>
<stop offset="0.4" stop-color="#554BFA"/>
<stop offset="0.6" stop-color="#A03CFA"/>
<stop offset="0.95" stop-color="#FA2DAF"/>
</linearGradient>
<linearGradient id="paint34_linear" x1="-2.04478" y1="67.1708" x2="52.1607" y2="43.7104" gradientUnits="userSpaceOnUse">
<stop offset="0.05" stop-color="#1EC8E6"/>
<stop offset="0.4" stop-color="#554BFA"/>
<stop offset="0.6" stop-color="#A03CFA"/>
<stop offset="0.95" stop-color="#FA2DAF"/>
</linearGradient>
<linearGradient id="paint35_linear" x1="-1.23301" y1="69.0474" x2="52.9725" y2="45.587" gradientUnits="userSpaceOnUse">
<stop offset="0.05" stop-color="#1EC8E6"/>
<stop offset="0.4" stop-color="#554BFA"/>
<stop offset="0.6" stop-color="#A03CFA"/>
<stop offset="0.95" stop-color="#FA2DAF"/>
</linearGradient>
<linearGradient id="paint36_linear" x1="-2.43595" y1="66.2676" x2="51.7696" y2="42.8072" gradientUnits="userSpaceOnUse">
<stop offset="0.05" stop-color="#1EC8E6"/>
<stop offset="0.4" stop-color="#554BFA"/>
<stop offset="0.6" stop-color="#A03CFA"/>
<stop offset="0.95" stop-color="#FA2DAF"/>
</linearGradient>
<linearGradient id="paint37_linear" x1="-1.70741" y1="67.9526" x2="52.4981" y2="44.4922" gradientUnits="userSpaceOnUse">
<stop offset="0.05" stop-color="#1EC8E6"/>
<stop offset="0.4" stop-color="#554BFA"/>
<stop offset="0.6" stop-color="#A03CFA"/>
<stop offset="0.95" stop-color="#FA2DAF"/>
</linearGradient>
<linearGradient id="paint38_linear" x1="0.456738" y1="72.9506" x2="54.6623" y2="49.4903" gradientUnits="userSpaceOnUse">
<stop offset="0.05" stop-color="#1EC8E6"/>
<stop offset="0.4" stop-color="#554BFA"/>
<stop offset="0.6" stop-color="#A03CFA"/>
<stop offset="0.95" stop-color="#FA2DAF"/>
</linearGradient>
<linearGradient id="paint39_linear" x1="1.82937" y1="76.1227" x2="56.0349" y2="52.6624" gradientUnits="userSpaceOnUse">
<stop offset="0.05" stop-color="#1EC8E6"/>
<stop offset="0.4" stop-color="#554BFA"/>
<stop offset="0.6" stop-color="#A03CFA"/>
<stop offset="0.95" stop-color="#FA2DAF"/>
</linearGradient>
<linearGradient id="paint40_linear" x1="4.13004" y1="81.4389" x2="58.3355" y2="57.9785" gradientUnits="userSpaceOnUse">
<stop offset="0.05" stop-color="#1EC8E6"/>
<stop offset="0.4" stop-color="#554BFA"/>
<stop offset="0.6" stop-color="#A03CFA"/>
<stop offset="0.95" stop-color="#FA2DAF"/>
</linearGradient>
<linearGradient id="paint41_linear" x1="5.17636" y1="83.856" x2="59.3819" y2="60.3956" gradientUnits="userSpaceOnUse">
<stop offset="0.05" stop-color="#1EC8E6"/>
<stop offset="0.4" stop-color="#554BFA"/>
<stop offset="0.6" stop-color="#A03CFA"/>
<stop offset="0.95" stop-color="#FA2DAF"/>
</linearGradient>
<linearGradient id="paint42_linear" x1="-0.491535" y1="70.762" x2="53.714" y2="47.3016" gradientUnits="userSpaceOnUse">
<stop offset="0.05" stop-color="#1EC8E6"/>
<stop offset="0.4" stop-color="#554BFA"/>
<stop offset="0.6" stop-color="#A03CFA"/>
<stop offset="0.95" stop-color="#FA2DAF"/>
</linearGradient>
<linearGradient id="paint43_linear" x1="1.55472" y1="75.4882" x2="55.7602" y2="52.0278" gradientUnits="userSpaceOnUse">
<stop offset="0.05" stop-color="#1EC8E6"/>
<stop offset="0.4" stop-color="#554BFA"/>
<stop offset="0.6" stop-color="#A03CFA"/>
<stop offset="0.95" stop-color="#FA2DAF"/>
</linearGradient>
<linearGradient id="paint44_linear" x1="2.67765" y1="78.0834" x2="56.8832" y2="54.623" gradientUnits="userSpaceOnUse">
<stop offset="0.05" stop-color="#1EC8E6"/>
<stop offset="0.4" stop-color="#554BFA"/>
<stop offset="0.6" stop-color="#A03CFA"/>
<stop offset="0.95" stop-color="#FA2DAF"/>
</linearGradient>
<linearGradient id="paint45_linear" x1="3.80752" y1="80.6929" x2="58.013" y2="57.2326" gradientUnits="userSpaceOnUse">
<stop offset="0.05" stop-color="#1EC8E6"/>
<stop offset="0.4" stop-color="#554BFA"/>
<stop offset="0.6" stop-color="#A03CFA"/>
<stop offset="0.95" stop-color="#FA2DAF"/>
</linearGradient>
<linearGradient id="paint46_linear" x1="5.1817" y1="83.8678" x2="59.3872" y2="60.4074" gradientUnits="userSpaceOnUse">
<stop offset="0.05" stop-color="#1EC8E6"/>
<stop offset="0.4" stop-color="#554BFA"/>
<stop offset="0.6" stop-color="#A03CFA"/>
<stop offset="0.95" stop-color="#FA2DAF"/>
</linearGradient>
<linearGradient id="paint47_linear" x1="7.93975" y1="90.2421" x2="62.1453" y2="66.7818" gradientUnits="userSpaceOnUse">
<stop offset="0.05" stop-color="#1EC8E6"/>
<stop offset="0.4" stop-color="#554BFA"/>
<stop offset="0.6" stop-color="#A03CFA"/>
<stop offset="0.95" stop-color="#FA2DAF"/>
</linearGradient>
<linearGradient id="paint48_linear" x1="10.5024" y1="96.1638" x2="64.7079" y2="72.7034" gradientUnits="userSpaceOnUse">
<stop offset="0.05" stop-color="#1EC8E6"/>
<stop offset="0.4" stop-color="#554BFA"/>
<stop offset="0.6" stop-color="#A03CFA"/>
<stop offset="0.95" stop-color="#FA2DAF"/>
</linearGradient>
<linearGradient id="paint49_linear" x1="12.9224" y1="101.755" x2="67.128" y2="78.2942" gradientUnits="userSpaceOnUse">
<stop offset="0.05" stop-color="#1EC8E6"/>
<stop offset="0.4" stop-color="#554BFA"/>
<stop offset="0.6" stop-color="#A03CFA"/>
<stop offset="0.95" stop-color="#FA2DAF"/>
</linearGradient>
<linearGradient id="paint50_linear" x1="11.9012" y1="99.3946" x2="66.1067" y2="75.9342" gradientUnits="userSpaceOnUse">
<stop offset="0.05" stop-color="#1EC8E6"/>
<stop offset="0.4" stop-color="#554BFA"/>
<stop offset="0.6" stop-color="#A03CFA"/>
<stop offset="0.95" stop-color="#FA2DAF"/>
</linearGradient>
<linearGradient id="paint51_linear" x1="15.4759" y1="107.653" x2="69.6814" y2="84.193" gradientUnits="userSpaceOnUse">
<stop offset="0.05" stop-color="#1EC8E6"/>
<stop offset="0.4" stop-color="#554BFA"/>
<stop offset="0.6" stop-color="#A03CFA"/>
<stop offset="0.95" stop-color="#FA2DAF"/>
</linearGradient>
<linearGradient id="paint52_linear" x1="17.6095" y1="112.583" x2="71.8151" y2="89.1229" gradientUnits="userSpaceOnUse">
<stop offset="0.05" stop-color="#1EC8E6"/>
<stop offset="0.4" stop-color="#554BFA"/>
<stop offset="0.6" stop-color="#A03CFA"/>
<stop offset="0.95" stop-color="#FA2DAF"/>
</linearGradient>
<linearGradient id="paint53_linear" x1="4.37676" y1="82.0086" x2="58.5823" y2="58.5482" gradientUnits="userSpaceOnUse">
<stop offset="0.05" stop-color="#1EC8E6"/>
<stop offset="0.4" stop-color="#554BFA"/>
<stop offset="0.6" stop-color="#A03CFA"/>
<stop offset="0.95" stop-color="#FA2DAF"/>
</linearGradient>
<linearGradient id="paint54_linear" x1="5.53082" y1="84.6756" x2="59.7363" y2="61.2152" gradientUnits="userSpaceOnUse">
<stop offset="0.05" stop-color="#1EC8E6"/>
<stop offset="0.4" stop-color="#554BFA"/>
<stop offset="0.6" stop-color="#A03CFA"/>
<stop offset="0.95" stop-color="#FA2DAF"/>
</linearGradient>
<linearGradient id="paint55_linear" x1="7.09375" y1="88.2856" x2="61.2993" y2="64.8252" gradientUnits="userSpaceOnUse">
<stop offset="0.05" stop-color="#1EC8E6"/>
<stop offset="0.4" stop-color="#554BFA"/>
<stop offset="0.6" stop-color="#A03CFA"/>
<stop offset="0.95" stop-color="#FA2DAF"/>
</linearGradient>
<linearGradient id="paint56_linear" x1="7.83521" y1="90.0006" x2="62.0407" y2="66.5402" gradientUnits="userSpaceOnUse">
<stop offset="0.05" stop-color="#1EC8E6"/>
<stop offset="0.4" stop-color="#554BFA"/>
<stop offset="0.6" stop-color="#A03CFA"/>
<stop offset="0.95" stop-color="#FA2DAF"/>
</linearGradient>
<linearGradient id="paint57_linear" x1="8.54898" y1="91.6495" x2="62.7545" y2="68.1891" gradientUnits="userSpaceOnUse">
<stop offset="0.05" stop-color="#1EC8E6"/>
<stop offset="0.4" stop-color="#554BFA"/>
<stop offset="0.6" stop-color="#A03CFA"/>
<stop offset="0.95" stop-color="#FA2DAF"/>
</linearGradient>
<linearGradient id="paint58_linear" x1="10.2348" y1="95.5432" x2="64.4403" y2="72.0828" gradientUnits="userSpaceOnUse">
<stop offset="0.05" stop-color="#1EC8E6"/>
<stop offset="0.4" stop-color="#554BFA"/>
<stop offset="0.6" stop-color="#A03CFA"/>
<stop offset="0.95" stop-color="#FA2DAF"/>
</linearGradient>
<linearGradient id="paint59_linear" x1="11.1946" y1="97.7611" x2="65.4002" y2="74.3007" gradientUnits="userSpaceOnUse">
<stop offset="0.05" stop-color="#1EC8E6"/>
<stop offset="0.4" stop-color="#554BFA"/>
<stop offset="0.6" stop-color="#A03CFA"/>
<stop offset="0.95" stop-color="#FA2DAF"/>
</linearGradient>
<linearGradient id="paint60_linear" x1="11.7927" y1="99.1441" x2="65.9982" y2="75.6837" gradientUnits="userSpaceOnUse">
<stop offset="0.05" stop-color="#1EC8E6"/>
<stop offset="0.4" stop-color="#554BFA"/>
<stop offset="0.6" stop-color="#A03CFA"/>
<stop offset="0.95" stop-color="#FA2DAF"/>
</linearGradient>
<linearGradient id="paint61_linear" x1="13.1073" y1="102.18" x2="67.3128" y2="78.72" gradientUnits="userSpaceOnUse">
<stop offset="0.05" stop-color="#1EC8E6"/>
<stop offset="0.4" stop-color="#554BFA"/>
<stop offset="0.6" stop-color="#A03CFA"/>
<stop offset="0.95" stop-color="#FA2DAF"/>
</linearGradient>
<linearGradient id="paint62_linear" x1="11.1803" y1="97.7275" x2="65.3859" y2="74.2671" gradientUnits="userSpaceOnUse">
<stop offset="0.05" stop-color="#1EC8E6"/>
<stop offset="0.4" stop-color="#554BFA"/>
<stop offset="0.6" stop-color="#A03CFA"/>
<stop offset="0.95" stop-color="#FA2DAF"/>
</linearGradient>
<linearGradient id="paint63_linear" x1="13.5962" y1="103.312" x2="67.8017" y2="79.8514" gradientUnits="userSpaceOnUse">
<stop offset="0.05" stop-color="#1EC8E6"/>
<stop offset="0.4" stop-color="#554BFA"/>
<stop offset="0.6" stop-color="#A03CFA"/>
<stop offset="0.95" stop-color="#FA2DAF"/>
</linearGradient>
<linearGradient id="paint64_linear" x1="14.8926" y1="106.306" x2="69.0981" y2="82.8453" gradientUnits="userSpaceOnUse">
<stop offset="0.05" stop-color="#1EC8E6"/>
<stop offset="0.4" stop-color="#554BFA"/>
<stop offset="0.6" stop-color="#A03CFA"/>
<stop offset="0.95" stop-color="#FA2DAF"/>
</linearGradient>
<linearGradient id="paint65_linear" x1="15.1529" y1="106.908" x2="69.3584" y2="83.4472" gradientUnits="userSpaceOnUse">
<stop offset="0.05" stop-color="#1EC8E6"/>
<stop offset="0.4" stop-color="#554BFA"/>
<stop offset="0.6" stop-color="#A03CFA"/>
<stop offset="0.95" stop-color="#FA2DAF"/>
</linearGradient>
<linearGradient id="paint66_linear" x1="15.7711" y1="108.336" x2="69.9766" y2="84.8754" gradientUnits="userSpaceOnUse">
<stop offset="0.05" stop-color="#1EC8E6"/>
<stop offset="0.4" stop-color="#554BFA"/>
<stop offset="0.6" stop-color="#A03CFA"/>
<stop offset="0.95" stop-color="#FA2DAF"/>
</linearGradient>
<linearGradient id="paint67_linear" x1="17.5647" y1="112.48" x2="71.7702" y2="89.0194" gradientUnits="userSpaceOnUse">
<stop offset="0.05" stop-color="#1EC8E6"/>
<stop offset="0.4" stop-color="#554BFA"/>
<stop offset="0.6" stop-color="#A03CFA"/>
<stop offset="0.95" stop-color="#FA2DAF"/>
</linearGradient>
<linearGradient id="paint68_linear" x1="5.24258" y1="84.0093" x2="59.4481" y2="60.549" gradientUnits="userSpaceOnUse">
<stop offset="0.05" stop-color="#1EC8E6"/>
<stop offset="0.4" stop-color="#554BFA"/>
<stop offset="0.6" stop-color="#A03CFA"/>
<stop offset="0.95" stop-color="#FA2DAF"/>
</linearGradient>
<linearGradient id="paint69_linear" x1="-1.23404" y1="69.0458" x2="52.9715" y2="45.5854" gradientUnits="userSpaceOnUse">
<stop offset="0.05" stop-color="#1EC8E6"/>
<stop offset="0.4" stop-color="#554BFA"/>
<stop offset="0.6" stop-color="#A03CFA"/>
<stop offset="0.95" stop-color="#FA2DAF"/>
</linearGradient>
<linearGradient id="paint70_linear" x1="-2.40172" y1="66.3469" x2="51.8038" y2="42.8865" gradientUnits="userSpaceOnUse">
<stop offset="0.05" stop-color="#1EC8E6"/>
<stop offset="0.4" stop-color="#554BFA"/>
<stop offset="0.6" stop-color="#A03CFA"/>
<stop offset="0.95" stop-color="#FA2DAF"/>
</linearGradient>
<linearGradient id="paint71_linear" x1="-3.13083" y1="64.6634" x2="51.0747" y2="41.203" gradientUnits="userSpaceOnUse">
<stop offset="0.05" stop-color="#1EC8E6"/>
<stop offset="0.4" stop-color="#554BFA"/>
<stop offset="0.6" stop-color="#A03CFA"/>
<stop offset="0.95" stop-color="#FA2DAF"/>
</linearGradient>
<linearGradient id="paint72_linear" x1="-4.38559" y1="61.764" x2="49.8199" y2="38.3036" gradientUnits="userSpaceOnUse">
<stop offset="0.05" stop-color="#1EC8E6"/>
<stop offset="0.4" stop-color="#554BFA"/>
<stop offset="0.6" stop-color="#A03CFA"/>
<stop offset="0.95" stop-color="#FA2DAF"/>
</linearGradient>
<linearGradient id="paint73_linear" x1="-5.51544" y1="59.1529" x2="48.6901" y2="35.6925" gradientUnits="userSpaceOnUse">
<stop offset="0.05" stop-color="#1EC8E6"/>
<stop offset="0.4" stop-color="#554BFA"/>
<stop offset="0.6" stop-color="#A03CFA"/>
<stop offset="0.95" stop-color="#FA2DAF"/>
</linearGradient>
<linearGradient id="paint74_linear" x1="-5.95694" y1="58.1322" x2="48.2486" y2="34.6719" gradientUnits="userSpaceOnUse">
<stop offset="0.05" stop-color="#1EC8E6"/>
<stop offset="0.4" stop-color="#554BFA"/>
<stop offset="0.6" stop-color="#A03CFA"/>
<stop offset="0.95" stop-color="#FA2DAF"/>
</linearGradient>
<linearGradient id="paint75_linear" x1="-1.07438" y1="69.4129" x2="53.1311" y2="45.9526" gradientUnits="userSpaceOnUse">
<stop offset="0.05" stop-color="#1EC8E6"/>
<stop offset="0.4" stop-color="#554BFA"/>
<stop offset="0.6" stop-color="#A03CFA"/>
<stop offset="0.95" stop-color="#FA2DAF"/>
</linearGradient>
<linearGradient id="paint76_linear" x1="-2.05788" y1="67.1406" x2="52.1476" y2="43.6803" gradientUnits="userSpaceOnUse">
<stop offset="0.05" stop-color="#1EC8E6"/>
<stop offset="0.4" stop-color="#554BFA"/>
<stop offset="0.6" stop-color="#A03CFA"/>
<stop offset="0.95" stop-color="#FA2DAF"/>
</linearGradient>
<linearGradient id="paint77_linear" x1="-3.4164" y1="64.0026" x2="50.7891" y2="40.5422" gradientUnits="userSpaceOnUse">
<stop offset="0.05" stop-color="#1EC8E6"/>
<stop offset="0.4" stop-color="#554BFA"/>
<stop offset="0.6" stop-color="#A03CFA"/>
<stop offset="0.95" stop-color="#FA2DAF"/>
</linearGradient>
<linearGradient id="paint78_linear" x1="-4.32988" y1="61.893" x2="49.8756" y2="38.4326" gradientUnits="userSpaceOnUse">
<stop offset="0.05" stop-color="#1EC8E6"/>
<stop offset="0.4" stop-color="#554BFA"/>
<stop offset="0.6" stop-color="#A03CFA"/>
<stop offset="0.95" stop-color="#FA2DAF"/>
</linearGradient>
<linearGradient id="paint79_linear" x1="-5.23944" y1="59.7903" x2="48.9661" y2="36.3299" gradientUnits="userSpaceOnUse">
<stop offset="0.05" stop-color="#1EC8E6"/>
<stop offset="0.4" stop-color="#554BFA"/>
<stop offset="0.6" stop-color="#A03CFA"/>
<stop offset="0.95" stop-color="#FA2DAF"/>
</linearGradient>
<linearGradient id="paint80_linear" x1="-5.94393" y1="58.1619" x2="48.2616" y2="34.7015" gradientUnits="userSpaceOnUse">
<stop offset="0.05" stop-color="#1EC8E6"/>
<stop offset="0.4" stop-color="#554BFA"/>
<stop offset="0.6" stop-color="#A03CFA"/>
<stop offset="0.95" stop-color="#FA2DAF"/>
</linearGradient>
<linearGradient id="paint81_linear" x1="-7.20909" y1="55.2397" x2="46.9964" y2="31.7793" gradientUnits="userSpaceOnUse">
<stop offset="0.05" stop-color="#1EC8E6"/>
<stop offset="0.4" stop-color="#554BFA"/>
<stop offset="0.6" stop-color="#A03CFA"/>
<stop offset="0.95" stop-color="#FA2DAF"/>
</linearGradient>
<linearGradient id="paint82_linear" x1="2.22003" y1="77.025" x2="56.4255" y2="53.5646" gradientUnits="userSpaceOnUse">
<stop offset="0.05" stop-color="#1EC8E6"/>
<stop offset="0.4" stop-color="#554BFA"/>
<stop offset="0.6" stop-color="#A03CFA"/>
<stop offset="0.95" stop-color="#FA2DAF"/>
</linearGradient>
<linearGradient id="paint83_linear" x1="0.900318" y1="73.9774" x2="55.1058" y2="50.5171" gradientUnits="userSpaceOnUse">
<stop offset="0.05" stop-color="#1EC8E6"/>
<stop offset="0.4" stop-color="#554BFA"/>
<stop offset="0.6" stop-color="#A03CFA"/>
<stop offset="0.95" stop-color="#FA2DAF"/>
</linearGradient>
<linearGradient id="paint84_linear" x1="2.24848" y1="77.0908" x2="56.454" y2="53.6304" gradientUnits="userSpaceOnUse">
<stop offset="0.05" stop-color="#1EC8E6"/>
<stop offset="0.4" stop-color="#554BFA"/>
<stop offset="0.6" stop-color="#A03CFA"/>
<stop offset="0.95" stop-color="#FA2DAF"/>
</linearGradient>
<linearGradient id="paint85_linear" x1="-0.626004" y1="70.4505" x2="53.5795" y2="46.9901" gradientUnits="userSpaceOnUse">
<stop offset="0.05" stop-color="#1EC8E6"/>
<stop offset="0.4" stop-color="#554BFA"/>
<stop offset="0.6" stop-color="#A03CFA"/>
<stop offset="0.95" stop-color="#FA2DAF"/>
</linearGradient>
<linearGradient id="paint86_linear" x1="-0.992546" y1="69.6034" x2="53.213" y2="46.143" gradientUnits="userSpaceOnUse">
<stop offset="0.05" stop-color="#1EC8E6"/>
<stop offset="0.4" stop-color="#554BFA"/>
<stop offset="0.6" stop-color="#A03CFA"/>
<stop offset="0.95" stop-color="#FA2DAF"/>
</linearGradient>
<linearGradient id="paint87_linear" x1="0.357687" y1="72.7224" x2="54.5632" y2="49.262" gradientUnits="userSpaceOnUse">
<stop offset="0.05" stop-color="#1EC8E6"/>
<stop offset="0.4" stop-color="#554BFA"/>
<stop offset="0.6" stop-color="#A03CFA"/>
<stop offset="0.95" stop-color="#FA2DAF"/>
</linearGradient>
<linearGradient id="paint88_linear" x1="-2.10486" y1="67.032" x2="52.1007" y2="43.5717" gradientUnits="userSpaceOnUse">
<stop offset="0.05" stop-color="#1EC8E6"/>
<stop offset="0.4" stop-color="#554BFA"/>
<stop offset="0.6" stop-color="#A03CFA"/>
<stop offset="0.95" stop-color="#FA2DAF"/>
</linearGradient>
<linearGradient id="paint89_linear" x1="-2.47711" y1="66.1728" x2="51.7284" y2="42.7124" gradientUnits="userSpaceOnUse">
<stop offset="0.05" stop-color="#1EC8E6"/>
<stop offset="0.4" stop-color="#554BFA"/>
<stop offset="0.6" stop-color="#A03CFA"/>
<stop offset="0.95" stop-color="#FA2DAF"/>
</linearGradient>
<linearGradient id="paint90_linear" x1="-5.14441" y1="60.0096" x2="49.0611" y2="36.5492" gradientUnits="userSpaceOnUse">
<stop offset="0.05" stop-color="#1EC8E6"/>
<stop offset="0.4" stop-color="#554BFA"/>
<stop offset="0.6" stop-color="#A03CFA"/>
<stop offset="0.95" stop-color="#FA2DAF"/>
</linearGradient>
<linearGradient id="paint91_linear" x1="-0.976966" y1="69.6388" x2="53.2285" y2="46.1784" gradientUnits="userSpaceOnUse">
<stop offset="0.05" stop-color="#1EC8E6"/>
<stop offset="0.4" stop-color="#554BFA"/>
<stop offset="0.6" stop-color="#A03CFA"/>
<stop offset="0.95" stop-color="#FA2DAF"/>
</linearGradient>
<linearGradient id="paint92_linear" x1="-1.69886" y1="67.9724" x2="52.5067" y2="44.512" gradientUnits="userSpaceOnUse">
<stop offset="0.05" stop-color="#1EC8E6"/>
<stop offset="0.4" stop-color="#554BFA"/>
<stop offset="0.6" stop-color="#A03CFA"/>
<stop offset="0.95" stop-color="#FA2DAF"/>
</linearGradient>
<linearGradient id="paint93_linear" x1="-2.95744" y1="65.0623" x2="51.2481" y2="41.6019" gradientUnits="userSpaceOnUse">
<stop offset="0.05" stop-color="#1EC8E6"/>
<stop offset="0.4" stop-color="#554BFA"/>
<stop offset="0.6" stop-color="#A03CFA"/>
<stop offset="0.95" stop-color="#FA2DAF"/>
</linearGradient>
<linearGradient id="paint94_linear" x1="-4.16334" y1="62.2759" x2="50.0422" y2="38.8155" gradientUnits="userSpaceOnUse">
<stop offset="0.05" stop-color="#1EC8E6"/>
<stop offset="0.4" stop-color="#554BFA"/>
<stop offset="0.6" stop-color="#A03CFA"/>
<stop offset="0.95" stop-color="#FA2DAF"/>
</linearGradient>
<linearGradient id="paint95_linear" x1="-4.4116" y1="61.704" x2="49.7939" y2="38.2436" gradientUnits="userSpaceOnUse">
<stop offset="0.05" stop-color="#1EC8E6"/>
<stop offset="0.4" stop-color="#554BFA"/>
<stop offset="0.6" stop-color="#A03CFA"/>
<stop offset="0.95" stop-color="#FA2DAF"/>
</linearGradient>
<linearGradient id="paint96_linear" x1="-5.74949" y1="58.6119" x2="48.456" y2="35.1515" gradientUnits="userSpaceOnUse">
<stop offset="0.05" stop-color="#1EC8E6"/>
<stop offset="0.4" stop-color="#554BFA"/>
<stop offset="0.6" stop-color="#A03CFA"/>
<stop offset="0.95" stop-color="#FA2DAF"/>
</linearGradient>
<linearGradient id="paint97_linear" x1="0.480752" y1="73.0078" x2="54.6863" y2="49.5474" gradientUnits="userSpaceOnUse">
<stop offset="0.05" stop-color="#1EC8E6"/>
<stop offset="0.4" stop-color="#554BFA"/>
<stop offset="0.6" stop-color="#A03CFA"/>
<stop offset="0.95" stop-color="#FA2DAF"/>
</linearGradient>
<linearGradient id="paint98_linear" x1="0.0751392" y1="72.0699" x2="54.2807" y2="48.6095" gradientUnits="userSpaceOnUse">
<stop offset="0.05" stop-color="#1EC8E6"/>
<stop offset="0.4" stop-color="#554BFA"/>
<stop offset="0.6" stop-color="#A03CFA"/>
<stop offset="0.95" stop-color="#FA2DAF"/>
</linearGradient>
<linearGradient id="paint99_linear" x1="1.65322" y1="75.7156" x2="55.8587" y2="52.2552" gradientUnits="userSpaceOnUse">
<stop offset="0.05" stop-color="#1EC8E6"/>
<stop offset="0.4" stop-color="#554BFA"/>
<stop offset="0.6" stop-color="#A03CFA"/>
<stop offset="0.95" stop-color="#FA2DAF"/>
</linearGradient>
<linearGradient id="paint100_linear" x1="2.39538" y1="77.4305" x2="56.6009" y2="53.9701" gradientUnits="userSpaceOnUse">
<stop offset="0.05" stop-color="#1EC8E6"/>
<stop offset="0.4" stop-color="#554BFA"/>
<stop offset="0.6" stop-color="#A03CFA"/>
<stop offset="0.95" stop-color="#FA2DAF"/>
</linearGradient>
<linearGradient id="paint101_linear" x1="0.435317" y1="72.9021" x2="54.6408" y2="49.4418" gradientUnits="userSpaceOnUse">
<stop offset="0.05" stop-color="#1EC8E6"/>
<stop offset="0.4" stop-color="#554BFA"/>
<stop offset="0.6" stop-color="#A03CFA"/>
<stop offset="0.95" stop-color="#FA2DAF"/>
</linearGradient>
<linearGradient id="paint102_linear" x1="1.8033" y1="76.0639" x2="56.0088" y2="52.6036" gradientUnits="userSpaceOnUse">
<stop offset="0.05" stop-color="#1EC8E6"/>
<stop offset="0.4" stop-color="#554BFA"/>
<stop offset="0.6" stop-color="#A03CFA"/>
<stop offset="0.95" stop-color="#FA2DAF"/>
</linearGradient>
<linearGradient id="paint103_linear" x1="3.30516" y1="79.5322" x2="57.5107" y2="56.0719" gradientUnits="userSpaceOnUse">
<stop offset="0.05" stop-color="#1EC8E6"/>
<stop offset="0.4" stop-color="#554BFA"/>
<stop offset="0.6" stop-color="#A03CFA"/>
<stop offset="0.95" stop-color="#FA2DAF"/>
</linearGradient>
<linearGradient id="paint104_linear" x1="3.93754" y1="80.9934" x2="58.143" y2="57.5331" gradientUnits="userSpaceOnUse">
<stop offset="0.05" stop-color="#1EC8E6"/>
<stop offset="0.4" stop-color="#554BFA"/>
<stop offset="0.6" stop-color="#A03CFA"/>
<stop offset="0.95" stop-color="#FA2DAF"/>
</linearGradient>
<linearGradient id="paint105_linear" x1="3.13367" y1="79.1355" x2="57.3392" y2="55.6751" gradientUnits="userSpaceOnUse">
<stop offset="0.05" stop-color="#1EC8E6"/>
<stop offset="0.4" stop-color="#554BFA"/>
<stop offset="0.6" stop-color="#A03CFA"/>
<stop offset="0.95" stop-color="#FA2DAF"/>
</linearGradient>
<linearGradient id="paint106_linear" x1="4.92913" y1="83.2839" x2="59.1346" y2="59.8235" gradientUnits="userSpaceOnUse">
<stop offset="0.05" stop-color="#1EC8E6"/>
<stop offset="0.4" stop-color="#554BFA"/>
<stop offset="0.6" stop-color="#A03CFA"/>
<stop offset="0.95" stop-color="#FA2DAF"/>
</linearGradient>
<linearGradient id="paint107_linear" x1="4.73053" y1="82.8255" x2="58.936" y2="59.3651" gradientUnits="userSpaceOnUse">
<stop offset="0.05" stop-color="#1EC8E6"/>
<stop offset="0.4" stop-color="#554BFA"/>
<stop offset="0.6" stop-color="#A03CFA"/>
<stop offset="0.95" stop-color="#FA2DAF"/>
</linearGradient>
<linearGradient id="paint108_linear" x1="6.39045" y1="86.6603" x2="60.5959" y2="63.1999" gradientUnits="userSpaceOnUse">
<stop offset="0.05" stop-color="#1EC8E6"/>
<stop offset="0.4" stop-color="#554BFA"/>
<stop offset="0.6" stop-color="#A03CFA"/>
<stop offset="0.95" stop-color="#FA2DAF"/>
</linearGradient>
<linearGradient id="paint109_linear" x1="7.33015" y1="88.8322" x2="61.5357" y2="65.3718" gradientUnits="userSpaceOnUse">
<stop offset="0.05" stop-color="#1EC8E6"/>
<stop offset="0.4" stop-color="#554BFA"/>
<stop offset="0.6" stop-color="#A03CFA"/>
<stop offset="0.95" stop-color="#FA2DAF"/>
</linearGradient>
<linearGradient id="paint110_linear" x1="5.84101" y1="85.3907" x2="60.0465" y2="61.9303" gradientUnits="userSpaceOnUse">
<stop offset="0.05" stop-color="#1EC8E6"/>
<stop offset="0.4" stop-color="#554BFA"/>
<stop offset="0.6" stop-color="#A03CFA"/>
<stop offset="0.95" stop-color="#FA2DAF"/>
</linearGradient>
<linearGradient id="paint111_linear" x1="6.51917" y1="86.9593" x2="60.7247" y2="63.499" gradientUnits="userSpaceOnUse">
<stop offset="0.05" stop-color="#1EC8E6"/>
<stop offset="0.4" stop-color="#554BFA"/>
<stop offset="0.6" stop-color="#A03CFA"/>
<stop offset="0.95" stop-color="#FA2DAF"/>
</linearGradient>
<linearGradient id="paint112_linear" x1="8.02945" y1="90.4486" x2="62.235" y2="66.9882" gradientUnits="userSpaceOnUse">
<stop offset="0.05" stop-color="#1EC8E6"/>
<stop offset="0.4" stop-color="#554BFA"/>
<stop offset="0.6" stop-color="#A03CFA"/>
<stop offset="0.95" stop-color="#FA2DAF"/>
</linearGradient>
<linearGradient id="paint113_linear" x1="9.28566" y1="93.3519" x2="63.4912" y2="69.8915" gradientUnits="userSpaceOnUse">
<stop offset="0.05" stop-color="#1EC8E6"/>
<stop offset="0.4" stop-color="#554BFA"/>
<stop offset="0.6" stop-color="#A03CFA"/>
<stop offset="0.95" stop-color="#FA2DAF"/>
</linearGradient>
<linearGradient id="paint114_linear" x1="8.93142" y1="92.5318" x2="63.1369" y2="69.0714" gradientUnits="userSpaceOnUse">
<stop offset="0.05" stop-color="#1EC8E6"/>
<stop offset="0.4" stop-color="#554BFA"/>
<stop offset="0.6" stop-color="#A03CFA"/>
<stop offset="0.95" stop-color="#FA2DAF"/>
</linearGradient>
<linearGradient id="paint115_linear" x1="10.2853" y1="95.6598" x2="64.4908" y2="72.1994" gradientUnits="userSpaceOnUse">
<stop offset="0.05" stop-color="#1EC8E6"/>
<stop offset="0.4" stop-color="#554BFA"/>
<stop offset="0.6" stop-color="#A03CFA"/>
<stop offset="0.95" stop-color="#FA2DAF"/>
</linearGradient>
<linearGradient id="paint116_linear" x1="12.6129" y1="101.038" x2="66.8184" y2="77.5781" gradientUnits="userSpaceOnUse">
<stop offset="0.05" stop-color="#1EC8E6"/>
<stop offset="0.4" stop-color="#554BFA"/>
<stop offset="0.6" stop-color="#A03CFA"/>
<stop offset="0.95" stop-color="#FA2DAF"/>
</linearGradient>
</defs>
</svg>
