<svg width="66" height="131" viewBox="0 0 66 131" fill="none" xmlns="http://www.w3.org/2000/svg">
<rect width="66.0002" height="130.998" fill="black" fill-opacity="0"/>
<rect width="66.0002" height="99.7309" fill="black" fill-opacity="0"/>
<path d="M11.7057 6.85294C12.3111 6.85294 12.8019 6.36491 12.8019 5.7629C12.8019 5.16088 12.3111 4.67285 11.7057 4.67285C11.1002 4.67285 10.6094 5.16088 10.6094 5.7629C10.6094 6.36491 11.1002 6.85294 11.7057 6.85294Z" fill="url(#paint0_linear)"/>
<path d="M8.28711 8.94333C9.0465 8.94333 9.66211 8.33123 9.66211 7.57616C9.66211 6.82109 9.0465 6.20898 8.28711 6.20898C7.52772 6.20898 6.91211 6.82109 6.91211 7.57616C6.91211 8.33123 7.52772 8.94333 8.28711 8.94333Z" fill="url(#paint1_linear)"/>
<path d="M17.838 7.88899C18.6384 7.88899 19.2873 7.2438 19.2873 6.44791C19.2873 5.65203 18.6384 5.00684 17.838 5.00684C17.0376 5.00684 16.3887 5.65203 16.3887 6.44791C16.3887 7.2438 17.0376 7.88899 17.838 7.88899Z" fill="url(#paint2_linear)"/>
<path d="M8.90029 11.4352C9.61863 11.4352 10.201 10.8562 10.201 10.1419C10.201 9.42765 9.61863 8.84863 8.90029 8.84863C8.18194 8.84863 7.59961 9.42765 7.59961 10.1419C7.59961 10.8562 8.18194 11.4352 8.90029 11.4352Z" fill="url(#paint3_linear)"/>
<path d="M3.43739 13.1715C4.15574 13.1715 4.73807 12.5925 4.73807 11.8782C4.73807 11.164 4.15574 10.585 3.43739 10.585C2.71905 10.585 2.13672 11.164 2.13672 11.8782C2.13672 12.5925 2.71905 13.1715 3.43739 13.1715Z" fill="url(#paint4_linear)"/>
<path d="M17.3171 12.5437C17.9636 12.5437 18.4877 12.0226 18.4877 11.3798C18.4877 10.7369 17.9636 10.2158 17.3171 10.2158C16.6706 10.2158 16.1465 10.7369 16.1465 11.3798C16.1465 12.0226 16.6706 12.5437 17.3171 12.5437Z" fill="url(#paint5_linear)"/>
<path d="M17.0944 2.32789C17.7409 2.32789 18.265 1.80678 18.265 1.16395C18.265 0.521117 17.7409 0 17.0944 0C16.4479 0 15.9238 0.521117 15.9238 1.16395C15.9238 1.80678 16.4479 2.32789 17.0944 2.32789Z" fill="url(#paint6_linear)"/>
<path d="M12.895 15.9444C13.4594 15.9444 13.917 15.4895 13.917 14.9283C13.917 14.3671 13.4594 13.9121 12.895 13.9121C12.3306 13.9121 11.873 14.3671 11.873 14.9283C11.873 15.4895 12.3306 15.9444 12.895 15.9444Z" fill="url(#paint7_linear)"/>
<path d="M6.87487 18.9002C7.58295 18.9002 8.15696 18.3294 8.15696 17.6254C8.15696 16.9213 7.58295 16.3506 6.87487 16.3506C6.16679 16.3506 5.59277 16.9213 5.59277 17.6254C5.59277 18.3294 6.16679 18.9002 6.87487 18.9002Z" fill="url(#paint8_linear)"/>
<path d="M17.429 17.9027C18.291 17.9027 18.9898 17.2079 18.9898 16.3508C18.9898 15.4936 18.291 14.7988 17.429 14.7988C16.567 14.7988 15.8682 15.4936 15.8682 16.3508C15.8682 17.2079 16.567 17.9027 17.429 17.9027Z" fill="url(#paint9_linear)"/>
<path d="M12.263 21.301C13.1353 21.301 13.8424 20.5979 13.8424 19.7306C13.8424 18.8633 13.1353 18.1602 12.263 18.1602C11.3907 18.1602 10.6836 18.8633 10.6836 19.7306C10.6836 20.5979 11.3907 21.301 12.263 21.301Z" fill="url(#paint10_linear)"/>
<path d="M7.24644 23.1112C8.13924 23.1112 8.86299 22.3916 8.86299 21.5038C8.86299 20.6161 8.13924 19.8965 7.24644 19.8965C6.35364 19.8965 5.62988 20.6161 5.62988 21.5038C5.62988 22.3916 6.35364 23.1112 7.24644 23.1112Z" fill="url(#paint11_linear)"/>
<path d="M17.3363 21.6151C18.2291 21.6151 18.9528 20.8955 18.9528 20.0077C18.9528 19.12 18.2291 18.4004 17.3363 18.4004C16.4435 18.4004 15.7197 19.12 15.7197 20.0077C15.7197 20.8955 16.4435 21.6151 17.3363 21.6151Z" fill="url(#paint12_linear)"/>
<path d="M21.442 24.2934C22.0474 24.2934 22.5383 23.8053 22.5383 23.2033C22.5383 22.6013 22.0474 22.1133 21.442 22.1133C20.8365 22.1133 20.3457 22.6013 20.3457 23.2033C20.3457 23.8053 20.8365 24.2934 21.442 24.2934Z" fill="url(#paint13_linear)"/>
<path d="M11.4648 26.9184C12.1934 26.9184 12.784 26.3311 12.784 25.6067C12.784 24.8822 12.1934 24.2949 11.4648 24.2949C10.7362 24.2949 10.1455 24.8822 10.1455 25.6067C10.1455 26.3311 10.7362 26.9184 11.4648 26.9184Z" fill="url(#paint14_linear)"/>
<path d="M8.62186 26.4182C9.29915 26.4182 9.84821 25.8723 9.84821 25.1989C9.84821 24.5254 9.29915 23.9795 8.62186 23.9795C7.94456 23.9795 7.39551 24.5254 7.39551 25.1989C7.39551 25.8723 7.94456 26.4182 8.62186 26.4182Z" fill="url(#paint15_linear)"/>
<path d="M2.80545 26.5852C3.48275 26.5852 4.0318 26.0393 4.0318 25.3659C4.0318 24.6924 3.48275 24.1465 2.80545 24.1465C2.12816 24.1465 1.5791 24.6924 1.5791 25.3659C1.5791 26.0393 2.12816 26.5852 2.80545 26.5852Z" fill="url(#paint16_linear)"/>
<path d="M17.5221 27.289C18.1584 27.289 18.6742 26.7761 18.6742 26.1435C18.6742 25.5109 18.1584 24.998 17.5221 24.998C16.8859 24.998 16.3701 25.5109 16.3701 26.1435C16.3701 26.7761 16.8859 27.289 17.5221 27.289Z" fill="url(#paint17_linear)"/>
<path d="M11.9475 32.4985C12.7993 32.4985 13.4897 31.812 13.4897 30.9651C13.4897 30.1182 12.7993 29.4316 11.9475 29.4316C11.0958 29.4316 10.4053 30.1182 10.4053 30.9651C10.4053 31.812 11.0958 32.4985 11.9475 32.4985Z" fill="url(#paint18_linear)"/>
<path d="M17.8564 31.2231C18.585 31.2231 19.1756 30.6358 19.1756 29.9114C19.1756 29.1869 18.585 28.5996 17.8564 28.5996C17.1278 28.5996 16.5371 29.1869 16.5371 29.9114C16.5371 30.6358 17.1278 31.2231 17.8564 31.2231Z" fill="url(#paint19_linear)"/>
<path d="M11.7984 35.7486C12.7733 35.7486 13.5636 34.9628 13.5636 33.9934C13.5636 33.0241 12.7733 32.2383 11.7984 32.2383C10.8235 32.2383 10.0332 33.0241 10.0332 33.9934C10.0332 34.9628 10.8235 35.7486 11.7984 35.7486Z" fill="url(#paint20_linear)"/>
<path d="M8.04532 36.7847C8.95864 36.7847 9.69903 36.0485 9.69903 35.1404C9.69903 34.2323 8.95864 33.4961 8.04532 33.4961C7.132 33.4961 6.3916 34.2323 6.3916 35.1404C6.3916 36.0485 7.132 36.7847 8.04532 36.7847Z" fill="url(#paint21_linear)"/>
<path d="M12.4497 41.7722C13.4144 41.7722 14.1964 40.9947 14.1964 40.0355C14.1964 39.0764 13.4144 38.2988 12.4497 38.2988C11.4851 38.2988 10.7031 39.0764 10.7031 40.0355C10.7031 40.9947 11.4851 41.7722 12.4497 41.7722Z" fill="url(#paint22_linear)"/>
<path d="M16.7597 41.3829C17.5089 41.3829 18.1162 40.7791 18.1162 40.0342C18.1162 39.2894 17.5089 38.6855 16.7597 38.6855C16.0106 38.6855 15.4033 39.2894 15.4033 40.0342C15.4033 40.7791 16.0106 41.3829 16.7597 41.3829Z" fill="url(#paint23_linear)"/>
<path d="M11.7617 44.469C12.5005 44.469 13.0995 43.8735 13.0995 43.1388C13.0995 42.4042 12.5005 41.8086 11.7617 41.8086C11.0228 41.8086 10.4238 42.4042 10.4238 43.1388C10.4238 43.8735 11.0228 44.469 11.7617 44.469Z" fill="url(#paint24_linear)"/>
<path d="M7.72915 44.839C8.35513 44.839 8.86259 44.3344 8.86259 43.712C8.86259 43.0895 8.35513 42.585 7.72915 42.585C7.10316 42.585 6.5957 43.0895 6.5957 43.712C6.5957 44.3344 7.10316 44.839 7.72915 44.839Z" fill="url(#paint25_linear)"/>
<path d="M4.31118 46.1495C4.93716 46.1495 5.44463 45.6449 5.44463 45.0225C5.44463 44.4001 4.93716 43.8955 4.31118 43.8955C3.68519 43.8955 3.17773 44.4001 3.17773 45.0225C3.17773 45.6449 3.68519 46.1495 4.31118 46.1495Z" fill="url(#paint26_linear)"/>
<path d="M16.8906 45.7435C17.6294 45.7435 18.2284 45.1479 18.2284 44.4132C18.2284 43.6786 17.6294 43.083 16.8906 43.083C16.1517 43.083 15.5527 43.6786 15.5527 44.4132C15.5527 45.1479 16.1517 45.7435 16.8906 45.7435Z" fill="url(#paint27_linear)"/>
<path d="M13.3602 51.0646C14.0477 51.0646 14.6051 50.5104 14.6051 49.8267C14.6051 49.1431 14.0477 48.5889 13.3602 48.5889C12.6726 48.5889 12.1152 49.1431 12.1152 49.8267C12.1152 50.5104 12.6726 51.0646 13.3602 51.0646Z" fill="url(#paint28_linear)"/>
<path d="M8.213 51.3421C9.01344 51.3421 9.66232 50.6969 9.66232 49.901C9.66232 49.1052 9.01344 48.46 8.213 48.46C7.41256 48.46 6.76367 49.1052 6.76367 49.901C6.76367 50.6969 7.41256 51.3421 8.213 51.3421Z" fill="url(#paint29_linear)"/>
<path d="M12.3381 55.9634C13.1899 55.9634 13.8804 55.2768 13.8804 54.4299C13.8804 53.583 13.1899 52.8965 12.3381 52.8965C11.4864 52.8965 10.7959 53.583 10.7959 54.4299C10.7959 55.2768 11.4864 55.9634 12.3381 55.9634Z" fill="url(#paint30_linear)"/>
<path d="M7.56226 56.8862C8.22929 56.8862 8.77003 56.3485 8.77003 55.6853C8.77003 55.022 8.22929 54.4844 7.56226 54.4844C6.89523 54.4844 6.35449 55.022 6.35449 55.6853C6.35449 56.3485 6.89523 56.8862 7.56226 56.8862Z" fill="url(#paint31_linear)"/>
<path d="M18.6 55.0365C19.5236 55.0365 20.2723 54.292 20.2723 53.3737C20.2723 52.4554 19.5236 51.7109 18.6 51.7109C17.6764 51.7109 16.9277 52.4554 16.9277 53.3737C16.9277 54.292 17.6764 55.0365 18.6 55.0365Z" fill="url(#paint32_linear)"/>
<path d="M12.5794 60.5254C13.462 60.5254 14.1774 59.814 14.1774 58.9365C14.1774 58.059 13.462 57.3477 12.5794 57.3477C11.6969 57.3477 10.9814 58.059 10.9814 58.9365C10.9814 59.814 11.6969 60.5254 12.5794 60.5254Z" fill="url(#paint33_linear)"/>
<path d="M17.9126 60.155C18.8773 60.155 19.6593 59.3775 19.6593 58.4183C19.6593 57.4592 18.8773 56.6816 17.9126 56.6816C16.948 56.6816 16.166 57.4592 16.166 58.4183C16.166 59.3775 16.948 60.155 17.9126 60.155Z" fill="url(#paint34_linear)"/>
<path d="M12.7652 63.905C13.3501 63.905 13.8243 63.4335 13.8243 62.8519C13.8243 62.2703 13.3501 61.7988 12.7652 61.7988C12.1802 61.7988 11.7061 62.2703 11.7061 62.8519C11.7061 63.4335 12.1802 63.905 12.7652 63.905Z" fill="url(#paint35_linear)"/>
<path d="M3.7349 64.4958C4.31984 64.4958 4.79403 64.0243 4.79403 63.4427C4.79403 62.8611 4.31984 62.3897 3.7349 62.3897C3.14997 62.3897 2.67578 62.8611 2.67578 63.4427C2.67578 64.0243 3.14997 64.4958 3.7349 64.4958Z" fill="url(#paint36_linear)"/>
<path d="M6.91169 65.8267C7.88658 65.8267 8.67689 65.0409 8.67689 64.0716C8.67689 63.1022 7.88658 62.3164 6.91169 62.3164C5.93679 62.3164 5.14648 63.1022 5.14648 64.0716C5.14648 65.0409 5.93679 65.8267 6.91169 65.8267Z" fill="url(#paint37_linear)"/>
<path d="M22.1862 65.2722C23.2124 65.2722 24.0443 64.445 24.0443 63.4247C24.0443 62.4043 23.2124 61.5771 22.1862 61.5771C21.16 61.5771 20.3281 62.4043 20.3281 63.4247C20.3281 64.445 21.16 65.2722 22.1862 65.2722Z" fill="url(#paint38_linear)"/>
<path d="M22.7433 68.415C23.5643 68.415 24.2298 67.7533 24.2298 66.937C24.2298 66.1207 23.5643 65.459 22.7433 65.459C21.9224 65.459 21.2568 66.1207 21.2568 66.937C21.2568 67.7533 21.9224 68.415 22.7433 68.415Z" fill="url(#paint39_linear)"/>
<path d="M21.7027 74.7138C22.2773 74.7138 22.7432 74.2506 22.7432 73.6791C22.7432 73.1077 22.2773 72.6445 21.7027 72.6445C21.128 72.6445 20.6621 73.1077 20.6621 73.6791C20.6621 74.2506 21.128 74.7138 21.7027 74.7138Z" fill="url(#paint40_linear)"/>
<path d="M21.5171 78.3339C22.4715 78.3339 23.2451 77.5646 23.2451 76.6157C23.2451 75.6667 22.4715 74.8975 21.5171 74.8975C20.5627 74.8975 19.7891 75.6667 19.7891 76.6157C19.7891 77.5646 20.5627 78.3339 21.5171 78.3339Z" fill="url(#paint41_linear)"/>
<path d="M26.236 60.2102C26.8517 60.2102 27.3508 59.7139 27.3508 59.1017C27.3508 58.4895 26.8517 57.9932 26.236 57.9932C25.6202 57.9932 25.1211 58.4895 25.1211 59.1017C25.1211 59.7139 25.6202 60.2102 26.236 60.2102Z" fill="url(#paint42_linear)"/>
<path d="M27.37 65.4775C28.0678 65.4775 28.6335 64.915 28.6335 64.2212C28.6335 63.5273 28.0678 62.9648 27.37 62.9648C26.6721 62.9648 26.1064 63.5273 26.1064 64.2212C26.1064 64.915 26.6721 65.4775 27.37 65.4775Z" fill="url(#paint43_linear)"/>
<path d="M26.2363 69.1154C26.9854 69.1154 27.5927 68.5115 27.5927 67.7667C27.5927 67.0218 26.9854 66.418 26.2363 66.418C25.4872 66.418 24.8799 67.0218 24.8799 67.7667C24.8799 68.5115 25.4872 69.1154 26.2363 69.1154Z" fill="url(#paint44_linear)"/>
<path d="M32.3872 69.2256C32.9516 69.2256 33.4092 68.7707 33.4092 68.2095C33.4092 67.6483 32.9516 67.1934 32.3872 67.1934C31.8228 67.1934 31.3652 67.6483 31.3652 68.2095C31.3652 68.7707 31.8228 69.2256 32.3872 69.2256Z" fill="url(#paint45_linear)"/>
<path d="M31.6626 73.3279C32.2476 73.3279 32.7218 72.8564 32.7218 72.2748C32.7218 71.6932 32.2476 71.2217 31.6626 71.2217C31.0777 71.2217 30.6035 71.6932 30.6035 72.2748C30.6035 72.8564 31.0777 73.3279 31.6626 73.3279Z" fill="url(#paint46_linear)"/>
<path d="M36.2512 79.4056C37.1133 79.4056 37.8121 78.7108 37.8121 77.8537C37.8121 76.9966 37.1133 76.3018 36.2512 76.3018C35.3892 76.3018 34.6904 76.9966 34.6904 77.8537C34.6904 78.7108 35.3892 79.4056 36.2512 79.4056Z" fill="url(#paint47_linear)"/>
<path d="M40.0974 84.3941C40.7542 84.3941 41.2866 83.8648 41.2866 83.2117C41.2866 82.5587 40.7542 82.0293 40.0974 82.0293C39.4406 82.0293 38.9082 82.5587 38.9082 83.2117C38.9082 83.8648 39.4406 84.3941 40.0974 84.3941Z" fill="url(#paint48_linear)"/>
<path d="M45.3375 88.6451C45.9327 88.6451 46.4152 88.1653 46.4152 87.5735C46.4152 86.9817 45.9327 86.502 45.3375 86.502C44.7423 86.502 44.2598 86.9817 44.2598 87.5735C44.2598 88.1653 44.7423 88.6451 45.3375 88.6451Z" fill="url(#paint49_linear)"/>
<path d="M42.5132 87.0553C43.1084 87.0553 43.591 86.5755 43.591 85.9837C43.591 85.3919 43.1084 84.9121 42.5132 84.9121C41.918 84.9121 41.4355 85.3919 41.4355 85.9837C41.4355 86.5755 41.918 87.0553 42.5132 87.0553Z" fill="url(#paint50_linear)"/>
<path d="M49.2585 94.0387C49.9153 94.0387 50.4477 93.5093 50.4477 92.8562C50.4477 92.2032 49.9153 91.6738 49.2585 91.6738C48.6018 91.6738 48.0693 92.2032 48.0693 92.8562C48.0693 93.5093 48.6018 94.0387 49.2585 94.0387Z" fill="url(#paint51_linear)"/>
<path d="M50.7077 99.2496C51.3645 99.2496 51.8969 98.7202 51.8969 98.0672C51.8969 97.4142 51.3645 96.8848 50.7077 96.8848C50.051 96.8848 49.5186 97.4142 49.5186 98.0672C49.5186 98.7202 50.051 99.2496 50.7077 99.2496Z" fill="url(#paint52_linear)"/>
<path d="M37.0695 69.2257C37.8802 69.2257 38.5374 68.5723 38.5374 67.7662C38.5374 66.9601 37.8802 66.3066 37.0695 66.3066C36.2588 66.3066 35.6016 66.9601 35.6016 67.7662C35.6016 68.5723 36.2588 69.2257 37.0695 69.2257Z" fill="url(#paint53_linear)"/>
<path d="M41.7516 70.0411C42.3776 70.0411 42.8851 69.5365 42.8851 68.9141C42.8851 68.2917 42.3776 67.7871 41.7516 67.7871C41.1256 67.7871 40.6182 68.2917 40.6182 68.9141C40.6182 69.5365 41.1256 70.0411 41.7516 70.0411Z" fill="url(#paint54_linear)"/>
<path d="M41.5105 75.1576C42.5572 75.1576 43.4058 74.3139 43.4058 73.2732C43.4058 72.2324 42.5572 71.3887 41.5105 71.3887C40.4638 71.3887 39.6152 72.2324 39.6152 73.2732C39.6152 74.3139 40.4638 75.1576 41.5105 75.1576Z" fill="url(#paint55_linear)"/>
<path d="M45.1517 75.3602C46.0445 75.3602 46.7683 74.6406 46.7683 73.7529C46.7683 72.8651 46.0445 72.1455 45.1517 72.1455C44.2589 72.1455 43.5352 72.8651 43.5352 73.7529C43.5352 74.6406 44.2589 75.3602 45.1517 75.3602Z" fill="url(#paint56_linear)"/>
<path d="M41.9002 78.3157C42.5775 78.3157 43.1265 77.7698 43.1265 77.0963C43.1265 76.4229 42.5775 75.877 41.9002 75.877C41.2229 75.877 40.6738 76.4229 40.6738 77.0963C40.6738 77.7698 41.2229 78.3157 41.9002 78.3157Z" fill="url(#paint57_linear)"/>
<path d="M51.1725 79.5372C52.1782 79.5372 52.9935 78.7266 52.9935 77.7266C52.9935 76.7266 52.1782 75.916 51.1725 75.916C50.1668 75.916 49.3516 76.7266 49.3516 77.7266C49.3516 78.7266 50.1668 79.5372 51.1725 79.5372Z" fill="url(#paint58_linear)"/>
<path d="M44.9293 84.1563C45.5553 84.1563 46.0628 83.6518 46.0628 83.0293C46.0628 82.4069 45.5553 81.9023 44.9293 81.9023C44.3034 81.9023 43.7959 82.4069 43.7959 83.0293C43.7959 83.6518 44.3034 84.1563 44.9293 84.1563Z" fill="url(#paint59_linear)"/>
<path d="M51.4692 82.8604C52.0336 82.8604 52.4912 82.4055 52.4912 81.8443C52.4912 81.2831 52.0336 80.8281 51.4692 80.8281C50.9048 80.8281 50.4473 81.2831 50.4473 81.8443C50.4473 82.4055 50.9048 82.8604 51.4692 82.8604Z" fill="url(#paint60_linear)"/>
<path d="M55.0932 84.8928C55.6474 84.8928 56.0966 84.4461 56.0966 83.8951C56.0966 83.3441 55.6474 82.8975 55.0932 82.8975C54.5391 82.8975 54.0898 83.3441 54.0898 83.8951C54.0898 84.4461 54.5391 84.8928 55.0932 84.8928Z" fill="url(#paint61_linear)"/>
<path d="M59.8315 77.5949C60.3857 77.5949 60.8349 77.1483 60.8349 76.5973C60.8349 76.0463 60.3857 75.5996 59.8315 75.5996C59.2774 75.5996 58.8281 76.0463 58.8281 76.5973C58.8281 77.1483 59.2774 77.5949 59.8315 77.5949Z" fill="url(#paint62_linear)"/>
<path d="M51.7303 87.9228C52.4281 87.9228 52.9938 87.3603 52.9938 86.6665C52.9938 85.9726 52.4281 85.4102 51.7303 85.4102C51.0325 85.4102 50.4668 85.9726 50.4668 86.6665C50.4668 87.3603 51.0325 87.9228 51.7303 87.9228Z" fill="url(#paint63_linear)"/>
<path d="M56.6352 89.0873C57.1791 89.0873 57.62 88.6489 57.62 88.1081C57.62 87.5673 57.1791 87.1289 56.6352 87.1289C56.0913 87.1289 55.6504 87.5673 55.6504 88.1081C55.6504 88.6489 56.0913 89.0873 56.6352 89.0873Z" fill="url(#paint64_linear)"/>
<path d="M60.184 88.9574C61.1076 88.9574 61.8563 88.2129 61.8563 87.2946C61.8563 86.3763 61.1076 85.6318 60.184 85.6318C59.2604 85.6318 58.5117 86.3763 58.5117 87.2946C58.5117 88.2129 59.2604 88.9574 60.184 88.9574Z" fill="url(#paint65_linear)"/>
<path d="M55.2787 92.7455C56.2023 92.7455 56.951 92.001 56.951 91.0827C56.951 90.1644 56.2023 89.4199 55.2787 89.4199C54.3552 89.4199 53.6064 90.1644 53.6064 91.0827C53.6064 92.001 54.3552 92.7455 55.2787 92.7455Z" fill="url(#paint66_linear)"/>
<path d="M64.9223 92.876C65.4868 92.876 65.9443 92.4211 65.9443 91.8599C65.9443 91.2987 65.4868 90.8438 64.9223 90.8438C64.3579 90.8438 63.9004 91.2987 63.9004 91.8599C63.9004 92.4211 64.3579 92.876 64.9223 92.876Z" fill="url(#paint67_linear)"/>
<path d="M28.1318 75.27C28.8604 75.27 29.451 74.6827 29.451 73.9582C29.451 73.2338 28.8604 72.6465 28.1318 72.6465C27.4032 72.6465 26.8125 73.2338 26.8125 73.9582C26.8125 74.6827 27.4032 75.27 28.1318 75.27Z" fill="url(#paint68_linear)"/>
<path d="M31.5688 55.794C32.1332 55.794 32.5908 55.3391 32.5908 54.7779C32.5908 54.2167 32.1332 53.7617 31.5688 53.7617C31.0044 53.7617 30.5469 54.2167 30.5469 54.7779C30.5469 55.3391 31.0044 55.794 31.5688 55.794Z" fill="url(#paint69_linear)"/>
<path d="M35.62 51.1385C36.3281 51.1385 36.9021 50.5677 36.9021 49.8637C36.9021 49.1596 36.3281 48.5889 35.62 48.5889C34.9119 48.5889 34.3379 49.1596 34.3379 49.8637C34.3379 50.5677 34.9119 51.1385 35.62 51.1385Z" fill="url(#paint70_linear)"/>
<path d="M41.5283 46.6857C42.2774 46.6857 42.8847 46.0818 42.8847 45.337C42.8847 44.5921 42.2774 43.9883 41.5283 43.9883C40.7792 43.9883 40.1719 44.5921 40.1719 45.337C40.1719 46.0818 40.7792 46.6857 41.5283 46.6857Z" fill="url(#paint71_linear)"/>
<path d="M45.9321 41.6791C46.8556 41.6791 47.6044 40.9346 47.6044 40.0163C47.6044 39.098 46.8556 38.3535 45.9321 38.3535C45.0085 38.3535 44.2598 39.098 44.2598 40.0163C44.2598 40.9346 45.0085 41.6791 45.9321 41.6791Z" fill="url(#paint72_linear)"/>
<path d="M51.9712 36.0438C52.9256 36.0438 53.6992 35.2746 53.6992 34.3256C53.6992 33.3767 52.9256 32.6074 51.9712 32.6074C51.0168 32.6074 50.2432 33.3767 50.2432 34.3256C50.2432 35.2746 51.0168 36.0438 51.9712 36.0438Z" fill="url(#paint73_linear)"/>
<path d="M56.3753 32.8107C57.2476 32.8107 57.9547 32.1076 57.9547 31.2403C57.9547 30.373 57.2476 29.6699 56.3753 29.6699C55.503 29.6699 54.7959 30.373 54.7959 31.2403C54.7959 32.1076 55.503 32.8107 56.3753 32.8107Z" fill="url(#paint74_linear)"/>
<path d="M23.5055 59.7854C24.1212 59.7854 24.6204 59.2891 24.6204 58.6769C24.6204 58.0647 24.1212 57.5684 23.5055 57.5684C22.8898 57.5684 22.3906 58.0647 22.3906 58.6769C22.3906 59.2891 22.8898 59.7854 23.5055 59.7854Z" fill="url(#paint75_linear)"/>
<path d="M27.3704 55.9055C28.2427 55.9055 28.9498 55.2024 28.9498 54.3351C28.9498 53.4677 28.2427 52.7646 27.3704 52.7646C26.4981 52.7646 25.791 53.4677 25.791 54.3351C25.791 55.2024 26.4981 55.9055 27.3704 55.9055Z" fill="url(#paint76_linear)"/>
<path d="M30.696 51.0292C31.7119 51.0292 32.5355 50.2103 32.5355 49.2001C32.5355 48.19 31.7119 47.3711 30.696 47.3711C29.68 47.3711 28.8564 48.19 28.8564 49.2001C28.8564 50.2103 29.68 51.0292 30.696 51.0292Z" fill="url(#paint77_linear)"/>
<path d="M37.7564 45.4109C38.721 45.4109 39.503 44.6333 39.503 43.6742C39.503 42.715 38.721 41.9375 37.7564 41.9375C36.7918 41.9375 36.0098 42.715 36.0098 43.6742C36.0098 44.6333 36.7918 45.4109 37.7564 45.4109Z" fill="url(#paint78_linear)"/>
<path d="M41.5288 40.5907C42.1035 40.5907 42.5694 40.1275 42.5694 39.5561C42.5694 38.9847 42.1035 38.5215 41.5288 38.5215C40.9541 38.5215 40.4883 38.9847 40.4883 39.5561C40.4883 40.1275 40.9541 40.5907 41.5288 40.5907Z" fill="url(#paint79_linear)"/>
<path d="M45.654 37.0426C46.3108 37.0426 46.8432 36.5132 46.8432 35.8602C46.8432 35.2071 46.3108 34.6777 45.654 34.6777C44.9973 34.6777 44.4648 35.2071 44.4648 35.8602C44.4648 36.5132 44.9973 37.0426 45.654 37.0426Z" fill="url(#paint80_linear)"/>
<path d="M50.7262 31.3536C51.3522 31.3536 51.8597 30.849 51.8597 30.2266C51.8597 29.6042 51.3522 29.0996 50.7262 29.0996C50.1002 29.0996 49.5928 29.6042 49.5928 30.2266C49.5928 30.849 50.1002 31.3536 50.7262 31.3536Z" fill="url(#paint81_linear)"/>
<path d="M32.5544 65.6598C33.5909 65.6598 34.4311 64.8243 34.4311 63.7937C34.4311 62.7632 33.5909 61.9277 32.5544 61.9277C31.518 61.9277 30.6777 62.7632 30.6777 63.7937C30.6777 64.8243 31.518 65.6598 32.5544 65.6598Z" fill="url(#paint82_linear)"/>
<path d="M35.285 60.2841C35.9828 60.2841 36.5485 59.7217 36.5485 59.0278C36.5485 58.334 35.9828 57.7715 35.285 57.7715C34.5872 57.7715 34.0215 58.334 34.0215 59.0278C34.0215 59.7217 34.5872 60.2841 35.285 60.2841Z" fill="url(#paint83_linear)"/>
<path d="M36.1777 63.6468C36.9166 63.6468 37.5155 63.0512 37.5155 62.3166C37.5155 61.5819 36.9166 60.9863 36.1777 60.9863C35.4388 60.9863 34.8398 61.5819 34.8398 62.3166C34.8398 63.0512 35.4388 63.6468 36.1777 63.6468Z" fill="url(#paint84_linear)"/>
<path d="M40.8223 53.9116C41.6125 53.9116 42.2531 53.2747 42.2531 52.489C42.2531 51.7033 41.6125 51.0664 40.8223 51.0664C40.0322 51.0664 39.3916 51.7033 39.3916 52.489C39.3916 53.2747 40.0322 53.9116 40.8223 53.9116Z" fill="url(#paint85_linear)"/>
<path d="M46.8242 50.2889C47.5939 50.2889 48.2178 49.6685 48.2178 48.9032C48.2178 48.138 47.5939 47.5176 46.8242 47.5176C46.0546 47.5176 45.4307 48.138 45.4307 48.9032C45.4307 49.6685 46.0546 50.2889 46.8242 50.2889Z" fill="url(#paint86_linear)"/>
<path d="M54.8887 50.5106C55.6584 50.5106 56.2823 49.8902 56.2823 49.1249C56.2823 48.3596 55.6584 47.7393 54.8887 47.7393C54.119 47.7393 53.4951 48.3596 53.4951 49.1249C53.4951 49.8902 54.119 50.5106 54.8887 50.5106Z" fill="url(#paint87_linear)"/>
<path d="M50.2622 46.0578C51.196 46.0578 51.953 45.3051 51.953 44.3766C51.953 43.448 51.196 42.6953 50.2622 42.6953C49.3283 42.6953 48.5713 43.448 48.5713 44.3766C48.5713 45.3051 49.3283 46.0578 50.2622 46.0578Z" fill="url(#paint88_linear)"/>
<path d="M55.6318 42.3995C56.3809 42.3995 56.9882 41.7957 56.9882 41.0509C56.9882 40.306 56.3809 39.7021 55.6318 39.7021C54.8827 39.7021 54.2754 40.306 54.2754 41.0509C54.2754 41.7957 54.8827 42.3995 55.6318 42.3995Z" fill="url(#paint89_linear)"/>
<path d="M64.2164 31.8695C65.2016 31.8695 66.0002 31.0754 66.0002 30.0959C66.0002 29.1163 65.2016 28.3223 64.2164 28.3223C63.2312 28.3223 62.4326 29.1163 62.4326 30.0959C62.4326 31.0754 63.2312 31.8695 64.2164 31.8695Z" fill="url(#paint90_linear)"/>
<path d="M36.0846 54.6681C36.7106 54.6681 37.2181 54.1635 37.2181 53.5411C37.2181 52.9186 36.7106 52.4141 36.0846 52.4141C35.4586 52.4141 34.9512 52.9186 34.9512 53.5411C34.9512 54.1635 35.4586 54.6681 36.0846 54.6681Z" fill="url(#paint91_linear)"/>
<path d="M40.7478 50.7506C41.4046 50.7506 41.937 50.2212 41.937 49.5682C41.937 48.9151 41.4046 48.3857 40.7478 48.3857C40.091 48.3857 39.5586 48.9151 39.5586 49.5682C39.5586 50.2212 40.091 50.7506 40.7478 50.7506Z" fill="url(#paint92_linear)"/>
<path d="M47.5308 44.2655C48.1054 44.2655 48.5713 43.8023 48.5713 43.2309C48.5713 42.6595 48.1054 42.1963 47.5308 42.1963C46.9561 42.1963 46.4902 42.6595 46.4902 43.2309C46.4902 43.8023 46.9561 44.2655 47.5308 44.2655Z" fill="url(#paint93_linear)"/>
<path d="M50.2622 39.758C50.8163 39.758 51.2655 39.3114 51.2655 38.7604C51.2655 38.2094 50.8163 37.7627 50.2622 37.7627C49.708 37.7627 49.2588 38.2094 49.2588 38.7604C49.2588 39.3114 49.708 39.758 50.2622 39.758Z" fill="url(#paint94_linear)"/>
<path d="M55.6687 36.9129C56.3152 36.9129 56.8393 36.3917 56.8393 35.7489C56.8393 35.1061 56.3152 34.585 55.6687 34.585C55.0221 34.585 54.498 35.1061 54.498 35.7489C54.498 36.3917 55.0221 36.9129 55.6687 36.9129Z" fill="url(#paint95_linear)"/>
<path d="M61.169 31.1481C61.9489 31.1481 62.5812 30.5194 62.5812 29.744C62.5812 28.9685 61.9489 28.3398 61.169 28.3398C60.3891 28.3398 59.7568 28.9685 59.7568 29.744C59.7568 30.5194 60.3891 31.1481 61.169 31.1481Z" fill="url(#paint96_linear)"/>
<path d="M11.6315 69.1718C12.2678 69.1718 12.7835 68.659 12.7835 68.0263C12.7835 67.3937 12.2678 66.8809 11.6315 66.8809C10.9953 66.8809 10.4795 67.3937 10.4795 68.0263C10.4795 68.659 10.9953 69.1718 11.6315 69.1718Z" fill="url(#paint97_linear)"/>
<path d="M7.63688 70.1143C8.45784 70.1143 9.12336 69.4525 9.12336 68.6362C9.12336 67.8199 8.45784 67.1582 7.63688 67.1582C6.81591 67.1582 6.15039 67.8199 6.15039 68.6362C6.15039 69.4525 6.81591 70.1143 7.63688 70.1143Z" fill="url(#paint98_linear)"/>
<path d="M17.2434 70.3346C18.0849 70.3346 18.767 69.6564 18.767 68.8197C18.767 67.983 18.0849 67.3047 17.2434 67.3047C16.4019 67.3047 15.7197 67.983 15.7197 68.8197C15.7197 69.6564 16.4019 70.3346 17.2434 70.3346Z" fill="url(#paint99_linear)"/>
<path d="M12.5425 73.8838C13.1069 73.8838 13.5644 73.4289 13.5644 72.8677C13.5644 72.3065 13.1069 71.8516 12.5425 71.8516C11.9781 71.8516 11.5205 72.3065 11.5205 72.8677C11.5205 73.4289 11.9781 73.8838 12.5425 73.8838Z" fill="url(#paint100_linear)"/>
<path d="M1.02196 73.4776C1.58637 73.4776 2.04392 73.0227 2.04392 72.4615C2.04392 71.9003 1.58637 71.4453 1.02196 71.4453C0.457547 71.4453 0 71.9003 0 72.4615C0 73.0227 0.457547 73.4776 1.02196 73.4776Z" fill="url(#paint101_linear)"/>
<path d="M7.785 74.5468C8.48282 74.5468 9.04851 73.9844 9.04851 73.2905C9.04851 72.5967 8.48282 72.0342 7.785 72.0342C7.08718 72.0342 6.52148 72.5967 6.52148 73.2905C6.52148 73.9844 7.08718 74.5468 7.785 74.5468Z" fill="url(#paint102_linear)"/>
<path d="M17.8009 74.547C18.6116 74.547 19.2688 73.8936 19.2688 73.0875C19.2688 72.2814 18.6116 71.6279 17.8009 71.6279C16.9902 71.6279 16.333 72.2814 16.333 73.0875C16.333 73.8936 16.9902 74.547 17.8009 74.547Z" fill="url(#paint103_linear)"/>
<path d="M12.4496 78.0941C12.9935 78.0941 13.4344 77.6557 13.4344 77.1149C13.4344 76.5741 12.9935 76.1357 12.4496 76.1357C11.9058 76.1357 11.4648 76.5741 11.4648 77.1149C11.4648 77.6557 11.9058 78.0941 12.4496 78.0941Z" fill="url(#paint104_linear)"/>
<path d="M7.02418 78.4448C7.69121 78.4448 8.23195 77.9071 8.23195 77.2439C8.23195 76.5806 7.69121 76.043 7.02418 76.043C6.35714 76.043 5.81641 76.5806 5.81641 77.2439C5.81641 77.9071 6.35714 78.4448 7.02418 78.4448Z" fill="url(#paint105_linear)"/>
<path d="M17.4109 78.9067C18.0779 78.9067 18.6187 78.369 18.6187 77.7058C18.6187 77.0425 18.0779 76.5049 17.4109 76.5049C16.7439 76.5049 16.2031 77.0425 16.2031 77.7058C16.2031 78.369 16.7439 78.9067 17.4109 78.9067Z" fill="url(#paint106_linear)"/>
<path d="M8.77061 82.306C9.57105 82.306 10.2199 81.6608 10.2199 80.8649C10.2199 80.069 9.57105 79.4238 8.77061 79.4238C7.97017 79.4238 7.32129 80.069 7.32129 80.8649C7.32129 81.6608 7.97017 82.306 8.77061 82.306Z" fill="url(#paint107_linear)"/>
<path d="M16.6305 83.1747C17.2668 83.1747 17.7826 82.6619 17.7826 82.0293C17.7826 81.3966 17.2668 80.8838 16.6305 80.8838C15.9943 80.8838 15.4785 81.3966 15.4785 82.0293C15.4785 82.6619 15.9943 83.1747 16.6305 83.1747Z" fill="url(#paint108_linear)"/>
<path d="M13.8989 86.7784C14.4633 86.7784 14.9209 86.3234 14.9209 85.7622C14.9209 85.201 14.4633 84.7461 13.8989 84.7461C13.3345 84.7461 12.877 85.201 12.877 85.7622C12.877 86.3234 13.3345 86.7784 13.8989 86.7784Z" fill="url(#paint109_linear)"/>
<path d="M3.40087 87.2208C3.96528 87.2208 4.42283 86.7658 4.42283 86.2046C4.42283 85.6434 3.96528 85.1885 3.40087 85.1885C2.83645 85.1885 2.37891 85.6434 2.37891 86.2046C2.37891 86.7658 2.83645 87.2208 3.40087 87.2208Z" fill="url(#paint110_linear)"/>
<path d="M7.84103 87.6637C8.68252 87.6637 9.36468 86.9855 9.36468 86.1488C9.36468 85.3121 8.68252 84.6338 7.84103 84.6338C6.99954 84.6338 6.31738 85.3121 6.31738 86.1488C6.31738 86.9855 6.99954 87.6637 7.84103 87.6637Z" fill="url(#paint111_linear)"/>
<path d="M16.5556 87.8859C17.3048 87.8859 17.9121 87.282 17.9121 86.5372C17.9121 85.7923 17.3048 85.1885 16.5556 85.1885C15.8065 85.1885 15.1992 85.7923 15.1992 86.5372C15.1992 87.282 15.8065 87.8859 16.5556 87.8859Z" fill="url(#paint112_linear)"/>
<path d="M12.8205 93.0586C13.6414 93.0586 14.307 92.3969 14.307 91.5806C14.307 90.7643 13.6414 90.1025 12.8205 90.1025C11.9995 90.1025 11.334 90.7643 11.334 91.5806C11.334 92.3969 11.9995 93.0586 12.8205 93.0586Z" fill="url(#paint113_linear)"/>
<path d="M7.26549 94.2781C7.97357 94.2781 8.54759 93.7074 8.54759 93.0033C8.54759 92.2993 7.97357 91.7285 7.26549 91.7285C6.55741 91.7285 5.9834 92.2993 5.9834 93.0033C5.9834 93.7074 6.55741 94.2781 7.26549 94.2781Z" fill="url(#paint114_linear)"/>
<path d="M18.0982 93.1352C18.7037 93.1352 19.1945 92.6471 19.1945 92.0451C19.1945 91.4431 18.7037 90.9551 18.0982 90.9551C17.4928 90.9551 17.002 91.4431 17.002 92.0451C17.002 92.6471 17.4928 93.1352 18.0982 93.1352Z" fill="url(#paint115_linear)"/>
<path d="M17.5592 99.7309C18.1646 99.7309 18.6555 99.2428 18.6555 98.6408C18.6555 98.0388 18.1646 97.5508 17.5592 97.5508C16.9537 97.5508 16.4629 98.0388 16.4629 98.6408C16.4629 99.2428 16.9537 99.7309 17.5592 99.7309Z" fill="url(#paint116_linear)"/>
<rect width="65.9096" height="16.5905" fill="black" fill-opacity="0" transform="translate(0 114.408)"/>
<path d="M65.6652 125.546C65.4794 125.195 65.2564 124.918 64.9591 124.678C64.6618 124.438 64.3273 124.235 63.9557 124.087C63.5841 123.921 63.1939 123.791 62.8037 123.662C62.4135 123.533 62.0233 123.403 61.6517 123.293C61.28 123.182 60.9456 123.052 60.6483 122.905C60.351 122.757 60.1094 122.572 59.9422 122.369C59.7564 122.166 59.6821 121.907 59.6821 121.593C59.6821 121.353 59.7378 121.113 59.8493 120.909C59.9608 120.706 60.1094 120.521 60.3138 120.355C60.5182 120.189 60.7598 120.078 61.0385 119.986C61.3172 119.893 61.6517 119.856 62.0047 119.856C62.4135 119.856 62.7665 119.893 63.0824 119.986C63.3797 120.078 63.6398 120.17 63.8628 120.281C64.0858 120.392 64.2716 120.485 64.4202 120.577C64.5689 120.669 64.9405 120.928 64.9405 120.928L65.7395 119.672C65.275 119.228 64.7361 118.896 64.1044 118.656C63.4726 118.415 62.7665 118.286 61.9675 118.286C61.28 118.286 60.6854 118.378 60.1466 118.563C59.6077 118.748 59.1618 119.007 58.8088 119.321C58.4371 119.635 58.1584 120.004 57.9726 120.429C57.7868 120.854 57.6939 121.297 57.6939 121.741C57.6939 122.258 57.7868 122.683 57.954 123.052C58.1398 123.403 58.3628 123.717 58.6601 123.958C58.9574 124.198 59.2919 124.401 59.6635 124.567C60.0351 124.733 60.4253 124.881 60.8155 124.992C61.2057 125.121 61.5959 125.232 61.9675 125.362C62.3392 125.472 62.6736 125.602 62.9709 125.768C63.2682 125.916 63.5098 126.101 63.677 126.322C63.8628 126.544 63.9371 126.821 63.9371 127.154C63.9371 127.431 63.8814 127.671 63.7885 127.911C63.6956 128.151 63.5283 128.354 63.324 128.539C63.1196 128.724 62.8594 128.872 62.5435 128.964C62.2277 129.075 61.8746 129.13 61.4658 129.13C60.9827 129.13 60.574 129.075 60.2581 128.964C59.9236 128.853 59.6635 128.724 59.4219 128.594C59.199 128.465 58.9946 128.336 58.8459 128.225C58.6787 128.114 58.2699 127.671 58.2699 127.671L57.3223 129.186C57.8054 129.611 58.3814 129.962 59.0689 130.239C59.7564 130.516 60.5182 130.645 61.3544 130.645C62.0976 130.645 62.7479 130.553 63.3054 130.349C63.8628 130.146 64.3459 129.888 64.7361 129.537C65.1263 129.186 65.4236 128.779 65.6094 128.317C65.8138 127.856 65.9067 127.338 65.9067 126.784C65.9253 126.304 65.8324 125.879 65.6652 125.546Z" fill="#A03CFA"/>
<path d="M52.8071 119.949C52.3054 119.413 51.7108 118.988 51.0047 118.711C50.2986 118.415 49.4997 118.268 48.6263 118.268C47.7345 118.268 46.9355 118.415 46.2294 118.711C45.5233 119.007 44.9101 119.413 44.4084 119.949C43.9068 120.484 43.5166 121.131 43.2564 121.888C42.9963 122.646 42.8662 123.496 42.8662 124.438C42.8662 125.38 42.9963 126.23 43.2564 126.987C43.5166 127.745 43.9068 128.391 44.4084 128.927C44.9101 129.463 45.5233 129.869 46.2294 130.165C46.9355 130.46 47.7345 130.59 48.6263 130.59C49.4997 130.59 50.2986 130.442 51.0047 130.165C51.7108 129.869 52.324 129.463 52.8071 128.927C53.3088 128.391 53.699 127.745 53.9591 126.987C54.2192 126.23 54.3493 125.38 54.3493 124.438C54.3493 123.496 54.2192 122.646 53.9591 121.888C53.6804 121.131 53.2902 120.484 52.8071 119.949ZM51.2649 127.782C50.6703 128.576 49.7784 128.964 48.5892 128.964C47.3814 128.964 46.4895 128.576 45.8949 127.782C45.3003 126.987 45.003 125.879 45.003 124.456C45.003 123.754 45.0774 123.108 45.226 122.535C45.3747 121.962 45.5976 121.5 45.8949 121.113C46.1922 120.725 46.5638 120.429 47.0098 120.226C47.4557 120.023 47.976 119.912 48.5892 119.912C49.7784 119.912 50.6703 120.318 51.2649 121.113C51.8595 121.907 52.1382 123.015 52.1382 124.456C52.1568 125.879 51.8595 126.987 51.2649 127.782Z" fill="#A03CFA"/>
<path d="M38.0538 119.69C37.7194 119.283 37.292 118.988 36.7903 118.766C36.2886 118.544 35.7126 118.434 35.0437 118.434C34.9322 118.434 34.8393 118.452 34.7278 118.452V118.434H29.0234V118.618V120.096V130.442H31.1603V121.777V120.115H34.3748C34.3934 120.115 34.412 120.115 34.4305 120.115C34.4677 120.115 34.4863 120.115 34.5049 120.115H34.6349C35.3782 120.152 35.9356 120.41 36.3072 120.854C36.716 121.352 36.939 122.054 36.939 122.96V130.423H39.0758V122.96C39.0758 122.276 38.9829 121.666 38.8157 121.094C38.6484 120.558 38.3883 120.078 38.0538 119.69Z" fill="#A03CFA"/>
<path d="M23.6167 120.358C23.115 119.822 22.5204 119.397 21.8143 119.12C21.1082 118.825 20.3092 118.677 19.4359 118.677C18.544 118.677 17.745 118.825 17.039 119.12C16.3329 119.416 15.7197 119.822 15.218 120.358C14.7163 120.894 14.3261 121.54 14.066 122.298C13.8058 123.055 13.6758 123.905 13.6758 124.847C13.6758 125.789 13.8058 126.639 14.066 127.396C14.3261 128.154 14.7163 128.8 15.218 129.336C15.7197 129.872 16.3329 130.278 17.039 130.574C17.745 130.869 18.544 130.999 19.4359 130.999C20.3092 130.999 21.1082 130.851 21.8143 130.574C22.5204 130.278 23.1336 129.872 23.6167 129.336C24.1183 128.8 24.5086 128.154 24.7687 127.396C25.0288 126.639 25.1589 125.789 25.1589 124.847C25.1589 123.905 25.0288 123.055 24.7687 122.298C24.49 121.54 24.1183 120.894 23.6167 120.358ZM22.093 128.191C21.4984 128.985 20.6065 129.373 19.4173 129.373C18.2096 129.373 17.3177 128.985 16.7231 128.191C16.1285 127.396 15.8312 126.288 15.8312 124.865C15.8312 124.163 15.9055 123.517 16.0542 122.944C16.2028 122.371 16.4258 121.91 16.7231 121.522C17.0204 121.134 17.392 120.838 17.8379 120.635C18.2839 120.432 18.8042 120.321 19.4173 120.321C20.6065 120.321 21.4984 120.727 22.093 121.522C22.6876 122.316 22.9663 123.425 22.9663 124.865C22.9663 126.288 22.669 127.396 22.093 128.191Z" fill="#A03CFA"/>
<path d="M8.19426 118.417L2.11824 125.068V114.408L2.83525e-07 116.108V126.084V130.443H2.11824V128.116L4.57095 125.419L9.16047 130.443H11.9291L5.96453 123.904L10.9628 118.417H8.19426Z" fill="#A03CFA"/>
<defs>
<linearGradient id="paint0_linear" x1="-22.2851" y1="20.3507" x2="31.8741" y2="-3.15307" gradientUnits="userSpaceOnUse">
<stop offset="0.05" stop-color="#1EC8E6"/>
<stop offset="0.4" stop-color="#554BFA"/>
<stop offset="0.6" stop-color="#A03CFA"/>
<stop offset="0.95" stop-color="#FA2DAF"/>
</linearGradient>
<linearGradient id="paint1_linear" x1="-22.1613" y1="20.6379" x2="31.9979" y2="-2.8659" gradientUnits="userSpaceOnUse">
<stop offset="0.05" stop-color="#1EC8E6"/>
<stop offset="0.4" stop-color="#554BFA"/>
<stop offset="0.6" stop-color="#A03CFA"/>
<stop offset="0.95" stop-color="#FA2DAF"/>
</linearGradient>
<linearGradient id="paint2_linear" x1="-21.075" y1="23.1393" x2="33.0842" y2="-0.364523" gradientUnits="userSpaceOnUse">
<stop offset="0.05" stop-color="#1EC8E6"/>
<stop offset="0.4" stop-color="#554BFA"/>
<stop offset="0.6" stop-color="#A03CFA"/>
<stop offset="0.95" stop-color="#FA2DAF"/>
</linearGradient>
<linearGradient id="paint3_linear" x1="-21.125" y1="23.0235" x2="33.0342" y2="-0.480313" gradientUnits="userSpaceOnUse">
<stop offset="0.05" stop-color="#1EC8E6"/>
<stop offset="0.4" stop-color="#554BFA"/>
<stop offset="0.6" stop-color="#A03CFA"/>
<stop offset="0.95" stop-color="#FA2DAF"/>
</linearGradient>
<linearGradient id="paint4_linear" x1="-21.344" y1="22.5186" x2="32.8152" y2="-0.985192" gradientUnits="userSpaceOnUse">
<stop offset="0.05" stop-color="#1EC8E6"/>
<stop offset="0.4" stop-color="#554BFA"/>
<stop offset="0.6" stop-color="#A03CFA"/>
<stop offset="0.95" stop-color="#FA2DAF"/>
</linearGradient>
<linearGradient id="paint5_linear" x1="-19.3539" y1="27.1055" x2="34.8052" y2="3.60164" gradientUnits="userSpaceOnUse">
<stop offset="0.05" stop-color="#1EC8E6"/>
<stop offset="0.4" stop-color="#554BFA"/>
<stop offset="0.6" stop-color="#A03CFA"/>
<stop offset="0.95" stop-color="#FA2DAF"/>
</linearGradient>
<linearGradient id="paint6_linear" x1="-23.1255" y1="18.415" x2="31.0337" y2="-5.08877" gradientUnits="userSpaceOnUse">
<stop offset="0.05" stop-color="#1EC8E6"/>
<stop offset="0.4" stop-color="#554BFA"/>
<stop offset="0.6" stop-color="#A03CFA"/>
<stop offset="0.95" stop-color="#FA2DAF"/>
</linearGradient>
<linearGradient id="paint7_linear" x1="-18.7468" y1="28.5051" x2="35.4123" y2="5.00126" gradientUnits="userSpaceOnUse">
<stop offset="0.05" stop-color="#1EC8E6"/>
<stop offset="0.4" stop-color="#554BFA"/>
<stop offset="0.6" stop-color="#A03CFA"/>
<stop offset="0.95" stop-color="#FA2DAF"/>
</linearGradient>
<linearGradient id="paint8_linear" x1="-18.7044" y1="28.6022" x2="35.4547" y2="5.09839" gradientUnits="userSpaceOnUse">
<stop offset="0.05" stop-color="#1EC8E6"/>
<stop offset="0.4" stop-color="#554BFA"/>
<stop offset="0.6" stop-color="#A03CFA"/>
<stop offset="0.95" stop-color="#FA2DAF"/>
</linearGradient>
<linearGradient id="paint9_linear" x1="-17.5185" y1="31.3348" x2="36.6406" y2="7.83103" gradientUnits="userSpaceOnUse">
<stop offset="0.05" stop-color="#1EC8E6"/>
<stop offset="0.4" stop-color="#554BFA"/>
<stop offset="0.6" stop-color="#A03CFA"/>
<stop offset="0.95" stop-color="#FA2DAF"/>
</linearGradient>
<linearGradient id="paint10_linear" x1="-17.0862" y1="32.331" x2="37.073" y2="8.82716" gradientUnits="userSpaceOnUse">
<stop offset="0.05" stop-color="#1EC8E6"/>
<stop offset="0.4" stop-color="#554BFA"/>
<stop offset="0.6" stop-color="#A03CFA"/>
<stop offset="0.95" stop-color="#FA2DAF"/>
</linearGradient>
<linearGradient id="paint11_linear" x1="-17.2293" y1="32.0002" x2="36.9299" y2="8.49636" gradientUnits="userSpaceOnUse">
<stop offset="0.05" stop-color="#1EC8E6"/>
<stop offset="0.4" stop-color="#554BFA"/>
<stop offset="0.6" stop-color="#A03CFA"/>
<stop offset="0.95" stop-color="#FA2DAF"/>
</linearGradient>
<linearGradient id="paint12_linear" x1="-16.1888" y1="34.3973" x2="37.9704" y2="10.8935" gradientUnits="userSpaceOnUse">
<stop offset="0.05" stop-color="#1EC8E6"/>
<stop offset="0.4" stop-color="#554BFA"/>
<stop offset="0.6" stop-color="#A03CFA"/>
<stop offset="0.95" stop-color="#FA2DAF"/>
</linearGradient>
<linearGradient id="paint13_linear" x1="-14.3795" y1="38.5675" x2="39.7797" y2="15.0637" gradientUnits="userSpaceOnUse">
<stop offset="0.05" stop-color="#1EC8E6"/>
<stop offset="0.4" stop-color="#554BFA"/>
<stop offset="0.6" stop-color="#A03CFA"/>
<stop offset="0.95" stop-color="#FA2DAF"/>
</linearGradient>
<linearGradient id="paint14_linear" x1="-15.0665" y1="36.984" x2="39.0926" y2="13.4802" gradientUnits="userSpaceOnUse">
<stop offset="0.05" stop-color="#1EC8E6"/>
<stop offset="0.4" stop-color="#554BFA"/>
<stop offset="0.6" stop-color="#A03CFA"/>
<stop offset="0.95" stop-color="#FA2DAF"/>
</linearGradient>
<linearGradient id="paint15_linear" x1="-15.6586" y1="35.6184" x2="38.5006" y2="12.1146" gradientUnits="userSpaceOnUse">
<stop offset="0.05" stop-color="#1EC8E6"/>
<stop offset="0.4" stop-color="#554BFA"/>
<stop offset="0.6" stop-color="#A03CFA"/>
<stop offset="0.95" stop-color="#FA2DAF"/>
</linearGradient>
<linearGradient id="paint16_linear" x1="-16.5127" y1="33.6522" x2="37.6464" y2="10.1484" gradientUnits="userSpaceOnUse">
<stop offset="0.05" stop-color="#1EC8E6"/>
<stop offset="0.4" stop-color="#554BFA"/>
<stop offset="0.6" stop-color="#A03CFA"/>
<stop offset="0.95" stop-color="#FA2DAF"/>
</linearGradient>
<linearGradient id="paint17_linear" x1="-13.9158" y1="39.6368" x2="40.2434" y2="16.1329" gradientUnits="userSpaceOnUse">
<stop offset="0.05" stop-color="#1EC8E6"/>
<stop offset="0.4" stop-color="#554BFA"/>
<stop offset="0.6" stop-color="#A03CFA"/>
<stop offset="0.95" stop-color="#FA2DAF"/>
</linearGradient>
<linearGradient id="paint18_linear" x1="-13.0269" y1="41.6853" x2="41.1323" y2="18.1815" gradientUnits="userSpaceOnUse">
<stop offset="0.05" stop-color="#1EC8E6"/>
<stop offset="0.4" stop-color="#554BFA"/>
<stop offset="0.6" stop-color="#A03CFA"/>
<stop offset="0.95" stop-color="#FA2DAF"/>
</linearGradient>
<linearGradient id="paint19_linear" x1="-12.4856" y1="42.9306" x2="41.6735" y2="19.4268" gradientUnits="userSpaceOnUse">
<stop offset="0.05" stop-color="#1EC8E6"/>
<stop offset="0.4" stop-color="#554BFA"/>
<stop offset="0.6" stop-color="#A03CFA"/>
<stop offset="0.95" stop-color="#FA2DAF"/>
</linearGradient>
<linearGradient id="paint20_linear" x1="-11.9453" y1="44.177" x2="42.2139" y2="20.6732" gradientUnits="userSpaceOnUse">
<stop offset="0.05" stop-color="#1EC8E6"/>
<stop offset="0.4" stop-color="#554BFA"/>
<stop offset="0.6" stop-color="#A03CFA"/>
<stop offset="0.95" stop-color="#FA2DAF"/>
</linearGradient>
<linearGradient id="paint21_linear" x1="-12.1115" y1="43.7949" x2="42.0477" y2="20.2911" gradientUnits="userSpaceOnUse">
<stop offset="0.05" stop-color="#1EC8E6"/>
<stop offset="0.4" stop-color="#554BFA"/>
<stop offset="0.6" stop-color="#A03CFA"/>
<stop offset="0.95" stop-color="#FA2DAF"/>
</linearGradient>
<linearGradient id="paint22_linear" x1="-9.63323" y1="49.503" x2="44.5259" y2="25.9992" gradientUnits="userSpaceOnUse">
<stop offset="0.05" stop-color="#1EC8E6"/>
<stop offset="0.4" stop-color="#554BFA"/>
<stop offset="0.6" stop-color="#A03CFA"/>
<stop offset="0.95" stop-color="#FA2DAF"/>
</linearGradient>
<linearGradient id="paint23_linear" x1="-8.95687" y1="51.0621" x2="45.2023" y2="27.5583" gradientUnits="userSpaceOnUse">
<stop offset="0.05" stop-color="#1EC8E6"/>
<stop offset="0.4" stop-color="#554BFA"/>
<stop offset="0.6" stop-color="#A03CFA"/>
<stop offset="0.95" stop-color="#FA2DAF"/>
</linearGradient>
<linearGradient id="paint24_linear" x1="-8.60521" y1="51.8726" x2="45.5539" y2="28.3688" gradientUnits="userSpaceOnUse">
<stop offset="0.05" stop-color="#1EC8E6"/>
<stop offset="0.4" stop-color="#554BFA"/>
<stop offset="0.6" stop-color="#A03CFA"/>
<stop offset="0.95" stop-color="#FA2DAF"/>
</linearGradient>
<linearGradient id="paint25_linear" x1="-9.02437" y1="50.9081" x2="45.1348" y2="27.4043" gradientUnits="userSpaceOnUse">
<stop offset="0.05" stop-color="#1EC8E6"/>
<stop offset="0.4" stop-color="#554BFA"/>
<stop offset="0.6" stop-color="#A03CFA"/>
<stop offset="0.95" stop-color="#FA2DAF"/>
</linearGradient>
<linearGradient id="paint26_linear" x1="-9.07851" y1="50.78" x2="45.0806" y2="27.2761" gradientUnits="userSpaceOnUse">
<stop offset="0.05" stop-color="#1EC8E6"/>
<stop offset="0.4" stop-color="#554BFA"/>
<stop offset="0.6" stop-color="#A03CFA"/>
<stop offset="0.95" stop-color="#FA2DAF"/>
</linearGradient>
<linearGradient id="paint27_linear" x1="-7.33037" y1="54.8086" x2="46.8288" y2="31.3048" gradientUnits="userSpaceOnUse">
<stop offset="0.05" stop-color="#1EC8E6"/>
<stop offset="0.4" stop-color="#554BFA"/>
<stop offset="0.6" stop-color="#A03CFA"/>
<stop offset="0.95" stop-color="#FA2DAF"/>
</linearGradient>
<linearGradient id="paint28_linear" x1="-5.90562" y1="58.0918" x2="48.2535" y2="34.588" gradientUnits="userSpaceOnUse">
<stop offset="0.05" stop-color="#1EC8E6"/>
<stop offset="0.4" stop-color="#554BFA"/>
<stop offset="0.6" stop-color="#A03CFA"/>
<stop offset="0.95" stop-color="#FA2DAF"/>
</linearGradient>
<linearGradient id="paint29_linear" x1="-6.68624" y1="56.2939" x2="47.4729" y2="32.7901" gradientUnits="userSpaceOnUse">
<stop offset="0.05" stop-color="#1EC8E6"/>
<stop offset="0.4" stop-color="#554BFA"/>
<stop offset="0.6" stop-color="#A03CFA"/>
<stop offset="0.95" stop-color="#FA2DAF"/>
</linearGradient>
<linearGradient id="paint30_linear" x1="-4.38347" y1="61.6023" x2="49.7757" y2="38.0985" gradientUnits="userSpaceOnUse">
<stop offset="0.05" stop-color="#1EC8E6"/>
<stop offset="0.4" stop-color="#554BFA"/>
<stop offset="0.6" stop-color="#A03CFA"/>
<stop offset="0.95" stop-color="#FA2DAF"/>
</linearGradient>
<linearGradient id="paint31_linear" x1="-4.67453" y1="60.9318" x2="49.4846" y2="37.428" gradientUnits="userSpaceOnUse">
<stop offset="0.05" stop-color="#1EC8E6"/>
<stop offset="0.4" stop-color="#554BFA"/>
<stop offset="0.6" stop-color="#A03CFA"/>
<stop offset="0.95" stop-color="#FA2DAF"/>
</linearGradient>
<linearGradient id="paint32_linear" x1="-3.78425" y1="62.9798" x2="50.3749" y2="39.4759" gradientUnits="userSpaceOnUse">
<stop offset="0.05" stop-color="#1EC8E6"/>
<stop offset="0.4" stop-color="#554BFA"/>
<stop offset="0.6" stop-color="#A03CFA"/>
<stop offset="0.95" stop-color="#FA2DAF"/>
</linearGradient>
<linearGradient id="paint33_linear" x1="-2.69354" y1="65.4956" x2="51.4656" y2="41.9917" gradientUnits="userSpaceOnUse">
<stop offset="0.05" stop-color="#1EC8E6"/>
<stop offset="0.4" stop-color="#554BFA"/>
<stop offset="0.6" stop-color="#A03CFA"/>
<stop offset="0.95" stop-color="#FA2DAF"/>
</linearGradient>
<linearGradient id="paint34_linear" x1="-2.04478" y1="66.9886" x2="52.1144" y2="43.4848" gradientUnits="userSpaceOnUse">
<stop offset="0.05" stop-color="#1EC8E6"/>
<stop offset="0.4" stop-color="#554BFA"/>
<stop offset="0.6" stop-color="#A03CFA"/>
<stop offset="0.95" stop-color="#FA2DAF"/>
</linearGradient>
<linearGradient id="paint35_linear" x1="-1.23301" y1="68.8598" x2="52.9261" y2="45.356" gradientUnits="userSpaceOnUse">
<stop offset="0.05" stop-color="#1EC8E6"/>
<stop offset="0.4" stop-color="#554BFA"/>
<stop offset="0.6" stop-color="#A03CFA"/>
<stop offset="0.95" stop-color="#FA2DAF"/>
</linearGradient>
<linearGradient id="paint36_linear" x1="-2.43595" y1="66.0872" x2="51.7232" y2="42.5834" gradientUnits="userSpaceOnUse">
<stop offset="0.05" stop-color="#1EC8E6"/>
<stop offset="0.4" stop-color="#554BFA"/>
<stop offset="0.6" stop-color="#A03CFA"/>
<stop offset="0.95" stop-color="#FA2DAF"/>
</linearGradient>
<linearGradient id="paint37_linear" x1="-1.70741" y1="67.7679" x2="52.4517" y2="44.2641" gradientUnits="userSpaceOnUse">
<stop offset="0.05" stop-color="#1EC8E6"/>
<stop offset="0.4" stop-color="#554BFA"/>
<stop offset="0.6" stop-color="#A03CFA"/>
<stop offset="0.95" stop-color="#FA2DAF"/>
</linearGradient>
<linearGradient id="paint38_linear" x1="0.456738" y1="72.7524" x2="54.6159" y2="49.2486" gradientUnits="userSpaceOnUse">
<stop offset="0.05" stop-color="#1EC8E6"/>
<stop offset="0.4" stop-color="#554BFA"/>
<stop offset="0.6" stop-color="#A03CFA"/>
<stop offset="0.95" stop-color="#FA2DAF"/>
</linearGradient>
<linearGradient id="paint39_linear" x1="1.82937" y1="75.9181" x2="55.9885" y2="52.4143" gradientUnits="userSpaceOnUse">
<stop offset="0.05" stop-color="#1EC8E6"/>
<stop offset="0.4" stop-color="#554BFA"/>
<stop offset="0.6" stop-color="#A03CFA"/>
<stop offset="0.95" stop-color="#FA2DAF"/>
</linearGradient>
<linearGradient id="paint40_linear" x1="4.13004" y1="81.2184" x2="58.2892" y2="57.7146" gradientUnits="userSpaceOnUse">
<stop offset="0.05" stop-color="#1EC8E6"/>
<stop offset="0.4" stop-color="#554BFA"/>
<stop offset="0.6" stop-color="#A03CFA"/>
<stop offset="0.95" stop-color="#FA2DAF"/>
</linearGradient>
<linearGradient id="paint41_linear" x1="5.17636" y1="83.6278" x2="59.3355" y2="60.124" gradientUnits="userSpaceOnUse">
<stop offset="0.05" stop-color="#1EC8E6"/>
<stop offset="0.4" stop-color="#554BFA"/>
<stop offset="0.6" stop-color="#A03CFA"/>
<stop offset="0.95" stop-color="#FA2DAF"/>
</linearGradient>
<linearGradient id="paint42_linear" x1="-0.491535" y1="70.5697" x2="53.6676" y2="47.0659" gradientUnits="userSpaceOnUse">
<stop offset="0.05" stop-color="#1EC8E6"/>
<stop offset="0.4" stop-color="#554BFA"/>
<stop offset="0.6" stop-color="#A03CFA"/>
<stop offset="0.95" stop-color="#FA2DAF"/>
</linearGradient>
<linearGradient id="paint43_linear" x1="1.55472" y1="75.2854" x2="55.7139" y2="51.7816" gradientUnits="userSpaceOnUse">
<stop offset="0.05" stop-color="#1EC8E6"/>
<stop offset="0.4" stop-color="#554BFA"/>
<stop offset="0.6" stop-color="#A03CFA"/>
<stop offset="0.95" stop-color="#FA2DAF"/>
</linearGradient>
<linearGradient id="paint44_linear" x1="2.67765" y1="77.8717" x2="56.8368" y2="54.3678" gradientUnits="userSpaceOnUse">
<stop offset="0.05" stop-color="#1EC8E6"/>
<stop offset="0.4" stop-color="#554BFA"/>
<stop offset="0.6" stop-color="#A03CFA"/>
<stop offset="0.95" stop-color="#FA2DAF"/>
</linearGradient>
<linearGradient id="paint45_linear" x1="3.80752" y1="80.4734" x2="57.9667" y2="56.9696" gradientUnits="userSpaceOnUse">
<stop offset="0.05" stop-color="#1EC8E6"/>
<stop offset="0.4" stop-color="#554BFA"/>
<stop offset="0.6" stop-color="#A03CFA"/>
<stop offset="0.95" stop-color="#FA2DAF"/>
</linearGradient>
<linearGradient id="paint46_linear" x1="5.1817" y1="83.6403" x2="59.3409" y2="60.1365" gradientUnits="userSpaceOnUse">
<stop offset="0.05" stop-color="#1EC8E6"/>
<stop offset="0.4" stop-color="#554BFA"/>
<stop offset="0.6" stop-color="#A03CFA"/>
<stop offset="0.95" stop-color="#FA2DAF"/>
</linearGradient>
<linearGradient id="paint47_linear" x1="7.93975" y1="89.997" x2="62.0989" y2="66.4932" gradientUnits="userSpaceOnUse">
<stop offset="0.05" stop-color="#1EC8E6"/>
<stop offset="0.4" stop-color="#554BFA"/>
<stop offset="0.6" stop-color="#A03CFA"/>
<stop offset="0.95" stop-color="#FA2DAF"/>
</linearGradient>
<linearGradient id="paint48_linear" x1="10.5024" y1="95.9026" x2="64.6616" y2="72.3988" gradientUnits="userSpaceOnUse">
<stop offset="0.05" stop-color="#1EC8E6"/>
<stop offset="0.4" stop-color="#554BFA"/>
<stop offset="0.6" stop-color="#A03CFA"/>
<stop offset="0.95" stop-color="#FA2DAF"/>
</linearGradient>
<linearGradient id="paint49_linear" x1="12.9224" y1="101.48" x2="67.0816" y2="77.9763" gradientUnits="userSpaceOnUse">
<stop offset="0.05" stop-color="#1EC8E6"/>
<stop offset="0.4" stop-color="#554BFA"/>
<stop offset="0.6" stop-color="#A03CFA"/>
<stop offset="0.95" stop-color="#FA2DAF"/>
</linearGradient>
<linearGradient id="paint50_linear" x1="11.9012" y1="99.1256" x2="66.0603" y2="75.6218" gradientUnits="userSpaceOnUse">
<stop offset="0.05" stop-color="#1EC8E6"/>
<stop offset="0.4" stop-color="#554BFA"/>
<stop offset="0.6" stop-color="#A03CFA"/>
<stop offset="0.95" stop-color="#FA2DAF"/>
</linearGradient>
<linearGradient id="paint51_linear" x1="15.4759" y1="107.362" x2="69.6351" y2="83.858" gradientUnits="userSpaceOnUse">
<stop offset="0.05" stop-color="#1EC8E6"/>
<stop offset="0.4" stop-color="#554BFA"/>
<stop offset="0.6" stop-color="#A03CFA"/>
<stop offset="0.95" stop-color="#FA2DAF"/>
</linearGradient>
<linearGradient id="paint52_linear" x1="17.6095" y1="112.279" x2="71.7687" y2="88.7756" gradientUnits="userSpaceOnUse">
<stop offset="0.05" stop-color="#1EC8E6"/>
<stop offset="0.4" stop-color="#554BFA"/>
<stop offset="0.6" stop-color="#A03CFA"/>
<stop offset="0.95" stop-color="#FA2DAF"/>
</linearGradient>
<linearGradient id="paint53_linear" x1="4.37676" y1="81.7855" x2="58.5359" y2="58.2817" gradientUnits="userSpaceOnUse">
<stop offset="0.05" stop-color="#1EC8E6"/>
<stop offset="0.4" stop-color="#554BFA"/>
<stop offset="0.6" stop-color="#A03CFA"/>
<stop offset="0.95" stop-color="#FA2DAF"/>
</linearGradient>
<linearGradient id="paint54_linear" x1="5.53082" y1="84.4479" x2="59.69" y2="60.944" gradientUnits="userSpaceOnUse">
<stop offset="0.05" stop-color="#1EC8E6"/>
<stop offset="0.4" stop-color="#554BFA"/>
<stop offset="0.6" stop-color="#A03CFA"/>
<stop offset="0.95" stop-color="#FA2DAF"/>
</linearGradient>
<linearGradient id="paint55_linear" x1="7.09375" y1="88.0471" x2="61.2529" y2="64.5433" gradientUnits="userSpaceOnUse">
<stop offset="0.05" stop-color="#1EC8E6"/>
<stop offset="0.4" stop-color="#554BFA"/>
<stop offset="0.6" stop-color="#A03CFA"/>
<stop offset="0.95" stop-color="#FA2DAF"/>
</linearGradient>
<linearGradient id="paint56_linear" x1="7.83521" y1="89.7566" x2="61.9944" y2="66.2528" gradientUnits="userSpaceOnUse">
<stop offset="0.05" stop-color="#1EC8E6"/>
<stop offset="0.4" stop-color="#554BFA"/>
<stop offset="0.6" stop-color="#A03CFA"/>
<stop offset="0.95" stop-color="#FA2DAF"/>
</linearGradient>
<linearGradient id="paint57_linear" x1="8.54898" y1="91.4004" x2="62.7081" y2="67.8966" gradientUnits="userSpaceOnUse">
<stop offset="0.05" stop-color="#1EC8E6"/>
<stop offset="0.4" stop-color="#554BFA"/>
<stop offset="0.6" stop-color="#A03CFA"/>
<stop offset="0.95" stop-color="#FA2DAF"/>
</linearGradient>
<linearGradient id="paint58_linear" x1="10.2348" y1="95.2861" x2="64.3939" y2="71.7823" gradientUnits="userSpaceOnUse">
<stop offset="0.05" stop-color="#1EC8E6"/>
<stop offset="0.4" stop-color="#554BFA"/>
<stop offset="0.6" stop-color="#A03CFA"/>
<stop offset="0.95" stop-color="#FA2DAF"/>
</linearGradient>
<linearGradient id="paint59_linear" x1="11.1946" y1="97.4981" x2="65.3538" y2="73.9943" gradientUnits="userSpaceOnUse">
<stop offset="0.05" stop-color="#1EC8E6"/>
<stop offset="0.4" stop-color="#554BFA"/>
<stop offset="0.6" stop-color="#A03CFA"/>
<stop offset="0.95" stop-color="#FA2DAF"/>
</linearGradient>
<linearGradient id="paint60_linear" x1="11.7927" y1="98.875" x2="65.9518" y2="75.3712" gradientUnits="userSpaceOnUse">
<stop offset="0.05" stop-color="#1EC8E6"/>
<stop offset="0.4" stop-color="#554BFA"/>
<stop offset="0.6" stop-color="#A03CFA"/>
<stop offset="0.95" stop-color="#FA2DAF"/>
</linearGradient>
<linearGradient id="paint61_linear" x1="13.1073" y1="101.903" x2="67.2665" y2="78.399" gradientUnits="userSpaceOnUse">
<stop offset="0.05" stop-color="#1EC8E6"/>
<stop offset="0.4" stop-color="#554BFA"/>
<stop offset="0.6" stop-color="#A03CFA"/>
<stop offset="0.95" stop-color="#FA2DAF"/>
</linearGradient>
<linearGradient id="paint62_linear" x1="11.1803" y1="97.4622" x2="65.3395" y2="73.9584" gradientUnits="userSpaceOnUse">
<stop offset="0.05" stop-color="#1EC8E6"/>
<stop offset="0.4" stop-color="#554BFA"/>
<stop offset="0.6" stop-color="#A03CFA"/>
<stop offset="0.95" stop-color="#FA2DAF"/>
</linearGradient>
<linearGradient id="paint63_linear" x1="13.5972" y1="103.031" x2="67.7564" y2="79.5273" gradientUnits="userSpaceOnUse">
<stop offset="0.05" stop-color="#1EC8E6"/>
<stop offset="0.4" stop-color="#554BFA"/>
<stop offset="0.6" stop-color="#A03CFA"/>
<stop offset="0.95" stop-color="#FA2DAF"/>
</linearGradient>
<linearGradient id="paint64_linear" x1="14.8926" y1="106.018" x2="69.0517" y2="82.5139" gradientUnits="userSpaceOnUse">
<stop offset="0.05" stop-color="#1EC8E6"/>
<stop offset="0.4" stop-color="#554BFA"/>
<stop offset="0.6" stop-color="#A03CFA"/>
<stop offset="0.95" stop-color="#FA2DAF"/>
</linearGradient>
<linearGradient id="paint65_linear" x1="15.1529" y1="106.617" x2="69.312" y2="83.1135" gradientUnits="userSpaceOnUse">
<stop offset="0.05" stop-color="#1EC8E6"/>
<stop offset="0.4" stop-color="#554BFA"/>
<stop offset="0.6" stop-color="#A03CFA"/>
<stop offset="0.95" stop-color="#FA2DAF"/>
</linearGradient>
<linearGradient id="paint66_linear" x1="15.7711" y1="108.042" x2="69.9303" y2="84.5384" gradientUnits="userSpaceOnUse">
<stop offset="0.05" stop-color="#1EC8E6"/>
<stop offset="0.4" stop-color="#554BFA"/>
<stop offset="0.6" stop-color="#A03CFA"/>
<stop offset="0.95" stop-color="#FA2DAF"/>
</linearGradient>
<linearGradient id="paint67_linear" x1="17.5647" y1="112.176" x2="71.7239" y2="88.6726" gradientUnits="userSpaceOnUse">
<stop offset="0.05" stop-color="#1EC8E6"/>
<stop offset="0.4" stop-color="#554BFA"/>
<stop offset="0.6" stop-color="#A03CFA"/>
<stop offset="0.95" stop-color="#FA2DAF"/>
</linearGradient>
<linearGradient id="paint68_linear" x1="5.24258" y1="83.7839" x2="59.4017" y2="60.2801" gradientUnits="userSpaceOnUse">
<stop offset="0.05" stop-color="#1EC8E6"/>
<stop offset="0.4" stop-color="#554BFA"/>
<stop offset="0.6" stop-color="#A03CFA"/>
<stop offset="0.95" stop-color="#FA2DAF"/>
</linearGradient>
<linearGradient id="paint69_linear" x1="-1.23404" y1="68.858" x2="52.9251" y2="45.3541" gradientUnits="userSpaceOnUse">
<stop offset="0.05" stop-color="#1EC8E6"/>
<stop offset="0.4" stop-color="#554BFA"/>
<stop offset="0.6" stop-color="#A03CFA"/>
<stop offset="0.95" stop-color="#FA2DAF"/>
</linearGradient>
<linearGradient id="paint70_linear" x1="-2.40172" y1="66.1664" x2="51.7574" y2="42.6626" gradientUnits="userSpaceOnUse">
<stop offset="0.05" stop-color="#1EC8E6"/>
<stop offset="0.4" stop-color="#554BFA"/>
<stop offset="0.6" stop-color="#A03CFA"/>
<stop offset="0.95" stop-color="#FA2DAF"/>
</linearGradient>
<linearGradient id="paint71_linear" x1="-3.13083" y1="64.4873" x2="51.0283" y2="40.9835" gradientUnits="userSpaceOnUse">
<stop offset="0.05" stop-color="#1EC8E6"/>
<stop offset="0.4" stop-color="#554BFA"/>
<stop offset="0.6" stop-color="#A03CFA"/>
<stop offset="0.95" stop-color="#FA2DAF"/>
</linearGradient>
<linearGradient id="paint72_linear" x1="-4.38559" y1="61.5961" x2="49.7736" y2="38.0922" gradientUnits="userSpaceOnUse">
<stop offset="0.05" stop-color="#1EC8E6"/>
<stop offset="0.4" stop-color="#554BFA"/>
<stop offset="0.6" stop-color="#A03CFA"/>
<stop offset="0.95" stop-color="#FA2DAF"/>
</linearGradient>
<linearGradient id="paint73_linear" x1="-5.51544" y1="58.9916" x2="48.6437" y2="35.4878" gradientUnits="userSpaceOnUse">
<stop offset="0.05" stop-color="#1EC8E6"/>
<stop offset="0.4" stop-color="#554BFA"/>
<stop offset="0.6" stop-color="#A03CFA"/>
<stop offset="0.95" stop-color="#FA2DAF"/>
</linearGradient>
<linearGradient id="paint74_linear" x1="-5.95694" y1="57.9735" x2="48.2022" y2="34.4697" gradientUnits="userSpaceOnUse">
<stop offset="0.05" stop-color="#1EC8E6"/>
<stop offset="0.4" stop-color="#554BFA"/>
<stop offset="0.6" stop-color="#A03CFA"/>
<stop offset="0.95" stop-color="#FA2DAF"/>
</linearGradient>
<linearGradient id="paint75_linear" x1="-1.07438" y1="69.2246" x2="53.0848" y2="45.7208" gradientUnits="userSpaceOnUse">
<stop offset="0.05" stop-color="#1EC8E6"/>
<stop offset="0.4" stop-color="#554BFA"/>
<stop offset="0.6" stop-color="#A03CFA"/>
<stop offset="0.95" stop-color="#FA2DAF"/>
</linearGradient>
<linearGradient id="paint76_linear" x1="-2.05788" y1="66.9581" x2="52.1013" y2="43.4543" gradientUnits="userSpaceOnUse">
<stop offset="0.05" stop-color="#1EC8E6"/>
<stop offset="0.4" stop-color="#554BFA"/>
<stop offset="0.6" stop-color="#A03CFA"/>
<stop offset="0.95" stop-color="#FA2DAF"/>
</linearGradient>
<linearGradient id="paint77_linear" x1="-3.4164" y1="63.8301" x2="50.7428" y2="40.3262" gradientUnits="userSpaceOnUse">
<stop offset="0.05" stop-color="#1EC8E6"/>
<stop offset="0.4" stop-color="#554BFA"/>
<stop offset="0.6" stop-color="#A03CFA"/>
<stop offset="0.95" stop-color="#FA2DAF"/>
</linearGradient>
<linearGradient id="paint78_linear" x1="-4.32988" y1="61.7242" x2="49.8293" y2="38.2204" gradientUnits="userSpaceOnUse">
<stop offset="0.05" stop-color="#1EC8E6"/>
<stop offset="0.4" stop-color="#554BFA"/>
<stop offset="0.6" stop-color="#A03CFA"/>
<stop offset="0.95" stop-color="#FA2DAF"/>
</linearGradient>
<linearGradient id="paint79_linear" x1="-5.23944" y1="59.6291" x2="48.9197" y2="36.1253" gradientUnits="userSpaceOnUse">
<stop offset="0.05" stop-color="#1EC8E6"/>
<stop offset="0.4" stop-color="#554BFA"/>
<stop offset="0.6" stop-color="#A03CFA"/>
<stop offset="0.95" stop-color="#FA2DAF"/>
</linearGradient>
<linearGradient id="paint80_linear" x1="-5.94393" y1="58.0045" x2="48.2152" y2="34.5007" gradientUnits="userSpaceOnUse">
<stop offset="0.05" stop-color="#1EC8E6"/>
<stop offset="0.4" stop-color="#554BFA"/>
<stop offset="0.6" stop-color="#A03CFA"/>
<stop offset="0.95" stop-color="#FA2DAF"/>
</linearGradient>
<linearGradient id="paint81_linear" x1="-7.20909" y1="55.0916" x2="46.9501" y2="31.5878" gradientUnits="userSpaceOnUse">
<stop offset="0.05" stop-color="#1EC8E6"/>
<stop offset="0.4" stop-color="#554BFA"/>
<stop offset="0.6" stop-color="#A03CFA"/>
<stop offset="0.95" stop-color="#FA2DAF"/>
</linearGradient>
<linearGradient id="paint82_linear" x1="2.22003" y1="76.8152" x2="56.3792" y2="53.3114" gradientUnits="userSpaceOnUse">
<stop offset="0.05" stop-color="#1EC8E6"/>
<stop offset="0.4" stop-color="#554BFA"/>
<stop offset="0.6" stop-color="#A03CFA"/>
<stop offset="0.95" stop-color="#FA2DAF"/>
</linearGradient>
<linearGradient id="paint83_linear" x1="0.900318" y1="73.7768" x2="55.0595" y2="50.273" gradientUnits="userSpaceOnUse">
<stop offset="0.05" stop-color="#1EC8E6"/>
<stop offset="0.4" stop-color="#554BFA"/>
<stop offset="0.6" stop-color="#A03CFA"/>
<stop offset="0.95" stop-color="#FA2DAF"/>
</linearGradient>
<linearGradient id="paint84_linear" x1="2.24848" y1="76.8817" x2="56.4076" y2="53.3779" gradientUnits="userSpaceOnUse">
<stop offset="0.05" stop-color="#1EC8E6"/>
<stop offset="0.4" stop-color="#554BFA"/>
<stop offset="0.6" stop-color="#A03CFA"/>
<stop offset="0.95" stop-color="#FA2DAF"/>
</linearGradient>
<linearGradient id="paint85_linear" x1="-0.626004" y1="70.2608" x2="53.5331" y2="46.757" gradientUnits="userSpaceOnUse">
<stop offset="0.05" stop-color="#1EC8E6"/>
<stop offset="0.4" stop-color="#554BFA"/>
<stop offset="0.6" stop-color="#A03CFA"/>
<stop offset="0.95" stop-color="#FA2DAF"/>
</linearGradient>
<linearGradient id="paint86_linear" x1="-0.992546" y1="69.4142" x2="53.1666" y2="45.9103" gradientUnits="userSpaceOnUse">
<stop offset="0.05" stop-color="#1EC8E6"/>
<stop offset="0.4" stop-color="#554BFA"/>
<stop offset="0.6" stop-color="#A03CFA"/>
<stop offset="0.95" stop-color="#FA2DAF"/>
</linearGradient>
<linearGradient id="paint87_linear" x1="0.357687" y1="72.5249" x2="54.5168" y2="49.0211" gradientUnits="userSpaceOnUse">
<stop offset="0.05" stop-color="#1EC8E6"/>
<stop offset="0.4" stop-color="#554BFA"/>
<stop offset="0.6" stop-color="#A03CFA"/>
<stop offset="0.95" stop-color="#FA2DAF"/>
</linearGradient>
<linearGradient id="paint88_linear" x1="-2.10486" y1="66.8499" x2="52.0543" y2="43.3461" gradientUnits="userSpaceOnUse">
<stop offset="0.05" stop-color="#1EC8E6"/>
<stop offset="0.4" stop-color="#554BFA"/>
<stop offset="0.6" stop-color="#A03CFA"/>
<stop offset="0.95" stop-color="#FA2DAF"/>
</linearGradient>
<linearGradient id="paint89_linear" x1="-2.47711" y1="65.9927" x2="51.6821" y2="42.4888" gradientUnits="userSpaceOnUse">
<stop offset="0.05" stop-color="#1EC8E6"/>
<stop offset="0.4" stop-color="#554BFA"/>
<stop offset="0.6" stop-color="#A03CFA"/>
<stop offset="0.95" stop-color="#FA2DAF"/>
</linearGradient>
<linearGradient id="paint90_linear" x1="-5.14441" y1="59.8471" x2="49.0147" y2="36.3433" gradientUnits="userSpaceOnUse">
<stop offset="0.05" stop-color="#1EC8E6"/>
<stop offset="0.4" stop-color="#554BFA"/>
<stop offset="0.6" stop-color="#A03CFA"/>
<stop offset="0.95" stop-color="#FA2DAF"/>
</linearGradient>
<linearGradient id="paint91_linear" x1="-0.976966" y1="69.45" x2="53.1822" y2="45.9462" gradientUnits="userSpaceOnUse">
<stop offset="0.05" stop-color="#1EC8E6"/>
<stop offset="0.4" stop-color="#554BFA"/>
<stop offset="0.6" stop-color="#A03CFA"/>
<stop offset="0.95" stop-color="#FA2DAF"/>
</linearGradient>
<linearGradient id="paint92_linear" x1="-1.69886" y1="67.7875" x2="52.4603" y2="44.2837" gradientUnits="userSpaceOnUse">
<stop offset="0.05" stop-color="#1EC8E6"/>
<stop offset="0.4" stop-color="#554BFA"/>
<stop offset="0.6" stop-color="#A03CFA"/>
<stop offset="0.95" stop-color="#FA2DAF"/>
</linearGradient>
<linearGradient id="paint93_linear" x1="-2.95744" y1="64.8851" x2="51.2017" y2="41.3813" gradientUnits="userSpaceOnUse">
<stop offset="0.05" stop-color="#1EC8E6"/>
<stop offset="0.4" stop-color="#554BFA"/>
<stop offset="0.6" stop-color="#A03CFA"/>
<stop offset="0.95" stop-color="#FA2DAF"/>
</linearGradient>
<linearGradient id="paint94_linear" x1="-4.16334" y1="62.1069" x2="49.9958" y2="38.6031" gradientUnits="userSpaceOnUse">
<stop offset="0.05" stop-color="#1EC8E6"/>
<stop offset="0.4" stop-color="#554BFA"/>
<stop offset="0.6" stop-color="#A03CFA"/>
<stop offset="0.95" stop-color="#FA2DAF"/>
</linearGradient>
<linearGradient id="paint95_linear" x1="-4.4116" y1="61.5363" x2="49.7476" y2="38.0325" gradientUnits="userSpaceOnUse">
<stop offset="0.05" stop-color="#1EC8E6"/>
<stop offset="0.4" stop-color="#554BFA"/>
<stop offset="0.6" stop-color="#A03CFA"/>
<stop offset="0.95" stop-color="#FA2DAF"/>
</linearGradient>
<linearGradient id="paint96_linear" x1="-5.74949" y1="58.4522" x2="48.4097" y2="34.9484" gradientUnits="userSpaceOnUse">
<stop offset="0.05" stop-color="#1EC8E6"/>
<stop offset="0.4" stop-color="#554BFA"/>
<stop offset="0.6" stop-color="#A03CFA"/>
<stop offset="0.95" stop-color="#FA2DAF"/>
</linearGradient>
<linearGradient id="paint97_linear" x1="0.480752" y1="72.8106" x2="54.6399" y2="49.3067" gradientUnits="userSpaceOnUse">
<stop offset="0.05" stop-color="#1EC8E6"/>
<stop offset="0.4" stop-color="#554BFA"/>
<stop offset="0.6" stop-color="#A03CFA"/>
<stop offset="0.95" stop-color="#FA2DAF"/>
</linearGradient>
<linearGradient id="paint98_linear" x1="0.0751392" y1="71.8754" x2="54.2343" y2="48.3716" gradientUnits="userSpaceOnUse">
<stop offset="0.05" stop-color="#1EC8E6"/>
<stop offset="0.4" stop-color="#554BFA"/>
<stop offset="0.6" stop-color="#A03CFA"/>
<stop offset="0.95" stop-color="#FA2DAF"/>
</linearGradient>
<linearGradient id="paint99_linear" x1="1.65322" y1="75.5103" x2="55.8124" y2="52.0065" gradientUnits="userSpaceOnUse">
<stop offset="0.05" stop-color="#1EC8E6"/>
<stop offset="0.4" stop-color="#554BFA"/>
<stop offset="0.6" stop-color="#A03CFA"/>
<stop offset="0.95" stop-color="#FA2DAF"/>
</linearGradient>
<linearGradient id="paint100_linear" x1="2.39538" y1="77.2221" x2="56.5545" y2="53.7183" gradientUnits="userSpaceOnUse">
<stop offset="0.05" stop-color="#1EC8E6"/>
<stop offset="0.4" stop-color="#554BFA"/>
<stop offset="0.6" stop-color="#A03CFA"/>
<stop offset="0.95" stop-color="#FA2DAF"/>
</linearGradient>
<linearGradient id="paint101_linear" x1="0.435317" y1="72.7063" x2="54.5945" y2="49.2025" gradientUnits="userSpaceOnUse">
<stop offset="0.05" stop-color="#1EC8E6"/>
<stop offset="0.4" stop-color="#554BFA"/>
<stop offset="0.6" stop-color="#A03CFA"/>
<stop offset="0.95" stop-color="#FA2DAF"/>
</linearGradient>
<linearGradient id="paint102_linear" x1="1.8033" y1="75.8573" x2="55.9625" y2="52.3535" gradientUnits="userSpaceOnUse">
<stop offset="0.05" stop-color="#1EC8E6"/>
<stop offset="0.4" stop-color="#554BFA"/>
<stop offset="0.6" stop-color="#A03CFA"/>
<stop offset="0.95" stop-color="#FA2DAF"/>
</linearGradient>
<linearGradient id="paint103_linear" x1="3.30516" y1="79.3166" x2="57.4643" y2="55.8128" gradientUnits="userSpaceOnUse">
<stop offset="0.05" stop-color="#1EC8E6"/>
<stop offset="0.4" stop-color="#554BFA"/>
<stop offset="0.6" stop-color="#A03CFA"/>
<stop offset="0.95" stop-color="#FA2DAF"/>
</linearGradient>
<linearGradient id="paint104_linear" x1="3.93754" y1="80.7734" x2="58.0967" y2="57.2696" gradientUnits="userSpaceOnUse">
<stop offset="0.05" stop-color="#1EC8E6"/>
<stop offset="0.4" stop-color="#554BFA"/>
<stop offset="0.6" stop-color="#A03CFA"/>
<stop offset="0.95" stop-color="#FA2DAF"/>
</linearGradient>
<linearGradient id="paint105_linear" x1="3.13367" y1="78.9202" x2="57.2928" y2="55.4164" gradientUnits="userSpaceOnUse">
<stop offset="0.05" stop-color="#1EC8E6"/>
<stop offset="0.4" stop-color="#554BFA"/>
<stop offset="0.6" stop-color="#A03CFA"/>
<stop offset="0.95" stop-color="#FA2DAF"/>
</linearGradient>
<linearGradient id="paint106_linear" x1="4.92913" y1="83.0577" x2="59.0883" y2="59.5539" gradientUnits="userSpaceOnUse">
<stop offset="0.05" stop-color="#1EC8E6"/>
<stop offset="0.4" stop-color="#554BFA"/>
<stop offset="0.6" stop-color="#A03CFA"/>
<stop offset="0.95" stop-color="#FA2DAF"/>
</linearGradient>
<linearGradient id="paint107_linear" x1="4.73053" y1="82.6001" x2="58.8897" y2="59.0963" gradientUnits="userSpaceOnUse">
<stop offset="0.05" stop-color="#1EC8E6"/>
<stop offset="0.4" stop-color="#554BFA"/>
<stop offset="0.6" stop-color="#A03CFA"/>
<stop offset="0.95" stop-color="#FA2DAF"/>
</linearGradient>
<linearGradient id="paint108_linear" x1="6.39045" y1="86.4251" x2="60.5496" y2="62.9213" gradientUnits="userSpaceOnUse">
<stop offset="0.05" stop-color="#1EC8E6"/>
<stop offset="0.4" stop-color="#554BFA"/>
<stop offset="0.6" stop-color="#A03CFA"/>
<stop offset="0.95" stop-color="#FA2DAF"/>
</linearGradient>
<linearGradient id="paint109_linear" x1="7.33015" y1="88.5918" x2="61.4893" y2="65.088" gradientUnits="userSpaceOnUse">
<stop offset="0.05" stop-color="#1EC8E6"/>
<stop offset="0.4" stop-color="#554BFA"/>
<stop offset="0.6" stop-color="#A03CFA"/>
<stop offset="0.95" stop-color="#FA2DAF"/>
</linearGradient>
<linearGradient id="paint110_linear" x1="5.84101" y1="85.1588" x2="60.0002" y2="61.655" gradientUnits="userSpaceOnUse">
<stop offset="0.05" stop-color="#1EC8E6"/>
<stop offset="0.4" stop-color="#554BFA"/>
<stop offset="0.6" stop-color="#A03CFA"/>
<stop offset="0.95" stop-color="#FA2DAF"/>
</linearGradient>
<linearGradient id="paint111_linear" x1="6.51917" y1="86.7227" x2="60.6783" y2="63.2189" gradientUnits="userSpaceOnUse">
<stop offset="0.05" stop-color="#1EC8E6"/>
<stop offset="0.4" stop-color="#554BFA"/>
<stop offset="0.6" stop-color="#A03CFA"/>
<stop offset="0.95" stop-color="#FA2DAF"/>
</linearGradient>
<linearGradient id="paint112_linear" x1="8.02945" y1="90.2031" x2="62.1886" y2="66.6993" gradientUnits="userSpaceOnUse">
<stop offset="0.05" stop-color="#1EC8E6"/>
<stop offset="0.4" stop-color="#554BFA"/>
<stop offset="0.6" stop-color="#A03CFA"/>
<stop offset="0.95" stop-color="#FA2DAF"/>
</linearGradient>
<linearGradient id="paint113_linear" x1="9.28566" y1="93.0982" x2="63.4448" y2="69.5944" gradientUnits="userSpaceOnUse">
<stop offset="0.05" stop-color="#1EC8E6"/>
<stop offset="0.4" stop-color="#554BFA"/>
<stop offset="0.6" stop-color="#A03CFA"/>
<stop offset="0.95" stop-color="#FA2DAF"/>
</linearGradient>
<linearGradient id="paint114_linear" x1="8.93142" y1="92.2803" x2="63.0906" y2="68.7765" gradientUnits="userSpaceOnUse">
<stop offset="0.05" stop-color="#1EC8E6"/>
<stop offset="0.4" stop-color="#554BFA"/>
<stop offset="0.6" stop-color="#A03CFA"/>
<stop offset="0.95" stop-color="#FA2DAF"/>
</linearGradient>
<linearGradient id="paint115_linear" x1="10.2853" y1="95.4026" x2="64.4445" y2="71.8988" gradientUnits="userSpaceOnUse">
<stop offset="0.05" stop-color="#1EC8E6"/>
<stop offset="0.4" stop-color="#554BFA"/>
<stop offset="0.6" stop-color="#A03CFA"/>
<stop offset="0.95" stop-color="#FA2DAF"/>
</linearGradient>
<linearGradient id="paint116_linear" x1="12.6129" y1="100.767" x2="66.7721" y2="77.2628" gradientUnits="userSpaceOnUse">
<stop offset="0.05" stop-color="#1EC8E6"/>
<stop offset="0.4" stop-color="#554BFA"/>
<stop offset="0.6" stop-color="#A03CFA"/>
<stop offset="0.95" stop-color="#FA2DAF"/>
</linearGradient>
</defs>
</svg>
