<svg width="1110" height="10" viewBox="0 0 1110 10" fill="none" xmlns="http://www.w3.org/2000/svg">
<path fill-rule="evenodd" clip-rule="evenodd" d="M4.37114e-07 10L0 0L1 -4.37114e-08L1 10L4.37114e-07 10Z" fill="#F2F2F2"/>
<path fill-rule="evenodd" clip-rule="evenodd" d="M159 10L159 0L160 -4.37114e-08L160 10L159 10Z" fill="#F2F2F2"/>
<path fill-rule="evenodd" clip-rule="evenodd" d="M190 10L190 0L191 -4.37114e-08L191 10L190 10Z" fill="#F2F2F2"/>
<path fill-rule="evenodd" clip-rule="evenodd" d="M349 10L349 0L350 -4.37114e-08L350 10L349 10Z" fill="#F2F2F2"/>
<path fill-rule="evenodd" clip-rule="evenodd" d="M380 10L380 0L381 -4.37114e-08L381 10L380 10Z" fill="#F2F2F2"/>
<path fill-rule="evenodd" clip-rule="evenodd" d="M539 10L539 0L540 -4.37114e-08L540 10L539 10Z" fill="#F2F2F2"/>
<path fill-rule="evenodd" clip-rule="evenodd" d="M570 10L570 0L571 -4.37114e-08L571 10L570 10Z" fill="#F2F2F2"/>
<path fill-rule="evenodd" clip-rule="evenodd" d="M729 10L729 0L730 -4.37114e-08L730 10L729 10Z" fill="#F2F2F2"/>
<path fill-rule="evenodd" clip-rule="evenodd" d="M760 10L760 0L761 -4.37114e-08L761 10L760 10Z" fill="#F2F2F2"/>
<path fill-rule="evenodd" clip-rule="evenodd" d="M919 10L919 0L920 -4.37114e-08L920 10L919 10Z" fill="#F2F2F2"/>
<path fill-rule="evenodd" clip-rule="evenodd" d="M950 10L950 0L951 -4.37114e-08L951 10L950 10Z" fill="#F2F2F2"/>
<path fill-rule="evenodd" clip-rule="evenodd" d="M1109 10L1109 0L1110 -4.37114e-08L1110 10L1109 10Z" fill="#F2F2F2"/>
</svg>
