<svg width="930" height="10" viewBox="0 0 930 10" fill="none" xmlns="http://www.w3.org/2000/svg">
<path fill-rule="evenodd" clip-rule="evenodd" d="M4.37114e-07 10L0 4.37114e-08L1 0L1 10L4.37114e-07 10Z" fill="#F2F2F2"/>
<path fill-rule="evenodd" clip-rule="evenodd" d="M160 10L160 4.37114e-08L161 0L161 10L160 10Z" fill="#F2F2F2"/>
<path fill-rule="evenodd" clip-rule="evenodd" d="M129 10L129 4.37114e-08L130 0L130 10L129 10Z" fill="#F2F2F2"/>
<path fill-rule="evenodd" clip-rule="evenodd" d="M289 10L289 4.37114e-08L290 0L290 10L289 10Z" fill="#F2F2F2"/>
<path fill-rule="evenodd" clip-rule="evenodd" d="M320 10L320 4.37114e-08L321 0L321 10L320 10Z" fill="#F2F2F2"/>
<path fill-rule="evenodd" clip-rule="evenodd" d="M449 10L449 4.37114e-08L450 0L450 10L449 10Z" fill="#F2F2F2"/>
<path fill-rule="evenodd" clip-rule="evenodd" d="M480 10L480 4.37114e-08L481 0L481 10L480 10Z" fill="#F2F2F2"/>
<path fill-rule="evenodd" clip-rule="evenodd" d="M609 10L609 4.37114e-08L610 0L610 10L609 10Z" fill="#F2F2F2"/>
<path fill-rule="evenodd" clip-rule="evenodd" d="M640 10L640 4.37114e-08L641 0L641 10L640 10Z" fill="#F2F2F2"/>
<path fill-rule="evenodd" clip-rule="evenodd" d="M769 10L769 4.37114e-08L770 0L770 10L769 10Z" fill="#F2F2F2"/>
<path fill-rule="evenodd" clip-rule="evenodd" d="M800 10L800 4.37114e-08L801 0L801 10L800 10Z" fill="#F2F2F2"/>
<path fill-rule="evenodd" clip-rule="evenodd" d="M929 10L929 4.37114e-08L930 0L930 10L929 10Z" fill="#F2F2F2"/>
</svg>
