<svg width="690" height="10" viewBox="0 0 690 10" fill="none" xmlns="http://www.w3.org/2000/svg">
<path fill-rule="evenodd" clip-rule="evenodd" d="M4.37114e-07 10L0 4.37114e-08L1 0L1 10L4.37114e-07 10Z" fill="#F2F2F2"/>
<path fill-rule="evenodd" clip-rule="evenodd" d="M89 10L89 4.37114e-08L90 0L90 10L89 10Z" fill="#F2F2F2"/>
<path fill-rule="evenodd" clip-rule="evenodd" d="M120 10L120 4.37114e-08L121 0L121 10L120 10Z" fill="#F2F2F2"/>
<path fill-rule="evenodd" clip-rule="evenodd" d="M209 10L209 4.37114e-08L210 0L210 10L209 10Z" fill="#F2F2F2"/>
<path fill-rule="evenodd" clip-rule="evenodd" d="M240 10L240 4.37114e-08L241 0L241 10L240 10Z" fill="#F2F2F2"/>
<path fill-rule="evenodd" clip-rule="evenodd" d="M329 10L329 4.37114e-08L330 0L330 10L329 10Z" fill="#F2F2F2"/>
<path fill-rule="evenodd" clip-rule="evenodd" d="M360 10L360 4.37114e-08L361 0L361 10L360 10Z" fill="#F2F2F2"/>
<path fill-rule="evenodd" clip-rule="evenodd" d="M449 10L449 4.37114e-08L450 0L450 10L449 10Z" fill="#F2F2F2"/>
<path fill-rule="evenodd" clip-rule="evenodd" d="M480 10L480 4.37114e-08L481 0L481 10L480 10Z" fill="#F2F2F2"/>
<path fill-rule="evenodd" clip-rule="evenodd" d="M569 10L569 4.37114e-08L570 0L570 10L569 10Z" fill="#F2F2F2"/>
<path fill-rule="evenodd" clip-rule="evenodd" d="M600 10L600 4.37114e-08L601 0L601 10L600 10Z" fill="#F2F2F2"/>
<path fill-rule="evenodd" clip-rule="evenodd" d="M689 10L689 4.37114e-08L690 0L690 10L689 10Z" fill="#F2F2F2"/>
</svg>
