<svg width="510" height="10" viewBox="0 0 510 10" fill="none" xmlns="http://www.w3.org/2000/svg">
<path fill-rule="evenodd" clip-rule="evenodd" d="M4.37114e-07 10L0 4.37114e-08L1 0L1 10L4.37114e-07 10Z" fill="#F2F2F2"/>
<path fill-rule="evenodd" clip-rule="evenodd" d="M59 10L59 4.37114e-08L60 0L60 10L59 10Z" fill="#F2F2F2"/>
<path fill-rule="evenodd" clip-rule="evenodd" d="M90 10L90 4.37114e-08L91 0L91 10L90 10Z" fill="#F2F2F2"/>
<path fill-rule="evenodd" clip-rule="evenodd" d="M149 10L149 4.37114e-08L150 0L150 10L149 10Z" fill="#F2F2F2"/>
<path fill-rule="evenodd" clip-rule="evenodd" d="M180 10L180 4.37114e-08L181 0L181 10L180 10Z" fill="#F2F2F2"/>
<path fill-rule="evenodd" clip-rule="evenodd" d="M239 10L239 4.37114e-08L240 0L240 10L239 10Z" fill="#F2F2F2"/>
<path fill-rule="evenodd" clip-rule="evenodd" d="M270 10L270 4.37114e-08L271 0L271 10L270 10Z" fill="#F2F2F2"/>
<path fill-rule="evenodd" clip-rule="evenodd" d="M329 10L329 4.37114e-08L330 0L330 10L329 10Z" fill="#F2F2F2"/>
<path fill-rule="evenodd" clip-rule="evenodd" d="M360 10L360 4.37114e-08L361 0L361 10L360 10Z" fill="#F2F2F2"/>
<path fill-rule="evenodd" clip-rule="evenodd" d="M419 10L419 4.37114e-08L420 0L420 10L419 10Z" fill="#F2F2F2"/>
<path fill-rule="evenodd" clip-rule="evenodd" d="M450 10L450 4.37114e-08L451 0L451 10L450 10Z" fill="#F2F2F2"/>
<path fill-rule="evenodd" clip-rule="evenodd" d="M509 10L509 4.37114e-08L510 0L510 10L509 10Z" fill="#F2F2F2"/>
</svg>
