<svg width="82" height="52" viewBox="0 0 82 52" fill="none" xmlns="http://www.w3.org/2000/svg">
<path d="M0 24V0H12.1983C13.4954 0 14.6928 0.247887 15.7904 0.743662C16.888 1.2169 17.8234 1.84789 18.5968 2.63662C19.395 3.40282 20.0186 4.29296 20.4677 5.30704C20.9167 6.29859 21.1412 7.30141 21.1412 8.31549C21.1412 9.71268 20.8044 11.0197 20.1309 12.2366C19.4574 13.431 18.5219 14.4113 17.3245 15.1775L22.9372 24H14.7053L10.028 16.631H7.29651V24H0ZM7.29651 10.8845H11.8989C12.3479 10.8845 12.7595 10.6592 13.1337 10.2085C13.5328 9.75775 13.7324 9.12676 13.7324 8.31549C13.7324 7.48169 13.5079 6.8507 13.0589 6.42253C12.6099 5.97183 12.1609 5.74648 11.7118 5.74648H7.29651V10.8845Z" fill="#333333"/>
<path d="M32.1348 0H38.7952L48 24H40.5912L38.9823 19.3014H31.9103L30.3387 24H22.8925L32.1348 0ZM37.8223 14.907L35.465 7.47042L32.9954 14.907H37.8223Z" fill="#333333"/>
<path d="M19.5692 51.8V39.3333L15.2327 48.1H11.4427L7.10615 39.3333V51.8H0V28.1333H7.7621L13.3377 39.2667L18.9497 28.1333H26.6754V51.8H19.5692Z" fill="#333333"/>
<path d="M42.765 52C40.7971 52 39.0115 51.6556 37.4081 50.9667C35.8046 50.2778 34.432 49.3778 33.2901 48.2667C32.1483 47.1333 31.2615 45.8444 30.6299 44.4C29.9982 42.9556 29.6824 41.4667 29.6824 39.9333C29.6824 38.3778 30.0104 36.8778 30.6663 35.4333C31.3223 33.9889 32.2333 32.7222 33.3995 31.6333C34.5899 30.5222 35.9868 29.6444 37.5903 29C39.218 28.3333 40.9915 28 42.9108 28C44.8786 28 46.6643 28.3444 48.2677 29.0333C49.8712 29.7222 51.2438 30.6333 52.3856 31.7667C53.5275 32.9 54.4021 34.1889 55.0094 35.6333C55.6411 37.0778 55.9569 38.5556 55.9569 40.0667C55.9569 41.6222 55.629 43.1222 54.973 44.5667C54.3171 45.9889 53.406 47.2556 52.2399 48.3667C51.0737 49.4556 49.6768 50.3333 48.0491 51C46.4456 51.6667 44.6843 52 42.765 52ZM36.8979 40C36.8979 40.8 37.0194 41.5778 37.2623 42.3333C37.5052 43.0667 37.8697 43.7222 38.3556 44.3C38.8414 44.8778 39.4488 45.3444 40.1776 45.7C40.9308 46.0556 41.8175 46.2333 42.8379 46.2333C43.8583 46.2333 44.745 46.0556 45.4981 45.7C46.2513 45.3222 46.8586 44.8444 47.3202 44.2667C47.8061 43.6667 48.1584 42.9889 48.377 42.2333C48.62 41.4778 48.7415 40.7111 48.7415 39.9333C48.7415 39.1333 48.62 38.3667 48.377 37.6333C48.1341 36.8778 47.7575 36.2222 47.2473 35.6667C46.7615 35.0889 46.1419 34.6333 45.3888 34.3C44.66 33.9444 43.7975 33.7667 42.8014 33.7667C41.7811 33.7667 40.8943 33.9444 40.1412 34.3C39.4124 34.6556 38.805 35.1333 38.3191 35.7333C37.8332 36.3111 37.4688 36.9778 37.2259 37.7333C37.0072 38.4667 36.8979 39.2222 36.8979 40Z" fill="#333333"/>
<path d="M66.0749 40.1667V51.8H58.9688V28.1333H64.5079L74.8939 40.1667V28.1333H82V51.8H76.3515L66.0749 40.1667Z" fill="#333333"/>
</svg>
