<svg width="170" height="132" viewBox="0 0 170 132" fill="none" xmlns="http://www.w3.org/2000/svg">
<path d="M170 16.2963C170 7.2961 162.936 0 154.223 0H0V115.704C0 124.704 7.06372 132 15.7773 132H154.223C162.936 132 170 124.704 170 115.704V16.2963Z" fill="#333333"/>
<path d="M26 64V26H43.535C45.3997 26 47.1209 26.3925 48.6987 27.1775C50.2765 27.9268 51.6212 28.9258 52.7328 30.1746C53.8803 31.3878 54.7768 32.7972 55.4223 34.4028C56.0677 35.9728 56.3904 37.5606 56.3904 39.1662C56.3904 41.3784 55.9063 43.4479 54.9382 45.3746C53.97 47.2657 52.6253 48.8178 50.904 50.031L58.9723 64H47.1388L40.4153 52.3324H36.4887V64H26ZM36.4887 43.2338H43.1047C43.7502 43.2338 44.3418 42.877 44.8797 42.1634C45.4535 41.4498 45.7403 40.4507 45.7403 39.1662C45.7403 37.846 45.4176 36.8469 44.7722 36.169C44.1267 35.4554 43.4812 35.0986 42.8358 35.0986H36.4887V43.2338Z" fill="white"/>
<path d="M72.1937 26H81.7681L95 64H84.3499L82.037 56.5606H71.871L69.6119 64H58.908L72.1937 26ZM80.3696 49.6028L76.9809 37.8282L73.4309 49.6028H80.3696Z" fill="white"/>
<path d="M54.1606 105.683V85.9444L47.9202 99.825H42.4664L36.2259 85.9444V105.683H26V68.2111H37.1699L45.1933 85.8389L53.2691 68.2111H64.3865V105.683H54.1606Z" fill="white"/>
<path d="M87.5399 106C84.7081 106 82.1385 105.455 79.8311 104.364C77.5237 103.273 75.5485 101.848 73.9053 100.089C72.2622 98.2944 70.9861 96.2537 70.0772 93.9667C69.1682 91.6796 68.7137 89.3222 68.7137 86.8944C68.7137 84.4315 69.1857 82.0565 70.1296 79.7694C71.0735 77.4824 72.3845 75.4769 74.0626 73.7528C75.7757 71.9935 77.7859 70.6037 80.0933 69.5833C82.4357 68.5278 84.9878 68 87.7496 68C90.5814 68 93.151 68.5454 95.4584 69.6361C97.7658 70.7269 99.7411 72.1694 101.384 73.9639C103.027 75.7583 104.286 77.7991 105.16 80.0861C106.069 82.3731 106.523 84.713 106.523 87.1056C106.523 89.5685 106.051 91.9435 105.107 94.2306C104.164 96.4824 102.853 98.488 101.174 100.247C99.4964 101.971 97.4861 103.361 95.1438 104.417C92.8364 105.472 90.3018 106 87.5399 106ZM79.0969 87C79.0969 88.2667 79.2717 89.4981 79.6214 90.6944C79.971 91.8556 80.4954 92.8935 81.1946 93.8083C81.8938 94.7232 82.7678 95.462 83.8166 96.025C84.9004 96.588 86.1764 96.8694 87.6448 96.8694C89.1131 96.8694 90.3892 96.588 91.4729 96.025C92.5567 95.4269 93.4307 94.6704 94.095 93.7556C94.7942 92.8056 95.3011 91.7324 95.6157 90.5361C95.9653 89.3398 96.1401 88.1259 96.1401 86.8944C96.1401 85.6278 95.9653 84.4139 95.6157 83.2528C95.2661 82.0565 94.7243 81.0185 93.9901 80.1389C93.2909 79.2241 92.3994 78.5028 91.3156 77.975C90.2668 77.412 89.0257 77.1306 87.5923 77.1306C86.124 77.1306 84.8479 77.412 83.7642 77.975C82.7154 78.538 81.8413 79.2944 81.1421 80.2444C80.4429 81.1593 79.9185 82.2148 79.5689 83.4111C79.2543 84.5722 79.0969 85.7685 79.0969 87Z" fill="white"/>
<path d="M121.083 87.2639V105.683H110.858V68.2111H118.828L133.774 87.2639V68.2111H144V105.683H135.872L121.083 87.2639Z" fill="white"/>
</svg>
