<svg width="96" height="16" viewBox="0 0 96 16" fill="none" xmlns="http://www.w3.org/2000/svg">
<path d="M8 0L10.2571 4.89337L15.6085 5.52786L11.6521 9.18663L12.7023 14.4721L8 11.84L3.29772 14.4721L4.34794 9.18663L0.391548 5.52786L5.7429 4.89337L8 0Z" fill="#01EFAD"/>
<path d="M28 0L30.2571 4.89337L35.6085 5.52786L31.6521 9.18663L32.7023 14.4721L28 11.84L23.2977 14.4721L24.3479 9.18663L20.3915 5.52786L25.7429 4.89337L28 0Z" fill="#01EFAD"/>
<path d="M48 0L50.2571 4.89337L55.6085 5.52786L51.6521 9.18663L52.7023 14.4721L48 11.84L43.2977 14.4721L44.3479 9.18663L40.3915 5.52786L45.7429 4.89337L48 0Z" fill="#01EFAD"/>
<path d="M68 0L70.2571 4.89337L75.6085 5.52786L71.6521 9.18663L72.7023 14.4721L68 11.84L63.2977 14.4721L64.3479 9.18663L60.3915 5.52786L65.7429 4.89337L68 0Z" fill="#01EFAD"/>
<path d="M88 0L90.2571 4.89337L95.6085 5.52786L91.6521 9.18663L92.7023 14.4721L88 11.84L83.2977 14.4721L84.3479 9.18663L80.3915 5.52786L85.7429 4.89337L88 0Z" fill="#01EFAD"/>
</svg>
