<svg width="38" height="23" viewBox="0 0 38 23" fill="none" xmlns="http://www.w3.org/2000/svg">
<path d="M36 23H2C1.47005 22.9984 0.962265 22.7872 0.587535 22.4125C0.212805 22.0377 0.00158273 21.5299 0 21L0 3C0.00158273 2.47005 0.212805 1.96227 0.587535 1.58753C0.962265 1.2128 1.47005 1.00158 2 1H36C36.5299 1.00158 37.0377 1.2128 37.4125 1.58753C37.7872 1.96227 37.9984 2.47005 38 3V21C37.9984 21.5299 37.7872 22.0377 37.4125 22.4125C37.0377 22.7872 36.5299 22.9984 36 23Z" fill="#A23229"/>
<path d="M36 22H2C1.47005 21.9984 0.962265 21.7872 0.587535 21.4125C0.212805 21.0377 0.00158273 20.5299 0 20L0 2C0.00158273 1.47005 0.212805 0.962265 0.587535 0.587535C0.962265 0.212805 1.47005 0.00158273 2 0L36 0C36.5299 0.00158273 37.0377 0.212805 37.4125 0.587535C37.7872 0.962265 37.9984 1.47005 38 2V20C37.9984 20.5299 37.7872 21.0377 37.4125 21.4125C37.0377 21.7872 36.5299 21.9984 36 22Z" fill="#DD4539"/>
<path d="M13.7 9.39989C13.128 9.25449 12.5225 9.32572 12 9.5999V9.39989H11.1V9.49989C10.9 11.1999 10.6 12.9999 10.1 15.2999V15.3999H11.1V15.2999C11.1 15.0999 11.2 14.7999 11.2 14.5999C11.3 14.1999 11.3 13.7999 11.4 13.3999C11.5 13.4999 11.6 13.5999 11.7 13.5999C11.944 13.6844 12.2025 13.7191 12.4601 13.7019C12.7178 13.6848 12.9694 13.6161 13.2 13.4999C13.6067 13.1609 13.9274 12.7305 14.136 12.2439C14.3445 11.7573 14.435 11.2282 14.4 10.6999C14.5 9.99989 14.2 9.49989 13.7 9.39989ZM13 12.6999C12.8788 12.8062 12.7329 12.8802 12.5756 12.9151C12.4183 12.9501 12.2547 12.9449 12.1 12.8999C11.9 12.7999 11.7 12.6999 11.7 12.3999C11.6839 12.1621 11.7179 11.9236 11.8 11.6999C11.7932 11.6456 11.7987 11.5905 11.816 11.5386C11.8333 11.4867 11.862 11.4393 11.9 11.3999C11.9 11.1999 11.9 11.0999 12 10.9999C12 10.7999 12.1 10.5999 12.1 10.3999C12.2199 10.2586 12.3781 10.1551 12.5556 10.1019C12.733 10.0486 12.9221 10.048 13.1 10.0999C13.2282 10.148 13.3417 10.2286 13.4293 10.3338C13.517 10.439 13.5758 10.5651 13.6 10.6999C13.5834 11.4084 13.3762 12.0993 13 12.6999Z" fill="white"/>
<path d="M10.7 9.3999H9.79998C9.77345 9.3999 9.74802 9.41044 9.72926 9.42919C9.71051 9.44795 9.69998 9.47338 9.69998 9.4999C9.49998 10.9999 9.29998 12.2999 9.09998 13.4999V13.5999H10.1V13.4999C10.2502 12.1534 10.484 10.8174 10.8 9.4999L10.7 9.3999Z" fill="white"/>
<path d="M10.3 8.90013C10.5 8.90013 10.6 8.80013 10.7 8.80013C10.8578 8.63471 10.9624 8.42567 11 8.20013C11 8.00013 11 7.90013 10.9 7.80013C10.7827 7.72059 10.6409 7.68517 10.5 7.70013C10.4226 7.70161 10.3466 7.72033 10.2774 7.75493C10.2082 7.78953 10.1476 7.83914 10.1 7.90013C9.98791 7.99788 9.91576 8.13348 9.89731 8.28105C9.87887 8.42861 9.91542 8.5778 9.99999 8.70013C10.1 8.80013 10.2 8.90013 10.3 8.90013Z" fill="white"/>
<path d="M9.39998 7.7002H8.29998V7.8002C8.19998 8.5002 8.09998 9.2002 7.99998 10.0002H5.79998C5.81821 9.65898 5.88557 9.32218 5.99998 9.0002C6.01774 8.59357 6.0849 8.19061 6.19998 7.8002V7.7002H5.09998V7.8002C4.99998 8.4002 4.89998 9.0002 4.79998 9.5002C4.59998 10.8002 4.39998 12.1002 4.09998 13.4002V13.5002H5.19998L5.29998 13.0002C5.37612 12.2247 5.50982 11.4559 5.69998 10.7002H7.79998C7.69998 11.1002 7.69998 11.4002 7.59998 11.8002C7.49998 12.3002 7.39998 12.9002 7.29998 13.4002V13.5002H8.39998V13.4002C8.69998 11.8002 8.99998 9.8002 9.39998 7.8002V7.7002Z" fill="white"/>
<path d="M21.8 12.8999C21.6213 12.8213 21.4786 12.6786 21.4 12.4999C21.3179 12.2762 21.2839 12.0377 21.3 11.7999C21.2967 11.2585 21.4725 10.7311 21.8 10.2999C22.0499 10.1363 22.3384 10.041 22.6366 10.0234C22.9349 10.0059 23.2325 10.0667 23.5 10.1999H23.6V10.0999C23.585 9.95897 23.6204 9.81727 23.7 9.69993V9.29993H23.6C23.1359 9.16374 22.6448 9.14734 22.1727 9.25226C21.7006 9.35718 21.2627 9.58 20.9 9.89993C21.1 9.99993 21 9.99993 20.9 10.0999V9.29993H20.8C20.5786 9.21079 20.3353 9.19176 20.1028 9.24541C19.8703 9.29907 19.6599 9.42282 19.5 9.59993V9.29993H18.6V9.39993C18.5 10.5999 18.2 11.7999 18 12.8999L17.9 13.4999H18.9V13.3999C18.9 13.1999 19 12.8999 19 12.6999C19.0429 12.0918 19.1434 11.4891 19.3 10.8999C19.3391 10.7323 19.4126 10.5746 19.5159 10.4369C19.6192 10.2992 19.75 10.1844 19.9 10.0999C20.0099 10.05 20.1292 10.0241 20.25 10.0241C20.3707 10.0241 20.49 10.05 20.6 10.0999H20.7C20.27 10.8943 20.1287 11.8131 20.3 12.6999C20.4064 13.0254 20.6173 13.3066 20.9 13.4999C21.1803 13.6358 21.4885 13.7043 21.8 13.6999C22.2066 13.6822 22.6096 13.615 23 13.4999H23.1V13.3999C23.0956 13.2599 23.1302 13.1214 23.2 12.9999V12.4999L23 12.5999C22.8433 12.75 22.6502 12.8566 22.4398 12.9092C22.2293 12.9618 22.0088 12.9586 21.8 12.8999Z" fill="white"/>
<path d="M32.9 7.6001C32.8 8.3001 32.7 8.9001 32.6 9.4001C32.2658 9.2944 31.9118 9.26649 31.5652 9.31848C31.2186 9.37048 30.8884 9.501 30.6 9.7001C30.2284 10.0192 29.9358 10.42 29.745 10.8711C29.5541 11.3221 29.4703 11.8112 29.5 12.3001C29.4797 12.4784 29.4959 12.659 29.5475 12.8308C29.599 13.0027 29.6849 13.1624 29.8 13.3001C29.9572 13.4524 30.1467 13.5675 30.3544 13.6367C30.5621 13.7059 30.7827 13.7276 31 13.7001C31.3101 13.6925 31.6158 13.6246 31.9 13.5001L32.1 13.3001V13.6001H33V13.5001C33.0875 12.0863 33.2882 10.6818 33.6 9.3001C33.7 8.8001 33.8 8.3001 33.9 7.7001V7.6001H32.9ZM32.5 10.1001C32.5 10.3001 32.4 10.6001 32.4 10.9001C32.3 11.9001 32.1 12.9001 31.2 13.0001C31.1226 12.9986 31.0466 12.9799 30.9774 12.9453C30.9082 12.9107 30.8476 12.8611 30.8 12.8001C30.6602 12.5941 30.5901 12.3488 30.6 12.1001C30.6 11.1001 31 10.1001 31.7 10.0001H31.9C32.1051 9.98426 32.311 10.0186 32.5 10.1001Z" fill="white"/>
<path d="M30.1 10.2001V9.90007C30.0932 9.84577 30.0987 9.79065 30.116 9.73874C30.1333 9.68684 30.162 9.63945 30.2 9.60007V9.50007H30.1C29.8872 9.36973 29.6318 9.32814 29.3886 9.38425C29.1455 9.44035 28.9341 9.58967 28.8 9.80007V9.50007H28V9.60007C27.8 11.0001 27.6 12.3001 27.3 13.6001V13.7001H28.3V13.6001C28.3 13.2001 28.4 12.9001 28.4 12.6001C28.385 12.4591 28.4205 12.3174 28.5 12.2001C28.6 11.4001 28.8 10.6001 29.2 10.4001C29.4572 10.2997 29.7428 10.2997 30 10.4001L30.1 10.2001Z" fill="white"/>
<path d="M18.2 11.0001C18.3002 10.6743 18.3002 10.3259 18.2 10.0001C18.0733 9.72467 17.853 9.50316 17.5784 9.37497C17.3037 9.24678 16.9924 9.22024 16.7 9.30007C16.1838 9.35546 15.6961 9.56448 15.3 9.90007C14.7746 10.6226 14.5261 11.5098 14.6 12.4001C14.6095 12.5923 14.6588 12.7804 14.7449 12.9526C14.831 13.1247 14.9519 13.2771 15.1 13.4001C15.4665 13.6043 15.8805 13.7078 16.3 13.7001C16.773 13.6898 17.243 13.6226 17.7 13.5001H17.8V13.4001C17.785 13.2591 17.8204 13.1174 17.9 13.0001V12.6001L17.7 12.7001C16.9 13.0001 16.2 13.1001 15.9 12.8001C15.6 12.6001 15.5 12.1001 15.7 11.4001H18.3V11.3001C18.1 11.2001 18.2 11.1001 18.2 11.0001ZM15.7 10.8001C15.753 10.5921 15.8671 10.4048 16.0274 10.2622C16.1878 10.1197 16.3872 10.0283 16.6 10.0001C16.8 10.0001 17.1 10.0001 17.2 10.2001C17.3 10.3001 17.3 10.5001 17.3 10.8001H15.7Z" fill="white"/>
<path d="M26.9999 9.49989C26.5999 9.09989 25.7999 9.19989 25.0999 9.29989H24.4999V9.39989C24.4999 9.49989 24.3999 9.69989 24.3999 9.79989C24.3999 9.89989 24.3999 9.99989 24.2999 9.99989V10.1999H24.4999C24.7999 10.0999 25.8999 9.79989 26.2999 10.0999C26.3999 10.0999 26.3999 10.1999 26.3999 10.2999C26.4155 10.4727 26.3808 10.6464 26.2999 10.7999C24.7999 10.6999 23.8999 11.0999 23.6999 11.9999C23.5784 12.2823 23.562 12.599 23.6537 12.8925C23.7455 13.1859 23.9392 13.4369 24.1999 13.5999C24.4218 13.6892 24.662 13.7235 24.8999 13.6999C25.1234 13.7018 25.3448 13.6585 25.5511 13.5726C25.7573 13.4866 25.944 13.3599 26.0999 13.1999V13.5999H26.9999V13.4999C27.0115 12.895 27.0785 12.2925 27.1999 11.6999V11.5999C27.1999 11.3999 27.2999 11.2999 27.2999 11.0999C27.3827 10.7394 27.4164 10.3694 27.3999 9.99989C27.2999 9.89989 27.1999 9.69989 26.9999 9.49989ZM26.0999 11.3999C25.9999 11.7999 25.9999 12.2999 25.6999 12.5999C25.5716 12.7282 25.4082 12.8157 25.2302 12.8513C25.0523 12.8869 24.8678 12.869 24.6999 12.7999C24.5959 12.7411 24.5117 12.6526 24.4583 12.5457C24.4048 12.4388 24.3845 12.3184 24.3999 12.1999C24.4074 12.0849 24.4378 11.9726 24.4893 11.8696C24.5409 11.7665 24.6125 11.6749 24.6999 11.5999C24.9863 11.3828 25.3414 11.2763 25.6999 11.2999C25.8214 11.3696 25.9599 11.4043 26.0999 11.3999Z" fill="white"/>
<path opacity="0.1" d="M38 20V2C37.9984 1.47005 37.7872 0.962265 37.4124 0.587535C37.0377 0.212805 36.5299 0.00158273 36 0L7.59998 0L29.6 22H36C36.5299 21.9984 37.0377 21.7872 37.4124 21.4125C37.7872 21.0377 37.9984 20.5299 38 20Z" fill="white"/>
</svg>
