<svg width="38" height="23" viewBox="0 0 38 23" fill="none" xmlns="http://www.w3.org/2000/svg">
<path fill-rule="evenodd" clip-rule="evenodd" d="M36 23H2C1.47005 22.9984 0.962265 22.7872 0.587535 22.4125C0.212805 22.0377 0.00158273 21.5299 0 21L0 3C0.00158273 2.47005 0.212805 1.96227 0.587535 1.58753C0.962265 1.2128 1.47005 1.00158 2 1H36C36.5299 1.00158 37.0377 1.2128 37.4125 1.58753C37.7872 1.96227 37.9984 2.47005 38 3V21C37.9984 21.5299 37.7872 22.0377 37.4125 22.4125C37.0377 22.7872 36.5299 22.9984 36 23Z" fill="#AAAAAA"/>
<path fill-rule="evenodd" clip-rule="evenodd" d="M36 22H2C1.47005 21.9984 0.962265 21.7872 0.587535 21.4125C0.212805 21.0377 0.00158273 20.5299 0 20L0 2C0.00158273 1.47005 0.212805 0.962265 0.587535 0.587535C0.962265 0.212805 1.47005 0.00158273 2 0L36 0C36.5299 0.00158273 37.0377 0.212805 37.4125 0.587535C37.7872 0.962265 37.9984 1.47005 38 2V20C37.9984 20.5299 37.7872 21.0377 37.4125 21.4125C37.0377 21.7872 36.5299 21.9984 36 22Z" fill="#DDDDDD"/>
<path opacity="0.25" fill-rule="evenodd" clip-rule="evenodd" d="M38.0001 20V2C37.9985 1.47005 37.7873 0.962265 37.4126 0.587535C37.0378 0.212805 36.53 0.00158273 36.0001 0L7.6001 0L29.6001 22H36.0001C36.53 21.9984 37.0378 21.7872 37.4126 21.4125C37.7873 21.0377 37.9985 20.5299 38.0001 20Z" fill="white"/>
</svg>
