<svg width="38" height="23" viewBox="0 0 38 23" fill="none" xmlns="http://www.w3.org/2000/svg">
<path fill-rule="evenodd" clip-rule="evenodd" d="M36 23H2C1.47005 22.9984 0.962265 22.7872 0.587535 22.4125C0.212805 22.0377 0.00158273 21.5299 0 21L0 3C0.00158273 2.47005 0.212805 1.96227 0.587535 1.58753C0.962265 1.2128 1.47005 1.00158 2 1H36C36.5299 1.00158 37.0377 1.2128 37.4125 1.58753C37.7872 1.96227 37.9984 2.47005 38 3V21C37.9984 21.5299 37.7872 22.0377 37.4125 22.4125C37.0377 22.7872 36.5299 22.9984 36 23Z" fill="#1D1E27"/>
<path fill-rule="evenodd" clip-rule="evenodd" d="M36 22H2C1.47005 21.9984 0.962265 21.7872 0.587535 21.4125C0.212805 21.0377 0.00158273 20.5299 0 20L0 2C0.00158273 1.47005 0.212805 0.962265 0.587535 0.587535C0.962265 0.212805 1.47005 0.00158273 2 0L36 0C36.5299 0.00158273 37.0377 0.212805 37.4125 0.587535C37.7872 0.962265 37.9984 1.47005 38 2V20C37.9984 20.5299 37.7872 21.0377 37.4125 21.4125C37.0377 21.7872 36.5299 21.9984 36 22Z" fill="#4C4F69"/>
<path d="M21.7 6.7998H16.3V16.1998H21.7V6.7998Z" fill="#F16522"/>
<path d="M16.6 11.5C16.5982 10.5823 16.8149 9.67736 17.2323 8.86007C17.6496 8.04277 18.2556 7.3366 19 6.79996C17.9038 5.97364 16.5727 5.51826 15.2 5.49996C13.5842 5.48037 12.0261 6.09988 10.8648 7.22364C9.70364 8.34739 9.03338 9.88438 9 11.5C9.03338 13.1155 9.70364 14.6525 10.8648 15.7763C12.0261 16.9 13.5842 17.5196 15.2 17.5C16.5755 17.4981 17.9116 17.041 19 16.2C18.2717 15.648 17.6776 14.9385 17.262 14.1247C16.8464 13.3108 16.6201 12.4136 16.6 11.5Z" fill="#E41B24"/>
<path d="M29 11.5C28.9666 13.1155 28.2964 14.6525 27.1352 15.7763C25.9739 16.9 24.4158 17.5196 22.8 17.5C21.4245 17.4981 20.0884 17.041 19 16.2C19.7283 15.648 20.3224 14.9385 20.738 14.1247C21.1536 13.3108 21.3799 12.4136 21.4 11.5C21.3799 10.5864 21.1536 9.6891 20.738 8.87524C20.3224 8.06138 19.7283 7.35196 19 6.79996C20.0962 5.97364 21.4273 5.51826 22.8 5.49996C24.4158 5.48037 25.9739 6.09988 27.1352 7.22364C28.2964 8.34739 28.9666 9.88438 29 11.5ZM28.4 15.2V15V15.2ZM28.8 15.2V15H28.7L28.6 15.2V15H28.5V15.2V15L28.6 15.2L28.7 15L28.8 15.2Z" fill="#F89E1C"/>
<path opacity="0.1" fill-rule="evenodd" clip-rule="evenodd" d="M38 20V2C37.9984 1.47005 37.7872 0.962265 37.4125 0.587535C37.0377 0.212805 36.53 0.00158273 36 0L7.60001 0L29.6 22H36C36.53 21.9984 37.0377 21.7872 37.4125 21.4125C37.7872 21.0377 37.9984 20.5299 38 20Z" fill="white"/>
</svg>
