<svg width="38" height="23" viewBox="0 0 38 23" fill="none" xmlns="http://www.w3.org/2000/svg">
<path fill-rule="evenodd" clip-rule="evenodd" d="M36 23H2C1.47005 22.9984 0.962265 22.7872 0.587535 22.4125C0.212805 22.0377 0.00158273 21.5299 0 21L0 3C0.00158273 2.47005 0.212805 1.96227 0.587535 1.58753C0.962265 1.2128 1.47005 1.00158 2 1H36C36.5299 1.00158 37.0377 1.2128 37.4125 1.58753C37.7872 1.96227 37.9984 2.47005 38 3V21C37.9984 21.5299 37.7872 22.0377 37.4125 22.4125C37.0377 22.7872 36.5299 22.9984 36 23Z" fill="#153A5F"/>
<path fill-rule="evenodd" clip-rule="evenodd" d="M36 22H2C1.47005 21.9984 0.962265 21.7872 0.587535 21.4125C0.212805 21.0377 0.00158273 20.5299 0 20L0 2C0.00158273 1.47005 0.212805 0.962265 0.587535 0.587535C0.962265 0.212805 1.47005 0.00158273 2 0L36 0C36.5299 0.00158273 37.0377 0.212805 37.4125 0.587535C37.7872 0.962265 37.9984 1.47005 38 2V20C37.9984 20.5299 37.7872 21.0377 37.4125 21.4125C37.0377 21.7872 36.5299 21.9984 36 22Z" fill="#1F5892"/>
<path d="M20.4 18.0001C22.1097 17.979 23.7463 17.3039 24.9737 16.1137C26.2012 14.9234 26.9263 13.3083 27 11.6001C27.0012 10.7331 26.8313 9.87429 26.5 9.073C26.1688 8.27172 25.6827 7.54367 25.0696 6.93057C24.4564 6.31747 23.7284 5.83136 22.9271 5.5001C22.1258 5.16884 21.2671 4.99893 20.4 5.00012H17.4C16.5411 4.99495 15.69 5.16365 14.898 5.49606C14.106 5.82847 13.3895 6.31771 12.7915 6.93434C12.1936 7.55096 11.7266 8.28221 11.4187 9.08406C11.1109 9.88591 10.9684 10.7418 11 11.6001C10.9974 12.4413 11.1611 13.2747 11.4818 14.0524C11.8025 14.8301 12.2738 15.5367 12.8686 16.1315C13.4635 16.7263 14.17 17.1976 14.9477 17.5183C15.7254 17.839 16.5588 18.0028 17.4 18.0001H20.4Z" fill="white"/>
<path d="M18.7 15V8C19.3984 8.28492 19.9979 8.7683 20.4245 9.39036C20.851 10.0124 21.0859 10.7459 21.1 11.5C21.1058 12.2588 20.8788 13.0011 20.4497 13.6269C20.0205 14.2527 19.4099 14.732 18.7 15ZM13.8 11.5C13.7946 10.7546 14.0103 10.0244 14.4196 9.40147C14.829 8.77854 15.4137 8.29086 16.1 8V15C15.4017 14.7261 14.8055 14.2425 14.3936 13.6156C13.9817 12.9888 13.7743 12.2496 13.8 11.5ZM17.4 5.5C15.8363 5.52972 14.348 6.17776 13.261 7.30227C12.1739 8.42678 11.5767 9.93615 11.6 11.5C11.5936 13.0589 12.1963 14.5586 13.2798 15.6795C14.3633 16.8003 15.8418 17.4536 17.4 17.5C18.9637 17.4703 20.452 16.8222 21.539 15.6977C22.6261 14.5732 23.2233 13.0638 23.2 11.5C23.2233 9.93615 22.6261 8.42678 21.539 7.30227C20.452 6.17776 18.9637 5.52972 17.4 5.5Z" fill="#1F5892"/>
<path opacity="0.15" fill-rule="evenodd" clip-rule="evenodd" d="M38 20V2C37.9984 1.47005 37.7872 0.962265 37.4125 0.587535C37.0377 0.212805 36.53 0.00158273 36 0L7.60001 0L29.6 22H36C36.53 21.9984 37.0377 21.7872 37.4125 21.4125C37.7872 21.0377 37.9984 20.5299 38 20Z" fill="white"/>
</svg>
