<svg width="38" height="23" viewBox="0 0 38 23" fill="none" xmlns="http://www.w3.org/2000/svg">
<path fill-rule="evenodd" clip-rule="evenodd" d="M36 23H2C1.47005 22.9984 0.962265 22.7872 0.587535 22.4125C0.212805 22.0377 0.00158273 21.5299 0 21L0 3C0.00158273 2.47005 0.212805 1.96227 0.587535 1.58753C0.962265 1.2128 1.47005 1.00158 2 1H36C36.5299 1.00158 37.0377 1.2128 37.4125 1.58753C37.7872 1.96227 37.9984 2.47005 38 3V21C37.9984 21.5299 37.7872 22.0377 37.4125 22.4125C37.0377 22.7872 36.5299 22.9984 36 23Z" fill="#263B74"/>
<path fill-rule="evenodd" clip-rule="evenodd" d="M36 22H2C1.47005 21.9984 0.962265 21.7872 0.587535 21.4125C0.212805 21.0377 0.00158273 20.5299 0 20L0 2C0.00158273 1.47005 0.212805 0.962265 0.587535 0.587535C0.962265 0.212805 1.47005 0.00158273 2 0L36 0C36.5299 0.00158273 37.0377 0.212805 37.4125 0.587535C37.7872 0.962265 37.9984 1.47005 38 2V20C37.9984 20.5299 37.7872 21.0377 37.4125 21.4125C37.0377 21.7872 36.5299 21.9984 36 22Z" fill="#4965B1"/>
<path d="M17.4 15.4001H15.4L16.7 7.6001H18.6L17.4 15.4001Z" fill="white"/>
<path d="M13.8 7.6001L11.9 13.0001L11.7 11.9001L11 8.4001C10.9622 8.19324 10.8495 8.00755 10.6835 7.87845C10.5175 7.74934 10.3098 7.68586 10.1 7.7001H7V7.8001C7.71005 7.99248 8.3851 8.29626 9 8.7001L10.7 15.4001H12.7L15.8 7.7001H13.8V7.6001Z" fill="white"/>
<path d="M29.2 15.4H31L29.4 7.70002H27.8C27.6064 7.69503 27.416 7.75 27.2549 7.85741C27.0938 7.96482 26.9698 8.11942 26.9 8.30002L24 15.4H26L26.4 14.3H29L29.2 15.4ZM27 12.6L28 9.70002L28.6 12.6H27Z" fill="white"/>
<path d="M24.2 9.5L24.5 7.8C23.917 7.61637 23.3111 7.51539 22.7 7.5C21.7 7.5 19.4 7.9 19.4 10.1C19.4 12.1 22.1 12.1 22.1 13.2C22.1 14.2 19.7 14.1 18.9 13.4L18.6 15.1C19.3012 15.3721 20.0479 15.5079 20.8 15.5C22.1 15.5 24.2 14.8 24.2 12.9C24.2 10.9 21.5 10.7 21.5 9.8C21.4 8.9 23.3 9 24.2 9.5Z" fill="white"/>
<path d="M11.7 11.8001L11 8.30011C10.9622 8.09325 10.8495 7.90757 10.6835 7.77846C10.5175 7.64936 10.3098 7.58587 10.1 7.60011H7V7.70011C8.07021 7.96766 9.06321 8.48128 9.9 9.20011C10.7227 9.88933 11.3445 10.7875 11.7 11.8001Z" fill="#F9A533"/>
<path opacity="0.1" fill-rule="evenodd" clip-rule="evenodd" d="M38 20V2C37.9984 1.47005 37.7872 0.962265 37.4125 0.587535C37.0377 0.212805 36.53 0.00158273 36 0L7.60001 0L29.6 22H36C36.53 21.9984 37.0377 21.7872 37.4125 21.4125C37.7872 21.0377 37.9984 20.5299 38 20Z" fill="white"/>
</svg>
