<svg width="60" height="52" viewBox="0 0 60 52" fill="none" xmlns="http://www.w3.org/2000/svg">
<path d="M14.0001 48H22.8054V52H14.0001V48Z" fill="white"/>
<path d="M25.1223 48H33.9276V52H25.1223V48Z" fill="white"/>
<path d="M36.1948 48H45.0001V52H36.1948V48Z" fill="white"/>
<path d="M40.9694 44.4898C40.2972 43.9762 39.6626 43.4209 39.0701 42.8279C32.4855 36.266 30.002 28.6592 30.002 24.0909C29.9834 23.2388 30.0994 22.3887 30.3463 21.5682C30.482 21.0864 30.7828 20.6594 31.2028 20.3522C31.6228 20.0451 32.1388 19.8748 32.6722 19.8673H35.3082C35.6463 19.8738 35.9795 19.9435 36.2884 20.0721C36.5972 20.2007 36.8755 20.3856 37.1066 20.6161C37.3378 20.8466 37.5173 21.1179 37.6345 21.4141C37.7517 21.7103 37.8042 22.0254 37.7891 22.3409C37.8042 22.6564 37.7517 22.9715 37.6345 23.2677C37.5173 23.5639 37.3378 23.8352 37.1066 24.0657C36.8755 24.2962 36.5972 24.4811 36.2884 24.6097C35.9795 24.7383 35.6463 24.808 35.3082 24.8145H34.9208C34.9983 28.2158 36.316 30.5744 40.0367 36.2173V5.21764C40.0408 5.19731 40.0428 5.17664 40.0426 5.15595C40.0405 5.11508 40.0295 5.07504 40.0102 5.03826C39.991 5.00147 39.9641 4.96871 39.9309 4.94196C39.8978 4.9152 39.8592 4.89501 39.8174 4.8826C39.7757 4.87019 39.7316 4.86582 39.6879 4.86977C39.6153 4.86231 39.5422 4.87716 39.4795 4.91206C39.4167 4.94696 39.3678 5.00002 39.3403 5.06318L39.3791 13.7994C39.3942 14.1149 39.3416 14.43 39.2244 14.7262C39.1071 15.0224 38.9277 15.2938 38.6965 15.5242C38.4653 15.7547 38.1872 15.9397 37.8783 16.0683C37.5695 16.1969 37.2361 16.2665 36.8981 16.2731C36.5682 16.2731 36.2422 16.2077 35.9414 16.0811C35.6407 15.9545 35.3722 15.7696 35.1537 15.5388C34.6739 15.0714 34.4095 14.4469 34.4172 13.7994L34.4559 5.52701C34.4559 5.45002 34.4172 5.3336 34.4172 5.2566C34.4093 5.06261 34.4223 4.86838 34.4559 4.67681C34.445 4.34548 34.5112 4.01588 34.6496 3.71065C34.9434 2.66451 35.5943 1.73631 36.5037 1.06671C37.4132 0.397118 38.5316 0.0226292 39.6895 0C40.8143 0.0166256 41.9044 0.366122 42.8029 0.998176C43.7014 1.63023 44.3621 2.51224 44.6896 3.51723C44.888 3.87606 44.9942 4.27304 45 4.67681V42.5579C45.0029 43.0132 44.8703 43.4602 44.617 43.8492C44.3637 44.2382 43.9998 44.5539 43.5656 44.7611C43.2241 44.9172 42.8492 44.9989 42.469 45C41.9201 45.0015 41.3886 44.8207 40.9694 44.4898V44.4898Z" fill="#FC5BB3"/>
</svg>
