<svg width="60" height="52" viewBox="0 0 60 52" fill="none" xmlns="http://www.w3.org/2000/svg">
<path d="M49.9199 45.3684L37.0469 23.8211V7.84221H38.6683C38.9918 7.84538 39.3127 7.78492 39.6122 7.66438C39.9117 7.54383 40.1838 7.36562 40.4126 7.14017C40.6414 6.91472 40.8222 6.64656 40.9445 6.3514C41.0669 6.05623 41.1282 5.73998 41.125 5.42116C41.1282 5.10235 41.0669 4.7861 40.9445 4.49093C40.8222 4.19576 40.6414 3.92761 40.4126 3.70216C40.1838 3.47671 39.9117 3.2985 39.6122 3.17795C39.3127 3.0574 38.9918 2.99695 38.6683 3.00012H34.5902C34.2667 2.99695 33.9458 3.0574 33.6463 3.17795C33.3468 3.2985 33.0747 3.47671 32.8459 3.70216C32.6171 3.92761 32.4363 4.19576 32.314 4.49093C32.1917 4.7861 32.1303 5.10235 32.1335 5.42116V24.6443C32.1207 24.7281 32.1381 24.8138 32.1827 24.8864C32.1827 24.9832 32.2318 25.0316 32.2318 25.1285C32.2318 25.2253 32.2809 25.2737 32.2809 25.3706C32.3301 25.4674 32.3301 25.5158 32.3792 25.6127C32.3792 25.6611 32.4283 25.7095 32.4283 25.7579L43.5325 44.1579H15.4772L26.5323 25.7095C26.5509 25.6905 26.565 25.6675 26.5735 25.6424C26.582 25.6172 26.5847 25.5906 26.5814 25.5643C26.6306 25.4674 26.6797 25.419 26.6797 25.3222C26.7194 25.2478 26.7365 25.1637 26.7288 25.0801C26.7288 24.9832 26.778 24.9348 26.778 24.8379C26.7651 24.7541 26.7825 24.6684 26.8271 24.5958V5.42116C26.8303 5.10235 26.769 4.7861 26.6466 4.49093C26.5243 4.19576 26.3435 3.92761 26.1147 3.70216C25.8859 3.47671 25.6138 3.2985 25.3143 3.17795C25.0148 3.0574 24.6939 2.99695 24.3704 3.00012H20.2923C19.9688 2.99695 19.6479 3.0574 19.3484 3.17795C19.0489 3.2985 18.7768 3.47671 18.548 3.70216C18.3192 3.92761 18.1384 4.19576 18.0161 4.49093C17.8938 4.7861 17.8324 5.10235 17.8356 5.42116C17.8324 5.73998 17.8938 6.05623 18.0161 6.3514C18.1384 6.64656 18.3192 6.91472 18.548 7.14017C18.7768 7.36562 19.0489 7.54383 19.3484 7.66438C19.6479 7.78492 19.9688 7.84538 20.2923 7.84221H21.9629V23.8211L9.04071 45.3684C8.8257 45.7354 8.7122 46.1516 8.71155 46.5753C8.7109 46.9991 8.82311 47.4156 9.03698 47.7832C9.25085 48.1508 9.55889 48.4567 9.93029 48.6702C10.3017 48.8837 10.7235 48.9974 11.1535 49H47.8072C48.2367 49.0014 48.6589 48.89 49.0302 48.6773C49.4016 48.4645 49.7087 48.1581 49.9199 47.7895C50.1603 47.4302 50.2885 47.0093 50.2885 46.5789C50.2885 46.1486 50.1603 45.7277 49.9199 45.3684V45.3684Z" fill="#FC5BB3"/>
<path d="M38.3736 28.7778H28.0001V33.2631H38.3736V28.7778Z" fill="white"/>
<path d="M34.229 21H28.0001V25.4444H34.229V21Z" fill="white"/>
<path d="M42.0001 36.6081H28.0001V41H42.0001V36.6081Z" fill="white"/>
</svg>
