<svg width="32" height="20" viewBox="0 0 32 20" fill="none" xmlns="http://www.w3.org/2000/svg">
<path d="M30 -8.01086e-05H2C0.895431 -8.01086e-05 0 0.89535 0 1.99992C0 3.10449 0.895431 3.99992 2 3.99992H30C31.1046 3.99992 32 3.10449 32 1.99992C32 0.89535 31.1046 -8.01086e-05 30 -8.01086e-05Z" fill="white"/>
<path d="M30 7.99992H2C0.895431 7.99992 0 8.89535 0 9.99992C0 11.1045 0.895431 11.9999 2 11.9999H30C31.1046 11.9999 32 11.1045 32 9.99992C32 8.89535 31.1046 7.99992 30 7.99992Z" fill="white"/>
<path d="M30 15.9999H2C0.895431 15.9999 0 16.8954 0 17.9999C0 19.1045 0.895431 19.9999 2 19.9999H30C31.1046 19.9999 32 19.1045 32 17.9999C32 16.8954 31.1046 15.9999 30 15.9999Z" fill="white"/>
</svg>
