<svg width="32" height="32" viewBox="0 0 32 32" fill="none" xmlns="http://www.w3.org/2000/svg">
<path d="M16.0008 31.9999C12.2991 32.0001 8.71178 30.7167 5.85021 28.3685C2.98863 26.0203 1.02988 22.7523 0.307576 19.1217C-0.414724 15.4912 0.144166 11.7226 1.88906 8.45796C3.63395 5.1933 6.4568 2.63471 9.87672 1.21806C13.2966 -0.198596 17.102 -0.385613 20.6443 0.688894C24.1867 1.7634 27.2469 4.03263 29.3035 7.11048C31.3601 10.1883 32.2858 13.8844 31.9229 17.5682C31.5601 21.2521 29.9311 24.6963 27.3135 27.3138C25.8314 28.8041 24.0684 29.9856 22.1266 30.79C20.1847 31.5944 18.1026 32.0056 16.0008 31.9999ZM14.2285 17.392V24.0092H16.8939V17.392H19.5583V14.5564H16.8939V12.6641C16.887 12.4213 16.9764 12.1854 17.1428 12.0084C17.3092 11.8314 17.5389 11.7278 17.7816 11.7197H19.5572V8.88307H17.3394C16.4891 8.91103 15.6847 9.27504 15.1025 9.89538C14.5203 10.5157 14.2078 11.3416 14.2338 12.1919V14.5564H12.4584V17.392H14.2285Z" fill="#FC5BB3"/>
</svg>
