<svg width="36" height="48" viewBox="0 0 36 48" fill="none" xmlns="http://www.w3.org/2000/svg">
<path d="M18.665 48C18.0581 47.9989 17.4706 47.7867 17.0048 47.4C13.2801 44.1995 0 29.2977 0 17.9461C0 8.79445 5.68495 1.84419 14.5397 0.293958C22.2873 -1.05627 31.7957 2.19441 35.1162 11.094C35.3431 11.7173 35.3115 12.4047 35.0285 13.0049C34.7455 13.6051 34.2342 14.069 33.6071 14.2945C32.98 14.52 32.2885 14.4886 31.6846 14.2073C31.0808 13.926 30.6141 13.4178 30.3872 12.7945C28.0728 6.49444 21.0796 4.19442 15.4451 5.19443C12.98 5.64465 5.03123 7.84467 5.03123 17.9461C5.03123 21.6967 7.24502 26.9972 11.2192 32.8479C13.4336 36.0903 15.9067 39.1506 18.6145 41.9991C20.633 39.663 22.5305 37.2262 24.2994 34.6981C28.1734 29.1977 30.5397 24.647 30.9909 21.8967C31.0404 21.5717 31.1539 21.2595 31.3249 20.978C31.4958 20.6966 31.7208 20.4513 31.9871 20.2563C32.2534 20.0613 32.5558 19.9203 32.8769 19.8414C33.198 19.7625 33.5316 19.7472 33.8586 19.7965C34.1856 19.8458 34.4997 19.9586 34.7829 20.1285C35.0661 20.2984 35.3128 20.5221 35.509 20.7868C35.7052 21.0515 35.8471 21.352 35.9264 21.6711C36.0058 21.9903 36.0211 22.3219 35.9716 22.647C34.6132 31.1479 21.6836 46.8502 19.8222 47.8004C19.4455 47.9111 19.0572 47.9781 18.665 48Z" fill="#005DF9"/>
<path d="M18 24C20.7614 24 23 21.7614 23 19C23 16.2386 20.7614 14 18 14C15.2386 14 13 16.2386 13 19C13 21.7614 15.2386 24 18 24Z" fill="#01EFAE"/>
</svg>
