<svg width="60" height="52" viewBox="0 0 60 52" fill="none" xmlns="http://www.w3.org/2000/svg">
<path d="M56.9993 25.4072C56.9961 23.2151 56.5759 21.045 55.7625 19.0202C54.543 16.0489 52.5034 13.5142 49.8982 11.7323C47.2929 9.95037 44.2373 9.00009 41.1125 9H18.8867C16.8003 8.99956 14.7343 9.42365 12.8066 10.248C10.8789 11.0724 9.12739 12.281 7.65208 13.8046C6.17677 15.3282 5.00657 17.1371 4.20833 19.1279C3.41009 21.1187 2.99946 23.2525 2.99988 25.4072V32.7125C2.99946 34.8515 3.40709 36.9697 4.19951 38.946C4.99192 40.9223 6.15358 42.7179 7.61813 44.2305C9.08268 45.743 10.8214 46.9427 12.735 47.7611C14.6486 48.5794 16.6996 49.0004 18.7708 49C19.5089 49 20.2168 48.6972 20.7388 48.1581C21.2607 47.6191 21.5539 46.888 21.5539 46.1257C21.5539 45.3634 21.2607 44.6323 20.7388 44.0933C20.2168 43.5543 19.5089 43.2514 18.7708 43.2514C17.0725 43.2546 15.4006 42.8177 13.9082 41.9808C12.4157 41.1439 11.1504 39.9337 10.228 38.4611C9.17065 36.7573 8.6074 34.7766 8.60476 32.7529V25.4072C8.61085 22.5823 9.70015 19.8749 11.6343 17.8774C13.5685 15.8798 16.19 14.7549 18.9253 14.7486H41.1528C43.1812 14.7496 45.1644 15.3672 46.8553 16.5243C48.5462 17.6815 49.8699 19.327 50.6615 21.2558C51.2006 22.569 51.4768 23.9814 51.4733 25.4078V32.7125C51.4701 35.4962 50.3978 38.1648 48.4918 40.1331C46.5858 42.1014 44.0016 43.2084 41.3062 43.2115H31.3328C30.5947 43.2115 29.8868 43.5144 29.3649 44.0534C28.8429 44.5924 28.5497 45.3235 28.5497 46.0858C28.5497 46.8481 28.8429 47.5792 29.3649 48.1182C29.8868 48.6573 30.5947 48.9601 31.3328 48.9601H41.2289C45.4103 48.9555 49.4192 47.2381 52.3758 44.1846C55.3325 41.1311 56.9955 36.9909 56.9999 32.6726V32.6726L56.9993 25.4072Z" fill="#FC5BB3"/>
<path d="M36.0448 13.1493H39.9999C39.9999 10.4575 38.9463 7.876 37.0709 5.97265C35.1956 4.06929 32.652 3 29.9999 3C27.3477 3 24.8042 4.06929 22.9288 5.97265C21.0534 7.876 19.9999 10.4575 19.9999 13.1493H23.9167C23.9 12.3303 24.0444 11.5161 24.3417 10.7545C24.6389 9.99295 25.0829 9.29922 25.6476 8.71401C26.2124 8.12879 26.8866 7.66386 27.6306 7.34646C28.3747 7.02906 29.1737 6.86557 29.9808 6.86557C30.7879 6.86557 31.5869 7.02906 32.331 7.34646C33.075 7.66386 33.7492 8.12879 34.3139 8.71401C34.8787 9.29922 35.3227 9.99295 35.6199 10.7545C35.9171 11.5161 36.0616 12.3303 36.0448 13.1493Z" fill="white"/>
<path d="M28.4999 23.2985H31.9999V28.3731H36.9999V31.9254H31.9999V37H28.4999V31.9254H23.4999V28.3731H28.4999V23.2985Z" fill="white"/>
</svg>
