<svg width="71" height="61" viewBox="0 0 71 61" fill="none" xmlns="http://www.w3.org/2000/svg">
<path d="M46.2666 56.9998H26.5148C25.7271 56.9998 24.9716 56.6922 24.4146 56.1445C23.8576 55.5969 23.5447 54.8542 23.5447 54.0798C23.5447 53.3054 23.8576 52.5627 24.4146 52.0151C24.9716 51.4675 25.7271 51.1598 26.5148 51.1598H46.2666C47.8406 51.1552 49.3487 50.5385 50.4617 49.4443C51.5747 48.3501 52.2021 46.8673 52.2067 45.3199V15.5352C52.2021 13.9878 51.5747 12.5051 50.4617 11.4109C49.3487 10.3167 47.8406 9.6999 46.2666 9.69529H24.881C23.3069 9.69974 21.7985 10.3164 20.6854 11.4106C19.5723 12.5049 18.9449 13.9877 18.9402 15.5352V42.6911C18.9402 43.4655 18.6273 44.2082 18.0703 44.7558C17.5133 45.3034 16.7578 45.6111 15.9701 45.6111C15.1824 45.6111 14.4269 45.3034 13.8699 44.7558C13.3129 44.2082 13 43.4655 13 42.6911V15.5352C13.09 12.4789 14.3752 9.57428 16.5881 7.42576C18.801 5.27724 21.7713 4.05023 24.881 4L46.2666 4C49.3764 4.00626 52.3571 5.22359 54.5562 7.38551C56.7552 9.54743 57.9934 12.4778 57.9998 15.5352V45.4645C58.0091 46.9819 57.712 48.4861 57.1257 49.8897C56.5393 51.2934 55.6754 52.5687 54.584 53.6417C53.4926 54.7147 52.1955 55.564 50.7677 56.1404C49.3399 56.7169 47.81 57.009 46.2666 56.9998Z" fill="#01EFAD"/>
<path d="M34.8393 27.6667L28 20.9618L31.4866 17.3301L34.9733 20.8222L43.8245 13L46.9091 16.9108L34.8393 27.6667Z" fill="white"/>
<path d="M54 31.3333H28V36.8333H54V31.3333Z" fill="white"/>
<path d="M28 40.5H54V46H28V40.5Z" fill="white"/>
</svg>
