<svg width="32" height="32" viewBox="0 0 32 32" fill="none" xmlns="http://www.w3.org/2000/svg">
<path d="M14.4329 18.4528L19.0815 16.2411C19.2214 16.1746 19.2238 15.9769 19.0856 15.907L14.4369 13.5572C14.3128 13.4944 14.166 13.5844 14.166 13.7232V18.2847C14.166 18.4216 14.3091 18.5117 14.4329 18.4528Z" fill="#FC5BB3"/>
<path fill-rule="evenodd" clip-rule="evenodd" d="M5.85067 28.3687C8.7123 30.7168 12.2996 32.0002 16.0013 31.9999C18.1032 32.0056 20.1854 31.5946 22.1273 30.7901C24.0692 29.9855 25.8322 28.8035 27.3143 27.313C29.9317 24.6954 31.5604 21.2511 31.923 17.5672C32.2856 13.8833 31.3597 10.1877 29.303 7.10997C27.2462 4.03227 24.186 1.76296 20.6436 0.688654C17.1012 -0.385655 13.2959 -0.198467 9.87605 1.21834C6.45623 2.63514 3.63343 5.19421 1.88869 8.45892C0.143958 11.7236 -0.41473 15.4919 0.307705 19.1224C1.03014 22.7529 2.98904 26.0206 5.85067 28.3687ZM10.5307 10H21.4693C23.4193 10 25 11.5768 25 13.522V18.478C25 20.4232 23.4193 22 21.4693 22H10.5307C8.58074 22 7 20.4232 7 18.478V13.522C7 11.5768 8.58074 10 10.5307 10Z" fill="#FC5BB3"/>
</svg>
