<svg width="20" height="20" viewBox="0 0 20 20" fill="none" xmlns="http://www.w3.org/2000/svg">
<path fill-rule="evenodd" clip-rule="evenodd" d="M12.8339 10.0001L19.5815 16.7476C20.2257 17.3918 20.1135 18.5484 19.331 19.3309C18.5484 20.1134 17.3918 20.2256 16.7477 19.5814L10.0001 12.8339L3.25233 19.5816C2.60815 20.2258 1.45157 20.1136 0.669032 19.3311C-0.11351 18.5486 -0.22568 17.392 0.418494 16.7478L7.16627 10.0001L0.418371 3.25219C-0.225802 2.60802 -0.113632 1.45145 0.66891 0.668907C1.45145 -0.113631 2.60803 -0.225801 3.25221 0.41837L10.0001 7.16624L16.7478 0.418571C17.392 -0.225599 18.5485 -0.113429 19.3311 0.66911C20.1136 1.45165 20.2258 2.60822 19.5816 3.25239L12.8339 10.0001Z" fill="#055DF9"/>
</svg>
