<svg width="32" height="32" viewBox="0 0 32 32" fill="none" xmlns="http://www.w3.org/2000/svg">
<path d="M16.0013 31.9999C12.2996 32.0002 8.7123 30.7168 5.85067 28.3687C2.98904 26.0206 1.03014 22.7529 0.307705 19.1224C-0.41473 15.4919 0.143958 11.7236 1.88869 8.45892C3.63343 5.19421 6.45623 2.63514 9.87605 1.21834C13.2959 -0.198467 17.1012 -0.385655 20.6436 0.688654C24.186 1.76296 27.2462 4.03227 29.303 7.10997C31.3597 10.1877 32.2856 13.8833 31.923 17.5672C31.5604 21.2511 29.9316 24.6954 27.3143 27.313C25.8322 28.8035 24.0692 29.9855 22.1273 30.7901C20.1854 31.5946 18.1032 32.0056 16.0013 31.9999ZM18.988 15.5422C19.4502 15.5551 19.8947 15.7225 20.2509 16.0172C20.4287 16.1504 20.5749 16.321 20.679 16.5172C20.7832 16.7134 20.8428 16.9302 20.8535 17.1521V22.751H24.1708V16.738C24.1708 15.7472 23.7778 14.7972 23.0779 14.0959C22.3779 13.3946 21.4283 12.9994 20.4375 12.9974C19.8759 13.0113 19.3244 13.1491 18.8225 13.4016C18.3207 13.6541 17.881 14.0151 17.5352 14.4579V12.799H14.2189V22.7521H17.5352V17.1531C17.5182 16.9505 17.543 16.7464 17.6081 16.5537C17.6732 16.361 17.7771 16.1837 17.9135 16.0328C18.0499 15.8819 18.2159 15.7608 18.401 15.6766C18.5862 15.5924 18.7867 15.5468 18.9901 15.5433L18.988 15.5422ZM9.24285 12.798V22.751H12.5603V12.798H9.24285ZM10.9016 7.82091C10.5735 7.82091 10.2529 7.91834 9.98009 8.10059C9.70732 8.28285 9.49469 8.54178 9.36915 8.84486C9.24361 9.14794 9.21075 9.48144 9.27475 9.80319C9.33875 10.1249 9.49669 10.4202 9.72865 10.6521C9.96062 10.8841 10.2563 11.0423 10.578 11.1063C10.8998 11.1703 11.2333 11.1376 11.5363 11.012C11.8394 10.8865 12.0985 10.6739 12.2807 10.4011C12.463 10.1283 12.5603 9.8078 12.5603 9.47975C12.5594 9.04021 12.3843 8.61859 12.0734 8.30788C11.7625 7.99718 11.3411 7.82251 10.9016 7.82195V7.82091Z" fill="#FC5BB3"/>
</svg>
