<svg width="96" height="82" viewBox="0 0 96 82" fill="none" xmlns="http://www.w3.org/2000/svg">
<path d="M91.8612 40.6587C91.856 37.1985 91.1733 33.773 89.8519 30.5769C87.8708 25.8867 84.5575 21.8857 80.3252 19.0729C76.0929 16.2601 71.129 14.7601 66.0527 14.7599H29.9464C26.557 14.7593 23.2007 15.4287 20.0691 16.73C16.9376 18.0313 14.0922 19.9389 11.6955 22.344C9.29886 24.7491 7.39785 27.6044 6.1011 30.7469C4.80434 33.8894 4.13725 37.2575 4.13794 40.6587V52.1901C4.13725 55.5666 4.79947 58.9101 6.08676 62.0297C7.37406 65.1492 9.2612 67.9837 11.6404 70.3713C14.0196 72.7588 16.8442 74.6525 19.9529 75.9443C23.0616 77.2361 26.3935 77.9006 29.7581 77.8999C30.9573 77.8999 32.1072 77.4219 32.9551 76.5711C33.803 75.7202 34.2794 74.5662 34.2794 73.3629C34.2794 72.1596 33.803 71.0056 32.9551 70.1547C32.1072 69.3038 30.9573 68.8258 29.7581 68.8258C26.9993 68.8308 24.2832 68.1412 21.8587 66.8201C19.4342 65.4991 17.3786 63.5888 15.8802 61.2642C14.1625 58.5748 13.2475 55.4484 13.2432 52.254V40.6587C13.2531 36.1996 15.0227 31.926 18.1648 28.7729C21.3069 25.6198 25.5656 23.844 30.0092 23.8341H66.1181C69.4133 23.8357 72.6352 24.8105 75.3821 26.6371C78.1289 28.4637 80.2793 31.0611 81.5652 34.1057C82.441 36.1787 82.8896 38.4081 82.8841 40.6596V52.1901C82.8788 56.5841 81.1369 60.7967 78.0405 63.9035C74.9441 67.0104 70.7461 68.758 66.3674 68.7629H50.1654C48.9663 68.7629 47.8163 69.2409 46.9684 70.0917C46.1205 70.9426 45.6442 72.0966 45.6442 73.2999C45.6442 74.5032 46.1205 75.6572 46.9684 76.5081C47.8163 77.359 48.9663 77.837 50.1654 77.837H66.2419C73.0346 77.8298 79.547 75.1188 84.3502 70.2988C89.1534 65.4788 91.8549 58.9436 91.8621 52.1271L91.8612 40.6587Z" fill="#01EFAD"/>
<path d="M58.0055 20.5H64.5518C64.5518 16.1504 62.8079 11.979 59.7039 8.90342C56.5998 5.82783 52.3898 4.09998 48 4.09998C43.6103 4.09998 39.4003 5.82783 36.2962 8.90342C33.1922 11.979 31.4483 16.1504 31.4483 20.5H37.9314C37.9037 19.1766 38.1428 17.861 38.6347 16.6304C39.1267 15.3998 39.8616 14.2788 40.7963 13.3331C41.7311 12.3875 42.847 11.6362 44.0785 11.1233C45.3101 10.6105 46.6325 10.3463 47.9685 10.3463C49.3044 10.3463 50.6268 10.6105 51.8584 11.1233C53.0899 11.6362 54.2058 12.3875 55.1406 13.3331C56.0753 14.2788 56.8102 15.3998 57.3022 16.6304C57.7941 17.861 58.0332 19.1766 58.0055 20.5Z" fill="#055DF9"/>
<path d="M45.5173 36.9H51.3104V45.1H59.5862V50.84H51.3104V59.04H45.5173V50.84H37.2414V45.1H45.5173V36.9Z" fill="#055DF9"/>
</svg>
