<svg width="12" height="12" viewBox="0 0 12 12" fill="none" xmlns="http://www.w3.org/2000/svg">
<path d="M10.8371 0.379028C10.3317 -0.126343 9.51207 -0.126343 9.00668 0.379028L6 3.38544L2.99332 0.379028C2.48793 -0.126343 1.66832 -0.126343 1.16294 0.379028L0.378491 1.16327C-0.126164 1.66864 -0.126164 2.48804 0.378491 2.99341L3.38517 6L0.378491 9.00659C-0.126164 9.51196 -0.126164 10.3314 0.378491 10.8367L1.16294 11.621C1.66832 12.1263 2.48793 12.1263 2.99332 11.621L6 8.61456L9.00668 11.621C9.51207 12.1263 10.3317 12.1263 10.8371 11.621L11.6215 10.8367C12.1262 10.3314 12.1262 9.51196 11.6215 9.00659L8.61483 6L11.6215 2.99341C12.1262 2.48804 12.1262 1.66864 11.6215 1.16327L10.8371 0.379028Z" fill="#AAAAAA"/>
</svg>
