<svg width="36" height="31" viewBox="0 0 36 31" fill="none" xmlns="http://www.w3.org/2000/svg">
<path d="M18 29C10.284 29 4 22.9403 4 15.5013C4 8.06238 10.284 2 18 2C25.716 2 32 8.05965 32 15.4986C31.9911 17.957 31.3045 20.368 30.012 22.4797C29.7842 22.8105 29.4394 23.048 29.0433 23.147C28.6472 23.246 28.2276 23.1996 27.8644 23.0167C27.5229 22.8015 27.2764 22.4697 27.1734 22.0865C27.0703 21.7033 27.1182 21.2964 27.3075 20.9458C28.3472 19.3093 28.8979 17.423 28.8976 15.4986C28.8948 14.1106 28.6102 12.7369 28.0602 11.4564C27.5101 10.1759 26.7056 9.01398 25.6928 8.03746C24.68 7.06095 23.4789 6.28912 22.1587 5.76637C20.8385 5.24363 19.4251 4.98029 18 4.99151C16.5738 4.97736 15.1589 5.23872 13.8371 5.76047C12.5152 6.28222 11.3127 7.05402 10.2991 8.03123C9.28545 9.00843 8.48079 10.1717 7.93163 11.4536C7.38246 12.7356 7.09971 14.1109 7.09971 15.5C7.09971 16.889 7.38246 18.2643 7.93163 19.5463C8.48079 20.8283 9.28545 21.9915 10.2991 22.9687C11.3127 23.9459 12.5152 24.7177 13.8371 25.2395C15.1589 25.7612 16.5738 26.0226 18 26.0084C18.9931 25.9941 19.981 25.8654 20.9431 25.625C21.1408 25.5715 21.3476 25.5569 21.5512 25.5821C21.7548 25.6073 21.9513 25.6718 22.129 25.7718C22.3067 25.8718 22.4622 26.0053 22.5864 26.1645C22.7106 26.3236 22.8009 26.5053 22.8521 26.6989C22.9067 26.8911 22.921 27.0919 22.8942 27.2896C22.8674 27.4872 22.8 27.6776 22.6961 27.8494C22.5922 28.0211 22.4539 28.1708 22.2894 28.2894C22.1249 28.4081 21.9376 28.4932 21.7386 28.5399C20.5177 28.8484 19.2613 29.0031 18 29" fill="#FC5BB3"/>
<path fill-rule="evenodd" clip-rule="evenodd" d="M20 18H16V9H20V18ZM20 22H16V19H20" fill="#005DF9"/>
</svg>
