<svg width="36" height="36" viewBox="0 0 36 36" fill="none" xmlns="http://www.w3.org/2000/svg">
<mask id="mask0" mask-type="alpha" maskUnits="userSpaceOnUse" x="0" y="0" width="36" height="36">
<rect width="36" height="36" fill="#C4C4C4"/>
</mask>
<g mask="url(#mask0)">
<path d="M34.4853 36.1662L33.1072 32.5268C32.1228 29.9225 29.7997 27.8581 26.9028 27.0087L25.0635 26.4687C25.2603 25.9456 25.5416 25.3437 25.8847 24.6181C26.1491 24.0612 26.4416 23.4425 26.751 22.7393C28.7253 18.2506 28.4441 13.925 25.9185 9.88621C24.1241 7.01184 20.7378 5.35246 17.2841 5.66184C14.1903 5.93746 11.3778 7.81059 9.94347 10.55C8.80722 12.7156 8.46409 14.1725 8.53159 16.5293C8.56534 17.7612 8.71159 18.9537 8.95347 20.0787C9.04909 20.5231 9.19534 20.9506 9.33034 21.3612C9.58909 22.1206 9.83097 22.835 9.76347 23.6112C9.62284 25.2987 8.28972 26.9131 6.87222 28.0606C5.11722 29.1237 3.77847 30.6818 3.09222 32.5043L1.71409 36.1437C1.63534 36.3575 1.73659 36.5937 1.95034 36.6837C2.05159 36.7287 8.97035 39.5075 18.4878 39.5075C23.2635 39.5075 28.6916 38.81 34.2378 36.7118C34.3447 36.6725 34.4291 36.5937 34.4741 36.4925C34.5191 36.3912 34.5247 36.2675 34.4853 36.1662ZM23.7247 31.9475C23.0272 31.3793 20.8953 29.6525 20.7097 27.6162C20.6253 26.6881 20.9516 25.7825 21.6828 24.9275C21.9022 24.6912 22.1047 24.4325 22.3016 24.1625C22.3016 24.1625 22.3016 24.1625 22.3016 24.1568C23.2128 22.88 23.8372 21.2487 23.8091 19.8256C24.591 21.0181 25.311 22.9812 24.4616 25.6925C24.321 26.0187 24.2028 26.3281 24.1128 26.6206C24.1128 26.6206 24.1128 26.6206 24.1128 26.6262C23.376 29.0393 23.9947 29.9281 24.546 30.71C24.6641 30.8787 24.7822 31.0418 24.8835 31.2331C25.311 31.9925 25.0803 32.9318 24.3041 33.8712C24.3603 33.6575 24.3885 33.4437 24.3828 33.23C24.366 32.7237 24.1353 32.2793 23.7247 31.9475ZM22.6447 18.5318C23.4153 19.8143 22.7797 22.0193 21.6322 23.645C20.6422 24.8543 18.9041 25.4731 17.1941 25.2087C15.1072 24.8881 13.4197 23.3468 12.4353 20.8662C12.0697 18.4643 12.8853 17.0187 13.8247 15.3481C14.3253 14.4593 14.8428 13.5481 15.2028 12.4343C15.8441 13.4806 16.8678 14.42 17.841 15.2581C18.1897 15.5618 18.9266 16.0118 19.7816 16.5293C20.8166 17.165 22.3972 18.1268 22.6447 18.5318ZM14.2297 24.8037L14.1678 25.5575L13.566 25.7375C13.5941 25.0568 13.521 24.5225 13.3916 24.0387C13.6672 24.3312 13.9485 24.59 14.2297 24.8037ZM14.9891 25.9118L15.0341 25.3381C15.7991 25.7656 16.5247 25.9625 17.0647 26.0412C17.3685 26.0862 17.6722 26.1087 17.9703 26.1087C18.7522 26.1087 19.5172 25.9512 20.2147 25.6643C19.9222 26.3225 19.8041 26.9975 19.866 27.6893C19.8772 27.8412 19.8997 27.9875 19.9335 28.1337C18.6847 28.5725 17.121 28.4487 16.086 27.7793C15.5966 27.4756 15.0228 26.8906 14.9891 25.9118C14.9891 25.9118 14.9835 25.9175 14.9891 25.9118ZM10.1291 21.0856C9.98847 20.6806 9.85909 20.2925 9.77472 19.8931C9.53847 18.8187 9.40347 17.6768 9.36972 16.5012C9.30222 14.2793 9.61159 12.98 10.686 10.9381C11.991 8.45184 14.5447 6.75309 17.3572 6.49996C20.496 6.21871 23.5728 7.72059 25.2041 10.3306C27.5778 14.1162 27.8366 18.1775 25.9803 22.3962C25.8791 22.6268 25.7835 22.835 25.6878 23.0487C25.5585 19.6793 23.2185 17.8737 23.1116 17.795C22.611 17.2943 21.6097 16.6643 20.2203 15.815C19.4328 15.3368 18.6903 14.8868 18.3978 14.6281C17.3685 13.7393 15.6472 12.2543 15.4278 10.7075C15.4278 10.7018 15.4278 10.6906 15.4222 10.685C15.3885 10.4543 15.1803 10.2968 14.9497 10.325C14.7191 10.3587 14.556 10.5668 14.5897 10.7975C14.5897 10.8031 14.5897 10.8143 14.5897 10.82C14.6347 11.1687 14.5897 11.5681 14.4378 12.0631C14.106 13.1431 13.5941 14.0543 13.0935 14.9318C12.1541 16.5968 11.181 18.3181 11.6085 21.0462C11.7716 21.9912 12.0247 22.6606 12.2441 23.2512C12.5591 24.0893 12.8066 24.77 12.7053 25.985L10.7535 26.5587C10.7366 26.5587 10.7197 26.5643 10.7028 26.57L9.30222 26.9806C9.22909 27.0031 9.16159 27.0312 9.08847 27.0537C9.90972 26.0412 10.506 24.8937 10.6072 23.6731C10.686 22.7281 10.4047 21.8956 10.1291 21.0856ZM2.65909 36.0481L3.88534 32.8025C4.34659 31.5818 5.13972 30.485 6.16347 29.6131C6.51784 29.3937 6.87784 29.1462 7.22659 28.8706C7.36722 28.775 7.50222 28.6793 7.62597 28.595C7.64847 28.5837 7.68222 28.5612 7.73847 28.5331C8.28972 28.235 8.89159 27.9875 9.53284 27.7962L10.8941 27.3968C10.911 27.3968 10.9278 27.3912 10.9447 27.3856L13.2003 26.7218C13.206 26.7218 13.2116 26.7218 13.2116 26.7162L14.1903 26.4293C14.3535 27.2731 14.8428 27.9987 15.6247 28.4993C16.3953 28.9943 17.3853 29.2531 18.381 29.2531C18.9941 29.2531 19.6072 29.1518 20.1753 28.955C20.8897 30.7381 22.5603 32.0937 23.1847 32.6056C23.4097 32.7912 23.5222 32.9993 23.5335 33.2693C23.5672 34.1356 22.5716 35.2831 22.2172 35.615C22.206 35.6262 22.2003 35.6375 22.1947 35.6487C22.1778 35.6712 22.161 35.6937 22.1441 35.7162C22.1328 35.7387 22.1216 35.7612 22.1103 35.7893C22.0991 35.8175 22.0991 35.84 22.0935 35.8681C22.0878 35.8962 22.0878 35.9187 22.0878 35.9468C22.0878 35.975 22.0935 35.9975 22.0991 36.0256C22.1047 36.0537 22.116 36.0762 22.1272 36.1043C22.1328 36.1156 22.1328 36.1325 22.1441 36.1437C22.1497 36.155 22.161 36.155 22.1666 36.1662C22.1778 36.1831 22.1835 36.2 22.1947 36.2112C22.2172 36.2337 22.2453 36.245 22.2678 36.2618C22.2847 36.2731 22.296 36.2843 22.3185 36.2956C22.3747 36.3237 22.4366 36.3406 22.5041 36.3406C22.5491 36.3406 22.5941 36.3293 22.6391 36.3125C22.6503 36.3068 22.6616 36.3012 22.6728 36.2956C22.6897 36.29 22.7066 36.2843 22.7235 36.2731C25.4066 34.6137 26.5372 32.4706 25.6147 30.8168C25.4966 30.6031 25.3616 30.4118 25.2322 30.2206C24.7653 29.5512 24.3603 28.9718 24.8047 27.2618L26.661 27.8075C29.3047 28.5837 31.4197 30.4568 32.3141 32.8137L33.5403 36.0593C18.8366 41.4481 5.10034 36.9368 2.65909 36.0481Z" fill="#AAAAAA"/>
<path d="M14.9891 25.9118L15.0341 25.3381C15.7991 25.7656 16.5247 25.9625 17.0647 26.0412C17.3685 26.0862 17.6722 26.1087 17.9703 26.1087C18.7522 26.1087 19.5172 25.9512 20.2147 25.6643C19.9222 26.3225 19.8041 26.9975 19.866 27.6893C19.8772 27.8412 19.8997 27.9875 19.9335 28.1337C18.6847 28.5725 17.121 28.4487 16.086 27.7793C15.5966 27.4756 15.0228 26.8906 14.9891 25.9118ZM14.9891 25.9118C14.9835 25.9175 14.9891 25.9118 14.9891 25.9118ZM34.4853 36.1662L33.1072 32.5268C32.1228 29.9225 29.7997 27.8581 26.9028 27.0087L25.0635 26.4687C25.2603 25.9456 25.5416 25.3437 25.8847 24.6181C26.1491 24.0612 26.4416 23.4425 26.751 22.7393C28.7253 18.2506 28.4441 13.925 25.9185 9.88621C24.1241 7.01184 20.7378 5.35246 17.2841 5.66184C14.1903 5.93746 11.3778 7.81059 9.94347 10.55C8.80722 12.7156 8.46409 14.1725 8.53159 16.5293C8.56534 17.7612 8.71159 18.9537 8.95347 20.0787C9.04909 20.5231 9.19534 20.9506 9.33034 21.3612C9.58909 22.1206 9.83097 22.835 9.76347 23.6112C9.62284 25.2987 8.28972 26.9131 6.87222 28.0606C5.11722 29.1237 3.77847 30.6818 3.09222 32.5043L1.71409 36.1437C1.63534 36.3575 1.73659 36.5937 1.95034 36.6837C2.05159 36.7287 8.97035 39.5075 18.4878 39.5075C23.2635 39.5075 28.6916 38.81 34.2378 36.7118C34.3447 36.6725 34.4291 36.5937 34.4741 36.4925C34.5191 36.3912 34.5247 36.2675 34.4853 36.1662ZM23.7247 31.9475C23.0272 31.3793 20.8953 29.6525 20.7097 27.6162C20.6253 26.6881 20.9516 25.7825 21.6828 24.9275C21.9022 24.6912 22.1047 24.4325 22.3016 24.1625C22.3016 24.1625 22.3016 24.1625 22.3016 24.1568C23.2128 22.88 23.8372 21.2487 23.8091 19.8256C24.591 21.0181 25.311 22.9812 24.4616 25.6925C24.321 26.0187 24.2028 26.3281 24.1128 26.6206C24.1128 26.6206 24.1128 26.6206 24.1128 26.6262C23.376 29.0393 23.9947 29.9281 24.546 30.71C24.6641 30.8787 24.7822 31.0418 24.8835 31.2331C25.311 31.9925 25.0803 32.9318 24.3041 33.8712C24.3603 33.6575 24.3885 33.4437 24.3828 33.23C24.366 32.7237 24.1353 32.2793 23.7247 31.9475ZM22.6447 18.5318C23.4153 19.8143 22.7797 22.0193 21.6322 23.645C20.6422 24.8543 18.9041 25.4731 17.1941 25.2087C15.1072 24.8881 13.4197 23.3468 12.4353 20.8662C12.0697 18.4643 12.8853 17.0187 13.8247 15.3481C14.3253 14.4593 14.8428 13.5481 15.2028 12.4343C15.8441 13.4806 16.8678 14.42 17.841 15.2581C18.1897 15.5618 18.9266 16.0118 19.7816 16.5293C20.8166 17.165 22.3972 18.1268 22.6447 18.5318ZM14.2297 24.8037L14.1678 25.5575L13.566 25.7375C13.5941 25.0568 13.521 24.5225 13.3916 24.0387C13.6672 24.3312 13.9485 24.59 14.2297 24.8037ZM10.1291 21.0856C9.98847 20.6806 9.85909 20.2925 9.77472 19.8931C9.53847 18.8187 9.40347 17.6768 9.36972 16.5012C9.30222 14.2793 9.61159 12.98 10.686 10.9381C11.991 8.45184 14.5447 6.75309 17.3572 6.49996C20.496 6.21871 23.5728 7.72059 25.2041 10.3306C27.5778 14.1162 27.8366 18.1775 25.9803 22.3962C25.8791 22.6268 25.7835 22.835 25.6878 23.0487C25.5585 19.6793 23.2185 17.8737 23.1116 17.795C22.611 17.2943 21.6097 16.6643 20.2203 15.815C19.4328 15.3368 18.6903 14.8868 18.3978 14.6281C17.3685 13.7393 15.6472 12.2543 15.4278 10.7075C15.4278 10.7018 15.4278 10.6906 15.4222 10.685C15.3885 10.4543 15.1803 10.2968 14.9497 10.325C14.7191 10.3587 14.556 10.5668 14.5897 10.7975C14.5897 10.8031 14.5897 10.8143 14.5897 10.82C14.6347 11.1687 14.5897 11.5681 14.4378 12.0631C14.106 13.1431 13.5941 14.0543 13.0935 14.9318C12.1541 16.5968 11.181 18.3181 11.6085 21.0462C11.7716 21.9912 12.0247 22.6606 12.2441 23.2512C12.5591 24.0893 12.8066 24.77 12.7053 25.985L10.7535 26.5587C10.7366 26.5587 10.7197 26.5643 10.7028 26.57L9.30222 26.9806C9.22909 27.0031 9.16159 27.0312 9.08847 27.0537C9.90972 26.0412 10.506 24.8937 10.6072 23.6731C10.686 22.7281 10.4047 21.8956 10.1291 21.0856ZM2.65909 36.0481L3.88534 32.8025C4.34659 31.5818 5.13972 30.485 6.16347 29.6131C6.51784 29.3937 6.87784 29.1462 7.22659 28.8706C7.36722 28.775 7.50222 28.6793 7.62597 28.595C7.64847 28.5837 7.68222 28.5612 7.73847 28.5331C8.28972 28.235 8.89159 27.9875 9.53284 27.7962L10.8941 27.3968C10.911 27.3968 10.9278 27.3912 10.9447 27.3856L13.2003 26.7218C13.206 26.7218 13.2116 26.7218 13.2116 26.7162L14.1903 26.4293C14.3535 27.2731 14.8428 27.9987 15.6247 28.4993C16.3953 28.9943 17.3853 29.2531 18.381 29.2531C18.9941 29.2531 19.6072 29.1518 20.1753 28.955C20.8897 30.7381 22.5603 32.0937 23.1847 32.6056C23.4097 32.7912 23.5222 32.9993 23.5335 33.2693C23.5672 34.1356 22.5716 35.2831 22.2172 35.615C22.206 35.6262 22.2003 35.6375 22.1947 35.6487C22.1778 35.6712 22.161 35.6937 22.1441 35.7162C22.1328 35.7387 22.1216 35.7612 22.1103 35.7893C22.0991 35.8175 22.0991 35.84 22.0935 35.8681C22.0878 35.8962 22.0878 35.9187 22.0878 35.9468C22.0878 35.975 22.0935 35.9975 22.0991 36.0256C22.1047 36.0537 22.116 36.0762 22.1272 36.1043C22.1328 36.1156 22.1328 36.1325 22.1441 36.1437C22.1497 36.155 22.161 36.155 22.1666 36.1662C22.1778 36.1831 22.1835 36.2 22.1947 36.2112C22.2172 36.2337 22.2453 36.245 22.2678 36.2618C22.2847 36.2731 22.296 36.2843 22.3185 36.2956C22.3747 36.3237 22.4366 36.3406 22.5041 36.3406C22.5491 36.3406 22.5941 36.3293 22.6391 36.3125C22.6503 36.3068 22.6616 36.3012 22.6728 36.2956C22.6897 36.29 22.7066 36.2843 22.7235 36.2731C25.4066 34.6137 26.5372 32.4706 25.6147 30.8168C25.4966 30.6031 25.3616 30.4118 25.2322 30.2206C24.7653 29.5512 24.3603 28.9718 24.8047 27.2618L26.661 27.8075C29.3047 28.5837 31.4197 30.4568 32.3141 32.8137L33.5403 36.0593C18.8366 41.4481 5.10034 36.9368 2.65909 36.0481Z" stroke="#AAAAAA" stroke-width="0.5"/>
</g>
</svg>
