<svg width="160" height="160" viewBox="0 0 160 160" fill="none" xmlns="http://www.w3.org/2000/svg">
<mask id="mask0" mask-type="alpha" maskUnits="userSpaceOnUse" x="0" y="0" width="160" height="160">
<rect width="160" height="160" fill="#C4C4C4"/>
</mask>
<g mask="url(#mask0)">
<path d="M164.638 167.98L157.488 150.455C152.388 137.955 140.413 128.08 125.438 124.005L100.013 117.105L99.5881 111.655C104.463 107.155 108.238 101.08 110.263 93.9548C114.963 93.9048 119.488 89.9048 120.813 84.3548C121.713 80.5548 121.013 76.1298 118.988 73.0548C118.113 71.7048 117.013 70.7298 115.813 70.1048C118.888 55.0548 115.938 50.7298 113.038 46.5298C112.113 45.2548 111.238 44.0048 110.563 42.3798C108.063 36.3048 112.488 31.5048 112.688 31.3048C113.138 30.8298 113.313 30.1548 113.138 29.5298C112.963 28.8798 112.488 28.3798 111.838 28.2048C90.0631 22.0048 74.0631 25.9548 64.4881 30.3548C56.3381 34.1048 51.3631 38.7298 49.4631 40.7298C48.2381 40.4298 46.3131 40.2298 44.3131 41.0298C42.0631 41.9298 40.3631 43.7798 39.2381 46.5798C36.1381 54.1798 41.0881 65.7298 43.3131 70.2298C42.4381 70.8048 41.6131 71.6048 40.9381 72.6548C38.8881 75.7798 38.1131 80.4798 38.9631 84.3548C40.1881 89.8298 44.3381 93.7798 48.6881 93.9548C50.9631 101.405 55.0131 107.73 60.1881 112.28L59.7881 116.98L34.3631 123.88C19.3631 127.93 7.38808 137.805 2.28808 150.305L-4.86192 167.83C-5.06192 168.305 -5.03692 168.83 -4.83692 169.28C-4.63692 169.755 -4.26192 170.105 -3.78692 170.28C-3.26192 170.48 32.6131 183.88 81.9381 183.88C106.663 183.88 134.788 180.505 163.538 170.455C164.013 170.28 164.413 169.93 164.638 169.455C164.838 169.005 164.838 168.455 164.638 167.98ZM42.6881 47.9798C43.4131 46.1798 44.4131 45.0298 45.6631 44.5048C47.4131 43.7798 49.2631 44.5548 49.2631 44.5548C50.0381 44.9048 50.9381 44.7048 51.4881 44.0298C52.2631 43.0798 70.6381 21.5798 108.213 31.0798C106.638 33.7298 104.863 38.3548 107.088 43.7548C107.913 45.7548 108.938 47.2298 109.913 48.6548C112.538 52.4548 115.013 56.0548 111.838 70.5548L107.838 76.6798L107.288 64.4298L108.688 54.8798C108.763 54.3298 108.588 53.7548 108.213 53.3548C107.838 52.9298 107.263 52.7298 106.738 52.7548L79.9881 54.2048L52.6381 52.7548C52.0381 52.7298 51.5381 52.9548 51.1381 53.3798C50.7631 53.8048 50.5881 54.3548 50.6631 54.9298L52.2131 64.9798L51.6131 76.9798L47.4881 70.2048C45.2631 66.2048 40.0881 54.4048 42.6881 47.9798ZM51.8631 91.5298C51.8381 91.4298 51.7631 91.3298 51.7131 91.2548C51.6631 91.1548 51.6131 91.0298 51.5631 90.9298C51.4881 90.8048 51.3631 90.7298 51.2631 90.6298C51.1881 90.5798 51.1381 90.5048 51.0631 90.4548C50.9381 90.3548 50.7631 90.3298 50.6131 90.2798C50.5381 90.2548 50.4631 90.2298 50.3881 90.2048C50.2381 90.1798 50.1131 90.1798 49.9631 90.2048C49.8631 90.2048 49.7881 90.1798 49.6881 90.2048C46.7631 90.7798 43.5381 87.7298 42.6131 83.5798C41.9631 80.6548 42.5631 77.0298 44.0631 74.7298C44.3381 74.3298 44.6881 73.8798 45.1381 73.5298L51.6131 84.1548C51.9631 84.7298 52.5631 85.0548 53.2131 85.0548C53.3631 85.0548 53.5131 85.0298 53.6631 85.0048C54.4631 84.8048 55.0381 84.1048 55.0631 83.2798L55.9881 65.0048C55.9881 64.8798 55.9881 64.7548 55.9631 64.6298L54.7381 56.6798L79.9881 57.9548L104.688 56.6298L103.588 64.0798C103.588 64.1298 103.613 64.2048 103.588 64.2548C103.588 64.3048 103.563 64.3548 103.563 64.4298L104.363 82.6798C104.388 83.5048 104.963 84.1798 105.738 84.4048C106.513 84.6048 107.363 84.3048 107.813 83.6298L114.363 73.6048C114.988 74.0048 115.488 74.6048 115.813 75.1298C117.263 77.3548 117.788 80.7298 117.138 83.5048C116.138 87.7048 112.563 90.7298 109.338 90.1548C108.863 90.0798 108.388 90.2048 107.988 90.4548C107.513 90.6798 107.138 91.1048 106.988 91.6548C103.463 106.08 92.0631 116.155 79.2881 116.155C67.0131 116.18 55.7131 106.03 51.8631 91.5298ZM79.3131 119.93C85.3381 119.93 91.0881 117.955 96.0381 114.53L96.3631 118.655C96.3381 123.88 93.1381 126.83 90.4631 128.405C84.4881 131.855 75.4381 131.83 69.4131 128.355C66.6881 126.78 63.4131 123.78 63.4131 118.505L63.7131 115.005C68.4131 118.13 73.7631 119.93 79.3131 119.93ZM-0.661916 167.43L5.76308 151.73C10.4381 140.305 21.4881 131.255 35.3131 127.48L59.8631 120.83C60.5631 125.305 63.2131 129.08 67.5381 131.555C71.1631 133.63 75.5881 134.68 80.0131 134.68C84.4131 134.68 88.7881 133.655 92.3631 131.58C96.6381 129.105 99.2631 125.38 99.9631 120.955L124.513 127.605C138.363 131.355 149.413 140.405 154.063 151.83L160.463 167.53C83.4631 193.78 11.5381 171.605 -0.661916 167.43Z" fill="#055DF9"/>
</g>
</svg>
