<svg width="160" height="160" viewBox="0 0 160 160" fill="none" xmlns="http://www.w3.org/2000/svg">
<mask id="mask0" mask-type="alpha" maskUnits="userSpaceOnUse" x="0" y="0" width="160" height="160">
<rect width="160" height="160" fill="#C4C4C4"/>
</mask>
<g mask="url(#mask0)">
<path d="M153.268 160.739L147.143 144.564C142.768 132.989 132.443 123.814 119.568 120.039L111.393 117.639C112.268 115.314 113.518 112.639 115.043 109.414C116.218 106.939 117.518 104.189 118.893 101.064C127.668 81.1137 126.418 61.8887 115.193 43.9387C107.218 31.1637 92.1682 23.7887 76.8182 25.1637C63.0682 26.3887 50.5682 34.7137 44.1932 46.8887C39.1432 56.5137 37.6182 62.9887 37.9182 73.4637C38.0682 78.9387 38.7182 84.2387 39.7932 89.2387C40.2182 91.2137 40.8682 93.1137 41.4682 94.9387C42.6182 98.3137 43.6932 101.489 43.3932 104.939C42.7682 112.439 36.8432 119.614 30.5432 124.714C22.7432 129.439 16.7932 136.364 13.7432 144.464L7.61819 160.639C7.26819 161.589 7.71819 162.639 8.66819 163.039C9.11819 163.239 39.8682 175.589 82.1682 175.589C103.393 175.589 127.518 172.489 152.168 163.164C152.643 162.989 153.018 162.639 153.218 162.189C153.418 161.739 153.443 161.189 153.268 160.739ZM105.443 141.989C102.343 139.464 92.8682 131.789 92.0432 122.739C91.6682 118.614 93.1182 114.589 96.3682 110.789C97.3432 109.739 98.2432 108.589 99.1182 107.389C99.1182 107.389 99.1182 107.389 99.1182 107.364C103.168 101.689 105.943 94.4387 105.818 88.1137C109.293 93.4137 112.493 102.139 108.718 114.189C108.093 115.639 107.568 117.014 107.168 118.314C107.168 118.314 107.168 118.314 107.168 118.339C103.893 129.064 106.643 133.014 109.093 136.489C109.618 137.239 110.143 137.964 110.593 138.814C112.493 142.189 111.468 146.364 108.018 150.539C108.268 149.589 108.393 148.639 108.368 147.689C108.293 145.439 107.268 143.464 105.443 141.989ZM100.643 82.3637C104.068 88.0637 101.243 97.8637 96.1432 105.089C91.7432 110.464 84.0182 113.214 76.4182 112.039C67.1432 110.614 59.6432 103.764 55.2682 92.7387C53.6432 82.0637 57.2682 75.6387 61.4432 68.2137C63.6682 64.2637 65.9682 60.2137 67.5682 55.2637C70.4182 59.9137 74.9682 64.0887 79.2932 67.8137C80.8432 69.1637 84.1182 71.1637 87.9182 73.4637C92.5182 76.2887 99.5432 80.5637 100.643 82.3637ZM63.2432 110.239L62.9682 113.589L60.2932 114.389C60.4182 111.364 60.0932 108.989 59.5182 106.839C60.7432 108.139 61.9932 109.289 63.2432 110.239ZM66.6182 115.164L66.8182 112.614C70.2182 114.514 73.4432 115.389 75.8432 115.739C77.1932 115.939 78.5432 116.039 79.8682 116.039C83.3432 116.039 86.7432 115.339 89.8432 114.064C88.5432 116.989 88.0182 119.989 88.2932 123.064C88.3432 123.739 88.4432 124.389 88.5932 125.039C83.0432 126.989 76.0932 126.439 71.4932 123.464C69.3182 122.114 66.7682 119.514 66.6182 115.164C66.6182 115.164 66.5932 115.189 66.6182 115.164ZM45.0182 93.7137C44.3932 91.9137 43.8182 90.1887 43.4432 88.4137C42.3932 83.6387 41.7932 78.5637 41.6432 73.3387C41.3432 63.4637 42.7182 57.6887 47.4932 48.6137C53.2932 37.5637 64.6432 30.0137 77.1432 28.8887C91.0932 27.6387 104.768 34.3137 112.018 45.9137C122.568 62.7387 123.718 80.7887 115.468 99.5387C115.018 100.564 114.593 101.489 114.168 102.439C113.593 87.4637 103.193 79.4387 102.718 79.0887C100.493 76.8637 96.0432 74.0637 89.8682 70.2887C86.3682 68.1637 83.0682 66.1637 81.7682 65.0137C77.1932 61.0637 69.5432 54.4637 68.5682 47.5887C68.5682 47.5637 68.5682 47.5137 68.5432 47.4887C68.3932 46.4637 67.4682 45.7637 66.4432 45.8887C65.4182 46.0387 64.6932 46.9637 64.8432 47.9887C64.8432 48.0137 64.8432 48.0637 64.8432 48.0887C65.0432 49.6387 64.8432 51.4137 64.1682 53.6137C62.6932 58.4137 60.4182 62.4637 58.1932 66.3637C54.0182 73.7637 49.6932 81.4137 51.5932 93.5387C52.3182 97.7387 53.4432 100.714 54.4182 103.339C55.8182 107.064 56.9182 110.089 56.4682 115.489L47.7932 118.039C47.7182 118.039 47.6432 118.064 47.5682 118.089L41.3432 119.914C41.0182 120.014 40.7182 120.139 40.3932 120.239C44.0432 115.739 46.6932 110.639 47.1432 105.214C47.4932 101.014 46.2432 97.3137 45.0182 93.7137ZM11.8182 160.214L17.2682 145.789C19.3182 140.364 22.8432 135.489 27.3932 131.614C28.9682 130.639 30.5682 129.539 32.1182 128.314C32.7432 127.889 33.3432 127.464 33.8932 127.089C33.9932 127.039 34.1432 126.939 34.3932 126.814C36.8432 125.489 39.5182 124.389 42.3682 123.539L48.4182 121.764C48.4932 121.764 48.5682 121.739 48.6432 121.714L58.6682 118.764C58.6932 118.764 58.7182 118.764 58.7182 118.739L63.0682 117.464C63.7932 121.214 65.9682 124.439 69.4432 126.664C72.8682 128.864 77.2682 130.014 81.6932 130.014C84.4182 130.014 87.1432 129.564 89.6682 128.689C92.8432 136.614 100.268 142.639 103.043 144.914C104.043 145.739 104.543 146.664 104.593 147.864C104.743 151.714 100.318 156.814 98.7432 158.289C98.6932 158.339 98.6682 158.389 98.6432 158.439C98.5682 158.539 98.4932 158.639 98.4182 158.739C98.3682 158.839 98.3182 158.939 98.2682 159.064C98.2182 159.189 98.2182 159.289 98.1932 159.414C98.1682 159.539 98.1682 159.639 98.1682 159.764C98.1682 159.889 98.1932 159.989 98.2182 160.114C98.2432 160.239 98.2932 160.339 98.3432 160.464C98.3682 160.514 98.3682 160.589 98.4182 160.639C98.4432 160.689 98.4932 160.689 98.5182 160.739C98.5682 160.814 98.5932 160.889 98.6432 160.939C98.7432 161.039 98.8682 161.089 98.9682 161.164C99.0432 161.214 99.0932 161.264 99.1932 161.314C99.4432 161.439 99.7182 161.514 100.018 161.514C100.218 161.514 100.418 161.464 100.618 161.389C100.668 161.364 100.718 161.339 100.768 161.314C100.843 161.289 100.918 161.264 100.993 161.214C112.918 153.839 117.943 144.314 113.843 136.964C113.318 136.014 112.718 135.164 112.143 134.314C110.068 131.339 108.268 128.764 110.243 121.164L118.493 123.589C130.243 127.039 139.643 135.364 143.618 145.839L149.068 160.264C83.7182 184.214 22.6682 164.164 11.8182 160.214Z" fill="#055DF9"/>
</g>
</svg>
