<svg width="80" height="80" viewBox="0 0 80 80" fill="none" xmlns="http://www.w3.org/2000/svg">
<path d="M75 40C77.7614 40 80.0322 37.7526 79.688 35.0127C78.6788 26.981 75.2488 19.4009 69.7958 13.3127C63.2249 5.97649 54.1786 1.3223 44.3894 0.241565C34.6002 -0.83917 24.7564 1.72953 16.7435 7.45566C8.73054 13.1818 3.11175 21.6628 0.963337 31.2743C-1.18508 40.8857 0.287908 50.9519 5.10017 59.5449C9.91243 68.1378 17.7256 74.6533 27.0433 77.8434C36.361 81.0336 46.528 80.6741 55.5971 76.8338C63.1234 73.6469 69.4544 68.2486 73.7873 61.4109C75.2654 59.0784 74.1676 56.078 71.669 54.9023C69.1703 53.7265 66.2236 54.8309 64.6496 57.0998C61.4341 61.735 56.9547 65.3994 51.6978 67.6254C44.896 70.5056 37.2707 70.7752 30.2825 68.3826C23.2942 65.9899 17.4343 61.1033 13.8251 54.6586C10.2159 48.214 9.11119 40.6643 10.7225 33.4557C12.3338 26.2471 16.5479 19.8863 22.5576 15.5917C28.5673 11.2971 35.9502 9.37062 43.292 10.1812C50.6339 10.9917 57.4187 14.4824 62.3468 19.9845C66.1556 24.2369 68.6484 29.4598 69.5844 35.0229C70.0425 37.7461 72.2386 40 75 40Z" fill="#055DF9"/>
</svg>
