<svg width="64" height="65" viewBox="0 0 64 65" fill="none" xmlns="http://www.w3.org/2000/svg">
<path fill-rule="evenodd" clip-rule="evenodd" d="M31.9836 65C49.6737 65 64 50.3931 64 32.482C64 14.6038 49.6737 0 31.9836 0C14.3291 0 0 14.6038 0 32.482C0 50.3931 14.3291 65 31.9836 65ZM57.1453 44.8978C57.52 40.8638 57.5566 36.7251 57.5566 32.482C57.5566 28.2738 57.5201 24.135 57.1453 20.101C56.9031 17.8759 55.8429 17.3892 53.8185 17.1807C46.8953 16.4159 39.1824 16.2399 31.9836 16.2769C24.819 16.2399 17.1056 16.416 10.181 17.1807C8.15886 17.3892 7.09596 17.8759 6.85605 20.101C6.47911 24.135 6.44481 28.2738 6.44481 32.482C6.44481 36.7251 6.47905 40.8638 6.85605 44.8978C7.09596 47.1239 8.15886 47.6109 10.181 47.8195C17.1056 48.5848 24.819 48.7237 31.9836 48.7237C39.1824 48.7237 46.8953 48.5847 53.8185 47.8195C55.8429 47.6109 56.9031 47.1239 57.1453 44.8978Z" fill="#AAAAAA"/>
<path fill-rule="evenodd" clip-rule="evenodd" d="M18.9911 32.482C18.9911 25.2482 24.7848 19.3358 31.9836 19.3358C39.2166 19.3358 45.0098 25.2482 45.0098 32.482C45.0098 39.7506 39.2166 45.6282 31.9836 45.6282C24.7848 45.6282 18.9911 39.7506 18.9911 32.482Z" fill="#AAAAAA"/>
</svg>
