<svg width="94" height="43" viewBox="0 0 94 43" fill="none" xmlns="http://www.w3.org/2000/svg">
<path d="M21.655 35.8174C13.6439 35.8174 7.12652 29.4007 7.12652 21.5133C7.12652 13.626 13.6439 7.2093 21.655 7.2093H28.6221V12.4756H21.7124C16.643 12.4756 12.5332 16.5219 12.5332 21.5133C12.5332 26.5048 16.643 30.5511 21.7124 30.5511H29.9616C30.8165 30.5496 31.4037 29.8792 31.401 29.1101V7.97612C31.401 3.57275 35.0282 0 39.5011 0C42.3565 0 45.0393 1.50443 46.4541 3.88563C46.7684 4.41375 56.4598 20.8376 56.4598 20.8376V7.97612C56.4598 3.57275 60.087 0 64.5598 0C67.4152 0 70.0981 1.50444 71.5129 3.88563C71.8268 4.41375 81.5185 20.8376 81.5185 20.8376V0.187189H86.8674V34.8791C86.8674 35.5675 86.2994 36.1272 85.6006 36.1272C85.1594 36.1272 84.7343 35.8916 84.5168 35.5264C84.4948 35.4889 84.0441 34.7232 83.3057 33.4689C81.7263 30.7858 78.8311 25.8673 76.0018 21.0602L75.8099 20.7343C71.535 13.4717 67.5489 6.69987 67.4816 6.58738C66.9432 5.68026 65.938 5.11716 64.8593 5.11716C63.177 5.11716 61.8094 6.46476 61.8094 8.12065V34.8791C61.8094 35.5675 61.2406 36.1272 60.5418 36.1272C60.1006 36.1272 59.6755 35.8916 59.458 35.5264C59.3905 35.4119 55.0926 28.1157 50.9367 21.0598C46.5873 13.6756 42.4787 6.70155 42.4111 6.58738C41.8724 5.68026 40.8671 5.11716 39.7884 5.11716C38.1069 5.11716 36.7386 6.46476 36.7386 8.12065V34.3329C36.7386 35.0198 36.0776 35.8174 35.2254 35.8174H21.655Z" fill="#AAAAAA"/>
<path d="M88.6507 34.8794V0.187039H94V35.0243C94 39.4273 90.3732 43 85.9003 43C83.0449 43 80.3621 41.4956 78.9469 39.1148C78.633 38.5866 68.9412 22.1624 68.9412 22.1624V35.0243C68.9412 39.4273 65.3148 43 60.8415 43C57.9861 43 55.3033 41.4956 53.8885 39.1148C53.6433 38.7031 43.8824 22.1624 43.8824 22.1624V34.3266C43.8895 39.8489 40.5519 42.8428 35.3619 42.8401H21.6615C9.69838 42.8401 0 33.2919 0 21.5132C0 9.73486 9.69838 0.187039 21.6615 0.187039H28.622V5.45372H21.6552C12.6612 5.45372 5.34344 12.658 5.34344 21.5132C5.34344 30.3691 12.6612 37.573 21.6552 37.573H35.2257C36.9813 37.573 38.5214 36.059 38.5214 34.3332V8.1205C38.5214 7.43247 39.0895 6.87282 39.7883 6.87282C40.2294 6.87282 40.6546 7.10883 40.872 7.47398C40.9156 7.54741 42.6974 10.5722 45.0658 14.593C46.3919 16.8443 47.9019 19.4078 49.3938 21.9402C53.7432 29.3248 57.8518 36.2989 57.9194 36.413C58.4589 37.3197 59.4634 37.8829 60.5421 37.8829C62.2239 37.8829 63.5923 36.5356 63.5923 34.8794V8.1205C63.5923 7.43247 64.1603 6.87282 64.8592 6.87282C65.3003 6.87282 65.7262 7.10883 65.9429 7.47398C65.983 7.54076 67.3932 9.93664 69.3671 13.2903C70.8585 15.8241 72.6716 18.9045 74.4588 21.9402C78.8047 29.3244 82.9106 36.2989 82.9781 36.413C83.5169 37.3197 84.5222 37.8829 85.6009 37.8829C87.2831 37.8829 88.6507 36.5356 88.6507 34.8794Z" fill="#AAAAAA"/>
</svg>
