<svg width="119" height="56" viewBox="0 0 119 56" fill="none" xmlns="http://www.w3.org/2000/svg">
<path fill-rule="evenodd" clip-rule="evenodd" d="M76.0611 10.2096H82.3608V45.0243H82.3394C82.3533 45.252 82.3608 45.4824 82.3608 45.7138C82.3608 51.2951 78.1661 55.8405 72.9367 56H69.1986V50.5975H70.0396C73.3645 50.5975 76.0611 48.1017 76.0611 45.0247V10.2096ZM76.0611 6.64485H82.3608V0H76.0611V6.64485ZM21.9045 43.6622L38.5836 10.4424H30.7419L19.2915 35.8563L7.84103 10.4424H0L16.6781 43.6619L21.9045 43.6622ZM63.472 42.3494C66.2804 40.7792 68.615 38.4945 70.2133 35.7501C70.7328 34.8575 71.1748 33.9167 71.5305 32.9358H64.5087C62.6195 36.9482 58.8489 39.6849 54.5069 39.6849C48.7034 39.6849 43.9211 34.7951 43.2864 28.5061H72.4961C72.535 28.0356 72.5547 27.5603 72.5547 27.08C72.5547 26.0791 72.469 25.0982 72.3037 24.1426C70.8693 15.8273 63.4456 9.48946 54.5065 9.48946C44.5405 9.48946 36.4587 17.3665 36.4587 27.0796C36.4587 36.7927 44.5405 44.6701 54.5065 44.6701C57.7698 44.6705 60.8305 43.8262 63.472 42.3494ZM65.4906 24.1426H43.5235C44.7092 18.5984 49.1776 14.4747 54.5069 14.4747C59.8361 14.475 64.3045 18.5984 65.4906 24.1426ZM112.789 27.6952C111.08 28.4259 109.364 28.9086 107.695 29.2351C105.271 29.71 102.947 29.8568 100.898 29.9603C99.4938 30.0312 97.0606 29.9941 95.3045 30.6606C93.5047 31.3437 92.998 32.9574 93.2646 34.5809C94.3799 41.3981 104.194 40.4624 108.63 37.7497C112.278 35.519 113.41 31.936 112.789 27.6952ZM119 21.0551V43.5091H112.789V40.6608C110.713 42.3312 108.836 43.4173 106.636 44.1021C103.12 45.1964 98.8208 45.4679 95.269 44.4876C90.0755 43.0544 85.3951 39.2157 85.9587 33.1777C86.3749 28.7146 88.6584 26.3298 91.8377 25.3964C96.5553 24.0117 103.484 25.3677 108.105 24.2607C110.473 23.6936 112.788 22.7994 112.788 19.8829C112.788 16.9489 108.793 14.5698 103.867 14.5698C101.619 14.5698 99.5646 15.0657 97.9954 15.884C95.8556 16.9995 94.9465 18.3957 94.9465 20.7755H87.8527C87.8527 18.9465 87.9085 17.7497 88.7278 16.2085C91.4363 11.1147 98.3236 9.44561 103.615 9.44561C109.324 9.44561 114.307 11.3025 116.962 14.0598C118.989 16.1647 119 18.2695 119 21.0551Z" fill="#AAAAAA"/>
</svg>
