<svg width="43" height="21" viewBox="0 0 43 21" fill="none" xmlns="http://www.w3.org/2000/svg">
<path fill-rule="evenodd" clip-rule="evenodd" d="M13.5233 20.5325V0H9.17484V7.3701C8.49512 7.22177 7.80272 7.14075 7.10744 7.12819C3.07906 7.12819 0 9.92563 0 14.8208C0 18.273 1.96099 20.9898 5.17513 20.9906C5.9509 20.9973 6.71908 20.8359 7.42783 20.5171C8.13659 20.1983 8.76945 19.7297 9.28373 19.1428V20.5325H13.5233ZM9.17525 16.0497C8.54082 16.7324 7.66942 17.1405 6.74376 17.1882C5.32435 17.1882 4.36422 16.1299 4.36588 14.282C4.36588 12.1931 5.55461 10.884 7.70222 10.884C8.1978 10.879 8.69223 10.9331 9.17525 11.0453V16.0497Z" fill="white"/>
<path d="M26.2921 11.4506V7.3701C25.8371 7.2533 25.3687 7.19836 24.8993 7.20673C23.5061 7.20673 22.1574 7.9421 21.0214 8.8925V7.50281H16.7532V20.5333H21.0925V12.4278C22.1297 11.6682 23.3785 11.2603 24.6595 11.2624C25.2091 11.261 25.757 11.3242 26.2921 11.4506Z" fill="white"/>
<path d="M27.473 20.5056C28.9579 20.5056 30.1617 19.2892 30.1617 17.7888C30.1617 16.2883 28.9579 15.072 27.473 15.072C25.988 15.072 24.7842 16.2883 24.7842 17.7888C24.7842 19.2892 25.988 20.5056 27.473 20.5056Z" fill="#01EFAE"/>
<path d="M38.9463 7.09208C34.7312 7.09208 32.0425 10.1138 32.0425 14.2471C32.0425 18.2457 34.2699 20.9894 38.2272 20.9797C39.7648 21.0398 41.2904 20.6839 42.6463 19.9487V16.389C41.7068 16.8288 40.6824 17.0524 39.647 17.0437C37.6507 17.0437 36.5148 15.9779 36.5148 14.1039C36.5148 12.1939 37.6237 11.0016 39.7713 11.0016C40.7269 10.9912 41.6727 11.1964 42.5399 11.6022V7.93496C41.4292 7.35851 40.1946 7.06893 38.9463 7.09208Z" fill="white"/>
</svg>
