<svg width="107" height="57" viewBox="0 0 107 57" fill="none" xmlns="http://www.w3.org/2000/svg">
<path fill-rule="evenodd" clip-rule="evenodd" d="M31.0273 29.9886C23.9572 29.9886 20.6246 25.686 20.6246 16.3776C20.624 6.89396 25.3531 3.11804 31.5226 3.11804C38.5931 3.11804 41.9707 7.33295 41.9707 16.685C41.9707 26.1249 37.1969 29.9886 31.0273 29.9886ZM31.1175 28.452C33.3242 28.452 35.4858 27.003 35.4858 16.7288C35.4858 6.23518 33.5944 4.65465 31.3877 4.65465C29.2261 4.65465 27.0644 6.06007 27.0644 16.2901C27.0644 26.7836 28.9559 28.452 31.1175 28.452Z" fill="#AAAAAA"/>
<path d="M59.1741 29.5056H43.2318L43.2317 28.3201L45.5735 27.7931V5.31298L43.4118 4.78598V3.60066H53.9952V4.78598L51.6534 5.31298V27.749H55.7065L57.9132 21.6462H59.1741V29.5056Z" fill="#AAAAAA"/>
<path d="M61.2905 4.78598V3.60066L71.4684 3.60036V4.78584L69.5319 5.31268V15.85H75.3862V5.31268L73.5848 4.78584V3.60036H83.4476V4.78584L81.4661 5.31268V27.793L83.6277 28.3198V29.5053H73.5849V28.3198L75.3863 27.793V17.6066H69.532V27.793L71.4685 28.3198V29.5053H61.2905V28.3198L63.4521 27.793V5.35676L61.2905 4.78598Z" fill="#AAAAAA"/>
<path fill-rule="evenodd" clip-rule="evenodd" d="M92.1388 29.5056H85.3387L85.3383 28.3201L87.2748 27.7933L93.7149 3.55703H97.4979L105.019 27.7933L107 28.3201V29.5056H96.2819V28.3201L98.6688 27.7933L96.5522 21.6022H90.8779L89.3917 27.7933L92.1388 28.3201V29.5056ZM93.4451 11.6354L91.3736 19.802H96.0121L93.4451 11.6354Z" fill="#AAAAAA"/>
<path d="M0.0901017 1.36104V0L18.5544 0.000298835V8.69384H17.0232L14.5012 1.97634H9.54742V13.6996H13.4204L14.3661 10.0993H15.8073V19.6267H14.3661L13.4204 15.7191H9.54742V27.5736L13.1502 28.1444V29.5056H0V28.1444L2.8372 27.5736V1.93197L0.0901017 1.36104Z" fill="#AAAAAA"/>
<path d="M30.6479 40.3929L32.743 46.7362H39.5226L34.0378 50.6566L36.1328 57L30.6479 53.0796L25.1631 57L27.2581 50.6566L21.7733 46.7362H28.5529L30.6479 40.3929Z" fill="#AAAAAA"/>
<path d="M53.6654 40.3929L55.7604 46.7362H62.5401L57.0552 50.6566L59.1502 57L53.6654 53.0796L48.1805 57L50.2756 50.6566L44.7907 46.7362H51.5703L53.6654 40.3929Z" fill="#AAAAAA"/>
<path d="M76.6828 40.3929L78.7778 46.7362H85.5575L80.0726 50.6566L82.1677 57L76.6828 53.0796L71.198 57L73.293 50.6566L67.8081 46.7362H74.5878L76.6828 40.3929Z" fill="#AAAAAA"/>
</svg>
