<svg width="310" height="125" viewBox="0 0 310 125" fill="none" xmlns="http://www.w3.org/2000/svg">
<path d="M271.771 119.813C268.56 123.738 262.01 125.618 257.212 123.979C252.414 122.34 244.601 122.475 239.863 124.272C235.118 126.069 228.508 124.423 225.169 120.602C221.83 116.782 215.002 112.992 210.001 112.18C204.993 111.36 200.097 106.63 199.112 101.652C198.135 96.6739 194.111 89.9811 190.186 86.7701C186.253 83.5591 184.38 77.0092 186.02 72.2114C187.659 67.4137 187.524 59.6004 185.727 54.8628C183.929 50.1177 185.584 43.5077 189.396 40.1688C193.217 36.8299 197.007 30.0018 197.819 25.001C198.631 20.0002 203.369 15.0972 208.347 14.1121C213.325 13.1345 220.018 9.11133 223.229 5.1859C226.44 1.26047 232.99 -0.612 237.788 1.01983C242.586 2.65919 250.399 2.52383 255.137 0.726556C259.882 -1.07072 266.492 0.583676 269.831 4.3963C273.17 8.21645 279.998 12.0065 284.999 12.8187C290.007 13.6308 294.903 18.3684 295.888 23.3466C296.865 28.3249 300.889 35.0176 304.814 38.2287C308.74 41.4397 310.62 47.9896 308.98 52.7873C307.341 57.5851 307.476 65.3983 309.273 70.1359C311.071 74.881 309.416 81.4911 305.604 84.8299C301.783 88.1688 297.993 94.997 297.181 99.9977C296.369 105.006 291.631 109.902 286.653 110.887C281.675 111.864 274.982 115.887 271.771 119.813Z" fill="#01EFAE"/>
<path fill-rule="evenodd" clip-rule="evenodd" d="M247.191 92.8217C263.595 92.8217 276.894 79.5233 276.894 63.1188C276.894 46.7143 263.595 33.4158 247.191 33.4158C230.786 33.4158 217.488 46.7143 217.488 63.1188C217.488 79.5233 230.786 92.8217 247.191 92.8217ZM247.191 95.297C264.962 95.297 279.369 80.8903 279.369 63.1188C279.369 45.3472 264.962 30.9406 247.191 30.9406C229.419 30.9406 215.012 45.3472 215.012 63.1188C215.012 80.8903 229.419 95.297 247.191 95.297Z" fill="#005DF9"/>
<path d="M200.52 42.5224L202.688 39.0655L207.904 39.423L205.39 34.7642L207.451 31.4706L217.289 37.6186L215.37 40.6757L209.458 36.974L211.71 40.4196L210.421 42.4774L206.311 41.9791L212.222 45.6893L210.348 48.6789L200.52 42.5224Z" fill="#005DF9"/>
<path d="M216.985 30.4543L213.481 25.4154L216.552 23.2788L220.009 28.2417C221.073 29.7702 221.785 30.2122 222.979 29.3677C224.172 28.5232 223.972 27.659 222.939 26.1754L219.482 21.2182L222.554 19.0787L226.039 24.0867C228.116 27.0706 227.88 29.8941 224.823 32.0223C221.678 34.2011 219.176 33.5987 216.985 30.4543Z" fill="#005DF9"/>
<path d="M239.959 16.5758L236.75 17.4203L238.875 25.5839L235.255 26.5269L233.127 18.3633L229.957 19.1797L229.163 16.1226L239.168 13.5187L239.959 16.5758Z" fill="#005DF9"/>
<path d="M245.722 13.1672L249.463 13.2292L249.274 24.8243L245.533 24.7652L245.722 13.1672Z" fill="#005DF9"/>
<path d="M259.949 26.9666L259.465 23.2423L259.107 23.1353L257.981 22.7919L256.982 26.0686L253.485 25.0101L256.813 13.9921C258.32 14.2812 259.81 14.6514 261.277 15.1012C265.219 16.2919 266.331 18.057 265.525 20.7313C265.12 22.0712 264.242 23.0114 262.944 23.3774L263.769 28.1292L259.949 26.9666ZM259.515 20.2583C261.075 20.7284 261.835 20.5398 262.085 19.7178C262.367 18.803 261.776 18.2906 260.638 17.9472C260.357 17.8599 259.954 17.7586 259.512 17.6488L258.789 20.0416L259.515 20.2583Z" fill="#005DF9"/>
<path d="M273.962 32.4136L270.747 29.9054L268.678 31.2623L265.863 29.0581L276.524 22.6595L279.784 25.2212L276.048 37.0162L273.098 34.7163L273.962 32.4136ZM274.998 29.6323L276.259 26.2543L273.236 28.2586L274.998 29.6323ZM277.771 21.922C277.314 21.5569 276.746 21.3583 276.161 21.359L277.532 19.6136C278.152 19.6366 278.746 19.8665 279.221 20.2667C280.172 21.0071 280.147 21.8206 281.042 22.5188C281.494 22.8828 282.058 23.0815 282.638 23.0818L281.276 24.8299C280.657 24.8101 280.063 24.5853 279.587 24.1909C278.641 23.4449 278.635 22.5863 277.782 21.922H277.771Z" fill="#005DF9"/>
<path d="M282.317 35.6256C285.239 33.8746 288.761 34.5756 290.639 37.7087C292.609 40.9939 291.627 44.1833 288.569 46.0215C285.636 47.7809 282.162 47.094 280.265 43.9299C278.286 40.6279 279.291 37.4413 282.317 35.6256ZM286.638 42.7955C288.234 41.8384 288.707 40.6251 287.95 39.3639C287.218 38.1479 285.74 37.9564 284.251 38.8516C282.7 39.7806 282.207 41.0276 282.953 42.2747C283.699 43.5218 285.132 43.6991 286.638 42.7955Z" fill="#005DF9"/>
<path d="M211.87 90.6998C208.805 92.448 205.655 91.5049 203.645 87.9749L201.137 83.5665L211.139 77.8717C212.035 79.1261 212.866 80.4255 213.63 81.7649C215.727 85.4638 215.37 88.7096 211.87 90.6998ZM210.038 87.4682C211.946 86.3787 211.865 84.9797 211.074 83.5919C210.925 83.3301 210.683 82.9388 210.393 82.4658L205.694 85.1429L206.429 86.4378C207.307 87.9917 208.45 88.383 210.038 87.4682Z" fill="#005DF9"/>
<path d="M217.391 100.755L214.32 98.0671L212.177 99.3057L209.483 96.9439L220.499 91.1731L223.62 93.9037L219.212 105.459L216.397 102.996L217.391 100.755ZM218.593 98.0361L220.043 94.7341L216.909 96.5639L218.593 98.0361Z" fill="#005DF9"/>
<path d="M229.98 110.008L230.72 107.086C231.94 107.983 233.324 108.631 234.793 108.995C235.945 109.276 236.702 109.403 236.837 108.871C236.953 108.407 236.702 108.105 235.221 107.585C232.08 106.478 231.367 104.964 231.877 102.951C232.533 100.356 235.21 99.8236 237.91 100.508C239.272 100.832 240.546 101.454 241.64 102.329L240.902 105.234C240.136 104.584 238.49 103.855 237.459 103.596C236.429 103.337 235.635 103.207 235.489 103.739C235.371 104.204 235.686 104.485 237.141 105.017C240.072 106.09 241.046 107.452 240.488 109.651C239.875 112.077 237.597 112.908 234.329 112.083C232.62 111.647 230.987 110.867 229.98 110.008Z" fill="#005DF9"/>
<path d="M252.621 110.805L248.553 111.115L247.94 113.51L244.367 113.792L247.948 101.884L252.084 101.563L257.263 112.804L253.53 113.085L252.621 110.805ZM251.518 108.046L250.175 104.699L249.291 108.218L251.518 108.046Z" fill="#005DF9"/>
<path d="M259.715 106.467L257.229 100.86L260.641 99.3422L263.093 104.868C263.848 106.571 264.464 107.12 265.793 106.543C267.122 105.966 267.093 105.054 266.356 103.402L263.915 97.8841L267.336 96.3668L269.81 101.943C271.285 105.265 270.517 107.993 267.11 109.505C263.608 111.044 261.269 109.969 259.715 106.467ZM261.404 95.1676L264.501 93.7938L263.023 97.4534L260.208 98.6976L261.404 95.1676Z" fill="#005DF9"/>
<path d="M281.563 91.2856C284.009 93.8192 283.871 97.1128 280.946 99.9278L277.287 103.444L269.312 95.1535C270.304 93.9786 271.356 92.8558 272.465 91.7895C275.539 88.8394 278.77 88.3862 281.563 91.2856ZM278.891 93.8558C277.366 92.2737 276.028 92.6988 274.88 93.8051C274.663 94.0134 274.342 94.3484 273.959 94.7397L277.709 98.6385L278.782 97.6054C280.065 96.3752 280.158 95.1732 278.891 93.8558Z" fill="#005DF9"/>
<path d="M290.315 81.5738L292.916 82.9503L288.792 90.7564L278.545 85.3234L282.599 77.6609L285.2 79.0374L282.849 83.4739L284.102 84.1383L286.205 80.1747L288.696 81.495L286.593 85.4585L287.894 86.1482L290.315 81.5738Z" fill="#005DF9"/>
<path d="M247.045 79.3064C246.069 79.3027 245.105 79.1055 244.206 78.7262C243.308 78.3468 242.494 77.7929 241.811 77.0966C241.018 76.3027 240.196 75.4498 239.343 74.5968C239.057 74.3054 238.865 73.9358 238.79 73.5349C238.714 73.134 238.76 72.7198 238.92 72.3448C239.027 72.0962 239.181 71.8706 239.374 71.6804C239.567 71.491 239.795 71.3414 240.046 71.2404C240.297 71.1394 240.565 71.0888 240.835 71.0917C241.106 71.0946 241.373 71.1508 241.622 71.2571C241.87 71.3635 242.095 71.5179 242.284 71.7114C243.129 72.5953 243.987 73.4173 244.781 74.2449C245.085 74.5522 245.447 74.7961 245.845 74.9626C246.244 75.1291 246.672 75.2148 247.104 75.2148C247.536 75.2148 247.963 75.1291 248.362 74.9626C248.761 74.7961 249.122 74.5522 249.426 74.2449C251.129 72.4799 253.128 70.4475 255.039 68.4769C256.655 66.7879 258.243 65.1805 259.507 63.8856C260.303 63.0677 260.896 62.0744 261.238 60.9856C261.58 59.8968 261.662 58.7428 261.477 57.6165C261.066 55.2913 259.862 52.4087 256.303 51.705C255.183 51.4916 254.031 51.5042 252.915 51.742C251.799 51.9799 250.742 52.4381 249.806 53.09C249.751 53.1204 249.701 53.1604 249.66 53.2082L249.162 53.4137C248.467 53.8584 247.654 54.0822 246.83 54.0555C246.006 54.0289 245.209 53.7531 244.545 53.2645L244.134 52.9689C244.106 52.9408 244.075 52.9098 244.047 52.9098C244.018 52.9098 241.578 50.9393 238.58 51.4685C235.582 51.9977 233.729 53.6164 232.82 56.4736C231.911 59.3309 232.496 61.7715 234.582 63.9476C234.771 64.1423 234.92 64.3724 235.02 64.6248C235.12 64.8771 235.169 65.1467 235.164 65.4181C235.16 65.6895 235.102 65.9572 234.993 66.2061C234.885 66.4549 234.728 66.6798 234.533 66.868C234.337 67.0562 234.106 67.2039 233.853 67.3026C233.601 67.4013 233.331 67.4491 233.059 67.4432C232.788 67.4373 232.521 67.3779 232.272 67.2683C232.024 67.1588 231.8 67.0013 231.612 66.8048C228.468 63.4774 227.528 59.4857 228.907 55.1787C230.287 50.8717 233.375 48.1721 237.873 47.3783C242.518 46.5535 246.104 49.2615 246.634 49.6725L246.985 49.9371L247.309 49.7316C248.707 48.7469 250.288 48.052 251.959 47.688C253.63 47.3239 255.357 47.2981 257.038 47.6119C261.506 48.4958 264.591 51.8823 265.444 56.8565C265.743 58.6266 265.618 60.4424 265.08 62.1551C264.542 63.8677 263.605 65.4284 262.347 66.7091C261.083 68.004 259.532 69.6255 257.877 71.3032C255.968 73.2738 253.97 75.3062 252.264 77.0712C251.587 77.7782 250.776 78.3419 249.877 78.7288C248.979 79.1157 248.012 79.3178 247.033 79.3233L247.045 79.3064Z" fill="#005DF9"/>
<path d="M248.652 71.8409H248.593C248.354 71.8343 248.123 71.7492 247.937 71.5988C247.75 71.4466 247.617 71.2384 247.557 71.0049L244.953 61.9208L243.295 67.7788C243.224 68.023 243.076 68.2374 242.873 68.3897C242.669 68.5394 242.422 68.6176 242.169 68.6121H238.737V66.2925H241.271L243.785 57.3886C243.852 57.1473 243.996 56.9347 244.196 56.7833C244.392 56.6334 244.633 56.5523 244.88 56.5525C245.131 56.5565 245.374 56.6392 245.575 56.789C245.777 56.9401 245.927 57.1494 246.006 57.3886L248.787 67.1595L250.327 63.3649C250.41 63.1511 250.557 62.9678 250.747 62.8395C250.937 62.7112 251.162 62.6441 251.391 62.647C251.623 62.6506 251.848 62.7231 252.039 62.8553C252.228 62.9905 252.374 63.1784 252.458 63.3958L253.818 66.7429H262.612V69.0738H253.041C252.809 69.0702 252.584 68.9977 252.393 68.8654C252.203 68.7315 252.058 68.5431 251.977 68.325L251.414 66.8921L249.696 71.1147C249.61 71.3292 249.464 71.5141 249.274 71.6467C249.089 71.769 248.874 71.8364 248.652 71.8409Z" fill="#FC5BB3"/>
<path d="M202.327 65.9035C203.865 65.9035 205.111 64.6568 205.111 63.1189C205.111 61.581 203.865 60.3342 202.327 60.3342C200.789 60.3342 199.542 61.581 199.542 63.1189C199.542 64.6568 200.789 65.9035 202.327 65.9035Z" fill="#005DF9"/>
<path d="M292.054 65.9035C293.592 65.9035 294.839 64.6568 294.839 63.1189C294.839 61.581 293.592 60.3342 292.054 60.3342C290.517 60.3342 289.27 61.581 289.27 63.1189C289.27 64.6568 290.517 65.9035 292.054 65.9035Z" fill="#005DF9"/>
<path fill-rule="evenodd" clip-rule="evenodd" d="M18.5462 70.3766V43H12.5826V52.8268C11.6504 52.629 10.7009 52.521 9.74734 52.5043C4.22271 52.5043 0 56.2342 0 62.7611C0 67.364 2.68935 70.9864 7.09732 70.9875C8.16123 70.9964 9.21472 70.7811 10.1867 70.3561C11.1587 69.9311 12.0267 69.3062 12.732 68.5237V70.3766H18.5462ZM12.5832 64.3996C11.7131 65.3099 10.518 65.8539 9.24857 65.9176C7.30196 65.9176 5.98521 64.5065 5.98749 62.0427C5.98749 59.2574 7.61775 57.512 10.563 57.512C11.2427 57.5053 11.9208 57.5775 12.5832 57.727V64.3996Z" fill="#005DF9"/>
<path d="M36.0578 58.2674V52.8268C35.4337 52.6711 34.7914 52.5978 34.1476 52.609C32.2369 52.609 30.3872 53.5895 28.8293 54.8567V53.0037H22.9758V70.3777H28.9268V59.5704C30.3493 58.5577 32.0619 58.0137 33.8187 58.0165C34.5724 58.0147 35.3238 58.0989 36.0578 58.2674Z" fill="#005DF9"/>
<path d="M37.6772 70.3406C39.7137 70.3406 41.3647 68.7188 41.3647 66.7182C41.3647 64.7176 39.7137 63.0958 37.6772 63.0958C35.6407 63.0958 33.9897 64.7176 33.9897 66.7182C33.9897 68.7188 35.6407 70.3406 37.6772 70.3406Z" fill="#01EFAE"/>
<path d="M151.825 43H145.84L145.84 64.2439C145.84 68.3803 147.541 70.9864 151.655 70.9864C153.183 71.0648 154.71 70.8033 156.121 70.2215V65.5469C155.437 65.7842 154.717 65.9054 153.991 65.9053C152.178 65.9053 151.825 64.6739 151.825 63.2276V43Z" fill="#005DF9"/>
<path d="M104.476 65.0452V69.3967C106.851 70.4634 109.436 71.0059 112.048 70.9858C117.695 70.9858 120.42 68.8821 120.42 65.2238C120.42 61.7095 118.4 59.8941 113.654 59.3901C111.099 59.1034 110.43 58.8884 110.43 57.9796C110.43 56.9632 111.912 56.8916 113.508 56.8916C114.819 56.8916 117.874 57.3222 119.322 58.0154V53.7709C117.299 52.8612 115.096 52.404 112.872 52.432C108.444 52.432 104.682 54.3566 104.682 58.1582C104.682 61.5661 106.386 63.4219 111.424 63.8138C114.151 64.0647 114.686 64.3514 114.686 65.2602C114.686 66.2766 113.335 66.4199 111.351 66.4199C108.988 66.4239 106.649 65.9562 104.476 65.0452Z" fill="#005DF9"/>
<path d="M53.4122 52.4561C47.6317 52.4561 43.9442 56.485 43.9442 61.9962C43.9442 67.3276 46.999 70.9859 52.4261 70.973C54.5348 71.0531 56.6271 70.5785 58.4866 69.5983V64.852C57.1981 65.4384 55.7932 65.7365 54.3733 65.725C51.6355 65.725 50.0776 64.3038 50.0776 61.8052C50.0776 59.2585 51.5984 57.6688 54.5437 57.6688C55.8542 57.655 57.1514 57.9285 58.3406 58.4695V53.58C56.8175 52.8114 55.1243 52.4252 53.4122 52.4561Z" fill="#005DF9"/>
<path fill-rule="evenodd" clip-rule="evenodd" d="M70.547 52.4684C64.8274 52.4684 60.9331 56.4475 60.9331 61.7078C60.9331 67.149 64.5812 70.9864 70.547 70.9965C76.3521 70.9965 80.1855 66.9323 80.1855 61.7078C80.1855 56.2342 76.571 52.4684 70.547 52.4684ZM70.5373 57.5355C72.9075 57.5355 74.1855 58.9461 74.1855 61.7078C74.1855 64.2797 72.7741 65.8818 70.5373 65.8801C68.2037 65.8801 66.8892 64.3856 66.8892 61.7078C66.8892 59.1734 68.3348 57.5355 70.5373 57.5355Z" fill="#005DF9"/>
<path d="M101.214 60.8365V70.3766H95.2289V61.817C95.2289 59.0911 94.3767 58.0871 92.3566 58.0871C91.1835 58.136 90.0611 58.5698 89.1684 59.319V70.3772H83.1787V53.006H89.0322V54.8231C90.5536 53.5911 92.5737 52.4679 94.8493 52.4679C99.1962 52.4561 101.214 55.2178 101.214 60.8365Z" fill="#005DF9"/>
<path d="M141.809 53.006V70.376H135.994V68.559C134.512 69.8262 132.55 70.9858 130.287 70.9858C125.93 70.9858 123.91 68.186 123.91 62.5696V53.006H129.895V61.6731C129.895 64.399 130.636 65.3313 132.658 65.3313C133.82 65.2819 134.931 64.8477 135.81 64.0994V53.006H141.809Z" fill="#005DF9"/>
<path d="M171.554 65.1521V69.9342C170.029 70.6542 168.354 71.0143 166.662 70.9858C160.419 70.9858 158.581 67.1725 158.581 61.9956V48.4753H164.567V53.006H171.369V57.6805H164.567V62.2471C164.567 64.5664 165.175 65.8695 168.145 65.8695C169.323 65.8968 170.491 65.651 171.554 65.1521Z" fill="#005DF9"/>
<path fill-rule="evenodd" clip-rule="evenodd" d="M191.986 53.6516V63.7175H192V70.3749H186.256V68.5226C185.564 69.3022 184.709 69.926 183.749 70.3512C182.789 70.7764 181.747 70.9931 180.694 70.9864C176.543 70.9864 173.854 67.3522 173.854 62.7135C173.854 56.2219 178.247 52.4561 185.269 52.4561C187.558 52.5092 189.824 52.9125 191.986 53.6516ZM182.896 65.8717C184.064 65.8717 185.062 65.3341 186.084 64.3895L186.072 64.3889V57.5271C185.622 57.4913 185.122 57.4555 184.623 57.4555C181.508 57.4555 179.841 59.1863 179.841 61.9861C179.841 64.4612 180.985 65.8717 182.896 65.8717Z" fill="#005DF9"/>
</svg>
