<svg width="22" height="22" viewBox="0 0 22 22" fill="none" xmlns="http://www.w3.org/2000/svg">
<path d="M9.70711 5.70711C10.0976 5.31658 10.0976 4.68342 9.70711 4.29289C9.31658 3.90237 8.68342 3.90237 8.29289 4.29289L2.29289 10.2929C2.09763 10.4882 2 10.7441 2 11C2 11.2559 2.09763 11.5118 2.29289 11.7071L8.29289 17.7071C8.68342 18.0976 9.31658 18.0976 9.70711 17.7071C10.0976 17.3166 10.0976 16.6834 9.70711 16.2929L5.41422 12H19C19.5523 12 20 11.5523 20 11C20 10.4477 19.5523 10 19 10H5.41422L9.70711 5.70711Z" fill="white"/>
</svg>
