<svg width="36" height="36" viewBox="0 0 36 36" fill="none" xmlns="http://www.w3.org/2000/svg">
<mask id="mask0" mask-type="alpha" maskUnits="userSpaceOnUse" x="0" y="0" width="36" height="36">
<rect width="36" height="36" fill="#C4C4C4"/>
</mask>
<g mask="url(#mask0)">
<path d="M37.0436 37.7954L35.4348 33.8523C34.2873 31.0398 31.5929 28.8179 28.2236 27.9011L22.5029 26.3486L22.4073 25.1223C23.5042 24.1098 24.3536 22.7429 24.8092 21.1398C25.8667 21.1286 26.8848 20.2286 27.1829 18.9798C27.3854 18.1248 27.2279 17.1292 26.7723 16.4373C26.5754 16.1336 26.3279 15.9142 26.0579 15.7736C26.7498 12.3873 26.0861 11.4142 25.4336 10.4692C25.2254 10.1823 25.0286 9.90107 24.8767 9.53545C24.3142 8.16857 25.3098 7.08857 25.3548 7.04357C25.4561 6.9367 25.4954 6.78482 25.4561 6.6442C25.4167 6.49795 25.3098 6.38545 25.1636 6.34607C20.2642 4.95107 16.6642 5.83982 14.5098 6.82982C12.6761 7.67357 11.5567 8.7142 11.1292 9.1642C10.8536 9.0967 10.4204 9.0517 9.97044 9.2317C9.46419 9.4342 9.08169 9.85045 8.82857 10.4804C8.13107 12.1904 9.24482 14.7892 9.74544 15.8017C9.54857 15.9311 9.36294 16.1111 9.21107 16.3473C8.74982 17.0504 8.57544 18.1079 8.76669 18.9798C9.04232 20.2117 9.97607 21.1004 10.9548 21.1398C11.4667 22.8161 12.3779 24.2392 13.5423 25.2629L13.4523 26.3204L7.73169 27.8729C4.35669 28.7842 1.66232 31.0061 0.514819 33.8186L-1.09393 37.7617C-1.13893 37.8686 -1.13331 37.9867 -1.08831 38.0879C-1.04331 38.1948 -0.958931 38.2736 -0.852056 38.3129C-0.733931 38.3579 7.33794 41.3729 18.4361 41.3729C23.9992 41.3729 30.3273 40.6136 36.7961 38.3523C36.9029 38.3129 36.9929 38.2342 37.0436 38.1273C37.0886 38.0261 37.0886 37.9023 37.0436 37.7954ZM9.60482 10.7954C9.76794 10.3904 9.99294 10.1317 10.2742 10.0136C10.6679 9.85045 11.0842 10.0248 11.0842 10.0248C11.2586 10.1036 11.4611 10.0586 11.5848 9.9067C11.7592 9.69295 15.8936 4.85545 24.3479 6.99295C23.9936 7.5892 23.5942 8.62982 24.0948 9.84482C24.2804 10.2948 24.5111 10.6267 24.7304 10.9473C25.3211 11.8023 25.8779 12.6123 25.1636 15.8748L24.2636 17.2529L24.1398 14.4967L24.4548 12.3479C24.4717 12.2242 24.4323 12.0948 24.3479 12.0048C24.2636 11.9092 24.1342 11.8642 24.0161 11.8698L17.9973 12.1961L11.8436 11.8698C11.7086 11.8642 11.5961 11.9148 11.5061 12.0104C11.4217 12.1061 11.3823 12.2298 11.3992 12.3592L11.7479 14.6204L11.6129 17.3204L10.6848 15.7961C10.1842 14.8961 9.01982 12.2411 9.60482 10.7954ZM11.6692 20.5942C11.6636 20.5717 11.6467 20.5492 11.6354 20.5323C11.6242 20.5098 11.6129 20.4817 11.6017 20.4592C11.5848 20.4311 11.5567 20.4142 11.5342 20.3917C11.5173 20.3804 11.5061 20.3636 11.4892 20.3523C11.4611 20.3298 11.4217 20.3242 11.3879 20.3129C11.3711 20.3073 11.3542 20.3017 11.3373 20.2961C11.3036 20.2904 11.2754 20.2904 11.2417 20.2961C11.2192 20.2961 11.2023 20.2904 11.1798 20.2961C10.5217 20.4254 9.79607 19.7392 9.58794 18.8054C9.44169 18.1473 9.57669 17.3317 9.91419 16.8142C9.97607 16.7242 10.0548 16.6229 10.1561 16.5442L11.6129 18.9348C11.6917 19.0642 11.8267 19.1373 11.9729 19.1373C12.0067 19.1373 12.0404 19.1317 12.0742 19.1261C12.2542 19.0811 12.3836 18.9236 12.3892 18.7379L12.5973 14.6261C12.5973 14.5979 12.5973 14.5698 12.5917 14.5417L12.3161 12.7529L17.9973 13.0398L23.5548 12.7417L23.3073 14.4179C23.3073 14.4292 23.3129 14.4461 23.3073 14.4573C23.3073 14.4686 23.3017 14.4798 23.3017 14.4967L23.4817 18.6029C23.4873 18.7886 23.6167 18.9404 23.7911 18.9911C23.9654 19.0361 24.1567 18.9686 24.2579 18.8167L25.7317 16.5611C25.8723 16.6511 25.9848 16.7861 26.0579 16.9042C26.3842 17.4048 26.5023 18.1642 26.3561 18.7886C26.1311 19.7336 25.3267 20.4142 24.6011 20.2848C24.4942 20.2679 24.3873 20.2961 24.2973 20.3523C24.1904 20.4029 24.1061 20.4986 24.0723 20.6223C23.2792 23.8679 20.7142 26.1348 17.8398 26.1348C15.0779 26.1404 12.5354 23.8567 11.6692 20.5942ZM17.8454 26.9842C19.2011 26.9842 20.4948 26.5398 21.6086 25.7692L21.6817 26.6973C21.6761 27.8729 20.9561 28.5367 20.3542 28.8911C19.0098 29.6673 16.9736 29.6617 15.6179 28.8798C15.0048 28.5254 14.2679 27.8504 14.2679 26.6636L14.3354 25.8761C15.3929 26.5792 16.5967 26.9842 17.8454 26.9842ZM-0.148931 37.6717L1.29669 34.1392C2.34857 31.5686 4.83482 29.5323 7.94544 28.6829L13.4692 27.1867C13.6267 28.1936 14.2229 29.0429 15.1961 29.5998C16.0117 30.0667 17.0073 30.3029 18.0029 30.3029C18.9929 30.3029 19.9773 30.0723 20.7817 29.6054C21.7436 29.0486 22.3342 28.2104 22.4917 27.2148L28.0154 28.7111C31.1317 29.5548 33.6179 31.5911 34.6642 34.1617L36.1042 37.6942C18.7792 43.6004 2.59607 38.6111 -0.148931 37.6717Z" fill="#AAAAAA" stroke="#AAAAAA" stroke-width="0.5"/>
</g>
</svg>
