<svg width="136" height="20" viewBox="0 0 136 20" fill="none" xmlns="http://www.w3.org/2000/svg">
<path fill-rule="evenodd" clip-rule="evenodd" d="M13.1346 19.5584V0H8.9153V7.01913C8.26194 6.88931 7.58443 6.78596 6.90606 6.78596C2.98843 6.78596 0 9.45422 0 14.1177C0 17.4086 1.90839 19.9991 5.02267 19.9991C6.88107 19.9991 8.13695 19.1698 9.01615 18.2371V19.5584H13.1346ZM8.9153 15.2836C8.21194 15.9575 7.40859 16.3717 6.55438 16.3717C5.17351 16.3717 4.24432 15.3613 4.24432 13.6001C4.24432 11.6049 5.39935 10.3613 7.48358 10.3613C8.0111 10.3613 8.48863 10.4134 8.9153 10.5167V15.2836Z" fill="white"/>
<path d="M25.5409 10.9054V7.01913C25.0892 6.91578 24.7875 6.86368 24.1842 6.86368C22.8283 6.86368 21.5224 7.5632 20.4174 8.47028V7.14896H16.2739V19.5584H20.4932V11.8381C21.5733 11.0873 22.7283 10.7243 23.9592 10.7243C24.4608 10.7243 24.9884 10.7755 25.5409 10.9054Z" fill="white"/>
<path d="M31.1273 13.5736C31.1273 9.63529 33.739 6.76033 37.8325 6.76033C39.1384 6.76033 40.1434 6.99351 41.3235 7.5632V11.0608C40.5701 10.6978 39.6409 10.4911 38.6367 10.4911C36.5525 10.4911 35.4724 11.6314 35.4724 13.4447C35.4724 15.2323 36.5775 16.2427 38.5109 16.2427C39.5909 16.2427 40.5951 16.0096 41.4243 15.6209V19.0152C40.1434 19.6891 38.9384 20 37.13 20C33.2865 19.9991 31.1273 17.3821 31.1273 13.5736Z" fill="white"/>
<path fill-rule="evenodd" clip-rule="evenodd" d="M49.9629 6.75948C45.9195 6.75948 43.1569 9.60967 43.1569 13.3661C43.1569 17.2523 45.7436 19.9991 49.9629 19.9983C54.0814 19.9983 56.794 17.0969 56.794 13.3661C56.794 9.45422 54.2323 6.75948 49.9629 6.75948ZM49.9629 10.3869C51.6455 10.3869 52.5497 11.3973 52.5497 13.3661C52.5497 15.2058 51.5446 16.3461 49.9629 16.3452C48.3054 16.3452 47.3762 15.2836 47.3762 13.3661C47.3762 11.5528 48.4062 10.3869 49.9629 10.3869Z" fill="white"/>
<path d="M71.6922 12.7443V19.5576H67.4479V13.4429C67.4479 11.4998 66.8454 10.7747 65.4137 10.7747C64.6103 10.7747 63.882 11.1112 63.1536 11.6553V19.5567H58.9093V7.14896H63.0527V8.44465C64.1328 7.56406 65.5636 6.76033 67.1712 6.76033C70.2605 6.76033 71.6922 8.72907 71.6922 12.7443Z" fill="white"/>
<path d="M74.0032 15.7499V18.8589C75.334 19.5328 77.3933 19.9991 79.3775 19.9991C83.371 19.9991 85.3044 18.4968 85.3044 15.8797C85.3044 13.3661 83.8727 12.0712 80.5075 11.7082C78.7 11.5007 78.2225 11.3452 78.2225 10.6978C78.2225 9.97267 79.2775 9.92057 80.4076 9.92057C81.3368 9.92057 83.496 10.2315 84.526 10.7234V7.69218C83.3951 7.12248 81.7126 6.73386 79.955 6.73386C76.8157 6.73386 74.154 8.10728 74.154 10.8276C74.154 13.2627 75.3599 14.584 78.9258 14.8693C80.8592 15.0504 81.2359 15.2579 81.2359 15.9054C81.2359 16.6314 80.2817 16.7347 78.875 16.7347C77.1174 16.7347 75.234 16.3196 74.0032 15.7499Z" fill="white"/>
<path d="M100.448 7.14896V19.5584H96.3298V18.2627C95.2747 19.1698 93.8939 19.9983 92.2863 19.9983C89.197 19.9983 87.7662 18.0031 87.7662 13.9879V7.1481H92.0105V13.3405C92.0105 15.2836 92.538 15.9575 93.9697 15.9575C94.7731 15.9575 95.4764 15.6209 96.2048 15.0769V7.14896H100.448Z" fill="white"/>
<path d="M107.546 0H103.301V15.1802C103.301 18.1338 104.506 19.9991 107.42 19.9991C108.902 19.9991 109.781 19.8181 110.584 19.4551V16.1129C110.132 16.2684 109.655 16.3717 109.077 16.3717C107.796 16.3717 107.546 15.4903 107.546 14.4542V0Z" fill="white"/>
<path d="M121.509 15.8276V19.2475C120.404 19.766 119.324 19.9991 118.044 19.9991C113.623 19.9991 112.318 17.2788 112.318 13.5736V3.91015H116.562V7.14896H121.384V10.4911H116.562V13.7556C116.562 15.4134 116.988 16.3461 119.099 16.3461C120.053 16.3461 120.755 16.1642 121.509 15.8276Z" fill="white"/>
<path fill-rule="evenodd" clip-rule="evenodd" d="M135.987 7.61274V14.8036H136V19.5584H131.932V18.2371C131.052 19.1698 129.822 19.9991 127.989 19.9991C125.05 19.9991 123.142 17.4086 123.142 14.0921C123.142 9.45507 126.256 6.76033 131.229 6.76033C132.835 6.76033 134.542 7.13615 135.987 7.61274ZM129.546 16.3461C130.374 16.3461 131.077 15.9575 131.806 15.2836H131.805V10.3869C131.479 10.3604 131.127 10.3348 130.776 10.3348C128.566 10.3348 127.386 11.5784 127.386 13.5736C127.386 15.3357 128.19 16.3461 129.546 16.3461Z" fill="white"/>
<path d="M26.5 19C27.8807 19 29 17.8807 29 16.5C29 15.1193 27.8807 14 26.5 14C25.1193 14 24 15.1193 24 16.5C24 17.8807 25.1193 19 26.5 19Z" fill="#01EFAD"/>
</svg>
