<svg width="56" height="56" viewBox="0 0 56 56" fill="none" xmlns="http://www.w3.org/2000/svg">
<circle cx="28" cy="28" r="28" fill="#005DF9"/>
<path fill-rule="evenodd" clip-rule="evenodd" d="M20.0281 22.7646C20.0411 22.7105 20.0586 22.6582 20.08 22.608C20.2365 22.2407 20.5977 22 21 22H35C35.3662 22 35.6985 22.1995 35.8731 22.5123C35.9107 22.5795 35.9407 22.6515 35.9621 22.7272C35.9868 22.8142 35.9992 22.9029 36 22.991C36.0001 22.9973 36.0001 23.0036 36 23.01V33C36 33.5523 35.5522 34 35 34H21C20.4478 34 20 33.5523 20 33V23.01L20.0281 22.7646ZM32.2968 24H23.7032L28 27.6829L32.2968 24ZM22 25.1742L27.3492 29.7593C27.7237 30.0802 28.2763 30.0802 28.6508 29.7593L34 25.1742V32H22V25.1742Z" fill="white"/>
<path d="M20 23C20 22.9216 20.0092 22.8424 20.0281 22.7646Z" fill="white"/>
</svg>
