<svg width="48" height="49" viewBox="0 0 48 49" fill="none" xmlns="http://www.w3.org/2000/svg">
<circle cx="24" cy="24.5" r="24" fill="#005DF9"/>
<path fill-rule="evenodd" clip-rule="evenodd" d="M20.6676 25.3447L19.9708 24.6553C19.2012 23.8938 19.2012 22.659 19.9708 21.8975L24.8484 17.0712C25.6181 16.3096 26.8659 16.3096 27.6356 17.0712L30.4228 19.829C31.1924 20.5906 31.1924 21.8254 30.4228 22.5869L28.3324 24.6553L29.0292 25.3447C29.7988 26.1062 29.7988 27.341 29.0292 28.1025L24.1516 32.9288C23.3819 33.6904 22.1341 33.6904 21.3644 32.9288L18.5772 30.171C17.8076 29.4094 17.8076 28.1746 18.5772 27.4131L20.6676 25.3447ZM21.3644 23.2764L26.242 18.4501L29.0292 21.208L26.9388 23.2763L26.242 22.5868C25.4723 21.8252 24.2245 21.8252 23.4548 22.5868L22.0612 23.9658L21.3644 23.2764ZM26.9388 26.0342L27.6356 26.7236L22.758 31.5499L19.9708 28.792L22.0612 26.7237L22.758 27.4132C23.5277 28.1748 24.7755 28.1748 25.5452 27.4132L26.9388 26.0342ZM25.5452 24.6553L24.1516 26.0343L23.4548 25.3447L24.8484 23.9657L25.5452 24.6553Z" fill="white"/>
</svg>
