<svg width="48" height="49" viewBox="0 0 48 49" fill="none" xmlns="http://www.w3.org/2000/svg">
<circle cx="24" cy="24.5" r="24" fill="#005DF9"/>
<path d="M27.592 26.1651C26.8825 25.7823 26.4331 25.5526 26.2439 25.4761C26.1493 25.4506 26.0665 25.4378 25.9956 25.4378C25.9246 25.4378 25.8655 25.4888 25.8182 25.5909C25.6999 25.7695 25.4871 26.0502 25.1796 26.433C25.085 26.5606 24.9431 26.5734 24.7539 26.4713C24.0916 26.114 23.595 25.7951 23.2639 25.5144C22.8145 25.1316 22.4242 24.6085 22.0931 23.945C22.0222 23.8684 21.9985 23.8046 22.0222 23.7536C22.0458 23.677 22.105 23.5877 22.1996 23.4856C22.3888 23.2815 22.5425 23.0518 22.6608 22.7967C22.7081 22.6946 22.6962 22.567 22.6253 22.4139L22.0222 20.8445C21.9749 20.6914 21.9157 20.6021 21.8448 20.5766C21.7975 20.5255 21.7265 20.5 21.6319 20.5H21.2062C21.017 20.5 20.8396 20.5893 20.6741 20.7679L20.6386 20.8062C20.2129 21.2911 20 21.8652 20 22.5287C20 23.1922 20.2602 23.9195 20.7805 24.7105L20.8514 24.7871C21.8448 26.3182 22.9446 27.3644 24.1508 27.9258C24.7421 28.2065 25.2151 28.3852 25.5698 28.4617C25.8773 28.5128 26.1966 28.5128 26.5277 28.4617C26.7406 28.4362 26.9889 28.3214 27.2727 28.1172C27.5802 27.8876 27.7694 27.6707 27.8404 27.4665C27.935 27.2368 27.9823 27.0199 27.9823 26.8158C28.0059 26.6116 28.0059 26.4841 27.9823 26.433C27.9586 26.382 27.864 26.3182 27.6984 26.2416L27.592 26.1651Z" fill="white"/>
<path d="M24.1458 16.5C19.8125 16.5 16.2917 19.9935 16.2917 24.2933C16.2917 25.7093 16.6771 27.1047 17.4167 28.314L16 32.5L20.3437 31.115C21.5104 31.7558 22.8229 32.0866 24.1458 32.0866C28.4792 32.0866 32 28.593 32 24.2933C32 19.9935 28.4792 16.5 24.1458 16.5Z" stroke="white" stroke-width="2"/>
</svg>
