<svg width="56" height="57" viewBox="0 0 56 57" fill="none" xmlns="http://www.w3.org/2000/svg">
<circle cx="28" cy="28.5" r="28" fill="#005DF9"/>
<path d="M31.592 30.1651C30.8825 29.7823 30.4331 29.5526 30.2439 29.4761C30.1493 29.4506 30.0665 29.4378 29.9956 29.4378C29.9246 29.4378 29.8655 29.4888 29.8182 29.5909C29.6999 29.7695 29.4871 30.0502 29.1796 30.433C29.085 30.5606 28.9431 30.5734 28.7539 30.4713C28.0916 30.114 27.595 29.7951 27.2639 29.5144C26.8145 29.1316 26.4242 28.6085 26.0931 27.945C26.0222 27.8684 25.9985 27.8046 26.0222 27.7536C26.0458 27.677 26.105 27.5877 26.1996 27.4856C26.3888 27.2815 26.5425 27.0518 26.6608 26.7967C26.7081 26.6946 26.6962 26.567 26.6253 26.4139L26.0222 24.8445C25.9749 24.6914 25.9157 24.6021 25.8448 24.5766C25.7975 24.5255 25.7265 24.5 25.6319 24.5H25.2062C25.017 24.5 24.8396 24.5893 24.6741 24.7679L24.6386 24.8062C24.2129 25.2911 24 25.8652 24 26.5287C24 27.1922 24.2602 27.9195 24.7805 28.7105L24.8514 28.7871C25.8448 30.3182 26.9446 31.3644 28.1508 31.9258C28.7421 32.2065 29.2151 32.3852 29.5698 32.4617C29.8773 32.5128 30.1966 32.5128 30.5277 32.4617C30.7406 32.4362 30.9889 32.3214 31.2727 32.1172C31.5802 31.8876 31.7694 31.6707 31.8404 31.4665C31.935 31.2368 31.9823 31.0199 31.9823 30.8158C32.0059 30.6116 32.0059 30.4841 31.9823 30.433C31.9586 30.382 31.864 30.3182 31.6984 30.2416L31.592 30.1651Z" fill="white"/>
<path d="M28.1458 20.5C23.8125 20.5 20.2917 23.9935 20.2917 28.2933C20.2917 29.7093 20.6771 31.1047 21.4167 32.314L20 36.5L24.3437 35.115C25.5104 35.7558 26.8229 36.0866 28.1458 36.0866C32.4792 36.0866 36 32.593 36 28.2933C36 23.9935 32.4792 20.5 28.1458 20.5Z" stroke="white" stroke-width="2"/>
</svg>
