<svg width="56" height="57" viewBox="0 0 56 57" fill="none" xmlns="http://www.w3.org/2000/svg">
<circle cx="28" cy="28.5" r="28" fill="#005DF9"/>
<path fill-rule="evenodd" clip-rule="evenodd" d="M24.6676 28.3447L23.9708 27.6553C23.2012 26.8938 23.2012 25.659 23.9708 24.8975L28.8484 20.0712C29.6181 19.3096 30.8659 19.3096 31.6356 20.0712L34.4228 22.829C35.1924 23.5906 35.1924 24.8254 34.4228 25.5869L32.3324 27.6553L33.0292 28.3447C33.7988 29.1062 33.7988 30.341 33.0292 31.1025L28.1516 35.9288C27.3819 36.6904 26.1341 36.6904 25.3644 35.9288L22.5772 33.171C21.8076 32.4094 21.8076 31.1746 22.5772 30.4131L24.6676 28.3447ZM25.3644 26.2764L30.242 21.4501L33.0292 24.208L30.9388 26.2763L30.242 25.5868C29.4723 24.8252 28.2245 24.8252 27.4548 25.5868L26.0612 26.9658L25.3644 26.2764ZM30.9388 29.0342L31.6356 29.7236L26.758 34.5499L23.9708 31.792L26.0612 29.7237L26.758 30.4132C27.5277 31.1748 28.7755 31.1748 29.5452 30.4132L30.9388 29.0342ZM29.5452 27.6553L28.1516 29.0343L27.4548 28.3447L28.8484 26.9657L29.5452 27.6553Z" fill="white"/>
</svg>
