<svg width="48" height="49" viewBox="0 0 48 49" fill="none" xmlns="http://www.w3.org/2000/svg">
<circle cx="24" cy="24.5" r="24" fill="#005DF9"/>
<path fill-rule="evenodd" clip-rule="evenodd" d="M16.0281 19.2646C16.0411 19.2105 16.0586 19.1582 16.08 19.108C16.2365 18.7407 16.5977 18.5 17 18.5H31C31.3662 18.5 31.6985 18.6995 31.8731 19.0123C31.9107 19.0795 31.9407 19.1515 31.9621 19.2272C31.9868 19.3142 31.9992 19.4029 32 19.491C32.0001 19.4973 32.0001 19.5036 32 19.51V29.5C32 30.0523 31.5522 30.5 31 30.5H17C16.4478 30.5 16 30.0523 16 29.5V19.51L16.0281 19.2646ZM28.2968 20.5H19.7032L24 24.1829L28.2968 20.5ZM18 21.6742L23.3492 26.2593C23.7237 26.5802 24.2763 26.5802 24.6508 26.2593L30 21.6742V28.5H18V21.6742Z" fill="white"/>
<path d="M16 19.5C16 19.4216 16.0092 19.3424 16.0281 19.2646Z" fill="white"/>
</svg>
