<svg width="58" height="51" viewBox="0 0 58 51" fill="none" xmlns="http://www.w3.org/2000/svg">
<path d="M29 47.9999C16.5994 47.9999 6.5 37.9005 6.5 25.5022C6.5 13.104 16.5994 3 29 3C41.4006 3 51.5 13.0994 51.5 25.4977C51.4856 29.595 50.3822 33.6133 48.305 37.1329C47.9389 37.6841 47.3848 38.08 46.7482 38.245C46.1116 38.4101 45.4372 38.3327 44.8535 38.0278C44.3047 37.6691 43.9086 37.1161 43.7429 36.4774C43.5773 35.8388 43.6542 35.1606 43.9584 34.5763C45.6294 31.8489 46.5144 28.705 46.514 25.4977C46.5094 23.1843 46.052 20.8948 45.1681 18.7606C44.2842 16.6265 42.9911 14.69 41.3634 13.0624C39.7357 11.4349 37.8054 10.1485 35.6836 9.27729C33.5618 8.40605 31.2904 7.96715 29 7.98585C26.7079 7.96227 24.4339 8.39786 22.3096 9.26745C20.1852 10.137 18.2526 11.4234 16.6236 13.052C14.9945 14.6807 13.7013 16.6194 12.8187 18.7561C11.9361 20.8927 11.4817 23.1848 11.4817 25.5C11.4817 27.8151 11.9361 30.1072 12.8187 32.2439C13.7013 34.3805 14.9945 36.3192 16.6236 37.9479C18.2526 39.5766 20.1852 40.8629 22.3096 41.7325C24.4339 42.6021 26.7079 43.0377 29 43.0141C30.5961 42.9902 32.1838 42.7757 33.7299 42.375C34.0478 42.2859 34.38 42.2616 34.7073 42.3036C35.0346 42.3456 35.3502 42.453 35.6359 42.6197C35.9215 42.7863 36.1714 43.0088 36.371 43.2741C36.5705 43.5394 36.7157 43.8422 36.798 44.1649C36.8857 44.4851 36.9087 44.8199 36.8656 45.1493C36.8226 45.4787 36.7143 45.796 36.5473 46.0823C36.3804 46.3685 36.1581 46.618 35.8937 46.8157C35.6293 47.0134 35.3282 47.1554 35.0084 47.2332C33.0463 47.7474 31.027 48.0051 29 47.9999" fill="#01EFAE"/>
<path d="M22.5 33.1345V29.4105C24.2133 30.21 26.0848 30.5924 27.9672 30.5275C30.0328 30.5275 31.1261 30.031 31.1261 28.7896C31.1261 27.5481 30.2756 27.0516 27.9672 27.0516H25.7802V23.8263H27.9672C29.7896 23.8263 30.7615 23.2058 30.7615 22.2123C30.7615 21.0953 29.7896 20.4744 27.724 20.4744C25.9798 20.5033 24.2535 20.8393 22.6209 21.4674V17.7416C24.5859 16.9134 26.6921 16.4914 28.8177 16.5001C32.5843 16.5001 35.0141 18.2381 35.0141 21.2176C35.0141 22.7071 34.4067 23.9486 32.8271 24.9416C34.6495 25.6865 35.5 27.176 35.5 29.162C35.5 32.1415 33.1917 34.5 28.5745 34.5C26.1448 34.3742 24.0796 34.0035 22.5 33.1345Z" fill="#F4F4F4"/>
</svg>
